<?xml version="1.0" standalone="no"?>
<!DOCTYPE svg PUBLIC "-//W3C//DTD SVG 20010904//EN"
 "http://www.w3.org/TR/2001/REC-SVG-20010904/DTD/svg10.dtd">
<svg version="1.0" xmlns="http://www.w3.org/2000/svg"
 width="500.000000pt" height="500.000000pt" viewBox="0 0 500.000000 500.000000"
 preserveAspectRatio="xMidYMid meet">

<g transform="translate(0.000000,500.000000) scale(0.100000,-0.100000)"
fill="#000000" stroke="none">
<path d="M1672 4725 c-344 -79 -604 -322 -688 -644 -19 -75 -18 -257 2 -335
48 -188 189 -348 400 -455 59 -30 144 -63 144 -57 0 2 -48 45 -107 96 -160
137 -213 207 -259 338 -75 215 -11 462 164 640 90 92 177 151 283 192 108 41
192 53 333 47 143 -6 230 -31 371 -106 174 -93 472 -288 645 -422 41 -32 76
-56 79 -54 9 10 -59 107 -122 172 l-69 71 29 15 c107 56 307 67 434 24 106
-36 188 -88 262 -167 75 -79 114 -152 129 -241 25 -153 -63 -307 -230 -401
-29 -17 -51 -32 -50 -34 9 -8 159 31 215 56 71 32 162 113 200 178 64 109 80
253 43 396 -42 167 -142 291 -291 365 -115 57 -205 74 -349 68 -146 -6 -248
-33 -388 -103 l-106 -53 -41 35 c-22 19 -69 60 -105 90 -142 123 -326 224
-491 270 -118 33 -335 42 -437 19z"/>
<path d="M3106 3605 c38 -82 57 -201 50 -320 -4 -96 -40 -303 -54 -317 -4 -4
-95 7 -202 23 -469 71 -690 44 -887 -105 -59 -45 -166 -167 -206 -235 l-18
-32 68 44 c210 136 365 186 604 194 232 8 370 -18 633 -121 65 -26 120 -45
121 -44 3 5 33 164 47 253 6 44 12 152 12 240 0 170 -11 235 -56 332 -22 47
-107 143 -127 143 -5 0 1 -25 15 -55z"/>
</g>
</svg>
