<?xml version="1.0" encoding="UTF-8"?>
<svg width="76px" height="65px" viewBox="0 0 76 65" version="1.1" xmlns="http://www.w3.org/2000/svg" xmlns:xlink="http://www.w3.org/1999/xlink">
    <title>Le Casa logo</title>
    <g id="Profile" stroke="none" stroke-width="1" fill="none" fill-rule="evenodd">
        <g id="4.2" transform="translate(-151.000000, -115.000000)" fill-rule="nonzero">
            <g id="Driver-image-avatar" transform="translate(140.000000, 102.000000)">
                <g id="Le-Casa-logo" transform="translate(11.000000, 13.000000)">
                    <path d="M25.4931814,54.5182313 C25.1355448,54.3102399 24.7580627,54.1375853 24.3662009,54.0027673 C23.8716343,53.8441795 23.361697,53.7370074 22.8446565,53.6829887 C21.8256193,54.1045573 20.995089,54.8762719 20.5062323,55.8558128 C21.4998277,57.2984585 23.1975104,58.1057801 24.9574434,57.9725563 C25.9961947,57.8380956 27.0488205,57.8473322 28.0849953,58 C27.833778,57.165237 27.4242959,56.3853418 26.8783781,55.7018895 C26.4891928,55.2312325 26.0205388,54.8307651 25.4931814,54.5182313 Z M17.3931597,29.8773798 L17.3654075,29.8773798 C16.694967,29.9218856 16.0751942,30.2458938 15.6604573,30.7687031 C14.8245674,31.6449428 14.7765254,32.9986627 15.5482419,33.9306931 C15.7518496,34.181789 16.0000469,34.3940708 16.2806586,34.5571251 C17.1155484,34.6029541 17.930455,34.2938143 18.5201402,33.707564 C19.5626576,32.7183981 18.9846879,31.0049574 18.6613145,30.247273 C18.2771189,30.0188932 17.8410468,29.889649 17.3931597,29.8714138 L17.3931597,29.8773798 Z M18.8869519,32.6909544 C18.492388,32.565668 18.337941,33.0668136 17.5910449,32.9415272 C16.8441489,32.8162408 17.5065817,31.8974739 16.8670746,32.0645224 C16.2275674,32.2315709 16.768132,32.9415272 16.768132,32.9415272 C16.4590354,32.8470085 16.2621882,32.5478027 16.3000594,32.2300614 C16.3379306,31.91232 16.5997302,31.666571 16.922579,31.6457079 C17.8854596,31.5192283 18.8869519,32.688568 18.8869519,32.688568 L18.8869519,32.6909544 Z M44.4237998,32.899765 C44.2385177,32.7610715 44.1292115,32.5448892 44.1281786,32.3150952 C44.127286,32.1642875 44.1769289,32.017434 44.2693528,31.8974739 C44.0581948,30.5742108 43.7758463,29.1674236 43.4379935,27.7045557 C42.3505902,27.223066 41.6817172,26.1225751 41.7620021,24.9470618 C40.6703546,24.0957243 39.9989407,22.8234066 39.9170843,21.4509747 C37.5763696,21.0691548 35.2018347,20.9291942 32.8318277,21.0333533 C30.0625743,21.1213187 27.3266575,21.6578241 24.7330126,22.6215076 C24.7752442,23.6667541 24.7197398,26.271518 23.0847734,27.5661441 C23.1364432,28.7610842 22.5477384,29.8945742 21.5354768,30.5491536 C21.5354768,30.5491536 20.4362485,37.9732676 20.9864659,40.0768858 C21.4377408,41.776008 25.0008816,46.6096766 26.3534996,48.3923231 C28.4040804,49.7109388 30.7297704,50.5536954 33.1564077,50.8574821 C37.8006938,49.2011148 41.7817242,46.1091001 44.5094696,42.0397061 C44.9244645,41.3826941 45.116784,40.6119366 45.0584805,39.8394383 C44.9789963,37.5155106 44.7675048,35.1978365 44.4250064,32.8973786 L44.4237998,32.899765 Z M38.3110767,26.1438452 C38.874567,26.1438452 39.3258418,26.909882 39.3258418,27.8572858 C39.3258418,28.8046896 38.874567,29.556408 38.3110767,29.556408 C37.7475864,29.556408 37.2830388,28.8046896 37.2830388,27.8572858 C37.2830388,26.909882 37.7475864,26.142652 38.3110767,26.142652 L38.3110767,26.1438452 Z M27.1269412,26.1438452 C27.6904315,26.1438452 28.1417064,26.909882 28.1417064,27.8572858 C28.1417064,28.8046896 27.6904315,29.556408 27.1269412,29.556408 C26.563451,29.556408 26.0989033,28.8046896 26.0989033,27.8572858 C26.0989033,26.909882 26.563451,26.142652 27.1269412,26.142652 L27.1269412,26.1438452 Z M30.746793,46.3555242 C30.746793,46.3555242 33.8839979,47.1907669 35.3669306,46.090633 C35.3669306,46.0882465 33.7754024,47.9973726 30.746793,46.3531378 L30.746793,46.3555242 Z M40.860659,41.0063916 C39.3264454,41.1196294 37.8158067,40.5830769 36.7050691,39.5303985 L38.3110767,41.8845896 C37.7264618,42.0173336 37.1184898,42.0124291 36.5361427,41.8702711 C36.3633644,43.2676877 35.3480819,44.4205114 33.972081,44.7816884 C33.6713121,44.8471324 33.364222,44.8799738 33.0562585,44.8795311 C32.3502057,44.8917886 31.6638415,44.6491411 31.1256709,44.1970185 C30.4834415,43.5981363 30.028623,42.8294814 29.8152845,41.9824323 C29.4701052,41.985073 29.1255806,41.9522831 28.7872466,41.8845896 L29.5618949,40.86798 L29.4774317,40.2546732 C28.3953608,40.8469007 27.1599915,41.108502 25.9275637,41.0063916 C24.4959389,41.0092086 23.1559562,40.3102422 22.3499435,39.1402209 C22.3499435,39.1402209 23.631371,39.9062577 25.2940896,37.2740501 C26.4702674,35.7520897 28.2031805,34.7470346 30.1205587,34.474794 L29.6379118,34.0846164 C29.1613855,33.4560595 28.8253629,32.7345449 28.6521055,31.9678729 L30.4125601,33.2493737 C31.8300784,34.4331137 33.776659,34.7833922 35.5249974,34.1693339 C36.0607355,33.9306931 36.3273979,33.5977893 36.3141251,33.1801679 C36.1044174,31.7891776 35.3819855,30.5239953 34.2858015,29.6280002 L34.0746435,29.4466333 L34.0746435,25.27042 L35.2293762,28.2379178 L35.2293762,28.9347488 C36.4871679,30.0120741 37.2870412,31.5194563 37.4688578,33.1551106 C37.4863404,33.6323452 37.3262047,34.0993454 37.0187896,34.4676348 C38.8235167,34.749731 40.4243032,35.7712672 41.4277691,37.2812094 C42.9070819,39.9134169 44.0473352,39.1473801 44.0473352,39.1473801 C43.3803788,40.2688565 42.1758723,40.9710785 40.860659,41.0051984 L40.860659,41.0063916 Z M47.2702099,28.6794032 C46.5182383,28.1463429 45.4750954,28.2936316 44.9040335,29.0135003 C45.0029761,29.5015206 45.1007121,29.9752225 45.1863819,30.4453448 C45.5769706,30.0676359 46.1050498,29.8615914 46.6512153,29.8738002 C46.913509,29.8832011 47.1460697,30.0432585 47.246095,30.2832198 C47.3461203,30.5231811 47.2951687,30.7988047 47.1157629,30.9882526 L47.91937,30.8904099 C47.9471222,30.750805 48.0038332,30.5563128 48.073817,30.30574 C48.0605516,29.6725392 47.7667385,29.0770489 47.2702099,28.6770168 L47.2702099,28.6794032 Z M61.9909406,34.8637785 L60.6950337,34.2671766 L60.4537102,34.2671766 C57.3551171,34.2671766 54.4109709,34.1836523 51.875868,34.0285358 C51.8815179,34.2276808 51.9805184,34.4128969 52.1437371,34.5296814 C52.6509171,34.7549157 53.2323132,34.749685 53.7352653,34.515363 C54.889998,33.9998989 56.2003843,35.141795 56.3415586,35.2813998 L56.582882,35.4902105 L56.526171,35.7968638 C56.4505345,36.3670349 56.7430792,36.92322 57.2585877,37.1893327 C58.1220144,37.5513568 59.0249551,37.8132217 59.9493442,37.9696879 C60.3258921,38.0468513 60.7065998,38.1026255 61.0895975,38.1367365 C61.7461682,37.172754 62.0625846,36.0214034 61.989734,34.8613921 L61.9909406,34.8637785 Z M46.7236123,30.2961944 C46.0756588,30.1291458 46.7513645,31.0479128 45.9911956,31.1731992 C45.7582472,31.2242836 45.5146274,31.1948014 45.3010105,31.0896749 L45.3432422,31.3283156 L45.8258891,31.2173477 C46.1359897,31.1481419 46.5015947,31.0920613 46.9118446,31.0359807 C47.0385394,30.8128516 47.1797136,30.4095487 46.7284388,30.2973876 L46.7236123,30.2961944 Z" id="Path_26435" fill="#FBA157"></path>
                    <path d="M23.63555,62.0678834 C23.2723404,62.1189258 22.9066021,62.1512714 22.5398699,62.1647847 C22.0521543,62.182573 21.5637515,62.1640048 21.0789632,62.1092437 C21.033681,62.7385109 21.0243331,63.3697294 21.0509625,64 C22.214776,63.9251888 23.3555111,63.6494682 24.4195699,63.1857931 C24.7264995,63.0507605 25.0252523,62.8988599 25.3143753,62.7308298 L25.6698626,62.5098477 C25.0388692,62.204153 24.3405894,62.0524483 23.63555,62.0678834 Z M15.2645544,40.6113445 C15.2548151,40.0874475 15.2548151,39.5753676 15.2645544,39.075105 C13.2739883,38.7791029 11.6111938,37.4469042 10.9343988,35.6058684 C10.2576038,33.7648325 10.6759285,31.7117911 12.0237764,30.2594538 C12.9958044,29.1414509 14.4129814,28.479004 15.9195276,28.4384191 L15.9767465,28.4384191 L16.6877211,28.4797794 C16.7875497,27.9007353 16.915379,27.2791492 17.0432084,26.6729254 C15.3701874,26.1487968 13.7742355,25.4163258 12.2952615,24.4938288 C10.2368547,23.223381 8.51762027,21.4978676 7.27826434,19.4585084 C4.49093906,23.7196246 3.00739952,28.6613999 3.00012022,33.7089023 C2.9857114,38.3932021 4.26677797,42.9954197 6.70972814,47.0351891 C7.69161839,45.7938687 8.88581232,44.7254287 10.2402527,43.8764443 C11.2583042,42.3776113 12.8672523,41.35182 14.6887137,41.0403099 C14.8665663,40.8803265 15.059341,40.7367214 15.2645544,40.6113445 L15.2645544,40.6113445 Z M30.5845963,44.6398372 C31.1019438,45.0493072 31.7988419,45.1740829 32.4326433,44.9707195 C33.1930099,44.7582752 33.7914882,44.1875696 34.0238142,43.4533876 C33.5465221,42.8117033 32.8602595,42.3449899 32.0759386,42.1286765 C32.2040836,42.6707926 32.242304,43.2292824 32.1891589,43.7830882 C32.0719924,43.2054049 31.7683966,42.6789307 31.3223542,42.279937 C30.8507603,42.6910609 30.2860572,42.9886131 29.6739645,43.1485032 C29.8340041,43.7173513 30.148503,44.234036 30.5845963,44.6445641 L30.5845963,44.6398372 Z M45.1936636,26.8856355 C45.865819,26.8857557 46.5282197,27.0417393 47.1257127,27.3405987 L47.4398077,26.9269958 C49.3286643,24.5655903 51.9989358,22.9089843 55,22.2367384 C54.1475711,20.5194104 53.1089197,18.8952077 51.9016603,17.3916754 C51.9794692,18.6791134 51.6146299,19.955184 50.8644165,21.0195641 C49.2493138,23.1271973 46.7819003,24.4628042 44.0858093,24.688813 C44.3134673,25.4202994 44.5265162,26.1647847 44.724956,26.90927 L45.1936636,26.8856355 Z M42.721079,10.6074055 L42.9341279,10.5802258 L43.6451025,10.5246849 L42.6212503,10 C42.6650775,10.1985294 42.6882086,10.4053309 42.721079,10.6121324 L42.721079,10.6074055 Z M26.3345752,54.2685137 L25.8086488,54.543855 C25.5642377,54.6744893 25.3269309,54.8172735 25.0976741,54.9716387 C25.5492891,55.2784172 25.9584435,55.6402267 26.3150964,56.048188 C26.2409861,55.8851494 26.1886195,55.7135949 26.1592664,55.5376838 C26.1215582,55.2468626 26.1409737,54.9517391 26.2164852,54.6679359 C26.2479325,54.5341341 26.2877759,54.4023232 26.3357926,54.2732405 L26.3345752,54.2685137 Z M47.3825888,43.8941702 C47.0206518,44.101522 46.6865643,44.3515871 46.3879548,44.6386555 C44.9952238,45.9633666 42.9341279,48.3362658 42.9341279,48.3362658 L46.0994258,43.609375 C45.8479529,43.1570332 45.3639997,42.8721921 44.834524,42.8648897 C44.7125361,43.2655794 44.5304023,43.6466397 44.2939885,43.9957983 C42.0986972,47.1577202 39.1741332,49.7792444 35.7525539,51.6521796 C35.9083839,51.8448004 36.078823,52.0799632 36.2638712,52.3423057 C37.4376537,51.9574599 38.5702749,51.4631615 39.6458703,50.866334 L39.7883087,50.7694328 L39.6458703,50.866334 C39.2331641,51.1558561 37.9828715,51.9972426 36.5475306,52.7972689 C36.5486338,52.8078108 36.553863,52.8175396 36.5621397,52.8244485 L37.3437248,53.0997899 C41.9458082,51.4089337 46.1505561,48.8369301 49.7078654,45.5367647 C49.1681436,44.7309475 48.3402898,44.1475222 47.3838063,43.8988971 L47.3825888,43.8941702 Z M41.882275,59.6902574 C41.454717,58.202494 40.6200505,56.8548983 39.4669092,55.7905725 C38.8202262,55.1982203 38.0876867,54.7009571 37.292593,54.3146008 L37.2073735,54.2874212 C37.2073735,54.3016019 37.2219826,54.3287815 37.2219826,54.3429622 C37.3250856,54.7017497 37.3589312,55.0759538 37.3218112,55.4466912 C37.279927,55.8636493 37.1174411,56.260615 36.8531036,56.5917805 L39.2696868,59.985688 L36.0581269,57.1991859 C35.7100814,57.3346673 35.337336,57.400196 34.9624468,57.3918067 C34.6573275,57.3915522 34.3528885,57.3638603 34.0530324,57.3090861 C34.4588053,58.8410994 35.2541244,60.2497912 36.3661347,61.4061187 L37.4618147,62.3302258 C37.9348058,62.668687 38.4447276,62.9556025 38.9823752,63.1857931 C40.0464169,63.6495162 41.187161,63.9252389 42.3509826,64 C42.407746,62.9389745 42.3456999,61.8751027 42.1659344,60.8270746 L41.882275,59.6902574 Z M49.3718568,38.321166 C48.8788762,37.9878996 48.4786023,37.5413061 48.2067837,37.021271 L47.9632993,37.021271 L46.8408359,36.9113708 L46.5705682,37.021271 C46.7130066,38.4003414 46.7836171,39.5596113 46.8262269,40.4565389 C47.1375133,40.6206308 47.4283539,40.8188836 47.6930315,41.0474002 C48.9786634,41.2602151 50.1673866,41.847038 51.1018139,42.7301733 C51.4792175,41.4501437 52.0697512,40.2386442 52.8500323,39.143645 L52.736812,38.8954832 C51.5818151,39.131983 50.3773532,38.9280283 49.3730743,38.3258929 L49.3718568,38.321166 Z M27.3572099,57.0408351 L27.2147715,56.9581145 L27.0723331,57.0550158 C27.6047171,57.9630508 27.975161,58.9518988 28.1680131,59.9797794 C28.6880153,59.1504432 29.0851401,58.2541736 29.3476953,57.3173582 C28.6715879,57.4054734 27.9835331,57.3118724 27.3584273,57.0467437 L27.3572099,57.0408351 Z M27.6554783,52.1957721 C25.1222972,51.2348174 22.8367733,49.7468067 20.9596558,47.8363971 C19.6053173,46.5039623 18.46927,44.9779889 17.5910484,43.3115809 L17.5764393,43.3115809 C17.5160131,43.1672074 17.4639878,43.0196536 17.4206093,42.8696166 C16.997168,42.9182776 16.6148767,43.1390365 16.3687564,43.4770221 L19.6375353,48.3469013 C19.6375353,48.3469013 17.5679174,45.9740021 16.1837083,44.649291 C15.8719253,44.351355 15.52356,44.0917893 15.1464645,43.8764443 C14.1157319,44.0764705 13.2157867,44.6806475 12.6592708,45.5462185 C12.8723197,45.7672006 13.2131979,46.0709034 13.6539048,46.443146 C15.7798088,46.5518603 17.7514721,47.5540842 19.05439,49.1882878 C19.5842502,49.8052589 20.0722472,50.4549997 20.5152967,51.1334034 C22.1631206,52.014676 23.8900323,52.7487866 25.6747323,53.3266807 L26.1154392,53.1198792 C25.0548174,52.5315325 24.0255878,51.8913999 23.0317085,51.2019433 L22.8892701,51.105042 L23.0317085,51.2019433 C24.259478,51.8622861 25.5492828,52.4075554 26.8836326,52.8303571 L27.2391199,52.7204569 C27.3691261,52.5415037 27.508501,52.3691398 27.6566958,52.2040441 L27.6554783,52.1957721 Z M35.6989873,56.0954569 C35.9649512,55.9175026 36.1364643,55.6346966 36.1676949,55.3226103 C36.1899139,55.1004778 36.1705284,54.8762757 36.110476,54.6608456 C36.0095194,54.2970026 35.8665823,53.9453814 35.6843782,53.6126576 C35.4086426,53.1064225 35.0850403,52.626154 34.7177449,52.1780462 C33.8709031,52.5964347 32.9861574,52.9382148 32.0747212,53.1990546 L31.9748926,53.2262342 L31.8616723,53.2262342 C30.8403423,53.1065179 29.8319995,52.8988991 28.8485522,52.6058298 C28.4550387,53.0050126 28.1072597,53.4444223 27.8113084,53.9163603 C27.5895523,54.234569 27.4306205,54.5899939 27.3426008,54.9645483 C27.3061176,55.0994113 27.2966125,55.2398137 27.3146001,55.3781513 C27.3674901,55.6820346 27.5846663,55.9348234 27.8831363,56.039916 C29.0228338,56.3029818 30.2208576,56.181274 31.2797444,55.6948529 L31.9335002,54.0404412 L32.4874273,55.668855 C33.596499,56.1096376 35.1450602,56.4960609 35.6989873,56.0966387 L35.6989873,56.0954569 Z" id="Path_26436" fill="#E21E25"></path>
                    <path d="M20.0521529,21.4946408 L20.3208391,22.6229158 C21.2984873,22.0515238 22.3242829,21.5664783 23.3865253,21.173312 L22.8782,20.2709336 C21.5916526,20.7758789 20.5871048,21.2409602 20.0521529,21.4946408 Z M52.2654588,28.0516821 C54.1874129,27.3184241 54.427052,26.6129503 53.6355168,26.2892054 C52.8439815,25.9654606 54.5541334,24.2585521 56.0561138,23.1580612 C53.6685015,23.6574998 51.538716,24.9931078 50.0518228,26.9234071 C49.3063668,27.9107422 48.7334904,29.0167472 48.3574048,30.1946797 C48.3595585,30.3027943 48.3547071,30.4109347 48.3428812,30.5184245 C48.345058,30.5891974 48.3401929,30.6600112 48.3283577,30.7298251 C48.7789806,30.8442597 49.2366535,30.9290026 49.6984156,30.9835058 C50.1468521,29.7159527 51.0657616,28.6686269 52.2654588,28.0577221 L52.2654588,28.0516821 Z M9.04569794,49.0491932 L9.59638377,47.428053 C8.96145363,48.2434318 8.44745156,49.1458065 8.07019732,50.107404 L8,50.2620284 C8.3125651,51.3681195 8.86221626,52.3932058 9.61090736,53.2663323 C11.8148401,55.6704818 14.6800685,57.3726603 17.8481992,58.1599532 C17.8460829,58.1031988 17.8509607,58.0463998 17.8627228,57.9908327 C17.9100232,57.1271303 18.1211227,56.2802345 18.4848163,55.4950982 C11.8995819,54.9732408 9.04569794,49.0504013 9.04569794,49.0504013 L9.04569794,49.0491932 Z M54.9160126,25.3300509 C54.6328028,26.3592696 57.9115015,25.9509645 57.5157339,26.7542867 C57.1199663,27.5576088 53.8279542,28.5022672 53.3474657,31.2951706 L54.2237219,31.3374507 C55.7777452,31.4075149 57.5859312,31.449795 59.6071298,31.449795 L60.8174283,31.449795 C62.356928,31.435299 63.7560332,31.4075149 64.9856965,31.3507387 C67.0069166,31.3191468 69.0212382,31.106898 71.0045111,30.7165371 C70.9899875,30.6597609 70.9621507,30.6041928 70.9476271,30.5329206 C70.5837978,29.2157441 69.9699562,27.980547 69.1394411,26.894415 C67.0202083,24.1727839 63.8141275,22.7872042 59.6022886,22.7872042 L59.3759627,22.7872042 C58.971803,22.784516 58.5677897,22.8034686 58.1656642,22.8439804 C57.8824543,22.8584764 57.6004548,22.9007565 57.3184552,22.9285406 C56.5692804,23.450398 55.1290252,24.5786729 54.9160126,25.3264269 L54.9160126,25.3300509 Z M48.0778259,53.9850942 C47.9507445,54.3378311 47.5404533,55.1556493 47.1870461,55.8321311 C48.5425265,54.9060181 49.8101638,53.8579246 50.9740703,52.7009868 L51.0587912,52.6309227 C50.7199076,52.6031386 50.2539426,52.5318664 49.7589305,52.4473062 C48.7723563,52.5229458 47.8180721,52.8322929 46.9752439,53.3496845 C46.9752439,53.3496845 48.3089929,53.3376045 48.0838774,53.9863022 L48.0778259,53.9850942 Z M59.6071298,32.9163108 L60.8174283,32.9163108 C65.2263548,32.9708545 69.6331037,32.6926236 74,32.0839967 C73.4069537,31.9571563 72.573058,31.842396 71.5128365,31.7312597 C70.4232948,32.0506357 69.2985754,32.2352316 68.1639404,32.2809012 C66.171789,32.4645177 63.5999046,32.5635739 60.8307416,32.591358 L59.6010783,32.591358 C56.3659503,32.591358 53.3281009,32.4790137 51.0394264,32.2676131 C50.0163039,32.2072457 49.0000946,32.0609628 48.0015771,31.830316 L47.6905303,31.7179717 L46.7017164,31.830316 C46.0965672,31.9148762 45.5991345,31.9849404 45.2045771,32.0719166 C45.5156239,32.1286928 45.9113915,32.198757 46.3628328,32.2555331 C46.8142742,32.3123093 47.2100418,32.3678774 47.7050539,32.4101575 C51.6624729,32.7860199 55.6368563,32.9553709 59.611971,32.9175189 L59.6071298,32.9163108 Z M60.3333089,39.1496072 C60.4325534,41.0111401 60.4882271,46.8071394 57.139331,49.0491932 L51.0079586,49.9660677 C51.0079586,49.9660677 49.5810167,50.1496841 46.9812954,53.3484765 C47.5850756,52.7615228 48.2271314,52.2151155 48.9032495,51.7128402 C49.4829825,51.3601033 52.7035869,51.6983442 52.7459473,51.6983442 L53.4951221,51.7551204 C55.2851206,51.8974064 57.0861715,51.7978539 58.8494829,51.4591596 C63.4691924,47.3833569 62.5372625,40.9386599 62.1838554,39.2039674 C61.5665242,39.2300819 60.9481138,39.2123197 60.3333089,39.1508152 L60.3333089,39.1496072 Z M16.4067337,1.45990818 C11.6732561,2.70052744 8.84841928,5.97300804 8.84841928,10.2167232 C8.84841928,10.5791241 8.87625614,10.9499811 8.90530331,11.3172141 C8.9354719,11.8193536 9.00139791,12.3187144 9.10258197,12.811514 C9.75005545,15.8853286 11.648886,18.5520401 14.3443849,20.1730854 C15.8043125,21.1072612 17.3950162,21.8200918 19.0645493,22.2882989 L18.7256657,20.8785592 L19.1214333,20.6671587 C19.2339911,20.6103825 20.3087362,20.0631571 21.9184332,19.3975473 C17.7792122,17.3946781 11.7603976,11.6977351 16.1392577,5.60577507 C18.1968333,2.59962241 21.9492277,1.24256719 25.4585564,2.23544622 C22.626971,0.921343685 19.4219242,0.645459935 16.4067337,1.45628417 L16.4067337,1.45990818 Z M30.110944,58.4317539 C29.7436186,59.2060241 29.2883857,59.9356096 28.7541994,60.6061596 C28.7541994,60.7185039 28.768723,60.8320562 28.768723,60.9299045 C29.4041297,60.9721846 30.05406,60.9999687 30.7052006,60.9999687 C32.2719205,61.002296 33.8361387,60.87502 35.3817942,60.6194477 C35.011827,60.1820425 34.6851376,59.7099289 34.4062936,59.209708 C32.946791,59.1346518 31.5030901,58.8719572 30.110944,58.4281299 L30.110944,58.4317539 Z" id="Path_26437" fill="#ABBCCE"></path>
                    <path d="M59.2404431,34.8443995 L58.3062554,34.8443995 L59.6281494,35.4511201 C59.6993241,36.6344612 59.376479,37.8083354 58.7087315,38.7941506 L58.7235013,38.7941506 C59.1973646,38.836621 59.7007674,38.8645302 60.246018,38.8645302 C61.083117,38.117759 61.5725671,37.0649408 61.5999131,35.9522713 L61.6294526,35.4984443 L62.089777,35.4280647 C62.7567678,35.3015827 63.4006967,35.0770162 64,34.7618855 C62.4824066,34.8019291 60.893426,34.8443995 59.2404431,34.8443995 Z M16.840139,42.2245488 C17.6897808,43.8180031 18.7675253,45.2826631 20.0402549,46.5735221 C21.0136486,47.5692348 22.0983507,48.4529994 23.2736027,49.2079029 C21.8938604,47.3950218 18.2592673,42.4793715 17.7989429,40.7514312 C17.2389227,38.6121344 18.3589632,31.0621033 18.3589632,31.0621033 C19.3915239,30.3964219 19.9920341,29.2437073 19.9393281,28.0285003 C21.60585,26.7107032 21.6624674,24.061761 21.6206198,23 L20.944903,23.2693839 C20.944903,24.3457063 20.7578193,26.5129123 19.1922242,27.4193528 C19.3656558,28.5616772 18.8779967,29.7039296 17.9281784,30.3801493 L17.1527657,36.5420037 C17.1527657,36.5420037 16.7650594,33.8785003 16.7219809,31.8678283 L16.2616565,31.3824518 C16.0124005,31.1399315 15.7323141,30.9302825 15.4283956,30.758743 C15.7594845,31.523211 16.3478135,33.2657125 15.2843904,34.2777225 C14.6828801,34.8739159 13.851632,35.1882989 13,35.1416926 C13.9002652,35.5949218 14.9762382,35.5464946 15.8308717,35.0142813 L16.8795251,34.4621655 L16.6924414,35.6234287 C16.6776716,35.6658992 15.9453374,40.085252 16.8364466,42.2245488 L16.840139,42.2245488 Z M25.4558355,61.1214686 C25.3911428,60.3962038 25.2513325,59.6793704 25.0385896,58.9821717 C23.9816387,58.8268831 22.9078999,58.8174898 21.8483203,58.9542626 C20.053095,59.0897459 18.3213685,58.2687317 17.3078482,56.8016179 C17.1778635,57.0441674 17.0766789,57.300684 17.0062989,57.5660859 C16.8179088,58.166462 16.7305947,58.7932187 16.747828,59.4214375 C16.7450478,59.4832832 16.7500084,59.545231 16.7625977,59.6058805 C17.17683,60.0716825 17.7141526,60.4148993 18.3146539,60.597262 C18.6823374,60.7228481 19.0628825,60.8082998 19.4494642,60.8520846 C19.9399463,60.9050094 20.4342618,60.9143501 20.9264408,60.8799938 L21.7449319,60.8096142 L21.7597017,60.8096142 C22.8774133,60.7669203 23.9827578,61.0528722 24.9352013,61.6311139 L25.0065885,61.6735843 L25.5099913,62 C25.5118339,61.9099688 25.5068971,61.8199269 25.4952215,61.7306161 C25.4940724,61.5276744 25.4796832,61.3250158 25.4521431,61.1238955 L25.4558355,61.1214686 Z" id="Path_26438" fill="#DA6327"></path>
                    <path d="M60.9693737,39.7006357 L60.6394444,39.6725084 C60.22366,39.6297059 59.8373117,39.5722284 59.4656813,39.5012986 C58.5846958,39.3525693 57.7215356,39.1132284 56.8900256,38.7871093 C55.561044,40.2761335 54.7040741,42.124226 54.4272081,44.098281 C54.4116939,44.2377465 54.3879403,44.3761778 54.356071,44.5128532 L54.356071,44.5128532 C54.2115632,45.5530708 54.1590303,46.6039398 54.1990786,47.6533296 L53.3110906,45.4263796 C52.7530319,45.4410548 51.8797619,45.4263796 51.4492595,45.4263796 C49.7895979,47.0372097 47.9829064,48.490222 46.0526475,49.7665473 C44.4118439,50.8835331 42.6777184,51.8577203 40.8694469,52.6783364 L45.2505147,52.9351511 L45.2505147,58.0848964 C46.080857,57.6140695 46.8829898,57.1138924 47.6556865,56.5721358 C48.0138253,55.8872967 48.4283833,55.0593752 48.5571661,54.7022805 C48.7865221,54.0455687 47.4398221,54.0602438 47.4398221,54.0602438 C50.0743499,50.8194874 51.5203966,50.6360484 51.5203966,50.6360484 L57.7338595,49.7078469 C61.12146,47.4527696 61.0699469,41.5851661 60.9693737,39.7006357 Z M18.7028631,49.3079497 C18.5740803,49.1514151 18.4305795,49.0230078 18.3017967,48.8799253 C17.6643859,48.2209555 16.9127092,47.6823536 16.0830533,47.2901203 C15.3482044,46.9405452 14.5301941,46.8020667 13.720809,46.8902232 C13.39956,46.9225711 13.0854147,47.0051085 12.7898934,47.1348086 C11.9991327,47.4838195 11.3629772,48.1081211 11.000426,48.8909317 C10.8542465,47.8367288 11.2858024,46.7852529 12.1312615,46.1356773 L12.6611106,45.9363402 L12.2931598,45.5792455 C11.2474482,46.2533052 10.3228572,47.0978937 9.55805874,48.0776852 L9,49.7188532 C9,49.7188532 11.8920934,55.7111952 18.5667213,56.2431684 C19.1591762,54.9682478 20.1980509,53.9528404 21.4882508,53.387634 C21.1877576,52.8984632 20.7290456,52.1744905 20.242124,51.4309509 C19.7726368,50.6928509 19.2586027,49.9838774 18.7028631,49.3079497 Z M23.0127937,20.5838417 L23.5279248,21.4973682 C26.2800207,20.4781131 29.1792392,19.9090452 32.1134439,19.8121748 C35.2674237,19.6136233 38.4329945,19.9170383 41.4912838,20.7110261 L41.7059218,19.9687095 C38.7667341,18.9143153 35.6663518,18.3764025 32.5427199,18.3788958 C29.2617341,18.5572058 26.0369364,19.3037405 23.0127937,20.5850647 L23.0127937,20.5838417 Z M58.1202078,27.1509594 C58.5212742,26.337713 55.1999048,26.7510623 55.48568,25.7091285 C55.700318,24.9521368 57.1610827,23.809923 57.9202879,23.2632747 C57.4762939,23.3342044 57.047018,23.4063571 56.6312335,23.50786 C55.1140496,24.6219465 53.5097841,26.4061969 54.1782281,26.6776867 C54.8466721,26.9491765 54.7362868,27.7196204 52.789827,28.4619371 C51.5707906,29.0811462 50.6375146,30.1443875 50.1835087,31.4312037 C51.0997062,31.5449359 52.345833,31.659891 53.8912264,31.7454959 C54.383054,28.9217576 57.762069,27.9079512 58.1202078,27.1521823 L58.1202078,27.1509594 Z M42.6564614,19.0992084 L43.1151734,19.3132206 L42.8428898,20.2414222 C45.2270741,20.5460014 47.6009989,19.6079752 49.1287163,17.7576576 C49.9474839,16.5171489 49.8423776,14.8857644 48.8711508,13.7599094 C46.0219849,9.69123145 41.3686336,12.3462058 41.1687136,12.461161 L39.9520229,13.1753503 L40.3101617,11.8044492 C40.3530893,11.6051121 41.584498,6.66815605 37.5039234,4.98051687 C35.0966644,3.95778102 32.3223066,4.31884309 30.2589718,5.92339354 L29.7144046,6.39422041 C29.7144046,6.39422041 28.3542131,7.46550442 27.3521604,7.20746683 C28.1584774,6.86200141 28.8032774,6.22432606 29.1563459,5.42321642 C28.6797125,4.6805029 28.090544,4.01590789 27.409806,3.45308112 C26.9525088,3.08715802 26.4636875,2.76222724 25.9490412,2.48207713 L25.63383,2.32554248 C22.0775163,1.32039735 18.2748827,2.69421773 16.189759,5.73750865 C11.7510456,11.9047292 17.8504437,17.6720527 22.0463095,19.6996655 C25.3725535,18.2540589 28.932623,17.4172781 32.5562114,17.2293531 C36.0131528,17.1899704 39.4444027,17.8256118 42.6564614,19.1004313 L42.6564614,19.0992084 Z M40.8952035,54.476039 C42.1814069,55.6993921 43.1282868,57.233744 43.6437961,58.9299389 L43.9442893,58.7868565 L43.9442893,54.1715302 L40.2794991,53.957518 C40.4794191,54.1140526 40.694057,54.2852624 40.8927505,54.4711473 L40.8952035,54.476039 Z M22.8398568,53.3754048 L22.8398568,53.3754048 C23.4248883,53.4838523 23.9961904,53.6560966 24.5434691,53.8890341 L24.9445355,53.589417 C24.0136199,53.2469974 23.1256319,52.8752276 22.2952896,52.4753305 L22.8398568,53.3754048 Z M32.5292284,56.2737416 C32.1012067,56.4522201 31.6610111,56.6001588 31.2119644,56.7164412 C31.0016874,57.5751865 30.7092574,58.4118335 30.3386945,59.2148809 C31.7497546,59.6621155 33.2127787,59.9259991 34.6915527,60 C34.0872317,58.9383526 33.6433615,57.7935885 33.3742888,56.602709 L32.5292284,56.2737416 Z" id="Path_26439" fill="#FFFFFF"></path>
                    <path d="M29.4751601,46.9498253 C32.5365665,48.630018 34.1453295,46.6789446 34.1453295,46.6789446 C32.6499971,47.805174 29.4751601,46.9498253 29.4751601,46.9498253 Z M37.1213581,29.7708617 C37.6909504,29.7708617 38.1471122,29.0021461 38.1471122,28.0333204 C38.1471122,27.0644947 37.6921701,26.2811369 37.1213581,26.2811369 C36.550546,26.2811369 36.0821874,27.0644947 36.0821874,28.0333204 C36.0821874,29.0021461 36.5517657,29.7720819 37.1213581,29.7720819 L37.1213581,29.7708617 Z M74.2973214,31.4656966 C73.7423652,31.3522195 73.0300699,31.2375223 72.161655,31.1386874 C71.7919689,29.5149805 71.0782365,27.9895639 70.0686775,26.6654947 C68.4452783,24.5435955 65.298494,22.0214762 59.5037761,22.0214762 L58.8768586,22.0214762 C54.4512844,10.0996912 43.0837567,2.1867021 30.3716277,2.178852 C29.3031847,2.178852 28.2359613,2.23620062 27.1821545,2.33503549 C23.7871941,0.0884539894 19.5858067,-0.576459638 15.6634603,0.512081323 C10.4383348,1.87990704 7.19153643,5.69664106 7.19153643,10.483421 C7.18954301,11.2322865 7.24663891,11.9801411 7.36229217,12.7200173 C-2.06017787,23.66436 -2.48283246,39.7307943 6.35117427,51.1557979 C6.56461894,52.1953942 8.17338192,57.6081283 17.6564237,60.1851559 C18.2591686,60.8864749 19.0569897,61.3923792 19.9482097,61.6383944 C19.8644694,62.5811683 19.8595736,63.5292916 19.9335735,64.4728807 L19.9762624,64.9719358 L20.4885296,65 L20.6739215,65 C22.1231131,64.9733159 23.5519454,64.6537307 24.8745127,64.0604587 C25.5404178,63.7610515 26.1708325,63.3882137 26.7540455,62.9488715 L28.4054974,62.8634587 C29.0604676,62.9061651 29.7154378,62.9342293 30.370408,62.9342293 C32.2757819,62.9341312 34.1768468,62.7531394 36.0480363,62.393688 C36.7982449,63.0822642 37.6549862,63.644731 38.5849787,64.0592385 C39.9079169,64.6513928 41.3365184,64.9709264 42.7855698,64.9987798 L42.9709617,64.9987798 L43.4832289,64.9707156 L43.5259179,64.4716605 C43.6543663,63.0011122 43.577603,61.519835 43.297837,60.0704586 C46.4688931,58.5680793 49.3571606,56.5297782 51.8356239,54.0451924 L52.3234974,53.5461374 C53.3199791,53.616908 54.2030302,53.6461924 54.9580145,53.6461924 C56.3797795,53.7004138 57.8023208,53.5612621 59.1866583,53.2325502 L59.3000889,53.1898438 L59.3854668,53.1190732 C61.9667908,50.8049263 63.4765389,47.5258409 63.5567855,44.0592106 C63.6588619,42.3648913 63.5054974,40.664851 63.1018434,39.0161922 L63.0445183,38.8307243 C63.6286066,38.0684148 63.9975782,37.1633057 64.1129613,36.2097701 C65.3464135,35.9207329 66.4752099,35.2942118 67.3731762,34.4002379 C68.612375,34.3294673 69.7649762,34.2574765 70.8041469,34.1562012 C71.9744315,34.0685262 73.1389745,33.9161775 74.2924426,33.6998526 C75.1181686,33.5143847 76,33.2727884 76,32.5748434 C76,31.8768984 75.1267064,31.6377425 74.2973214,31.4669168 L74.2973214,31.4656966 Z M59.2708165,23.190412 L59.4988974,23.190412 C63.7421775,23.190412 66.9743396,24.586302 69.110006,27.339036 C69.9469355,28.4361355 70.5655346,29.6837819 70.9322137,31.0142287 C70.9468499,31.0849993 70.9749026,31.142348 70.9895388,31.1996966 C68.9908856,31.5939871 66.9609444,31.808376 64.9240511,31.8402929 C63.6848523,31.8976416 62.2761175,31.9257058 60.72346,31.940348 L59.5037761,31.940348 C57.4681238,31.940348 55.6446965,31.8976416 54.0786224,31.8268709 L53.1955713,31.7841645 C51.65755,31.6987517 50.4195709,31.5852746 49.5084671,31.4705773 C49.0431232,31.4155316 48.5819008,31.3299341 48.127785,31.2143388 C48.13972,31.1438219 48.1446228,31.0722933 48.1424212,31.0008067 C48.1543798,30.8922362 48.1592688,30.7830027 48.1570574,30.6737975 C48.5361028,29.4840058 49.1134179,28.366856 49.8646148,27.3695406 C51.3630382,25.419778 53.5093391,24.070703 55.9154663,23.5662286 C56.3289391,23.4661735 56.7558284,23.3954029 57.197354,23.3221919 C57.4794856,23.2729412 57.7648392,23.2443941 58.0511327,23.236779 C58.4565739,23.1995343 58.8637192,23.1840565 59.2708165,23.190412 L59.2708165,23.190412 Z M57.6340008,22.1215313 C54.2199185,22.3291408 51.0558486,23.9817167 48.933996,26.6654947 C48.430027,27.3364883 47.9959993,28.0573021 47.6386918,28.8166782 C47.4512512,28.4880148 47.2028779,28.1981272 46.9068815,27.9625497 C45.9205577,27.1531139 44.5034924,27.1414272 43.5039636,27.9344855 C43.0272471,25.8731004 42.4475769,23.836908 41.7671338,21.833568 L41.8805644,21.4492102 C44.7428543,21.8775077 47.6155751,20.7419109 49.4121121,18.4719624 C50.4939094,16.8374541 50.3840988,14.6883414 49.1413423,13.1727054 C47.852551,11.1901563 45.528404,10.1390971 43.1892851,10.4809806 C42.4333018,10.5800014 41.6923049,10.7713709 40.9828771,11.0508063 C41.056068,10.345123 41.0511596,9.63351282 40.9682409,8.92890717 C40.7997593,7.04605811 39.7345101,5.35985811 38.1068626,4.39958599 C47.0580687,6.87522906 54.3051845,13.4511926 57.6388795,22.1227515 L57.6340008,22.1215313 Z M45.5457143,30.0978709 C44.9936344,30.0853861 44.4598366,30.2960894 44.0650181,30.6823388 C43.9796403,30.1942654 43.8796262,29.7135131 43.7808318,29.2181186 C44.3580778,28.4819728 45.412517,28.3313537 46.1726318,28.8764672 C46.6744023,29.2860527 46.9709687,29.8954898 46.9837216,30.5432379 C46.9129799,30.7994764 46.8556548,30.9995865 46.827602,31.1411278 L46.0165123,31.2411828 C46.1990973,31.0480934 46.2518899,30.7660019 46.1514963,30.5199104 C46.0511026,30.2738189 45.8160879,30.1092354 45.5505931,30.0990911 L45.5457143,30.0978709 Z M55.1568229,38.2023298 C53.767324,39.8248077 52.8728064,41.8123565 52.579631,43.928651 C52.5515783,44.0567702 52.5369421,44.1848895 52.5088893,44.294706 L50.8428012,44.294706 C50.0320626,42.8782025 48.5570622,41.9712343 46.9276161,41.887284 C46.4912866,41.2991759 45.8208633,40.9299803 45.0907722,40.8757518 C45.1054085,40.6768619 45.1054085,40.4621096 45.1054085,40.2485775 C45.0627195,39.0515775 44.9627054,37.0577976 44.6638829,34.5942471 C45.3259086,34.5911242 45.971443,34.3873445 46.515363,34.0097792 L48.1960873,34.1806049 L49.6487307,34.294082 C49.6510014,34.9125379 49.9534735,35.4913379 50.4598205,35.8461554 C51.3032511,36.3024774 52.313714,36.3287693 53.1797154,35.916926 C53.4639018,35.7888068 53.9773887,36.0450453 54.3469529,36.3159261 C54.3240798,37.0322264 54.6213974,37.7214808 55.1580426,38.1962288 L55.1568229,38.2023298 Z M36.3053896,51.8049355 C36.1199976,51.5340548 35.9492419,51.2924585 35.7931224,51.0923484 C39.2210578,49.1584558 42.1510547,46.4516104 44.3504242,43.1867794 C44.5872771,42.8262569 44.7697492,42.4327945 44.8919638,42.0190638 C45.422423,42.0266038 45.9072753,42.3207155 46.1592153,42.7877794 L42.9880373,47.6685134 C42.9880373,47.6685134 45.052962,45.2183849 46.4482804,43.8505592 C46.7473783,43.5540721 47.0820963,43.2958607 47.444762,43.0818436 C48.4057974,43.338229 49.2376086,43.9421261 49.7792369,44.7766785 C46.2152988,48.184226 42.0027456,50.8399355 37.3921279,52.585853 L36.6090909,52.3015502 C36.6007988,52.2944164 36.5955598,52.284371 36.5944546,52.273486 C38.0324619,51.4474218 39.2850772,50.5786511 39.69855,50.2797061 C38.6207181,50.8973111 37.4855748,51.4089273 36.3090486,51.8073759 L36.3053896,51.8049355 Z M26.1820137,55.1091925 C26.2115121,55.2908081 26.2639726,55.4679348 26.3381333,55.6363117 C25.980847,55.2150446 25.5709287,54.841456 25.1184494,54.5247246 C25.348125,54.3653246 25.5858732,54.2178929 25.8307448,54.0830181 L26.3576482,53.7987154 C26.3114397,53.9341524 26.2735587,54.0722913 26.2442176,54.2123576 C26.1679738,54.5057055 26.1481069,54.8108696 26.1856728,55.1116328 L26.1820137,55.1091925 Z M26.1393248,52.6017154 L25.6977993,52.8152475 C23.9097718,52.2185764 22.1796493,51.4605719 20.5287792,50.5505869 C20.084975,49.8500571 19.5960682,49.1791652 19.0651586,48.5421648 C17.7597134,46.8549015 15.7844503,45.8200917 13.6546411,45.7076785 C13.2131155,45.3233207 12.8716041,45.0097336 12.6581594,44.7815592 C13.2157091,43.887817 14.1173261,43.2639762 15.1499735,43.0574399 C15.5277626,43.2798039 15.8767738,43.5478166 16.1891441,43.85544 C17.5698262,45.2232657 19.6493871,47.6733942 19.6493871,47.6733942 L16.374536,42.6450179 C16.6210066,42.2959165 17.0040643,42.0679392 17.4283429,42.0178436 C17.4717625,42.172776 17.5238852,42.3251343 17.5844624,42.4741922 L17.5990986,42.4741922 C18.4784566,44.1951954 19.616206,45.7712494 20.9727441,47.1474951 C22.8533486,49.1200817 25.1431182,50.6565218 27.6810052,51.648752 C27.5529384,51.8049355 27.4102354,51.9757612 27.2675324,52.1758713 L26.9113847,52.2893484 C25.5745767,51.8532396 24.2823713,51.2906304 23.052305,50.6091557 C24.0477276,51.3256348 25.078875,51.9910849 26.1417642,52.6029355 L26.1393248,52.6017154 Z M24.402495,53.5986053 L24.0036584,53.8975502 C23.4594258,53.6651261 22.8912988,53.4932679 22.3095176,53.3850732 L22.3095176,53.3850732 L21.7679779,52.5016603 C22.5937039,52.8860181 23.4755353,53.2569539 24.402495,53.5998255 L24.402495,53.5986053 Z M19.7323256,30.0954305 C20.6735549,29.4154535 21.1568043,28.2668542 20.9849409,27.1181828 C22.5363788,26.2067057 22.7217707,24.0274579 22.7217707,22.9451552 L23.3913771,22.6742744 C26.0131088,21.6888009 28.7786532,21.1401645 31.577895,21.0502102 C33.9735667,20.9437489 36.3738101,21.0868738 38.7398785,21.4772744 C38.8226213,22.8807386 39.501306,24.1818249 40.6047751,25.0524121 C40.5236208,26.2545052 41.1997371,27.3798794 42.2989159,27.8722562 C42.6404274,29.3682011 42.9258334,30.8006966 43.1392781,32.159981 C43.0458534,32.2826536 42.9956729,32.4328276 42.9965751,32.5870452 C42.9978066,32.8219905 43.1082573,33.0429825 43.2953976,33.1849352 C43.6413951,35.5357975 43.8551762,37.9042407 43.9357317,40.2790821 C43.9947523,41.0690546 43.8003437,41.8572663 43.3807755,42.5291005 C40.6235557,46.6905679 36.5993923,49.8525139 31.9047703,51.5462566 C29.4518548,51.235601 27.1009796,50.3737887 25.0281928,49.0253575 C23.8635684,48.2662595 22.788675,47.3775844 21.8240834,46.3763391 C20.5628758,45.0782967 19.4948786,43.6055005 18.6529054,42.0032014 C17.7698543,39.8520179 18.4967859,35.4142104 18.5102024,35.3654031 L18.6955944,34.1976875 L17.6564237,34.752871 C16.8095184,35.2880415 15.7432752,35.3367377 14.8511509,34.8809902 C14.5674845,34.7142713 14.3165957,34.4971863 14.1108028,34.2403939 C13.3307294,33.2872892 13.3792916,31.9029601 14.2242334,31.0069076 C14.6434615,30.472277 15.2699459,30.1409426 15.9476467,30.0954305 L15.9720404,30.0954305 C16.4247689,30.1141299 16.8655507,30.2462927 17.2539281,30.4797883 C17.5550907,30.6522924 17.832643,30.8631053 18.079654,31.1069626 L18.5358158,31.5950361 C18.5785047,33.6181003 18.9627051,36.2951829 18.9627051,36.2951829 L19.7323256,30.0954305 Z M19.6310919,21.8896964 C20.1726315,21.6334579 21.1825297,21.1575863 22.4790536,20.64999 C25.4885952,19.3725283 28.6975763,18.6293087 31.9620954,18.453651 C35.0683611,18.4511633 38.1515064,18.9878694 41.0743534,20.0398982 L40.8609087,20.7805496 C37.8196151,19.988384 34.6716503,19.6856502 31.5352061,19.8837147 C28.6173816,19.9799765 25.7342837,20.5473554 22.9974193,21.5639074 C21.9269517,21.9610667 20.893204,22.4510018 19.9079601,23.0281276 L19.6310919,21.8896964 Z M27.3626677,54.5088622 C27.4509049,54.1221351 27.6101277,53.755152 27.832246,53.4265594 C28.1286995,52.939229 28.4771284,52.4855131 28.8714166,52.0733759 C29.856686,52.3760022 30.8669036,52.5903786 31.8901341,52.7139722 L32.0035647,52.7139722 L32.1035788,52.685908 C33.0167307,52.4166443 33.9031259,52.0637382 34.7515124,51.6316695 C35.1195014,52.0943533 35.4437056,52.5902539 35.7199413,53.1129722 C35.9025028,53.4565163 36.0457063,53.8195837 36.1468307,54.195275 C36.2069681,54.4177212 36.2263891,54.6492155 36.2041558,54.8785778 C36.1728673,55.2008213 36.0010355,55.4928317 35.7345775,55.6765778 C35.1796214,56.09022 33.6269639,55.69122 32.5170516,55.2202292 L31.9620954,53.5388163 L31.3071252,55.2470732 C30.2462713,55.7493255 29.046022,55.8749945 27.9042073,55.6033668 C27.6050303,55.4950715 27.3873618,55.2339488 27.334615,54.920064 C27.3207395,54.7837478 27.3319003,54.6460422 27.3675464,54.5137429 L27.3626677,54.5088622 Z M44.2211377,31.5755131 L44.1784487,31.3314764 C44.3943788,31.43898 44.6406368,31.4691288 44.8761079,31.4168893 C45.6445087,31.28877 44.9614858,30.3480085 45.616456,30.5200544 C46.2714262,30.6921003 45.9299147,31.0471737 45.8018479,31.275348 C45.3883751,31.3326966 45.0188109,31.388825 44.7041325,31.4608159 L44.2211377,31.5755131 Z M30.3728474,3.34290707 C31.1412482,3.34290707 31.8962325,3.38561349 32.6512168,3.44296211 C31.5107195,3.64471824 30.4245907,4.08142533 29.4617436,4.72537498 C29.1501788,4.25803066 28.7975085,3.81946226 28.4079367,3.41489789 C29.0482708,3.3770722 29.7178772,3.34290707 30.3728474,3.34290707 Z M15.9635026,1.64807217 C19.0031684,0.826740044 22.2349964,1.1041266 25.0903967,2.43142998 L25.4038555,2.58761347 C25.9156077,2.86718952 26.4017066,3.19138827 26.8564989,3.55643918 C27.5334248,4.11803164 28.1193138,4.78113118 28.5933287,5.52215481 C28.2422232,6.3214673 27.601008,6.95771213 26.7991738,7.30240256 C27.7956555,7.55864109 29.1482848,6.49098052 29.1482848,6.49098052 L29.6898245,6.02120987 C31.7237272,4.37764023 34.5074005,4.01462914 36.8944969,5.08166857 C41.0658156,6.80578787 39.7278224,11.6914026 39.6851335,11.8902926 L39.3289858,13.2581183 L40.5389122,12.5455311 C40.7377206,12.432054 45.3652011,9.78181545 48.1997463,13.841366 C49.1655736,14.9646953 49.2700955,16.5924201 48.4558799,17.8301459 C46.936656,19.6763126 44.5759294,20.6122346 42.2050003,20.3083386 L42.4757701,19.3822193 L42.0196083,19.1686872 C38.8226608,17.8960477 35.4074822,17.2622273 31.9669742,17.3030266 C28.3635353,17.4905564 24.8232631,18.3254589 21.5155034,19.7677973 C19.8921042,20.437678 18.8102446,20.9879808 18.696814,21.0502102 L18.2979774,21.2637423 L18.6394889,22.6876964 C16.9570032,22.2147854 15.353962,21.4947661 13.8827219,20.5511551 C11.1662182,18.9138753 9.25262759,16.2202252 8.60027126,13.1153568 C8.49781531,12.617631 8.43096972,12.1132293 8.40024311,11.6059898 C8.37219038,11.2399347 8.34291797,10.8653384 8.34291797,10.4944026 C8.34535734,6.2115585 11.1933191,2.90730155 15.9635026,1.65417309 L15.9635026,1.64807217 Z M1.16991386,32.572403 C1.15838543,25.8817525 3.45745257,19.3925029 7.67819028,14.2025403 C8.56835417,17.2660416 10.5689949,19.8870843 13.2887359,21.5529258 C15.0266977,22.666719 16.9369112,23.4851283 18.9419705,23.97499 L19.0700373,24.4874671 C18.6858369,26.195724 18.3016365,28.3920543 18.1016083,29.6293204 C17.4739092,29.2044597 16.7381446,28.9674287 15.9805781,28.9460177 L15.9378892,28.9460177 C14.9379731,28.9791548 14.0024073,29.447575 13.3765532,30.2284305 C12.1539374,31.5439053 12.0812341,33.5575728 13.2057974,34.9578618 C14.1550493,36.1679897 15.7551353,36.6620217 17.2209966,36.1975683 C17.0238861,37.7530367 17.0144675,39.3265747 17.1929439,40.8842931 C16.52139,40.9766589 15.9154495,41.3360611 15.5122196,41.881183 C13.818835,41.9662381 12.2944171,42.9344455 11.4970204,44.4313666 C9.42098572,45.681848 7.76907765,47.5283043 6.7561093,49.7306236 C3.11752012,44.7528935 1.16065232,38.7439596 1.16991386,32.5772838 L1.16991386,32.572403 Z M17.435661,58.7587613 C17.4237708,58.8148833 17.4188548,58.8722595 17.4210248,58.929587 C14.2214845,58.151051 11.329473,56.4289913 9.11985657,53.9866236 C8.34799745,53.1166826 7.79184381,52.0770728 7.49645739,50.9520273 L7.56719905,50.7958438 C7.94737873,49.8245504 8.46536664,48.9130771 9.10522037,48.0894767 C9.86580098,47.1119148 10.7852459,46.2692262 11.8251153,45.5966418 L12.1910205,45.9529354 L11.6641171,46.1518253 C10.8233584,46.7999437 10.3942018,47.8490609 10.5395686,48.9008988 C10.8983671,48.1204565 11.5287006,47.4972376 12.3129889,47.1474951 C12.6068537,47.0180476 12.9192587,46.9356937 13.2387289,46.9034584 C14.043616,46.8154346 14.8570962,46.9536054 15.58784,47.3024584 C16.4128696,47.693835 17.1603633,48.2312257 17.794248,48.8886969 C17.9223148,49.0314584 18.0650178,49.1595777 18.1930846,49.3157612 C18.7438206,49.9911959 19.2525732,50.6998294 19.7164697,51.4376603 C20.2714259,52.2783667 20.6556263,52.9018805 20.9556685,53.3899539 C19.6730993,53.9541365 18.6404636,54.9672369 18.0516013,56.2390824 C17.6890794,57.0325272 17.4800815,57.8874923 17.435661,58.7587613 L17.435661,58.7587613 Z M25.3379925,62.5340091 C25.0483234,62.7074918 24.7490166,62.8643358 24.4415249,63.0037798 C23.375498,63.4825706 22.2326393,63.7672661 21.0666597,63.8444862 C21.0399409,63.1937031 21.0493061,62.5419385 21.0947125,61.8921926 C21.5804054,61.9486834 22.0697115,61.9678558 22.5583331,61.9495412 C22.9257414,61.9355088 23.2921549,61.9021108 23.6560485,61.8494862 C24.3615719,61.833996 25.0602525,61.9906249 25.6917008,62.3058348 L25.3379925,62.5340091 Z M26.7613636,61.5651834 L26.6906219,61.522477 C25.7468204,60.940954 24.6514501,60.6534077 23.5438376,60.6964128 L23.5292014,60.6964128 L22.7181117,60.7671834 C22.2303857,60.8018231 21.7405319,60.7924304 21.2544911,60.7391192 C20.8714001,60.6951202 20.494293,60.6091929 20.1299426,60.4828806 C19.5348441,60.2995633 19.0023654,59.9544298 18.5919212,59.4859907 C18.5794457,59.4250042 18.57453,59.3627122 18.577285,59.3005228 C18.5601856,58.6688123 18.6467106,58.0385695 18.8334186,57.4348622 C18.9031416,57.167979 19.0034121,56.9100348 19.1322412,56.6661466 C19.6263918,55.6644572 20.465916,54.8752932 21.4959884,54.4441925 C22.018628,54.4994326 22.5340875,54.609028 23.0340098,54.7712016 C23.4301537,54.9089723 23.8117328,55.0855352 24.1731945,55.2983209 C24.7045214,55.6183783 25.1765717,56.0278764 25.5685128,56.508743 C26.1203675,57.2076327 26.5342864,58.0051673 26.7881966,58.8588164 C26.9988996,59.5599175 27.1374434,60.2807219 27.2016694,61.0099999 C27.2289606,61.2122378 27.2432197,61.4160224 27.2443584,61.6200917 C27.2559283,61.7098987 27.2608205,61.800441 27.2589946,61.8909724 L26.7613636,61.5651834 Z M27.102875,56.6844494 L27.245578,56.5843943 L27.3882811,56.6698072 C28.0140839,56.9452241 28.7034344,57.0435623 29.3812444,56.9541099 C29.1181861,57.92141 28.7203246,58.8468479 28.1993708,59.7031834 C28.0055935,58.6399272 27.6332022,57.617185 27.0979963,56.6783485 L27.102875,56.6844494 Z M30.3777261,61.7982385 C29.7227559,61.7982385 29.0677857,61.7701742 28.426232,61.7274678 C28.426232,61.6274128 28.4115958,61.5139357 28.4115958,61.4004586 C28.9499244,60.7231474 29.4086875,59.9862055 29.7788614,59.2041283 C30.1473641,58.4028824 30.4381683,57.5681123 30.6472763,56.7112934 C31.0938346,56.5952996 31.5315849,56.447692 31.9572167,56.269587 L32.7975789,56.5978164 C33.0651215,57.7860347 33.5065259,58.9282357 34.1075193,59.9874861 C34.3885451,60.4927387 34.7177666,60.9696108 35.0905845,61.4114403 C33.5311619,61.6677814 31.9531748,61.7943007 30.3728474,61.7896972 L30.3777261,61.7982385 Z M42.4086875,63.849367 C41.242712,63.7721209 40.0998578,63.4874266 39.0338223,63.0086605 C38.4951984,62.770934 37.984334,62.4746832 37.5104372,62.1252477 L36.4127218,61.1710641 C35.2986457,59.9771023 34.5018492,58.5225628 34.0953225,56.9406879 C34.3957287,56.9972934 34.7007378,57.025887 35.0064263,57.0261008 C35.3820146,57.034797 35.7554591,56.9671343 36.1041417,56.8272109 L39.3216677,59.7044036 L36.9005953,56.2000365 C37.1654821,55.8581261 37.3282767,55.4482231 37.3701736,55.0176787 C37.4073343,54.6348751 37.3734264,54.2484971 37.2701595,53.8780273 C37.2701595,53.8633851 37.2555233,53.8353209 37.2555233,53.8206787 L37.3409012,53.8487429 C38.1374629,54.2476888 38.8713611,54.7611347 39.5192565,55.3727521 C40.6744921,56.4717563 41.5107007,57.8631973 41.9391092,59.3993577 L42.2232955,60.5670733 C42.4033568,61.6492152 42.4655178,62.747708 42.4086875,63.843266 L42.4086875,63.849367 Z M43.3051551,58.7782843 L43.0063326,58.9210458 C42.4936892,57.228656 41.5520736,55.6977461 40.2730211,54.4771374 C40.0742126,54.2916695 39.8595483,54.1208438 39.6631792,53.9646603 L43.3075945,54.1781925 L43.3051551,58.7782843 Z M58.7390344,52.1685502 C56.9620567,52.5107188 55.1470315,52.6112756 53.3431531,52.4674952 L52.5881688,52.4101465 C52.5454798,52.4101465 49.285265,52.053853 48.7156726,52.4247887 C48.0408424,52.9402743 47.3942847,53.4917843 46.7788147,54.0769172 C47.6281786,53.5543087 48.5898628,53.2418424 49.5840875,53.1654401 C50.0829382,53.250853 50.5525165,53.3216236 50.8940279,53.350908 L50.8086501,53.4216787 C49.6357595,54.5903275 48.3582879,55.6489926 46.9922593,56.5843943 C46.2238585,57.1261558 45.4261853,57.6239907 44.6004593,58.0937613 L44.6004593,52.951908 L40.2437487,52.6956695 C42.041945,51.8768513 43.7664258,50.9048515 45.3981326,49.7904126 C47.3176474,48.5169333 49.1142928,47.0671818 50.7647414,45.4599813 C51.1916308,45.4599813 52.0600457,45.4746235 52.6162215,45.4599813 L53.4992726,47.6819354 C53.4594091,46.6348995 53.5116502,45.5863847 53.6553921,44.5485042 L53.6553921,44.5485042 C53.6870538,44.4121292 53.7106751,44.2740103 53.7261338,44.134862 C54.0015313,42.1652563 54.8537277,40.3213293 56.1752589,38.835605 C57.0021544,39.1609676 57.8605131,39.3997708 58.736595,39.5481922 C59.1025001,39.6189628 59.4915793,39.6763114 59.9038324,39.7190179 L60.2319274,39.7470821 C60.8514148,39.8103991 61.4746188,39.8295636 62.096824,39.8044307 C62.4529716,41.541972 63.3921282,48.051651 58.736595,52.1685502 L58.7390344,52.1685502 Z M63.4958013,35.1750545 L63.0396396,35.2458251 L63.0115868,35.7021737 C62.9843453,36.8209926 62.4993458,37.879607 61.6699346,38.6306142 C61.128395,38.6306142 60.630764,38.6025499 60.1611857,38.5598435 L60.1465495,38.5598435 C59.7399882,38.5126631 59.3557878,38.4557212 58.9939483,38.3890178 C58.0572443,38.2391023 57.1433232,37.9709636 56.2740533,37.5910178 C55.7508196,37.3210337 55.4542634,36.7506501 55.5337052,36.1670637 L55.5910304,35.8534765 L55.3470936,35.6399444 C55.2043906,35.4971829 53.883473,34.3294673 52.7125765,34.8565866 C52.2041779,35.0962069 51.6164859,35.1015558 51.1038136,34.8712288 C50.9388274,34.7518037 50.8387548,34.5623996 50.8330437,34.3587517 C53.3943798,34.5149352 56.371628,34.6027884 59.5037761,34.6027884 L60.6710136,34.6027884 C62.3078293,34.6027884 63.8885395,34.560082 65.3838719,34.5173756 C64.7890271,34.8283501 64.1509589,35.0483929 63.4909226,35.1701737 L63.4958013,35.1750545 Z M60.7344371,33.4326324 L59.5147533,33.4326324 C54.3030443,33.4326324 50.2024672,33.2191003 47.5264809,32.9335774 C47.0276302,32.8908709 46.5726881,32.8335223 46.1738515,32.7773939 C45.7750149,32.7212654 45.3200728,32.6492746 45.0066141,32.591926 C45.4054507,32.5065131 45.9030817,32.4357425 46.515363,32.3478893 L47.5118447,32.2344122 L47.8253034,32.3478893 C48.831564,32.5808617 49.8556535,32.7286196 50.8867098,32.7895957 C53.193132,33.0031278 56.2533187,33.1166049 59.5147533,33.1166049 L60.7539521,33.1166049 C63.5445887,33.0885407 66.1364168,32.9884856 68.1440164,32.8030177 C69.2874524,32.7569122 70.4208965,32.5704546 71.5188816,32.2478342 C72.5861049,32.3613113 73.4264671,32.4760085 74.0253319,32.6041278 C69.6231863,33.2038017 65.1830272,33.479896 60.7405355,33.4301921 L60.7344371,33.4326324 Z M15.5134392,31.9086232 C15.1870943,31.9299581 14.9224596,32.1812638 14.8841783,32.5061896 C14.845897,32.8311155 15.0448759,33.1370867 15.3573197,33.2337425 C15.3573197,33.2337425 14.8023636,32.4930911 15.4573338,32.3369076 C16.112304,32.1807241 15.4292811,33.1056232 16.1891441,33.2337425 C16.9490071,33.3618618 17.1002479,32.8493847 17.4990845,32.977504 C17.4868877,32.9762838 16.4757698,31.7658617 15.5073408,31.9086232 L15.5134392,31.9086232 Z M25.822207,29.7720819 C26.3917994,29.7720819 26.8467414,29.0033663 26.8467414,28.0345406 C26.8467414,27.0657149 26.3905797,26.2823571 25.822207,26.2823571 C25.2538343,26.2823571 24.7830364,27.0657149 24.7830364,28.0345406 C24.7830364,29.0033663 25.2526147,29.7720819 25.822207,29.7720819 Z M23.0596231,50.6250181 L22.9169201,50.524963 L23.0596231,50.6250181 Z M24.611061,41.4797427 C25.8568302,41.584088 27.1055562,41.3165762 28.1993708,40.7110271 L28.2847487,41.3382014 L27.5017117,42.3777977 C27.8437082,42.4470306 28.1919646,42.480562 28.5408823,42.4778528 C28.7564027,43.3441069 29.2161664,44.130176 29.8654589,44.7425134 C30.4091148,45.2054521 31.1031435,45.453669 31.8169531,45.4404583 C32.1282567,45.4409598 32.4386828,45.4074233 32.7426931,45.3404033 C34.1335948,44.9710597 35.1598719,43.7921693 35.3345212,42.3631555 C35.9231804,42.5084823 36.5377254,42.5134977 37.1286762,42.3777977 L35.505277,39.9703757 C36.6280429,41.0468563 38.1550404,41.5955409 39.7058681,41.4797427 C41.0428113,41.453197 42.2686233,40.7294402 42.9380303,39.5713757 C42.9380303,39.5713757 41.7854291,40.3547335 40.2900967,37.6630086 C39.2757641,36.1189249 37.6576426,35.0742906 35.8333719,34.7858159 C36.1442168,34.4092553 36.3061,33.9316561 36.288314,33.4436141 C36.1044111,31.7710116 35.2958971,30.2295861 34.0245808,29.127825 L34.0245808,28.4152378 L32.8573434,25.3806414 L32.8573434,29.6512837 L33.070788,29.8367516 C34.1788427,30.7530061 34.9090979,32.0467957 35.1210766,33.4692379 C35.1357128,33.8963022 34.864943,34.2379535 34.3234033,34.4807701 C32.5559881,35.1095155 30.5877577,34.7517622 29.1543833,33.5412288 L27.3748645,32.2307517 C27.5500689,33.0147352 27.8897237,33.7525497 28.3713462,34.3953572 L28.8592198,34.7943572 C26.9210781,35.0727534 25.1693992,36.100534 23.9804844,37.6569077 C22.2997601,40.3486326 21.0044559,39.5652747 21.0044559,39.5652747 C21.819197,40.7617516 23.1736905,41.4765225 24.6208184,41.4736417 L24.611061,41.4797427 Z M31.3595716,41.422394 C31.8064426,41.8343735 32.1106024,42.3779827 32.2279865,42.9744675 C32.2812304,42.4026372 32.2429389,41.8259706 32.1145559,41.2662106 C32.9003339,41.4895642 33.5878712,41.9714674 34.0660501,42.6340363 C33.8599781,43.4079964 33.2491028,44.0083676 32.4719233,44.2007519 C31.8383571,44.4294897 31.1307434,44.2989145 30.6204432,43.8591005 C30.1691417,43.4494193 29.8516504,42.9132473 29.7093394,42.3204491 C30.3204199,42.1545157 30.8840031,41.8473227 31.3546929,41.4236142 L31.3595716,41.422394 Z M39.7034287,50.2821465 L39.8461318,50.1820915 L39.7034287,50.2821465 Z" id="Path_26440" fill="#3F3B3B"></path>
                </g>
            </g>
        </g>
    </g>
</svg>