<?xml version="1.0" encoding="UTF-8"?>
<svg width="57px" height="57px" viewBox="0 0 57 57" version="1.1" xmlns="http://www.w3.org/2000/svg" xmlns:xlink="http://www.w3.org/1999/xlink">
    <title>LogoIcon</title>
    <g id="Welcome" stroke="none" stroke-width="1" fill="none" fill-rule="evenodd">
        <g id="1.1" transform="translate(-157.000000, -234.000000)">
            <g id="LogoIcon" transform="translate(157.000000, 234.000000)">
                <path d="M18.8588812,38.993244 L16.0969242,39.8896583 C15.7902176,36.9017835 15.3296251,33.7640742 14.8695652,30.7761994 C14.8754662,30.4073399 14.9814638,30.0465627 15.1768043,29.7304691 L15.1768043,29.7304691 C15.261499,29.7304691 15.3301576,29.6636181 15.3301576,29.5811532 L16.25081,29.5811532 C17.0292718,29.5525215 17.7267456,30.0463233 17.9387613,30.7761994 L18.8588812,39.4411919 L18.8588812,38.993244 Z M41.5679504,40.6367566 L38.9588142,39.4417104 L39.8794666,29.8803036 C40.0328199,29.5816716 40.0328199,29.2825212 40.3395265,29.1332052 L40.4928798,29.1332052 L40.7995864,28.8345733 L41.5668854,28.8345733 C41.9747101,28.872253 42.3501333,29.0671346 42.6095651,29.3758268 C42.8689969,29.684519 42.9908994,30.0813941 42.9481302,30.4780859 L41.5679504,40.9353885 L41.5679504,40.6367566 Z M37.8853411,39.2923944 C36.9914103,39.0216787 36.0426002,38.9703845 35.1233841,39.1430784 C35.2767374,36.0058876 35.5839765,32.8697338 35.7373298,29.7309876 C35.688914,29.3687144 35.8711325,29.0140771 36.1979222,28.8345733 C36.1979222,28.6852573 36.1979222,28.6852573 36.3512755,28.6852573 C36.5046288,28.6852573 36.3512755,28.5359414 36.5046288,28.5359414 L37.2719278,28.2373094 L37.4252811,28.2373094 C37.8331058,28.2749891 38.208529,28.4698708 38.4679608,28.7785629 C38.7273926,29.0872551 38.849295,29.4841303 38.8065259,29.880822 L37.8858735,39.2929129 L37.8853411,39.2923944 Z M34.0515083,39.2923944 C33.0559095,39.5005564 32.115459,39.9074714 31.2895513,40.4874406 L31.2895513,40.1888087 C31.4429046,36.7524675 31.4429046,33.1668103 31.596258,29.5816716 C31.6269648,29.2640068 31.7318746,28.9573861 31.9029646,28.6852573 L32.363557,28.6852573 C32.363557,28.6027924 32.4322156,28.5359414 32.5169103,28.5359414 L32.8236169,28.5359414 C32.8236169,28.4534764 32.8922755,28.3866254 32.9769702,28.3866254 L33.1303235,28.3866254 C33.9778586,28.3866254 34.6649216,29.0556 34.6649216,29.880822 C34.358215,33.1673288 34.2043292,36.305038 34.0509759,39.5915448 L34.0515083,39.2923944 Z M27.6085394,40.0394927 L27.6085394,41.0847045 L28.6825451,42.1304348 L28.9892517,42.1304348 L30.2166106,41.0847045 L30.2166106,40.1882902 C30.3699819,36.6026331 30.3699819,33.1668103 30.3699819,29.5811532 C30.3737646,28.8098118 29.7739304,28.1624233 28.9855244,28.0869565 L28.3715786,28.0869565 C28.2868839,28.0869565 28.2182253,28.1538076 28.2182253,28.2362725 L28.064872,28.2362725 C27.9115187,28.3855885 27.7581654,28.3855885 27.7581654,28.5349044 C27.5151401,28.7690961 27.4012355,29.102006 27.4514588,29.4313187 C27.4514588,33.0169759 27.4514588,36.4527986 27.6048121,39.8891398 L27.6085394,40.0394927 Z M26.5345338,40.1888087 L23.7725768,38.8444465 C23.6192235,35.8565717 23.3119844,32.8686968 23.1586311,29.8803036 C23.145623,29.4825295 23.3142904,29.0995865 23.6192235,28.8345733 L24.6932291,28.8345733 C25.0852194,28.791928 25.4772346,28.9144879 25.7704522,29.1713569 C26.0636698,29.4282259 26.2301144,29.7948966 26.2278272,30.1789355 C26.3811805,33.6152767 26.3811805,37.0510994 26.5345338,40.4874406 L26.5345338,40.1888087 Z M22.7007011,38.694612 L19.9387441,38.694612 L19.0122345,30.178417 C19.0429043,29.8607446 19.1478167,29.554116 19.3189411,29.2820028 L19.4722944,29.2820028 C19.5569891,29.2820028 19.6256477,29.2151517 19.6256477,29.1326868 L19.779001,29.1326868 C19.779001,29.0502219 19.8476596,28.9833708 19.9323543,28.9833708 L20.0857076,28.9833708 C20.0857076,28.9009059 20.1543663,28.8340548 20.239061,28.8340548 L20.3924143,28.8340548 C20.7825281,28.7458666 21.1927474,28.8269523 21.5166602,29.0562781 C21.840573,29.2856038 22.04626,29.6405714 22.0803656,30.0291011 C22.2342514,32.8676599 22.3876047,35.7062188 22.6943113,38.6940936 L22.7007011,38.694612 Z" id="Path_10680" fill="#000000" fill-rule="nonzero"></path>
                <path d="M45.5950863,42.9565217 C44.7096611,42.2064766 43.7563989,41.5333668 42.7465604,40.9451435 C43.1960812,37.4967815 43.6461223,34.0484195 44.2460036,30.6000575 C44.333861,29.3027422 43.3462392,28.1667006 41.9989199,28.0152818 C41.1831396,27.8808681 40.3611168,28.2185166 39.9001156,28.8773723 C39.4677419,28.1598064 38.6659054,27.7207274 37.8013113,27.7280846 C36.9990246,27.6823322 36.2212004,28.0018259 35.7025071,28.590175 C35.2150365,27.9479721 34.4322786,27.5728961 33.6037028,27.5844859 C32.7858239,27.6151682 32.0212386,27.9815364 31.5048985,28.590175 C31.0489122,27.9880445 30.3314835,27.6178425 29.5559345,27.5844859 C28.7297884,27.6992662 27.9797789,28.1099651 27.4571303,28.7337737 C26.9961291,28.0749179 26.1741063,27.7372695 25.358326,27.8716832 C24.4937319,27.864326 23.6918955,28.303405 23.2595217,29.020971 C22.7467286,28.4233654 21.9628487,28.1018962 21.1577043,28.1590155 C20.3525599,28.2161347 19.6266169,28.6447152 19.2112332,29.3081683 C18.5813153,28.8183944 17.7633628,28.609275 16.9625886,28.7332751 C15.6963886,28.8832582 14.7741847,29.9567753 14.8637843,31.1764465 L16.212867,40.2281474 L13.2145009,41.8087298 L13.0646606,41.8087298 C13.0646606,41.5215325 12.9148203,41.2338366 12.9148203,40.8030406 C12.4647793,38.2167691 12.0152585,35.486899 11.5652174,33.0442262 L11.5652174,32.1806399 L11.5652174,32.1806399 L11.5652174,31.7498439 C13.5675405,30.3084699 14.8242555,28.1097927 15.0136246,25.7167063 L15.3086226,25.7167063 L18.1571485,24.2797226 C18.8824793,24.7586697 19.6968174,25.1000492 20.5561536,25.2854117 C22.709161,25.9508029 25.0335064,25.9002053 27.1527672,25.1418131 C28.5217049,24.7017667 29.7923505,24.0195072 30.8987738,23.1304348 C31.2481195,23.4063553 31.658115,23.6028991 32.0980162,23.705328 C34.0667176,24.2349068 36.1561022,24.184874 38.0947485,23.5617293 L39.1441507,23.1309334 C41.6201103,25.5909923 45.315564,26.5319663 48.7391304,25.5741048 C48.6272657,25.898148 48.5765264,26.2386969 48.5892902,26.579794 L48.4394499,26.579794 C47.6897283,31.7523369 46.7901664,37.6428732 46.0409651,42.3856174 C45.9015304,42.5800739 45.7529041,42.7703753 45.5950863,42.9565217 Z" id="Path_10681" fill="#000000" fill-rule="nonzero"></path>
                <path d="M46.6719761,20.6498073 C44.4552578,22.2902485 41.3390905,21.988213 39.4867452,19.9533765 C39.3459733,19.814187 39.2052015,19.5358081 39.3459733,19.3961353 L39.4867452,19.3961353 C39.6275171,19.1177563 39.7687777,19.1177563 40.0503215,19.2569458 C42.8672253,21.9029961 45.2618135,20.6498073 46.1069335,20.092566 C46.9520535,19.5353248 49.0646091,16.0536541 48.2194891,14.3824135 C47.3743691,12.7111729 48.2194891,13.964845 48.360261,13.8251722 C48.5010329,13.6854994 48.7825766,13.8251722 48.9238373,13.9643617 C49.8187796,16.4398791 48.8885326,19.1996494 46.6705097,20.649324 L46.6719761,20.6498073 Z M39.4867452,10.3439848 C39.3459733,10.4831743 39.2052015,10.6223638 39.0644296,10.4831743 L38.9251241,10.4831743 C38.7843522,10.4831743 38.6435803,10.2047953 38.7843522,9.92593304 C39.9927905,7.93497261 39.5093796,5.36550896 37.6576884,3.93740149 C35.6859047,2.5445399 33.0097727,2.4053504 31.6010764,3.79821199 C31.3831504,3.92261737 31.1146544,3.92261737 30.8967283,3.79821199 C30.741101,3.75977585 30.6464531,3.60387452 30.6853261,3.4499966 C30.7241992,3.29611869 30.8818729,3.2025346 31.0375002,3.2409707 C32.7277402,1.56973011 35.8276541,1.70891961 38.0800041,3.3801602 C40.332354,5.05140078 40.8969079,7.55826166 39.4887004,10.3435015 L39.4867452,10.3439848 Z M25.6832812,19.9533765 C24.978933,20.9281863 23.1479211,22.1818584 19.9082129,21.2065653 L19.4858973,21.2065653 C19.2043535,21.2065653 19.2043535,20.9281863 19.2043535,20.7889968 C19.2339492,20.6729479 19.3132573,20.5754304 19.4215395,20.5219443 C19.5298216,20.4684583 19.6563103,20.4643222 19.7679298,20.5106178 C20.0494736,20.6498073 23.852758,20.9281863 25.1201937,19.5358081 C26.2513373,18.3302284 26.5302937,16.5669254 25.8255194,15.0773944 C25.137554,13.6360825 23.63171,12.753832 22.0227237,12.8493958 C21.74118,12.8493958 21.5999193,12.7102063 21.5999193,12.5710168 C21.5999192,12.460187 21.6444802,12.3539035 21.7237855,12.2755803 C21.8030907,12.1972571 21.910634,12.15332 22.0227237,12.1534483 C23.9178202,11.9249419 25.7433223,12.9402811 26.5298675,14.6603092 C27.3294426,16.4805996 27.0007278,18.5931349 25.6847475,20.0915995 L25.6832812,19.9533765 Z M9.34494585,28.1694234 L9.20661794,28.1694234 C7.83072027,29.0538709 6.01921092,28.8806311 4.84024597,27.7518549 C3.38495027,26.2821949 2.89412138,24.1257947 3.57232155,22.1813751 C4.18584365,20.4002532 5.8953643,19.2171378 7.79792164,19.2569458 C8.03116012,19.2569458 8.22023726,19.4438975 8.22023726,19.6745143 C8.22023726,19.8137038 8.07946538,19.9528933 7.79792164,19.9528933 C6.19666822,19.9378286 4.77121872,20.9532029 4.27862486,22.4597541 C3.70600268,24.0979603 4.08414659,25.9145961 5.26451675,27.1960635 C6.2920878,28.0711448 7.77575971,28.1839303 8.92654057,27.4744425 C9.06731244,27.4744425 9.34885618,27.4744425 9.34885618,27.7528215 C9.40962558,27.8056725 9.44445373,27.8818249 9.44445373,27.9618474 C9.44445373,28.0418698 9.40962558,28.1180223 9.34885618,28.1708733 L9.34494585,28.1694234 Z M51.5999692,12.8489125 C50.2570347,8.92375078 46.0866028,6.68022282 42.0240604,7.69745116 C42.208504,6.66954515 42.1112914,5.61155911 41.7425167,4.63334899 C40.9948641,2.79019101 39.5275792,1.32268582 37.6721532,0.562374349 C35.8167272,-0.197937123 33.729716,-0.186901825 31.8826202,0.592987132 C30.6057768,1.01762717 29.4477938,1.73314849 28.5021401,2.68179621 C26.1697916,1.56382305 23.4824257,1.41332268 21.0373206,2.26374442 C18.0595447,3.22527277 15.7452796,5.56550098 14.8399367,8.53065497 C13.0851177,8.02179617 11.2130129,8.07048161 9.48767289,8.66984447 C5.26577749,9.88389564 2.81694345,14.2298819 3.99463716,18.4184257 C0.858556612,19.7066211 -0.739399613,23.170503 0.332613347,26.3565768 C0.962378405,27.9858741 2.22380611,29.2992405 3.8369294,30.0051813 C5.4500527,30.7111221 7.28142582,30.7512384 8.9245854,30.1166265 C11.76851,29.1928274 13.6594962,26.5299021 13.5725011,23.5713369 L14.558393,23.2929579 C15.6055758,22.9375177 16.5653542,22.3680908 17.3752968,21.6217174 C19.7503428,23.421368 22.9107907,23.8450707 25.6847475,22.7357166 C27.0185144,22.3469283 28.229846,21.6279664 29.2040443,20.6469076 C31.263713,21.811305 33.7387869,22.0153017 35.9650045,21.2041489 L37.3756559,20.6498073 C39.5728306,23.2392725 43.1497203,24.2340006 46.3899436,23.1566682 C48.4747507,22.4894594 50.2010533,21.022066 51.1810296,19.0841446 C52.1610059,17.1462232 52.3124847,14.900269 51.6014356,12.8508457 L51.5999692,12.8489125 Z" id="Path_10682" fill="#000000"></path>
                <path d="M50.5989843,44.2067815 C50.1591466,44.9809512 51.038822,47.1481966 52.6525784,46.3740269 C51.3320472,45.7545837 52.3593533,43.8967913 53.825988,44.9809512 C54.6607431,45.6801619 54.9006443,46.9102145 54.3953969,47.9004978 C53.8901495,48.8907811 52.7850356,49.3565426 51.7723939,49.005989 C46.3446745,47.9223663 38.863361,33.5247437 29.6216785,43.8973285 C22.2869776,33.2152907 12.75207,45.9098474 7.17773802,47.1481966 C4.24395946,47.7676398 3.80361268,43.7420648 5.41736907,42.8137058 C7.03112545,41.8853468 7.911819,43.8973285 6.59077868,44.3620452 C8.20453506,45.2909414 9.08522861,43.2784225 8.79098533,42.3495263 C6.88400381,36.9308755 -2.79802542,45.7556582 4.09683782,51.7932149 C10.9917011,57.8307717 22.2869776,60.3080073 29.1813318,49.780696 C37.5428298,60.6174603 50.7450878,55.5087998 53.2390287,53.6488584 C62.0413825,46.8387436 52.9463126,38.7881307 50.5989843,44.2067815 Z" id="Path_10683" fill="#FFB800"></path>
            </g>
        </g>
    </g>
</svg>
