<?xml version="1.0" encoding="UTF-8"?>
<svg width="58px" height="58px" viewBox="0 0 58 58" version="1.1" xmlns="http://www.w3.org/2000/svg" xmlns:xlink="http://www.w3.org/1999/xlink">
    <title>LogoIcon 3</title>
    <g id="Welcome" stroke="none" stroke-width="1" fill="none" fill-rule="evenodd">
        <g id="1.0" transform="translate(-159.000000, -234.000000)">
            <g id="LogoIcon" transform="translate(159.000000, 234.000000)">
                <path d="M18.9769651,38.8725219 L16.2235591,39.7661609 C15.917802,36.7875365 15.4586356,33.6595415 15,30.680917 C15.0058827,30.3131996 15.1115522,29.9535392 15.3062879,29.6384243 L15.3062879,29.6384243 C15.3907204,29.6384243 15.4591664,29.5717803 15.4591664,29.4895706 L16.3769684,29.4895706 C17.1530202,29.4610276 17.8483346,29.9533006 18.0596939,30.680917 L18.9769651,39.319083 L18.9769651,38.8725219 Z M41.6157276,40.5109462 L39.0146693,39.3195998 L39.9324713,29.7877949 C40.0853498,29.4900875 40.0853498,29.1918633 40.3911069,29.0430096 L40.5439854,29.0430096 L40.8497425,28.7453022 L41.614666,28.7453022 C42.021228,28.7828652 42.3954889,28.9771435 42.6541175,29.28488 C42.9127462,29.5926165 43.0342712,29.9882629 42.9916344,30.3837265 L41.6157276,40.8086536 L41.6157276,40.5109462 Z M37.9445196,39.1707461 C37.0533564,38.9008686 36.1074838,38.8497331 35.1911135,39.0218924 C35.3439921,35.8944143 35.65028,32.7679699 35.8031585,29.6389412 C35.7548926,29.2777896 35.9365469,28.9242503 36.2623249,28.7453022 C36.2623249,28.5964485 36.2623249,28.5964485 36.4152034,28.5964485 C36.568082,28.5964485 36.4152034,28.4475948 36.568082,28.4475948 L37.3330055,28.1498874 L37.485884,28.1498874 C37.892446,28.1874504 38.2667069,28.3817287 38.5253355,28.6894652 C38.7839642,28.9972017 38.9054892,29.3928481 38.8628524,29.7883117 L37.9450504,39.171263 L37.9445196,39.1707461 Z M34.1225563,39.1707461 C33.1300398,39.3782637 32.1925009,39.7839189 31.3691502,40.3620925 L31.3691502,40.0643851 C31.5220288,36.6386828 31.5220288,33.0641267 31.6749073,29.4900875 C31.7055191,29.1734061 31.810104,28.8677348 31.9806644,28.5964485 L32.4398308,28.5964485 C32.4398308,28.5142389 32.5082768,28.4475948 32.5927093,28.4475948 L32.8984664,28.4475948 C32.8984664,28.3653852 32.9669124,28.2987411 33.0513449,28.2987411 L33.2042235,28.2987411 C34.0491346,28.2987411 34.7340704,28.9656446 34.7340704,29.7883117 C34.4283134,33.0646436 34.274904,36.1926385 34.1220255,39.4689704 L34.1225563,39.1707461 Z M27.6995347,39.9155314 L27.6995347,40.9575073 L28.7702152,42 L29.0759723,42 L30.2995314,40.9575073 L30.2995314,40.0638683 C30.4524278,36.4893122 30.4524278,33.0641267 30.4524278,29.4895706 C30.4561988,28.7206174 29.8582216,28.0752331 29.0722565,28 L28.4602115,28 C28.375779,28 28.307333,28.0666441 28.307333,28.1488537 L28.1544545,28.1488537 C28.0015759,28.2977074 27.8486974,28.2977074 27.8486974,28.4465611 C27.6064245,28.6800277 27.4928725,29.011907 27.5429403,29.3402001 C27.5429403,32.9147562 27.5429403,36.3399417 27.6958189,39.765644 L27.6995347,39.9155314 Z M26.6288541,40.0643851 L23.8754481,38.724185 C23.7225695,35.7455606 23.4162816,32.7669362 23.2634031,29.7877949 C23.2504353,29.3912523 23.4185805,29.0094949 23.7225695,28.7453022 L24.7932501,28.7453022 C25.1840267,28.7027889 25.5748283,28.8249693 25.8671381,29.0810431 C26.1594479,29.3371169 26.3253772,29.7026523 26.3230971,30.0855023 C26.4759756,33.5112046 26.4759756,36.9363902 26.6288541,40.3620925 L26.6288541,40.0643851 Z M22.8068908,38.5748145 L20.0534848,38.5748145 L19.1298437,30.0849854 C19.1604185,29.7682965 19.2650061,29.4626172 19.4356007,29.1913464 L19.5884793,29.1913464 C19.6729117,29.1913464 19.7413578,29.1247023 19.7413578,29.0424927 L19.8942363,29.0424927 C19.8942363,28.9602831 19.9626824,28.893639 20.0471148,28.893639 L20.1999934,28.893639 C20.1999934,28.8114294 20.2684394,28.7447853 20.3528719,28.7447853 L20.5057504,28.7447853 C20.8946565,28.6568701 21.3036058,28.7377048 21.6265157,28.9663206 C21.9494257,29.1949363 22.154476,29.5488049 22.1884759,29.9361317 C22.3418853,32.7659025 22.4947638,35.5956732 22.8005209,38.5742976 L22.8068908,38.5748145 Z" id="Path_10680" fill="#000000" fill-rule="nonzero"></path>
                <path d="M45.8706648,43 C44.9893819,42.2433756 44.0405795,41.5643612 43.0354654,40.970978 C43.4828831,37.4923673 43.9308188,34.0137565 44.5278936,30.5351457 C44.61534,29.2264505 43.6323387,28.0804436 42.2913226,27.9276966 C41.4793588,27.7921038 40.6611818,28.1327141 40.2023373,28.7973493 C39.7719863,28.0734889 38.9739012,27.6305583 38.113352,27.63798 C37.3148187,27.5918263 36.5406334,27.9141226 36.0243667,28.5076327 C35.5391766,27.8597964 34.7600808,27.4814303 33.9353814,27.4931217 C33.1213288,27.5240732 32.3603205,27.8936551 31.8463961,28.5076327 C31.392543,27.9002203 30.6784707,27.526771 29.90655,27.4931217 C29.0842689,27.6089089 28.3377683,28.0232104 27.8175647,28.652491 C27.3587203,27.9878558 26.5405432,27.6472455 25.7285794,27.7828383 C24.8680302,27.7754166 24.0699451,28.2183472 23.6395941,28.9422076 C23.1292001,28.3393599 22.3489874,28.0150707 21.5476098,28.072691 C20.7462322,28.1303114 20.0236854,28.5626513 19.6102449,29.2319242 C18.9832741,28.737854 18.1691482,28.5269002 17.3721204,28.651988 C16.1118441,28.8032868 15.1939546,29.8862207 15.2831351,31.1165908 L16.6259062,40.2476926 L13.6415675,41.8421397 L13.4924283,41.8421397 C13.4924283,41.5524231 13.343289,41.2622036 13.343289,40.8276287 C12.8953534,38.2186706 12.4479356,35.4648543 12,33.0007545 L12,32.1295928 L12,32.1295928 L12,31.695018 C13.9929555,30.2410003 15.2437911,28.0230365 15.4322743,25.6089581 L15.7258922,25.6089581 L18.5610917,24.1593693 C19.2830291,24.6425177 20.0935574,24.9868917 20.9488733,25.1738802 C23.0918082,25.8451082 25.4052795,25.7940667 27.5146256,25.029022 C28.877159,24.5851156 30.14186,23.8968713 31.2431071,23 C31.5908184,23.2783409 31.9988957,23.4766087 32.436739,23.5799361 C34.39623,24.1141603 36.4758398,24.0636887 38.4054164,23.4350778 L39.449909,23.000503 C41.9142852,25.4821413 45.5924502,26.4313695 49,25.4651058 C48.8886586,25.7919914 48.8381567,26.1355275 48.8508607,26.4796167 L48.7017215,26.4796167 C47.9555073,31.6975329 47.060154,37.6397405 46.3144577,42.4240877 C46.1756753,42.62025 46.0277443,42.8122207 45.8706648,43 Z" id="Path_10681" fill="#000000" fill-rule="nonzero"></path>
                <path d="M46.6329853,20.9435457 C44.4181189,22.6073217 41.3045549,22.3009898 39.4537571,20.2372084 C39.3131028,20.0960389 39.1724486,19.8137001 39.3131028,19.6720405 L39.4537571,19.6720405 C39.5944114,19.3897016 39.735554,19.3897016 40.0168626,19.530871 C42.831413,22.2145608 45.2240007,20.9435457 46.0684147,20.3783778 C46.9128287,19.8132099 49.0236195,16.2820133 48.1792055,14.5869998 C47.3347915,12.8919862 48.1792055,14.1634914 48.3198598,14.0218318 C48.460514,13.8801722 48.7418226,14.0218318 48.8829652,14.1630013 C49.7771599,16.6737323 48.8476901,19.4727596 46.6315202,20.9430555 L46.6329853,20.9435457 Z M39.4537571,10.4911254 C39.3131028,10.6322949 39.1724486,10.7734643 39.0317943,10.6322949 L38.8926052,10.6322949 C38.7519509,10.6322949 38.6112966,10.349956 38.7519509,10.067127 C39.9593796,8.04784562 39.4763726,5.44183199 37.6262284,3.99341005 C35.6560919,2.58073535 32.9821957,2.43956591 31.5746762,3.85224061 C31.3569322,3.97841563 31.0886605,3.97841563 30.8709165,3.85224061 C30.7154192,3.81325773 30.6208503,3.65513874 30.6596909,3.49907195 C30.6985315,3.34300515 30.8560735,3.24808986 31.0115708,3.2870727 C32.7003987,1.59205913 35.7977229,1.73322857 38.0481912,3.42824213 C40.2986595,5.1232557 40.8627417,7.66577605 39.4557106,10.4906353 L39.4537571,10.4911254 Z M25.6618248,20.2372084 C24.9580651,21.2258846 23.1285828,22.4973898 19.8915811,21.5082235 L19.4696183,21.5082235 C19.1883098,21.5082235 19.1883098,21.2258846 19.1883098,21.0847151 C19.2178807,20.9670154 19.2971225,20.8681108 19.4053143,20.8138639 C19.513506,20.759617 19.639889,20.7554221 19.7514153,20.8023763 C20.0327238,20.9435457 23.8328309,21.2258846 25.0992077,19.8137001 C26.2294063,18.5909713 26.5081297,16.8025857 25.8039442,15.2918666 C25.1165536,13.8300523 23.6119676,12.9352521 22.0043254,13.0321753 C21.7230169,13.0321753 21.5818743,12.8910058 21.5818743,12.7498364 C21.5818742,12.63743 21.6263979,12.5296347 21.7056369,12.4501974 C21.784876,12.3707601 21.8923294,12.326198 22.0043254,12.3263281 C23.8978387,12.0945712 25.7218157,13.1243533 26.5077039,14.8688484 C27.306611,16.715032 26.9781708,18.8576176 25.6632899,20.3773975 L25.6618248,20.2372084 Z M9.33713888,28.5701264 L9.19892653,28.5701264 C7.82417832,29.467155 6.01418234,29.2914509 4.83620233,28.1466181 C3.3821224,26.6560526 2.89170356,24.4689782 3.56933715,22.4968997 C4.18234671,20.6904417 5.89043918,19.4904968 7.79140709,19.530871 C8.02445071,19.530871 8.21336989,19.7204821 8.21336989,19.9543793 C8.21336989,20.0955488 8.07271562,20.2367182 7.79140709,20.2367182 C6.19149138,20.2214392 4.76723274,21.251257 4.2750504,22.7792385 C3.70290661,24.4407478 4.0807346,26.2832248 5.26011866,27.5829207 C6.28683125,28.4704498 7.76926367,28.5848397 8.91908314,27.8652596 C9.05973741,27.8652596 9.34104594,27.8652596 9.34104594,28.1475985 C9.40176457,28.2012013 9.43656362,28.2784369 9.43656362,28.3595977 C9.43656362,28.4407585 9.40176457,28.5179941 9.34104594,28.5715969 L9.33713888,28.5701264 Z M51.5568615,13.0316851 C50.2150489,9.05068891 46.048101,6.77524732 41.9889526,7.80694548 C42.1732421,6.76441777 42.0761107,5.69138214 41.7076441,4.69925722 C40.9606161,2.82988078 39.494557,1.3415007 37.640681,0.570373984 C35.7868051,-0.200752729 33.7015374,-0.189560457 31.8559848,0.601422226 C30.5802081,1.03210266 29.4231924,1.75780209 28.4783288,2.7199441 C26.1479287,1.58606804 23.462808,1.43342684 21.0197456,2.29594562 C18.0444574,3.27115147 15.7321257,5.64466885 14.8275391,8.65200141 C13.0741861,8.13590423 11.2036453,8.18528221 9.47974668,8.79317084 C5.26137835,10.0244916 2.81459011,14.4322984 3.99129996,18.6804232 C0.857839355,19.9869429 -0.738781903,23.5000977 0.332335474,26.7314926 C0.961574413,28.3839662 2.22194829,29.7160149 3.83372395,30.4319975 C5.44549961,31.1479802 7.27534275,31.1886671 8.91712961,30.545028 C11.7586783,29.6080881 13.6480848,26.9072833 13.5611623,23.9066333 L14.5462306,23.6242945 C15.5925385,23.2637982 16.5515152,22.6862713 17.3607811,21.9292809 C19.733843,23.7545311 22.8916505,24.1842609 25.6632899,23.0591266 C26.9959426,22.6648078 28.2062622,21.9356188 29.1796466,20.9406047 C31.2375946,22.1215654 33.7106008,22.3284639 35.9349585,21.5057726 L37.3444315,20.9435457 C39.5397706,23.5698454 43.113672,24.5787232 46.3511884,23.4860661 C48.4342539,22.8093663 50.1591142,21.3210997 51.1382718,19.3556118 C52.1174294,17.390124 52.2687817,15.1122216 51.5583266,13.0336458 L51.5568615,13.0316851 Z" id="Path_10682" fill="#000000"></path>
                <path d="M50.6392107,44.4632871 C50.2021371,45.2219346 51.0762843,47.3457265 52.6798992,46.587079 C51.3676667,45.9800557 52.3885168,44.1595122 53.8459347,45.2219346 C54.6754438,45.9071261 54.9138374,47.1125159 54.4117652,48.0829439 C53.9096929,49.0533719 52.811524,49.5097948 51.8052461,49.16627 C46.4116365,48.104374 38.9773383,33.9954255 29.793734,44.1600387 C22.505127,33.6921771 13.0301403,46.1322064 7.49083943,47.3457265 C4.57549781,47.9527498 4.13791834,44.007888 5.74153328,43.0981428 C7.34514823,42.1883975 8.22030717,44.1600387 6.90756876,44.6154378 C8.5111837,45.5257095 9.38634265,43.5535419 9.0939485,42.6432701 C7.19895116,37.333264 -2.42223265,45.9811086 4.42930074,51.8976116 C11.2808341,57.8141146 22.505127,60.2416814 29.3561545,49.925444 C37.6651058,60.5449298 50.784396,55.5386985 53.262664,53.7160492 C62.0097006,47.0424781 52.9717875,39.153281 50.6392107,44.4632871 Z" id="Path_10683" stroke="#000000" stroke-width="0.5"></path>
            </g>
        </g>
    </g>
</svg>
