<svg xmlns="http://www.w3.org/2000/svg" xmlns:xlink="http://www.w3.org/1999/xlink" width="18" height="23" viewBox="0 0 18 23">
    <defs>
        <path id="5n2wgb5zba" d="M2 2v19h16V11h-2V2H2zm16-2v23H0V0h18zM5 18h1c.266.002.521-.103.709-.291.188-.188.293-.443.291-.709v-2c0-.552-.448-1-1-1H5v4zm-1 1v-6h2c1.105 0 2 .895 2 2v2c.002.53-.209 1.04-.584 1.416-.375.375-.885.586-1.416.584H4zm14 0h-2c-.53.002-1.04-.209-1.416-.584-.375-.375-.586-.885-.584-1.416v-2c0-1.105.895-2 2-2h2v1h-1c-1.105 0-2 .895-2 2s.895 2 2 2h1v1zm-7-1c.266.002.521-.103.709-.291.188-.188.293-.443.291-.709v-2c0-.552-.448-1-1-1-.266-.002-.521.103-.709.291-.188.188-.293.443-.291.709v2c0 .552.448 1 1 1zm0 1c-1.105 0-2-.895-2-2v-2c-.002-.53.209-1.04.584-1.416.375-.375.885-.586 1.416-.584 1.105 0 2 .895 2 2v2c.002.53-.209 1.04-.584 1.416-.375.375-.885.586-1.416.584z"/>
    </defs>
    <g fill="none" fill-rule="evenodd">
        <g>
            <g>
                <g transform="translate(-62 -529) translate(37 508) translate(25 21)">
                    <use fill="#707070" xlink:href="#5n2wgb5zba"/>
                </g>
            </g>
        </g>
    </g>
</svg>
