<svg xmlns="http://www.w3.org/2000/svg" xmlns:xlink="http://www.w3.org/1999/xlink" width="18" height="27" viewBox="0 0 18 32">
    <defs>
        <path id="9edwieo00a" d="M2 9v7h11V9H2zm6.494-9C10.98 0 12.997 2.014 13 4.5V7h2v11H0V7h2V4.5c0-1.195.475-2.34 1.32-3.184C4.165.472 5.311-.002 6.506 0h1.988zm0 2H6.506c-.664-.002-1.302.261-1.772.73C4.264 3.2 4 3.836 4 4.5V7h7V4.5C10.997 3.118 9.876 2 8.494 2z"/>
        <path id="bt0irzz3sc" d="M0 24L24 24 24 0 0 0z"/>
    </defs>
    <g fill="none" fill-rule="evenodd">
        <g>
            <g>
                <g transform="translate(-63 -598) translate(37 582) translate(26 23)">
                    <mask id="ju4gu84vkb" fill="#fff">
                        <use xlink:href="#9edwieo00a"/>
                    </mask>
                    <g mask="url(#ju4gu84vkb)">
                        <g transform="translate(-5 -3)">
                            <mask id="scf5zw7l5d" fill="#fff">
                                <use xlink:href="#bt0irzz3sc"/>
                            </mask>
                            <g fill="#707070" fill-rule="nonzero" mask="url(#scf5zw7l5d)">
                                <path d="M0 0L25 0 25 28 0 28z" transform="translate(0 -2)"/>
                            </g>
                        </g>
                    </g>
                </g>
            </g>
        </g>
    </g>
</svg>
