<?xml version="1.0" encoding="UTF-8"?>
<svg width="15px" height="20px" viewBox="0 0 15 20" version="1.1" xmlns="http://www.w3.org/2000/svg" xmlns:xlink="http://www.w3.org/1999/xlink">
    <title>order history@3x</title>
    <g id="Sales" stroke="none" stroke-width="1" fill="none" fill-rule="evenodd">
        <g id="8.5" transform="translate(-252.000000, -755.000000)">
            <g id="Bottom-Menu" transform="translate(0.000000, 738.000000)">
                <g id="order-history" transform="translate(253.000000, 18.000000)">
                    <rect id="Rectangle" fill="#FFB800" x="2" y="3" width="9" height="10"></rect>
                    <g id="Group" stroke="#000000" stroke-linejoin="round" stroke-width="0.7">
                        <g id="receipt_1_">
                            <path d="M10.7058824,12.1304348 C10.7058824,11.7 10.3617647,11.3478261 9.94117647,11.3478261 M9.94117647,11.3478261 C9.52058824,11.3478261 9.17647059,11.7 9.17647059,12.1304348 C9.17647059,12.5608696 9.52058824,12.9130435 9.94117647,12.9130435 C10.3617647,12.9130435 10.7058824,13.2652174 10.7058824,13.6956522 C10.7058824,14.126087 10.3617647,14.4782609 9.94117647,14.4782609 M9.94117647,11.3478261 L9.94117647,10.5652174 M9.94117647,14.4782609 C9.52058824,14.4782609 9.17647059,14.126087 9.17647059,13.6956522 M9.94117647,14.4782609 L9.94117647,15.2608696 M1.91176471,13.3043478 L7.26470588,13.3043478 M1.91176471,10.9565217 L7.26470588,10.9565217 M1.91176471,7.82608696 L11.0882353,7.82608696 M1.91176471,5.47826087 L11.0882353,5.47826087 M1.91176471,3.13043478 L11.0882353,3.13043478 M1.14705882,0 L0.764705882,0 C0.344117647,0 0,0.352173913 0,0.782608696 L0,17.2173913 C0,17.6478261 0.344117647,18 0.764705882,18 L1.14705882,18 C1.14705882,17.5695652 1.49117647,17.2173913 1.91176471,17.2173913 C2.33235294,17.2173913 2.67647059,17.5695652 2.67647059,18 L4.20588235,18 C4.20588235,17.5695652 4.55,17.2173913 4.97058824,17.2173913 C5.39117647,17.2173913 5.73529412,17.5695652 5.73529412,18 L7.26470588,18 C7.26470588,17.5695652 7.60882353,17.2173913 8.02941176,17.2173913 C8.45,17.2173913 8.79411765,17.5695652 8.79411765,18 L10.3235294,18 C10.3235294,17.5695652 10.6676471,17.2173913 11.0882353,17.2173913 C11.5088235,17.2173913 11.8529412,17.5695652 11.8529412,18 L12.2352941,18 C12.6558824,18 13,17.6478261 13,17.2173913 L13,0.782608696 C13,0.352173913 12.6558824,0 12.2352941,0 L11.8529412,0 C11.8529412,0.430434783 11.5088235,0.782608696 11.0882353,0.782608696 C10.6676471,0.782608696 10.3235294,0.430434783 10.3235294,0 L8.79411765,0 C8.79411765,0.430434783 8.45,0.782608696 8.02941176,0.782608696 C7.60882353,0.782608696 7.26470588,0.430434783 7.26470588,0 L5.73529412,0 C5.73529412,0.430434783 5.39117647,0.782608696 4.97058824,0.782608696 C4.55,0.782608696 4.20588235,0.430434783 4.20588235,0 L2.67647059,0 C2.67647059,0.430434783 2.33235294,0.782608696 1.91176471,0.782608696 C1.49117647,0.782608696 1.14705882,0.430434783 1.14705882,0 Z"></path>
                        </g>
                    </g>
                </g>
            </g>
        </g>
    </g>
</svg>