<svg xmlns="http://www.w3.org/2000/svg" width="15" height="16" viewBox="0 0 15 16">
    <g fill="none" fill-rule="evenodd">
        <g stroke="#000" stroke-width=".5">
            <g>
                <g>
                    <path d="M1.42 12.786L11.365 12.786 11.365 2.841 1.42 2.841z" transform="translate(-186.000000, -255.000000) translate(35.000000, 253.000000) translate(152.000000, 3.000000)"/>
                    <path d="M12.787 1.421V12.79c0 .376-.15.737-.415 1.003-.267.266-.628.415-1.004.414H1.42c-.376 0-.738-.149-1.004-.415S0 13.165 0 12.79V1.42h2.133V0h1.421v1.421h5.683V0h1.421v1.421h2.129z" transform="translate(-186.000000, -255.000000) translate(35.000000, 253.000000) translate(152.000000, 3.000000)"/>
                    <path d="M2.84 7.104L4.261 7.104 4.261 8.525 2.84 8.525zM5.681 7.104L7.1 7.104 7.1 8.525 5.679 8.525zM8.522 7.104L9.943 7.104 9.943 8.525 8.522 8.525zM2.839 9.945L4.26 9.945 4.26 11.366 2.839 11.366zM5.68 9.945L7.1 9.945 7.1 11.366 5.679 11.366zM8.521 9.945L9.942 9.945 9.942 11.366 8.521 11.366z" transform="translate(-186.000000, -255.000000) translate(35.000000, 253.000000) translate(152.000000, 3.000000)"/>
                </g>
            </g>
        </g>
    </g>
</svg>
