<svg xmlns="http://www.w3.org/2000/svg" width="80" height="84" viewBox="0 0 80 84">
    <g fill="none" fill-rule="evenodd">
        <g fill-rule="nonzero">
            <g>
                <g>
                    <path fill="#FF5252" d="M.716.717l2.892 3.717c6.723 8.643 9.808 19.568 8.6 30.451l-.026.226.459-.612c2.598-3.464 6.676-5.503 11.006-5.503s8.408 2.039 11.006 5.503l.459.612c0-9.122-3.624-17.87-10.074-24.32C18.587 4.34 9.838.715.716.716z" transform="translate(-147 -98) translate(147 98) translate(39.694)"/>
                    <path fill="#263238" d="M12.181 35.828c-.205 0-.4-.087-.536-.24s-.2-.357-.176-.56l.026-.225c1.21-10.698-1.824-21.444-8.451-29.929L.152 1.157C-.017.941-.048.648.072.402.192.156.442 0 .716 0c19.382.021 35.09 15.729 35.111 35.111 0 .308-.198.582-.49.68-.293.097-.615-.004-.8-.25l-.459-.612c-2.462-3.284-6.328-5.217-10.433-5.217-4.104 0-7.97 1.933-10.432 5.217l-.461.613c-.134.18-.346.286-.571.286zm11.465-7.548c4.066-.02 7.95 1.69 10.682 4.7C33.217 15.824 19.381 2.25 2.207 1.466l1.966 2.528c6.405 8.197 9.581 18.458 8.927 28.84 2.727-2.922 6.55-4.573 10.546-4.555v.001z" transform="translate(-147 -98) translate(147 98) translate(39.694)"/>
                </g>
                <g fill="#263238">
                    <path d="M19.717 20.442c-.308 0-.582-.197-.681-.489C16.085 11.213 9.226 4.351.487 1.395.119 1.264-.077.862.047.491.173.121.572-.082.945.036c9.164 3.1 16.358 10.297 19.452 19.463.126.375-.075.78-.45.907-.074.024-.151.036-.229.036z" transform="translate(-147 -98) translate(147 98) translate(49.242 5.852)"/>
                </g>
                <g>
                    <path fill="#FF5252" d="M.717 35.111l.459-.612c2.598-3.464 6.676-5.503 11.006-5.503s8.408 2.039 11.006 5.503l.459.612-.024-.225c-1.21-10.882 1.873-21.807 8.594-30.45L35.111.717C16.116.717.717 16.116.717 35.111z" transform="translate(-147 -98) translate(147 98) translate(5.299)"/>
                    <path fill="#263238" d="M23.646 35.828c-.226 0-.438-.106-.573-.287l-.459-.612c-2.463-3.284-6.328-5.217-10.433-5.217-4.105 0-7.97 1.933-10.433 5.217l-.459.612c-.185.248-.507.349-.8.251-.293-.097-.49-.372-.49-.681C.021 15.728 15.729.021 35.111 0c.274 0 .524.156.644.402.12.246.09.54-.079.755l-2.892 3.717c-6.628 8.485-9.663 19.233-8.451 29.932l.026.225c.036.322-.148.628-.449.747-.084.033-.174.05-.264.05zm9.975-34.362C16.446 2.248 2.608 15.826 1.5 32.983c2.72-2.97 6.553-4.675 10.58-4.703 4.028-.028 7.885 1.622 10.646 4.554-.652-10.382 2.524-20.643 8.928-28.84l1.967-2.528z" transform="translate(-147 -98) translate(147 98) translate(5.299)"/>
                </g>
                <g>
                    <path fill="#FFF" d="M15.36 4.434L12.468.717 9.576 4.434C2.853 13.077-.232 24.002.976 34.885l.026.226.459-.612c2.598-3.464 6.676-5.503 11.006-5.503s8.408 2.039 11.006 5.503l.459.612.024-.225c1.21-10.883-1.874-21.808-8.596-30.452z" transform="translate(-147 -98) translate(147 98) translate(27.942)"/>
                    <path fill="#263238" d="M23.934 35.828c-.225 0-.438-.106-.572-.287l-.459-.612c-2.463-3.284-6.328-5.217-10.433-5.217-4.105 0-7.97 1.933-10.433 5.217l-.46.613c-.176.235-.478.34-.762.262-.283-.077-.49-.32-.523-.612l-.026-.225C-.987 23.897 2.153 12.779 9.011 4l2.89-3.722c.136-.176.346-.279.568-.278.221 0 .43.102.566.277l2.892 3.717c6.86 8.78 10 19.9 8.746 30.971l-.026.226c-.032.292-.24.535-.523.612-.062.016-.126.024-.19.025zm-11.465-7.549c4.193-.019 8.184 1.8 10.922 4.975.766-10.2-2.3-20.32-8.6-28.38l-2.322-2.991-2.327 2.991C3.845 12.934.78 23.053 1.548 33.252c2.738-3.174 6.729-4.991 10.921-4.973z" transform="translate(-147 -98) translate(147 98) translate(27.942)"/>
                </g>
                <g fill="#263238">
                    <path d="M7.166 12.181C3.211 12.177.005 8.971 0 5.016v-4.3C0 .32.321-.001.717-.001h4.3c.396 0 .717.321.717.717v4.3c0 .791.642 1.433 1.433 1.433S8.6 5.807 8.6 5.016v-4.3c0-.396.321-.717.717-.717h4.3c.396 0 .717.321.717.717v4.3c-.005 3.956-3.212 7.162-7.168 7.165zM1.433 1.433v3.583c0 3.166 2.567 5.732 5.732 5.732 3.166 0 5.733-2.566 5.733-5.732V1.433h-2.866v3.583c0 1.583-1.283 2.866-2.866 2.866-1.583 0-2.866-1.283-2.866-2.866V1.433H1.433z" transform="translate(-147 -98) translate(147 98) translate(28.945 70.939)"/>
                </g>
                <g transform="translate(-147 -98) translate(147 98) translate(28.229 39.769)">
                    <circle cx="12.182" cy="12.182" r="11.465" fill="#FFB800"/>
                    <path fill="#263238" d="M12.181 24.363c-6.727 0-12.18-5.454-12.18-12.181C.001 5.455 5.455 0 12.181 0c6.728 0 12.181 5.453 12.182 12.18-.007 6.725-5.457 12.175-12.182 12.182zm0-22.93c-5.936 0-10.747 4.813-10.747 10.749 0 5.935 4.813 10.747 10.748 10.747 5.936 0 10.748-4.812 10.748-10.748-.007-5.934-4.815-10.742-10.749-10.748z"/>
                </g>
                <g fill="#263238">
                    <path d="M.717 9.772C.321 9.772 0 9.451 0 9.055V.717C.014.332.33.027.717.027c.385 0 .702.305.716.69v8.339c0 .395-.32.716-.716.716z" transform="translate(-147 -98) translate(147 98) translate(38.261 31.528)"/>
                </g>
                <g fill="#263238">
                    <path d="M.717 9.772C.321 9.772 0 9.451 0 9.055V.717C.014.332.33.027.717.027c.385 0 .702.305.716.69v8.339c0 .395-.32.715-.716.716z" transform="translate(-147 -98) translate(147 98) translate(41.127 31.528)"/>
                </g>
                <g fill="#263238">
                    <path d="M3.583 10.772H.717c-.396 0-.717-.321-.717-.717V1.719c-.01-.262.125-.51.35-.643.226-.134.507-.134.733 0 .225.134.36.38.35.643v7.62h1.433v-7.62c-.01-.262.125-.51.35-.643.226-.134.507-.134.733 0 .225.134.36.38.35.643v8.339c-.002.394-.322.713-.716.714z" transform="translate(-147 -98) translate(147 98) translate(38.261 61.599)"/>
                </g>
                <g fill="#263238">
                    <path d="M.717 4.583C.321 4.583 0 4.262 0 3.866v-2.15c-.01-.262.125-.51.35-.643.226-.134.507-.134.733 0 .225.134.36.38.35.643v2.15c0 .19-.075.372-.21.507-.134.134-.316.21-.506.21z" transform="translate(-147 -98) translate(147 98) translate(39.694 44.501)"/>
                </g>
                <g fill="#263238">
                    <path d="M.717 3.583C.321 3.583 0 3.262 0 2.866V.716C.014.331.33.026.717.026c.385 0 .702.305.716.69v2.15c0 .19-.075.372-.21.507-.134.134-.316.21-.506.21z" transform="translate(-147 -98) translate(147 98) translate(39.694 54.816)"/>
                </g>
                <g fill="#263238">
                    <path d="M5.658 8.599H1.717c-.262.01-.51-.125-.643-.35-.134-.226-.134-.507 0-.733.134-.225.38-.36.643-.35h3.941c.594 0 1.075-.481 1.075-1.075s-.481-1.075-1.075-1.075h-2.15c-.896 0-1.724-.478-2.172-1.254-.448-.776-.448-1.732 0-2.508S2.612 0 3.508 0h3.224c.385.014.69.33.69.717 0 .385-.305.702-.69.716H3.508c-.384 0-.739.205-.931.537-.192.333-.192.743 0 1.076.192.332.547.537.931.537h2.15c1.385 0 2.508 1.123 2.508 2.508S7.043 8.599 5.658 8.599z" transform="translate(-147 -98) translate(147 98) translate(35.828 47.651)"/>
                </g>
                <g fill="#263238">
                    <path d="M3.15 1.433H1.717c-.262.01-.51-.125-.643-.35C.94.857.94.576 1.074.35c.134-.225.38-.36.643-.35H3.15c.385.014.69.33.69.717 0 .385-.305.702-.69.716z" transform="translate(-147 -98) translate(147 98) translate(0 59.474)"/>
                </g>
                <g fill="#263238">
                    <path d="M16.481 1.433H.717c-.385-.014-.69-.33-.69-.717C.027.332.332.015.717 0h15.764c.385.014.69.33.69.717 0 .385-.305.702-.69.716z" transform="translate(-147 -98) translate(147 98) translate(5.299 59.474)"/>
                </g>
                <g fill="#263238">
                    <path d="M20.347 1.433H1.717c-.262.01-.51-.125-.643-.35C.94.857.94.576 1.074.35c.134-.225.38-.36.643-.35h18.63c.262-.01.51.125.643.35.134.226.134.507 0 .733-.134.225-.38.36-.643.35z" transform="translate(-147 -98) translate(147 98) translate(7.166 63.773)"/>
                </g>
                <g fill="#263238">
                    <path d="M3.15 1.433H1.717c-.262.01-.51-.125-.643-.35C.94.857.94.576 1.074.35c.134-.225.38-.36.643-.35H3.15c.262-.01.51.125.643.35.134.226.134.507 0 .733-.134.225-.38.36-.643.35z" transform="translate(-147 -98) translate(147 98) translate(75.954 59.474)"/>
                </g>
                <g fill="#263238">
                    <path d="M16.481 1.433H.717c-.385-.014-.69-.33-.69-.717C.027.332.332.015.717 0h15.764c.262-.01.51.125.643.35.134.226.134.507 0 .733-.134.225-.38.36-.643.35z" transform="translate(-147 -98) translate(147 98) translate(58.324 59.474)"/>
                </g>
                <g fill="#263238">
                    <path d="M20.347 1.433H1.717c-.262.01-.51-.125-.643-.35C.94.857.94.576 1.074.35c.134-.225.38-.36.643-.35h18.63c.262-.01.51.125.643.35.134.226.134.507 0 .733-.134.225-.38.36-.643.35z" transform="translate(-147 -98) translate(147 98) translate(51.592 63.773)"/>
                </g>
            </g>
        </g>
    </g>
</svg>
