<?xml version="1.0" encoding="UTF-8"?>
<svg width="86px" height="83px" viewBox="0 0 86 83" version="1.1" xmlns="http://www.w3.org/2000/svg" xmlns:xlink="http://www.w3.org/1999/xlink">
    <title>Wallet@3x</title>
    <g id="6.-My-Wallet" stroke="none" stroke-width="1" fill="none" fill-rule="evenodd">
        <g id="6.0" transform="translate(-146.000000, -143.000000)" fill-rule="nonzero">
            <g id="Wallet" transform="translate(146.000000, 143.000000)">
                <g id="Group_19030" transform="translate(13.435000, 10.450000)" fill="#263238">
                    <path d="M0.746,7.464 C0.334223971,7.46344913 0.000550871681,7.12977603 -1.77635684e-15,6.718 L-1.77635684e-15,0.746 C-1.77635684e-15,0.333719434 0.334219434,-0.0005 0.7465,-0.0005 C1.15878057,-0.0005 1.493,0.333719434 1.493,0.746 L1.493,6.717 C1.493,7.12955671 1.15855671,7.464 0.746,7.464 Z" id="Path_26488"></path>
                </g>
                <g id="Group_19031" transform="translate(10.450000, 13.435000)" fill="#263238">
                    <path d="M6.718,1.493 L0.746,1.493 C0.333719434,1.493 -0.0005,1.15878057 -0.0005,0.7465 C-0.0005,0.334219434 0.333719434,-1.77635684e-15 0.746,-1.77635684e-15 L6.717,-1.77635684e-15 C7.12928057,-1.77635684e-15 7.4635,0.334219434 7.4635,0.7465 C7.4635,1.15878057 7.12928057,1.493 6.717,1.493 L6.718,1.493 Z" id="Path_26489"></path>
                </g>
                <g id="Group_19032" transform="translate(2.986000, 0.000000)" fill="#263238">
                    <path d="M0.746,7.464 C0.334223971,7.46344913 0.000550871681,7.12977603 0,6.718 L0,0.746 C0,0.333719434 0.334219434,-0.0005 0.7465,-0.0005 C1.15878057,-0.0005 1.493,0.333719434 1.493,0.746 L1.493,6.717 C1.493,7.12955671 1.15855671,7.464 0.746,7.464 Z" id="Path_26490"></path>
                </g>
                <g id="Group_19033" transform="translate(0.000000, 2.986000)" fill="#263238">
                    <path d="M6.718,1.493 L0.746,1.493 C0.333719434,1.493 -0.0005,1.15878057 -0.0005,0.7465 C-0.0005,0.334219434 0.333719434,0 0.746,0 L6.717,0 C7.12928057,0 7.4635,0.334219434 7.4635,0.7465 C7.4635,1.15878057 7.12928057,1.493 6.717,1.493 L6.718,1.493 Z" id="Path_26491"></path>
                </g>
                <g id="Group_19034" transform="translate(17.243000, 0.494000)">
                    <path d="M42.969,26.376 L45.956,23.389 C46.6062245,22.8028038 46.6645983,21.8028739 46.087,21.145 L27.087,2.145 C26.4291261,1.56740174 25.4291962,1.62577554 24.843,2.276 L0.743,26.376" id="Path_26492" fill="#4DB6AC"></path>
                    <path d="M42.969,27.123 C42.6674007,27.1229989 42.3954729,26.9413948 42.2799239,26.6628081 C42.164375,26.3842213 42.2279399,26.0634655 42.441,25.85 L45.427,22.863 C45.6087267,22.6871785 45.7200253,22.451069 45.74,22.199 C45.7552311,22.007175 45.6891942,21.8177725 45.558,21.677 L26.558,2.677 C26.1908846,2.39387053 25.6654173,2.45269809 25.37,2.81 L1.27,26.91 C0.978456966,27.2000844 0.507135857,27.1994934 0.216321217,26.9086788 C-0.0744934232,26.6178641 -0.0750844168,26.146543 0.215,25.855 L24.315,1.755 C24.748048,1.3104689 25.3298472,1.04128886 25.949,0.999 C26.5670461,0.954091194 27.174375,1.17828524 27.615,1.614 L46.615,20.614 C47.4869058,21.5626174 47.4283582,23.0374828 46.484,23.914 L43.499,26.905 C43.3577892,27.0444063 43.1674301,27.1227049 42.969,27.123 Z" id="Path_26493" fill="#263238"></path>
                </g>
                <g id="Group_19035" transform="translate(11.196000, 74.640000)" fill="#263238">
                    <path d="M4.478,1.493 L0.746,1.493 C0.333719434,1.493 -0.0005,1.15878057 -0.0005,0.7465 C-0.0005,0.334219434 0.333719434,0 0.746,0 L4.478,0 C4.89028057,0 5.2245,0.334219434 5.2245,0.7465 C5.2245,1.15878057 4.89028057,1.493 4.478,1.493 L4.478,1.493 Z" id="Path_26494"></path>
                </g>
                <g id="Group_19036" transform="translate(18.660000, 74.640000)" fill="#263238">
                    <path d="M4.478,1.493 L0.746,1.493 C0.333719434,1.493 -0.0005,1.15878057 -0.0005,0.7465 C-0.0005,0.334219434 0.333719434,0 0.746,0 L4.478,0 C4.89028057,0 5.2245,0.334219434 5.2245,0.7465 C5.2245,1.15878057 4.89028057,1.493 4.478,1.493 L4.478,1.493 Z" id="Path_26495"></path>
                </g>
                <g id="Group_19037" transform="translate(26.124000, 74.640000)" fill="#263238">
                    <path d="M4.478,1.493 L0.746,1.493 C0.333719434,1.493 -0.0005,1.15878057 -0.0005,0.7465 C-0.0005,0.334219434 0.333719434,0 0.746,0 L4.478,0 C4.89028057,0 5.2245,0.334219434 5.2245,0.7465 C5.2245,1.15878057 4.89028057,1.493 4.478,1.493 L4.478,1.493 Z" id="Path_26496"></path>
                </g>
                <g id="Group_19038" transform="translate(33.588000, 74.640000)" fill="#263238">
                    <path d="M4.478,1.493 L0.746,1.493 C0.333719434,1.493 -0.0005,1.15878057 -0.0005,0.7465 C-0.0005,0.334219434 0.333719434,0 0.746,0 L4.478,0 C4.89028057,0 5.2245,0.334219434 5.2245,0.7465 C5.2245,1.15878057 4.89028057,1.493 4.478,1.493 L4.478,1.493 Z" id="Path_26497"></path>
                </g>
                <g id="Group_19039" transform="translate(41.052000, 74.640000)" fill="#263238">
                    <path d="M4.478,1.493 L0.746,1.493 C0.333719434,1.493 -0.0005,1.15878057 -0.0005,0.7465 C-0.0005,0.334219434 0.333719434,0 0.746,0 L4.478,0 C4.89028057,0 5.2245,0.334219434 5.2245,0.7465 C5.2245,1.15878057 4.89028057,1.493 4.478,1.493 Z" id="Path_26498"></path>
                </g>
                <g id="Group_19040" transform="translate(48.516000, 74.640000)" fill="#263238">
                    <path d="M4.478,1.493 L0.746,1.493 C0.333719434,1.493 -0.0005,1.15878057 -0.0005,0.7465 C-0.0005,0.334219434 0.333719434,0 0.746,0 L4.478,0 C4.89028057,0 5.2245,0.334219434 5.2245,0.7465 C5.2245,1.15878057 4.89028057,1.493 4.478,1.493 Z" id="Path_26499"></path>
                </g>
                <g id="Group_19041" transform="translate(55.980000, 74.640000)" fill="#263238">
                    <path d="M4.478,1.493 L0.746,1.493 C0.333719434,1.493 -0.0005,1.15878057 -0.0005,0.7465 C-0.0005,0.334219434 0.333719434,0 0.746,0 L4.478,0 C4.89028057,0 5.2245,0.334219434 5.2245,0.7465 C5.2245,1.15878057 4.89028057,1.493 4.478,1.493 Z" id="Path_26500"></path>
                </g>
                <g id="Group_19042" transform="translate(63.444000, 74.640000)" fill="#263238">
                    <path d="M4.478,1.493 L0.746,1.493 C0.333719434,1.493 -0.0005,1.15878057 -0.0005,0.7465 C-0.0005,0.334219434 0.333719434,0 0.746,0 L4.478,0 C4.89028057,0 5.2245,0.334219434 5.2245,0.7465 C5.2245,1.15878057 4.89028057,1.493 4.478,1.493 L4.478,1.493 Z" id="Path_26501"></path>
                </g>
                <g id="Group_19043" transform="translate(6.718000, 29.110000)" fill="#263238">
                    <path d="M61.951,52.995 L4.478,52.995 C2.00584942,52.9916936 0.00275442669,50.9881513 1.77635684e-15,48.516 L1.77635684e-15,4.478 C0.00330523386,2.00623926 2.00623926,0.00330523386 4.478,-3.55271368e-15 L61.951,-3.55271368e-15 C64.4227607,0.00330523386 66.4256948,2.00623926 66.429,4.478 L66.429,16.421 C66.429,16.8332806 66.0947806,17.1675 65.6825,17.1675 C65.2702194,17.1675 64.936,16.8332806 64.936,16.421 L64.936,4.478 C64.9343463,2.8295632 63.5984368,1.49365367 61.95,1.492 L4.478,1.492 C2.8295632,1.49365367 1.49365367,2.8295632 1.492,4.478 L1.492,48.516 C1.49475538,50.1636557 2.83034282,51.4983486 4.478,51.5 L61.951,51.5 C63.5994368,51.4983463 64.9353463,50.1624368 64.937,48.514 L64.937,37.32 C64.937,36.9077194 65.2712194,36.5735 65.6835,36.5735 C66.0957806,36.5735 66.43,36.9077194 66.43,37.32 L66.43,48.52 C66.4250419,50.9909789 64.4219823,52.9922496 61.951,52.995 L61.951,52.995 Z" id="Path_26502"></path>
                </g>
                <g id="Group_19044" transform="translate(52.995000, 49.263000)">
                    <path d="M21.646,12.688 L2.239,12.688 C1.41482923,12.688 0.746552023,12.0201706 0.746,11.196 L0.746,2.239 C0.746,1.84303178 0.903297763,1.46328139 1.18328958,1.18328958 C1.46328139,0.903297763 1.84303178,0.746 2.239,0.746 L21.646,0.746 C22.0419682,0.746 22.4217186,0.903297763 22.7017104,1.18328958 C22.9817022,1.46328139 23.139,1.84303178 23.139,2.239 L23.139,11.196 C23.138448,12.0201706 22.4701708,12.688 21.646,12.688 L21.646,12.688 Z" id="Path_26503" fill="#FFBE36"></path>
                    <path d="M21.646,13.435 L2.239,13.435 C1.0046771,13.4333544 0.0038527246,12.434318 0,11.2 L0,2.239 C0.00165261693,1.00311963 1.00311963,0.00165261693 2.239,0 L21.646,0 C22.8818804,0.00165261693 23.8833474,1.00311963 23.885,2.239 L23.885,11.2 C23.8811473,12.434318 22.8803229,13.4333544 21.646,13.435 Z M2.239,1.493 C1.82745163,1.49409893 1.49409893,1.82745163 1.493,2.239 L1.493,11.2 C1.49409893,11.6115484 1.82745163,11.9449011 2.239,11.946 L21.646,11.946 C22.0575484,11.9449011 22.3909011,11.6115484 22.392,11.2 L22.392,2.239 C22.3909011,1.82745163 22.0575484,1.49409893 21.646,1.493 L2.239,1.493 Z" id="Path_26504" fill="#263238"></path>
                </g>
                <g id="Group_19045" transform="translate(55.980000, 52.248000)">
                    <circle id="Ellipse_2401" fill="#FFFFFF" cx="3.732" cy="3.732" r="2.986"></circle>
                    <path d="M3.732,7.464 C1.67087331,7.464 0,5.79312669 0,3.732 C0,1.67087331 1.67087331,0 3.732,0 C5.79312669,0 7.464,1.67087331 7.464,3.732 C7.46179538,5.79221281 5.79221281,7.46179538 3.732,7.464 L3.732,7.464 Z M3.732,1.493 C2.82640903,1.493 2.00998839,2.03851484 1.66343373,2.87517179 C1.31687907,3.71182875 1.5084384,4.67486257 2.14878792,5.31521208 C2.78913743,5.9555616 3.75217125,6.14712093 4.58882821,5.80056627 C5.42548516,5.45401161 5.971,4.63759097 5.971,3.732 C5.96934738,2.49611963 4.96788037,1.49465262 3.732,1.493 L3.732,1.493 Z" id="Path_26505" fill="#263238"></path>
                </g>
                <g id="Group_19046" transform="translate(59.712000, 33.588000)" fill="#263238">
                    <path d="M8.21,8.957 C7.79822397,8.95644913 7.46455087,8.62277603 7.464,8.211 L7.464,2.239 C7.46290107,1.82745163 7.12954837,1.49409893 6.718,1.493 L0.746,1.493 C0.333719434,1.493 -0.0005,1.15878057 -0.0005,0.7465 C-0.0005,0.334219434 0.333719434,3.55271368e-15 0.746,3.55271368e-15 L6.717,3.55271368e-15 C7.95288037,0.00165261693 8.95434738,1.00311963 8.956,2.239 L8.956,8.21 C8.956,8.6221665 8.62216613,8.95644824 8.21,8.957 Z" id="Path_26506"></path>
                </g>
                <g id="Group_19047" transform="translate(24.555000, 18.952000)">
                    <path d="M19.803,7.919 C18.1281213,4.15585237 14.395041,1.73121874 10.276,1.73121874 C6.15695901,1.73121874 2.42387867,4.15585237 0.749,7.919" id="Path_26507" fill="#FFFFFF"></path>
                    <path d="M19.803,8.665 C19.5083977,8.66504048 19.2412861,8.49192705 19.121,8.223 C17.5652071,4.72928637 14.0989642,2.47845348 10.2745,2.47845348 C6.45003578,2.47845348 2.98379295,4.72928637 1.428,8.223 C1.25982929,8.59938206 0.818382057,8.76817071 0.442,8.6 C0.065617943,8.43182929 -0.103170706,7.99038206 0.065,7.614 C1.86111406,3.58271928 5.86119626,0.985784316 10.2745,0.985784316 C14.6878037,0.985784316 18.6878859,3.58271928 20.484,7.614 C20.5649018,7.79446202 20.5707305,7.99968618 20.5002018,8.1844491 C20.429673,8.36921202 20.2885749,8.51835041 20.108,8.599 C20.0122098,8.6425183 19.9082122,8.6650227 19.803,8.665 L19.803,8.665 Z" id="Path_26508" fill="#263238"></path>
                </g>
                <g id="Group_19048" transform="translate(26.697000, 11.424000)" fill="#263238">
                    <path d="M26.687,16.192 C26.3597882,16.1920064 26.0705511,15.9793321 25.973,15.667 C25.2107893,13.2375899 25.298253,10.6210859 26.221,8.248 L19.602,1.629 C17.2457118,2.55537415 14.6441183,2.65131144 12.226,1.901 L1.273,12.855 C0.981393648,13.1468825 0.508382505,13.1471063 0.216500025,12.8555 C-0.0753824557,12.5638936 -0.0756063244,12.0908825 0.216,11.799 L11.496,0.52 C11.6999289,0.316637544 12.0023971,0.24821286 12.274,0.344 C14.6203238,1.18201702 17.1995609,1.08207158 19.474,0.065 C19.7564056,-0.0601070708 20.0866852,0.00149742683 20.305,0.22 L27.632,7.547 C27.8502402,7.76545299 27.9118125,8.09556003 27.787,8.378 C26.8314157,10.5378436 26.6945654,12.9716465 27.402,15.225 C27.4722097,15.4520239 27.4303694,15.6989022 27.2892781,15.8901155 C27.1481868,16.0813287 26.9246326,16.1940001 26.687,16.1940001 L26.687,16.192 Z" id="Path_26509"></path>
                </g>
                <g id="Group_19049" transform="translate(82.104000, 0.746000)" fill="#263238">
                    <path d="M2.239,1.493 L0.746,1.493 C0.333719434,1.493 -0.0005,1.15878057 -0.0005,0.7465 C-0.0005,0.334219434 0.333719434,0 0.746,0 L2.239,0 C2.65128057,0 2.9855,0.334219434 2.9855,0.7465 C2.9855,1.15878057 2.65128057,1.493 2.239,1.493 L2.239,1.493 Z" id="Path_26510"></path>
                </g>
                <g id="Group_19050" transform="translate(62.698000, 0.746000)" fill="#263238">
                    <path d="M17.167,1.493 L0.746,1.493 C0.333719434,1.493 -0.0005,1.15878057 -0.0005,0.7465 C-0.0005,0.334219434 0.333719434,0 0.746,0 L17.167,0 C17.5792806,0 17.9135,0.334219434 17.9135,0.7465 C17.9135,1.15878057 17.5792806,1.493 17.167,1.493 L17.167,1.493 Z" id="Path_26511"></path>
                </g>
                <g id="Group_19051" transform="translate(56.727000, 5.225000)" fill="#263238">
                    <path d="M20.153,1.493 L0.746,1.493 C0.333719434,1.493 -0.0005,1.15878057 -0.0005,0.7465 C-0.0005,0.334219434 0.333719434,0 0.746,0 L20.153,0 C20.5652806,0 20.8995,0.334219434 20.8995,0.7465 C20.8995,1.15878057 20.5652806,1.493 20.153,1.493 Z" id="Path_26512"></path>
                </g>
            </g>
        </g>
    </g>
</svg>