<?xml version="1.0" encoding="UTF-8"?>
<svg width="104px" height="99px" viewBox="0 0 104 99" version="1.1" xmlns="http://www.w3.org/2000/svg" xmlns:xlink="http://www.w3.org/1999/xlink">
    <title>payment_method@3x</title>
    <g id="Payment-Methods" stroke="none" stroke-width="1" fill="none" fill-rule="evenodd">
        <g id="4.0" transform="translate(-135.000000, -126.000000)" fill-rule="nonzero">
            <g id="payment_method" transform="translate(135.000000, 126.000000)">
                <g id="Group_8524" transform="translate(91.149000, 11.849000)" fill="#263238">
                    <path d="M8.2,1.823 L0.911,1.823 C0.407592451,1.823 -0.0005,1.41490755 -0.0005,0.9115 C-0.0005,0.408092451 0.407592451,1.77635684e-15 0.911,1.77635684e-15 L8.2,1.77635684e-15 C8.70340755,1.77635684e-15 9.1115,0.408092451 9.1115,0.9115 C9.1115,1.41490755 8.70340755,1.823 8.2,1.823 L8.2,1.823 Z" id="Path_13733"></path>
                </g>
                <g id="Group_8525" transform="translate(94.795000, 8.203000)" fill="#263238">
                    <path d="M0.911,9.115 C0.668775214,9.11473571 0.436605846,9.0181214 0.265702566,8.84646772 C0.0947992853,8.67481404 -0.000796936712,8.44222362 -4.9430351e-06,8.2 L-4.9430351e-06,0.911 C-4.9430351e-06,0.407592451 0.408092451,-0.0005 0.9115,-0.0005 C1.41490755,-0.0005 1.82300494,0.407592451 1.82300494,0.911 L1.82300494,8.2 C1.82379736,8.44239681 1.72806404,8.67513903 1.55694437,8.8468216 C1.38582469,9.01850417 1.15339812,9.115 0.911,9.115 L0.911,9.115 Z" id="Path_13734"></path>
                </g>
                <g id="Group_8526" transform="translate(76.565000, 21.876000)" fill="#263238">
                    <path d="M8.2,1.823 L0.911,1.823 C0.407592451,1.823 -0.0005,1.41490755 -0.0005,0.9115 C-0.0005,0.408092451 0.407592451,0 0.911,0 L8.2,0 C8.70340755,0 9.1115,0.408092451 9.1115,0.9115 C9.1115,1.41490755 8.70340755,1.823 8.2,1.823 L8.2,1.823 Z" id="Path_13735"></path>
                </g>
                <g id="Group_8527" transform="translate(80.211000, 18.230000)" fill="#263238">
                    <path d="M0.911,9.115 C0.668775214,9.11473571 0.436605846,9.0181214 0.265702566,8.84646772 C0.0947992853,8.67481404 -0.000796936712,8.44222362 -4.94303509e-06,8.2 L-4.94303509e-06,0.911 C-4.94303509e-06,0.407592451 0.408092451,-0.0005 0.9115,-0.0005 C1.41490755,-0.0005 1.82300494,0.407592451 1.82300494,0.911 L1.82300494,8.2 C1.82379736,8.44239681 1.72806404,8.67513903 1.55694437,8.8468216 C1.38582469,9.01850417 1.15339812,9.115 0.911,9.115 Z" id="Path_13736"></path>
                </g>
                <g id="Group_8528" transform="translate(32.814000, 45.575000)">
                    <path d="M59.247,2.734 C59.247,1.72741351 58.4305865,0.911551706 57.424,0.911 L2.734,0.911 C1.72741351,0.911551706 0.911,1.72741351 0.911,2.734 L0.911,31.902 C0.911,32.9085865 1.72741351,33.7244483 2.734,33.725 L57.424,33.725 C58.4305865,33.7244483 59.247,32.9085865 59.247,31.902 L59.247,2.734 Z" id="Path_13737" fill="#4DB6AC"></path>
                    <path d="M57.424,34.637 L2.734,34.637 C1.22379701,34.6347938 -3.55271368e-15,33.4102045 -3.55271368e-15,31.9 L-3.55271368e-15,2.734 C0.0022029715,1.22496694 1.22496694,0.0022029715 2.734,0 L57.424,0 C58.9330331,0.0022029715 60.155797,1.22496694 60.158,2.734 L60.158,31.9 C60.158,33.4102045 58.934203,34.6347938 57.424,34.637 Z M2.734,1.823 C2.23155217,1.82464648 1.82464648,2.23155217 1.823,2.734 L1.823,31.9 C1.82464648,32.4024478 2.23155217,32.8093535 2.734,32.811 L57.424,32.811 C57.9264478,32.8093535 58.3333535,32.4024478 58.335,31.9 L58.335,2.734 C58.3333535,2.23155217 57.9264478,1.82464648 57.424,1.823 L2.734,1.823 Z" id="Path_13738" fill="#263238"></path>
                </g>
                <g id="Group_8529" transform="translate(10.938000, 41.444000)" fill="#263238">
                    <path d="M47.4,51.528 L5.469,51.528 C2.45054336,51.5241447 0.00440726635,49.0784559 -1.77635684e-15,46.06 L-1.77635684e-15,0.911 C-1.77635684e-15,0.407592451 0.408092451,-0.0005 0.9115,-0.0005 C1.41490755,-0.0005 1.823,0.407592451 1.823,0.911 L1.823,46.06 C1.82520451,48.0727164 3.45628365,49.7037955 5.469,49.706 L47.4,49.706 C49.4127164,49.7037955 51.0437955,48.0727164 51.046,46.06 L51.046,41.502 C51.046,40.9985925 51.4540925,40.5905 51.9575,40.5905 C52.4609075,40.5905 52.869,40.9985925 52.869,41.502 L52.869,46.059 C52.8651435,49.0778464 50.4188464,51.5241435 47.4,51.528 Z" id="Path_13739"></path>
                </g>
                <g id="Group_8530" transform="translate(10.938000, 5.469000)" fill="#263238">
                    <path d="M51.955,38.2830022 C51.4520971,38.2824489 51.0445511,37.8749029 51.044,37.372 L51.044,5.472 C51.0434512,3.45889189 49.4131055,1.82630914 47.4,1.823 L40.483,1.823 L36.192,6.114 C36.021062,6.28450018 35.7894334,6.38017286 35.548,6.38 L17.318,6.38 C17.0763714,6.37967465 16.8446141,6.28409723 16.673,6.114 L12.384,1.823 L5.469,1.823 C3.45628365,1.82520451 1.82520451,3.45628365 1.823,5.469 L1.823,12.524 C1.823,13.0274075 1.41490755,13.4355 0.9115,13.4355 C0.408092451,13.4355 0,13.0274075 0,12.524 L0,5.469 C0.00385654727,2.45015358 2.45015358,0.00385654727 5.469,-5.7368248e-06 L12.761,-5.7368248e-06 C13.0026286,-5.7368248e-06 13.2343859,0.0959027677 13.406,0.266 L17.7,4.557 L35.173,4.557 L39.464,0.266 C39.6337578,0.0949584379 39.8650183,-0.000859800331 40.106,-5.7368248e-06 L47.4,-5.7368248e-06 C50.4188464,0.00385654727 52.8651435,2.45015358 52.8690022,5.469 L52.8690022,37.369 C52.8695325,37.6115707 52.7734074,37.8443598 52.6018836,38.0158836 C52.4303598,38.1874074 52.1975707,38.2835325 51.955,38.2830022 Z" id="Path_13740"></path>
                </g>
                <g id="Group_8531" transform="translate(5.469000, 40.230000)" fill="#263238">
                    <path d="M53.778,58.212 L10.026,58.212 C4.49137255,58.2048369 0.00661112166,53.7196281 8.8817842e-16,48.185 L8.8817842e-16,0.911 C8.8817842e-16,0.407592451 0.408092451,-0.0005 0.9115,-0.0005 C1.41490755,-0.0005 1.823,0.407592451 1.823,0.911 L1.823,48.185 C1.83015799,52.7107667 5.4972333,56.377842 10.023,56.385 L53.778,56.385 C58.3037667,56.377842 61.970842,52.7107667 61.978,48.185 L61.978,42.716 C61.978,42.2125925 62.3860925,41.8045 62.8895,41.8045 C63.3929075,41.8045 63.801,42.2125925 63.801,42.716 L63.801,48.185 C63.7943927,53.7184589 59.3114558,58.2031848 53.778,58.212 L53.778,58.212 Z" id="Path_13741"></path>
                </g>
                <g id="Group_8532" transform="translate(5.469000, 0.000000)" fill="#263238">
                    <path d="M62.893,43.752 C62.3900971,43.7514489 61.9825511,43.3439029 61.982,42.841 L61.982,10.026 C61.974842,5.5002333 58.3077667,1.83315799 53.782,1.826 L10.026,1.826 C5.5002333,1.83315799 1.83315799,5.5002333 1.826,10.026 L1.826,21.495 C1.82600001,21.8206476 1.65226909,22.1215584 1.37025001,22.2843822 C1.08823092,22.447206 0.740769078,22.447206 0.458749992,22.2843822 C0.176730907,22.1215584 0.003,21.8206476 0.003,21.495 L0.003,10.026 C0.0101580312,4.4929316 4.49293399,0.0088138945 10.026,-8.8817842e-16 L53.778,-8.8817842e-16 C59.3106755,0.00936439395 63.7928434,4.49332125 63.8,10.026 L63.8,42.84 C63.8,43.3417375 63.39473,43.7492492 62.893,43.752 L62.893,43.752 Z" id="Path_13742"></path>
                </g>
                <g id="Group_8533" transform="translate(51.044000, 51.044000)">
                    <circle id="Ellipse_1858" fill="#FFFFFF" cx="11.849" cy="11.849" r="10.938"></circle>
                    <path d="M11.849,23.7 C5.30549883,23.6988954 0.00163199596,18.3938347 0.00200018758,11.8503334 C0.00236837919,5.30683219 5.30683219,0.00236837919 11.8503334,0.00200018758 C18.3938347,0.00163199596 23.6988954,5.30549883 23.7,11.849 C23.6933854,18.3913848 18.3913848,23.6933854 11.849,23.7 Z M11.849,1.824 C6.31179314,1.82455231 1.82344781,6.31379311 1.8240001,11.851 C1.82455239,17.3882068 6.31379317,21.8765522 11.851,21.8759999 C17.3882069,21.8754476 21.8765523,17.3862069 21.876,11.849 C21.8688369,6.31437255 17.3836281,1.82961112 11.849,1.823 L11.849,1.824 Z" id="Path_13743" fill="#263238"></path>
                </g>
                <g id="Group_8534" transform="translate(58.336000, 57.424000)" fill="#263238">
                    <path d="M5.925,10.938 L0.911,10.938 C0.407592451,10.938 -0.0005,10.5299075 -0.0005,10.0265 C-0.0005,9.52309245 0.407592451,9.115 0.911,9.115 L5.924,9.115 C6.67897325,9.115 7.291,8.50297325 7.291,7.748 C7.291,6.99302675 6.67897325,6.381 5.924,6.381 L3.19,6.381 C1.42821165,6.381 -7.10553578e-15,4.95278835 -7.10553578e-15,3.191 C-7.10553578e-15,1.42921165 1.42821165,0.001 3.19,0.001 L7.29,0.001 C7.79340755,0.001 8.2015,0.409092451 8.2015,0.9125 C8.2015,1.41590755 7.79340755,1.824 7.29,1.824 L3.19,1.824 C2.43502675,1.824 1.823,2.43602675 1.823,3.191 C1.823,3.94597325 2.43502675,4.558 3.19,4.558 L5.924,4.558 C7.68578835,4.558 9.114,5.98621165 9.114,7.748 C9.114,9.50978835 7.68578835,10.938 5.924,10.938 L5.925,10.938 Z" id="Path_13744"></path>
                </g>
                <g id="Group_8535" transform="translate(61.981000, 54.690000)" fill="#263238">
                    <path d="M0.911,4.557 C0.408097054,4.55644887 0.000551127012,4.14890295 0,3.646 L0,0.911 C0,0.407592451 0.408092451,-0.0005 0.9115,-0.0005 C1.41490755,-0.0005 1.823,0.407592451 1.823,0.911 L1.823,3.645 C1.823,4.14868369 1.41468369,4.557 0.911,4.557 L0.911,4.557 Z" id="Path_13745"></path>
                </g>
                <g id="Group_8536" transform="translate(61.981000, 66.539000)" fill="#263238">
                    <path d="M0.911,4.557 C0.408097054,4.55644887 0.000551127012,4.14890295 0,3.646 L0,0.911 C0,0.407592451 0.408092451,-0.0005 0.9115,-0.0005 C1.41490755,-0.0005 1.823,0.407592451 1.823,0.911 L1.823,3.645 C1.823,4.14868369 1.41468369,4.557 0.911,4.557 Z" id="Path_13746"></path>
                </g>
                <g id="Group_8537" transform="translate(37.371000, 51.044000)" fill="#263238">
                    <path d="M43.179,23.7000079 L7.864,23.7000079 C7.51250824,23.7000079 7.19241834,23.4976804 7.042,23.18 C5.7380272,20.4316549 3.42457243,18.2919152 0.583,17.206 C0.231525716,17.0694466 3.55271368e-15,16.731069 3.55271368e-15,16.354 L3.55271368e-15,7.348 C3.55271368e-15,6.97129632 0.231865942,6.633421 0.583,6.497 C3.42332573,5.40802308 5.73598866,3.26829965 7.042,0.521 C7.19193769,0.202760646 7.5122081,-2.00579986e-07 7.864,-2.00579986e-07 L43.177,-2.00579986e-07 C43.5284918,-2.00579986e-07 43.8485817,0.202319642 43.999,0.52 C45.302584,3.26998915 47.6159065,5.41175548 50.458,6.4999998 C50.8091341,6.636421 51.041,6.97429632 51.041,7.351 L51.041,16.357 C51.041,16.7337037 50.8091341,17.071579 50.458,17.208 C47.6187497,18.2946264 45.3063689,20.4319136 44,23.177 C43.8523566,23.497059 43.5314686,23.7014736 43.179,23.7000079 L43.179,23.7000079 Z M8.428,21.876 L42.616,21.876 C44.0568743,19.1423861 46.3841805,16.9797545 49.216,15.743 L49.216,7.957 C46.3845515,6.71918306 44.0574623,4.55640046 42.616,1.823 L8.428,1.823 C6.987113,4.55684103 4.65984587,6.719789 1.828,7.957 L1.828,15.743 C4.65981954,16.9797545 6.98712568,19.1423861 8.428,21.876 Z" id="Path_13747"></path>
                </g>
                <g id="Group_8538" transform="translate(21.875000, 18.230000)">
                    <path d="M0.913,0.911 L2.752,3.275 C7.02737996,8.77220361 8.9894845,15.7204718 8.221,22.642 L8.205,22.786 L8.497,22.398 C10.1494758,20.1946989 12.7428736,18.898 15.497,18.898 C18.2511264,18.898 20.8445242,20.1946989 22.497,22.398 L22.789,22.786 C22.7878956,10.7048381 12.9941619,0.911552181 0.913,0.911 Z" id="Path_13748" fill="#FF5252"></path>
                    <path d="M8.201,23.7000602 C8.08572033,23.6992253 7.97153773,23.6775408 7.864,23.636 C7.48178639,23.4838998 7.24870771,23.0947526 7.295,22.686 C8.0864955,15.9542091 6.19421695,9.18159798 2.028,3.835 L0.189,1.471 C-0.0264439422,1.1958613 -0.0653016644,0.82165352 0.0890144672,0.508118949 C0.243330599,0.194584378 0.563558936,-0.00288764021 0.913,-3.12447333e-05 C13.4925916,0.0132271704 23.6872208,10.207409 23.7010006,22.787 C23.7014311,23.1795529 23.450621,23.5283396 23.0783488,23.6528841 C22.7060765,23.7774285 22.2958755,23.6497845 22.06,23.336 L21.768,22.948 C20.2882186,20.9739084 17.9651422,19.8119996 15.498,19.8119996 C13.0308578,19.8119996 10.7077814,20.9739084 9.228,22.948 L8.934,23.338 C8.75994748,23.5669295 8.48857969,23.7009474 8.201,23.7000602 Z M15.501,17.987 C17.7811943,17.9769402 19.9900827,18.7812039 21.73,20.255 C20.5249794,10.4645962 12.668237,2.83253437 2.847,1.912 L3.472,2.712 C7.37491943,7.70546429 9.43141354,13.8947308 9.293,20.231 C11.0309232,18.7707849 13.2310941,17.9754912 15.501,17.987 L15.501,17.987 Z" id="Path_13749" fill="#263238"></path>
                </g>
                <g id="Group_8539" transform="translate(0.000000, 18.230000)">
                    <path d="M0.911,22.787 L1.203,22.399 C2.85547584,20.1956989 5.4488736,18.899 8.203,18.899 C10.9571264,18.899 13.5505242,20.1956989 15.203,22.399 L15.495,22.787 L15.479,22.643 C14.7094409,15.7213832 16.6716578,8.77271708 20.948,3.276 L22.787,0.911 C10.7054476,0.911552236 0.911552236,10.7054476 0.911,22.787 Z" id="Path_13750" fill="#FF5252"></path>
                    <path d="M0.911,23.7000017 C0.813242978,23.6991174 0.71616824,23.6836124 0.623,23.654 C0.251319298,23.5285192 0.000803270542,23.1802899 -2.22044605e-15,22.788 C0.0132271704,10.2084084 10.207409,0.0137792095 22.787,1.77635684e-15 C23.1346195,1.77635684e-15 23.4518552,0.19808784 23.6045027,0.510398635 C23.7571501,0.82270943 23.7185377,1.19469916 23.505,1.469 L21.666,3.833 C17.522987,9.13606574 15.6267089,15.8532924 16.385,22.54 C16.4356766,22.9658471 16.2091811,23.3765965 15.822,23.561 C15.4599024,23.7373953 15.0241846,23.6441451 14.766,23.335 L14.474,22.947 C12.9942186,20.9729084 10.6711422,19.8109996 8.204,19.8109996 C5.73685782,19.8109996 3.41378142,20.9729084 1.934,22.947 L1.641,23.337 C1.46830421,23.5660814 1.19788297,23.7005512 0.911,23.7000017 Z M20.853,1.912 C11.0333149,2.83430622 3.17867378,10.4659436 1.974,20.255 C5.57007461,17.2358211 10.8136241,17.2303424 14.416,20.242 C14.2749693,13.9046705 16.3281644,7.713291 20.228,2.716 L20.853,1.912 Z" id="Path_13751" fill="#263238"></path>
                </g>
                <g id="Group_8540" transform="translate(13.412000, 18.248000)">
                    <path d="M11.215,3.257 L9.375,0.893 L7.536,3.257 C3.26062004,8.75420361 1.2985155,15.7024718 2.067,22.624 L2.083,22.768 L2.375,22.38 C4.02747584,20.1766989 6.6208736,18.88 9.375,18.88 C12.1291264,18.88 14.7225242,20.1766989 16.375,22.38 L16.667,22.768 L16.683,22.624 C17.4517663,15.7026052 15.4900246,8.75435139 11.215,3.257 L11.215,3.257 Z" id="Path_13752" fill="#FFFFFF"></path>
                    <path d="M2.083,23.681 C1.61889774,23.679894 1.22929919,23.3311474 1.177,22.87 C0.332171626,15.6663376 2.35837999,8.41976868 6.817,2.699 L8.656,0.335 C8.8349838,0.123551133 9.09796964,0.00160742684 9.375,0.00160742684 C9.65203036,0.00160742684 9.9150162,0.123551133 10.094,0.335 L11.933,2.699 L11.933,2.699 C16.3694859,8.37552981 18.4020841,15.565922 17.594,22.725 C17.5529216,23.1146408 17.2908348,23.4456568 16.921,23.575 C16.5731992,23.7011125 16.1836524,23.5978447 15.944,23.316 L15.652,22.928 C14.1722186,20.9539084 11.8491422,19.7919996 9.382,19.7919996 C6.91485782,19.7919996 4.59178142,20.9539084 3.112,22.928 L2.818,23.318 C2.64281808,23.5467608 2.37113226,23.681 2.083,23.681 L2.083,23.681 Z M9.375,2.381 L8.256,3.819 C4.53991764,8.5746331 2.61777342,14.4872889 2.827,20.519 C6.52674109,17.120654 12.2116633,17.1184821 15.914,20.514 C16.1238083,14.4836729 14.2051021,8.57179209 10.494,3.814 L9.375,2.381 Z" id="Path_13753" fill="#263238"></path>
                </g>
                <g id="Group_8541" transform="translate(16.407000, 39.861000)" fill="#263238">
                    <path d="M3.646,29.168 C1.63328365,29.1657955 0.00220451058,27.5347164 0,25.522 L0,24.611 C0,24.1075925 0.408092451,23.6995 0.9115,23.6995 C1.41490755,23.6995 1.823,24.1075925 1.823,24.611 L1.823,25.522 C1.823,26.5288151 2.6391849,27.345 3.646,27.345 C4.6528151,27.345 5.469,26.5288151 5.469,25.522 L5.469,0.911 C5.469,0.407592451 5.87709245,-0.0005 6.3805,-0.0005 C6.88390755,-0.0005 7.292,0.407592451 7.292,0.911 L7.292,25.521 C7.2903466,27.5341069 5.65910634,29.1657945 3.646,29.168 L3.646,29.168 Z" id="Path_13754"></path>
                </g>
                <g id="Group_8542" transform="translate(100.264000, 38.283000)" fill="#263238">
                    <path d="M2.734,1.823 L0.911,1.823 C0.407592451,1.823 -0.0005,1.41490755 -0.0005,0.9115 C-0.0005,0.408092451 0.407592451,3.55271368e-15 0.911,3.55271368e-15 L2.734,3.55271368e-15 C3.23740755,3.55271368e-15 3.6455,0.408092451 3.6455,0.9115 C3.6455,1.41490755 3.23740755,1.823 2.734,1.823 L2.734,1.823 Z" id="Path_13755"></path>
                </g>
                <g id="Group_8543" transform="translate(76.565000, 38.283000)" fill="#263238">
                    <path d="M20.964,1.823 L0.911,1.823 C0.407592451,1.823 -0.0005,1.41490755 -0.0005,0.9115 C-0.0005,0.408092451 0.407592451,3.55271368e-15 0.911,3.55271368e-15 L20.964,3.55271368e-15 C21.4674075,3.55271368e-15 21.8755,0.408092451 21.8755,0.9115 C21.8755,1.41490755 21.4674075,1.823 20.964,1.823 L20.964,1.823 Z" id="Path_13756"></path>
                </g>
            </g>
        </g>
    </g>
</svg>