<?xml version="1.0" encoding="UTF-8"?>
<svg width="22px" height="21px" viewBox="0 0 22 21" version="1.1" xmlns="http://www.w3.org/2000/svg" xmlns:xlink="http://www.w3.org/1999/xlink">
    <title>were transfer</title>
    <defs>
        <path d="M1.85441667,18.7255475 C4.59066667,19.4576296 6.95291667,19.2389317 10.5279167,18.2751781 C13.6781313,17.408366 16.9773383,17.2458242 20.196,17.7988614 L20.196,8.51902601 C17.3228634,7.81366175 14.3116685,7.93662036 11.5041667,8.87394682 C8.37298243,9.81096312 5.06763349,9.99000486 1.85533333,9.39659782 C1.85441667,11.3120581 1.804,16.4088321 1.85441667,18.7255475 Z M11,7.09285599 C14.5755916,5.9244691 18.4244084,5.9244691 22,7.09285599 L22,20.0664624 C18.410613,18.9901964 14.589387,18.9901964 11,20.0664624 C7.73025,20.947741 4.41558333,21.6288553 0,20.0664624 L0,7.09285599 C3.59189075,8.1515436 7.40810925,8.1515436 11,7.09285599 L11,7.09285599 Z M5.04166667,15.4821459 C5.8010582,15.4821459 6.41666667,14.8598086 6.41666667,14.0921167 C6.41666667,13.3244247 5.8010582,12.7020874 5.04166667,12.7020874 C4.28227514,12.7020874 3.66666667,13.3244247 3.66666667,14.0921167 C3.66666667,14.8598086 4.28227514,15.4821459 5.04166667,15.4821459 Z M16.9583333,14.5554598 C17.7177249,14.5554598 18.3333333,13.9331225 18.3333333,13.1654305 C18.3333333,12.3977385 17.7177249,11.7754012 16.9583333,11.7754012 C16.1989418,11.7754012 15.5833333,12.3977385 15.5833333,13.1654305 C15.5833333,13.9331225 16.1989418,14.5554598 16.9583333,14.5554598 Z M9.16666667,11.7754012 C9.16666667,13.2108381 11,14.5554598 11,15.0188028 C11,15.4821459 9.22991667,15.4719524 9.16666667,15.4821459 L9.16666667,17.3355183 C9.57366667,17.2669435 12.8333333,16.8721752 12.8333333,15.0188028 C12.8333333,14.0921167 11,12.7020874 11,12.2387443 C11,11.7754012 12.771,11.7754012 12.8333333,11.7754012 L12.8333333,9.92202888 C10.5416667,9.92202888 9.16666667,10.8487151 9.16666667,11.7754012 Z M6.79616667,4.36191183 L7.98141667,5.56011705 L6.68525,6.87045131 L3.28716667,3.43522565 L6.68525,0 L7.98141667,1.31033425 L6.79616667,2.50853948 L10.38675,2.50853948 C11.2328243,2.54106758 12.0299352,2.91807674 12.5968333,3.55384148 L13.5373333,4.69551885 L12.1284167,5.88167716 L11.1879167,4.73999979 C10.9697871,4.52770031 10.6878666,4.39498199 10.38675,4.36283851 L6.79616667,4.36191183 Z" id="path-1"></path>
        <polygon id="path-3" points="0 22 22 22 22 0 0 0"></polygon>
    </defs>
    <g id="6.-My-Wallet" stroke="none" stroke-width="1" fill="none" fill-rule="evenodd">
        <g id="6.2" transform="translate(-62.000000, -607.000000)">
            <g id="Where-transfer" transform="translate(37.000000, 588.000000)">
                <g id="were-transfer" transform="translate(25.000000, 19.000000)">
                    <mask id="mask-2" fill="white">
                        <use xlink:href="#path-1"></use>
                    </mask>
                    <g id="Path_19271"></g>
                    <g id="Group_13924" mask="url(#mask-2)">
                        <g id="Group_13923-Clipped">
                            <mask id="mask-4" fill="white">
                                <use xlink:href="#path-3"></use>
                            </mask>
                            <g id="Path_19267"></g>
                            <g id="Group_13923" mask="url(#mask-4)" fill="#515A64" fill-rule="nonzero">
                                <g transform="translate(-4.583333, -4.583333)" id="Path_19269">
                                    <polygon points="0 0.268583333 31.1666667 0.268583333 31.1666667 30.2078333 0 30.2078333"></polygon>
                                </g>
                            </g>
                        </g>
                    </g>
                </g>
            </g>
        </g>
    </g>
</svg>