<?xml version="1.0" encoding="UTF-8"?>
<svg width="103px" height="90px" viewBox="0 0 103 90" version="1.1" xmlns="http://www.w3.org/2000/svg" xmlns:xlink="http://www.w3.org/1999/xlink">
    <!-- Generator: Sketch 64 (93537) - https://sketch.com -->
    <title>ic_big_faq@3x</title>
    <desc>Created with Sketch.</desc>
    <g id="Support" stroke="none" stroke-width="1" fill="none" fill-rule="evenodd">
        <g id="6.2" transform="translate(-137.000000, -110.000000)" fill-rule="nonzero">
            <g id="ic_big_faq" transform="translate(136.000000, 110.000000)">
                <g id="Group_6615" transform="translate(0.000000, 14.352000)">
                    <path d="M9.804,5.065 L9.804,8.084 L2.781,11.573 C2.20669931,11.8580486 1.84346652,12.4438495 1.84346652,13.085 C1.84346652,13.7261505 2.20669931,14.3119514 2.781,14.597 L9.804,18.086 L9.804,21.107 C9.804,23.4381939 11.6938061,25.328 14.025,25.328 L88.325,25.328 C90.6558034,25.3268957 92.5440001,23.4368036 92.5440001,21.106 L92.5440001,5.065 C92.5440001,3.94500122 92.0988773,2.87091846 91.3066373,2.07924112 C90.5143972,1.28756377 89.4399985,0.843203981 88.32,0.843998932 L14.02,0.843998932 C11.6907589,0.846759112 9.80399837,2.7357573 9.804,5.065 Z" id="Path_9277" fill="#40C4FF"></path>
                    <path d="M88.32,26.1720001 L14.02,26.1720001 C11.2262292,26.1653928 8.96384795,23.9007759 8.96,21.107 L8.96,18.607 L2.4,15.352 C1.53900448,14.9245538 0.994465237,14.0462614 0.994465237,13.085 C0.994465237,12.1237386 1.53900448,11.2454462 2.4,10.818 L8.96,7.561 L8.96,5.061 C8.96605725,2.26683865 11.2308347,0.00384973878 14.025,-1.77635684e-15 L88.325,-1.77635684e-15 C91.1215039,0.00330621499 93.3876938,2.26949608 93.391,5.066 L93.391,21.107 C93.3882402,23.9055214 91.1185227,26.1725533 88.32,26.1720001 Z M14.02,1.688 C12.15562,1.68965404 10.644654,3.20061996 10.643,5.065 L10.643,8.084 C10.6429097,8.4043372 10.4616878,8.69708033 10.175,8.84 L3.156,12.33 C2.86959241,12.4733792 2.68871328,12.7662081 2.68871328,13.0865 C2.68871328,13.4067919 2.86959241,13.6996208 3.156,13.843 L10.18,17.331 C10.4670173,17.4735581 10.6483803,17.7665291 10.648,18.087 L10.648,21.106 C10.649654,22.97038 12.16062,24.481346 14.025,24.483 L88.325,24.483 C90.188209,24.4802451 91.6977971,22.9702098 91.7,21.107 L91.7,5.066 C91.698346,3.20161996 90.18738,1.69065404 88.323,1.689 L14.02,1.688 Z" id="Path_9278" fill="#263238"></path>
                </g>
                <g id="Group_6616" transform="translate(29.222000, 22.795000)" fill="#263238">
                    <path d="M43.057,1.689 L0.844,1.689 C0.377595529,1.689 -0.0005,1.31090447 -0.0005,0.8445 C-0.0005,0.378095529 0.377595529,0 0.844,0 L43.057,0 C43.5234045,0 43.9015,0.378095529 43.9015,0.8445 C43.9015,1.31090447 43.5234045,1.689 43.057,1.689 Z" id="Path_9279"></path>
                </g>
                <g id="Group_6617" transform="translate(29.222000, 29.549000)" fill="#263238">
                    <path d="M21.951,1.689 L0.844,1.689 C0.377595529,1.689 -0.0005,1.31090447 -0.0005,0.8445 C-0.0005,0.378095529 0.377595529,0 0.844,0 L21.951,0 C22.4174045,0 22.7955,0.378095529 22.7955,0.8445 C22.7955,1.31090447 22.4174045,1.689 21.951,1.689 Z" id="Path_9280"></path>
                </g>
                <g id="Group_6618" transform="translate(8.960000, 56.566000)">
                    <path d="M83.582,5.065 L83.582,8.084 L90.605,11.572 C91.1793007,11.8570486 91.5425335,12.4428495 91.5425335,13.084 C91.5425335,13.7251505 91.1793007,14.3109514 90.605,14.596 L83.582,18.084 L83.582,21.105 C83.582,22.2244788 83.1372888,23.2981067 82.3456977,24.0896977 C81.5541067,24.8812888 80.4804788,25.326 79.361,25.326 L5.061,25.326 C2.72980607,25.326 0.84,23.4361939 0.84,21.105 L0.84,5.065 C0.84,3.94482781 1.28525976,2.87059331 2.07771615,2.07888717 C2.87017255,1.28718104 3.94482831,0.842938477 5.065,0.843998102 L79.365,0.843998102 C81.6946317,0.84620766 83.582001,2.73536728 83.582,5.065 Z" id="Path_9281" fill="#FFB800"></path>
                    <path d="M79.361,26.172 L5.066,26.172 C2.26949608,26.1686938 0.00330621499,23.9025039 0,21.106 L0,5.066 C0.00330621499,2.26949608 2.26949608,0.00330621499 5.066,-7.10542736e-15 L79.366,-7.10542736e-15 C82.1625039,0.00330621499 84.4286938,2.26949608 84.432,5.066 L84.432,7.566 L90.986,10.818 C91.8462497,11.2463046 92.3900479,12.1245243 92.3900479,13.0855 C92.3900479,14.0464757 91.8462497,14.9246954 90.986,15.353 L84.426,18.611 L84.426,21.111 C84.4210405,23.9056176 82.1556206,26.1692484 79.361,26.172 Z M5.066,1.689 C3.20044849,1.689 1.68765581,3.20044923 1.686,5.066 L1.686,21.107 C1.68765404,22.97138 3.19861996,24.482346 5.063,24.484 L79.363,24.484 C81.22738,24.482346 82.738346,22.97138 82.74,21.107 L82.74,18.086 C82.7400903,17.7656628 82.9213122,17.4729197 83.208,17.33 L90.231,13.842 C90.5174076,13.6986208 90.6982867,13.4057919 90.6982867,13.0855 C90.6982867,12.7652081 90.5174076,12.4723792 90.231,12.329 L83.208,8.841 C82.9209827,8.69844188 82.7396197,8.40547094 82.74,8.085 L82.74,5.066 C82.738346,3.20161996 81.22738,1.69065404 79.363,1.689 L5.066,1.689 Z" id="Path_9282" fill="#263238"></path>
                </g>
                <g id="Group_6619" transform="translate(29.222000, 65.008000)" fill="#263238">
                    <path d="M43.057,1.689 L0.844,1.689 C0.377595529,1.689 -0.0005,1.31090447 -0.0005,0.8445 C-0.0005,0.378095529 0.377595529,0 0.844,0 L43.057,0 C43.5234045,0 43.9015,0.378095529 43.9015,0.8445 C43.9015,1.31090447 43.5234045,1.689 43.057,1.689 Z" id="Path_9283"></path>
                </g>
                <g id="Group_6620" transform="translate(50.329000, 71.762000)" fill="#263238">
                    <path d="M21.951,1.689 L0.844,1.689 C0.377595529,1.689 -0.0005,1.31090447 -0.0005,0.8445 C-0.0005,0.378095529 0.377595529,0 0.844,0 L21.951,0 C22.4174045,0 22.7955,0.378095529 22.7955,0.8445 C22.7955,1.31090447 22.4174045,1.689 21.951,1.689 L21.951,1.689 Z" id="Path_9284"></path>
                </g>
                <g id="Group_6621" transform="translate(35.976000, 45.590000)" fill="#263238">
                    <path d="M32.926,1.689 L0.844,1.689 C0.377595529,1.689 -0.0005,1.31090447 -0.0005,0.8445 C-0.0005,0.378095529 0.377595529,0 0.844,0 L32.926,0 C33.3924045,0 33.7705,0.378095529 33.7705,0.8445 C33.7705,1.31090447 33.3924045,1.689 32.926,1.689 Z" id="Path_9285"></path>
                </g>
                <g id="Group_6622" transform="translate(29.222000, 45.590000)" fill="#263238">
                    <path d="M4.221,1.689 L0.844,1.689 C0.377595529,1.689 -0.0005,1.31090447 -0.0005,0.8445 C-0.0005,0.378095529 0.377595529,0 0.844,0 L4.221,0 C4.68740447,0 5.0655,0.378095529 5.0655,0.8445 C5.0655,1.31090447 4.68740447,1.689 4.221,1.689 L4.221,1.689 Z" id="Path_9286"></path>
                </g>
                <g id="Group_6623" transform="translate(28.739000, 87.803000)" fill="#263238">
                    <path d="M32.926,1.689 L0.844,1.689 C0.377595529,1.689 -0.0005,1.31090447 -0.0005,0.8445 C-0.0005,0.378095529 0.377595529,7.10542736e-15 0.844,7.10542736e-15 L32.926,7.10542736e-15 C33.3924045,7.10542736e-15 33.7705,0.378095529 33.7705,0.8445 C33.7705,1.31090447 33.3924045,1.689 32.926,1.689 L32.926,1.689 Z" id="Path_9287"></path>
                </g>
                <g id="Group_6624" transform="translate(64.198000, 87.803000)" fill="#263238">
                    <path d="M4.221,1.689 L0.844,1.689 C0.377595529,1.689 -0.0005,1.31090447 -0.0005,0.8445 C-0.0005,0.378095529 0.377595529,7.10542736e-15 0.844,7.10542736e-15 L4.221,7.10542736e-15 C4.68740447,7.10542736e-15 5.0655,0.378095529 5.0655,0.8445 C5.0655,1.31090447 4.68740447,1.689 4.221,1.689 L4.221,1.689 Z" id="Path_9288"></path>
                </g>
                <g id="Group_6625" transform="translate(86.270000, 3.377000)" fill="#263238">
                    <path d="M7.6,1.689 L0.844,1.689 C0.377595529,1.689 -0.0005,1.31090447 -0.0005,0.8445 C-0.0005,0.378095529 0.377595529,0 0.844,0 L7.6,0 C8.06640447,0 8.4445,0.378095529 8.4445,0.8445 C8.4445,1.31090447 8.06640447,1.689 7.6,1.689 Z" id="Path_9289"></path>
                </g>
                <g id="Group_6626" transform="translate(89.648000, 0.000000)" fill="#263238">
                    <path d="M0.844,8.443 C0.378489701,8.4424504 0.00110147586,8.06550932 -7.10542736e-15,7.6 L-7.10542736e-15,0.844 C-7.10542736e-15,0.542289192 0.16096076,0.263496898 0.422249979,0.112641487 C0.683539199,-0.038213924 1.0054608,-0.038213924 1.26675002,0.112641487 C1.52803924,0.263496898 1.689,0.542289192 1.689,0.844 L1.689,7.6 C1.68789728,8.06589937 1.30990068,8.443 0.844,8.443 Z" id="Path_9290"></path>
                </g>
                <g id="Group_6627" transform="translate(95.557000, 10.975000)" fill="#263238">
                    <path d="M7.6,1.689 L0.844,1.689 C0.377595529,1.689 -0.0005,1.31090447 -0.0005,0.8445 C-0.0005,0.378095529 0.377595529,0 0.844,0 L7.6,0 C8.06640447,0 8.4445,0.378095529 8.4445,0.8445 C8.4445,1.31090447 8.06640447,1.689 7.6,1.689 Z" id="Path_9291"></path>
                </g>
                <g id="Group_6628" transform="translate(98.934000, 7.598000)" fill="#263238">
                    <path d="M0.844,8.443 C0.378489701,8.4424504 0.00110147586,8.06550932 0,7.6 L0,0.844 C0,0.377595529 0.378095529,-0.0005 0.8445,-0.0005 C1.31090447,-0.0005 1.689,0.377595529 1.689,0.844 L1.689,7.6 C1.68789728,8.06589937 1.30990068,8.443 0.844,8.443 L0.844,8.443 Z" id="Path_9292"></path>
                </g>
            </g>
        </g>
    </g>
</svg>
