<?xml version="1.0" encoding="UTF-8"?>
<svg width="86px" height="103px" viewBox="0 0 86 103" version="1.1" xmlns="http://www.w3.org/2000/svg" xmlns:xlink="http://www.w3.org/1999/xlink">
    <title>email@3x</title>
    <g id="Support" stroke="none" stroke-width="1" fill="none" fill-rule="evenodd">
        <g id="6.1" transform="translate(-145.000000, -131.000000)" fill-rule="nonzero">
            <g id="email" transform="translate(145.000000, 131.000000)">
                <g id="Group_6367" transform="translate(24.331000, 26.133000)" fill="#40C4FF">
                    <circle id="Ellipse_925" cx="18.023" cy="18.023" r="18.023"></circle>
                </g>
                <g id="Group_6368" transform="translate(0.000000, 37.847000)">
                    <path d="M83.801,0.901 L83.801,52.266 C83.801,54.7520915 81.78709,56.7682407 79.301,56.771004 L5.407,56.771004 C4.2116197,56.7725946 3.06472591,56.2985061 2.21936984,55.4533376 C1.37401377,54.6081692 0.899670735,53.4613806 0.900997214,52.266 L0.900997214,0.901 L42.353,38.749 L83.801,0.901 Z" id="Path_9002" fill="#FFB800"></path>
                    <path d="M79.3,57.672 L5.407,57.672 C2.42255697,57.6686944 0.00385760294,55.2504424 -6.57055531e-06,52.266 L-6.57055531e-06,0.9 C-0.00136158516,0.542506236 0.208995007,0.218099821 0.535938059,0.0734903943 C0.862881111,-0.0711190324 1.24441706,-0.00851124295 1.508,0.233 L42.353,37.529 L83.2,0.236 C83.4633157,-0.00526243981 83.8443736,-0.0680073519 84.1711429,0.076091825 C84.4979121,0.220191002 84.7080011,0.543869206 84.7080011,0.901 L84.7080011,52.266 C84.7046914,55.2510606 82.2850616,57.6697956 79.3,57.672 Z M1.8,2.945 L1.8,52.266 C1.80439957,54.2523999 3.41360012,55.8616004 5.4,55.866 L79.3,55.866 C81.2863999,55.8616004 82.8956004,54.2523999 82.9,52.266 L82.9,2.945 L42.961,39.416 C42.6171018,39.7306187 42.0898982,39.7306187 41.746,39.416 L1.8,2.945 Z" id="Path_9003" fill="#263238"></path>
                </g>
                <g id="Group_6369" transform="translate(1.180000, 61.318000)" fill="#263238">
                    <path d="M0.9,32.7170012 C0.555371476,32.7152587 0.241998281,32.5168689 0.0930033174,32.206108 C-0.0559916465,31.8953471 -0.0144426624,31.5267892 0.2,31.257 L24.722,0.342 C25.0310033,-0.047636891 25.5973631,-0.113003318 25.987,0.196 C26.3766369,0.505003318 26.4420033,1.07136311 26.133,1.461 L1.606,32.377 C1.43494515,32.5922111 1.1749098,32.7174406 0.9,32.7170012 Z" id="Path_9004"></path>
                </g>
                <g id="Group_6370" transform="translate(57.199000, 61.318000)" fill="#263238">
                    <path d="M25.426,32.7150031 C25.1509206,32.7150031 24.8908548,32.589586 24.72,32.374 L0.196,1.46 C-0.113003292,1.07036311 -0.0476368558,0.504003338 0.342000024,0.19500003 C0.731636903,-0.114003279 1.29799668,-0.0486368664 1.607,0.341 L26.131,31.253 C26.2794993,31.4400669 26.3475506,31.6784898 26.3201663,31.9157579 C26.292782,32.1530261 26.1722081,32.3696788 25.985,32.518 C25.8268477,32.6459645 25.6294374,32.7155348 25.426,32.7150031 Z" id="Path_9005"></path>
                </g>
                <g id="Group_6371" transform="translate(10.814000, 19.825000)" fill="#263238">
                    <path d="M62.178,24.819 C61.6809437,24.819 61.278,24.4160563 61.278,23.919 L61.278,1.8 L1.8,1.8 L1.8,23.916 C1.8,24.4130563 1.39705627,24.816 0.9,24.816 C0.402943725,24.816 0,24.4130563 0,23.916 L0,0.9 C0,0.402943725 0.402943725,0 0.9,0 L62.178,0 C62.4166948,0 62.6456134,0.0948211563 62.8143961,0.263603897 C62.9831788,0.432386638 63.078005,0.661305159 63.078005,0.9 L63.078005,23.916 C63.0787974,24.1552142 62.9843284,24.3849042 62.8154591,24.5543363 C62.6465899,24.7237685 62.4172155,24.819 62.178,24.819 Z" id="Path_9006"></path>
                </g>
                <g id="Group_6372" transform="translate(59.475000, 100.927000)" fill="#263238">
                    <path d="M4.506,1.8 L0.9,1.8 C0.402943725,1.8 7.10542736e-15,1.39705627 7.10542736e-15,0.9 C7.10542736e-15,0.402943725 0.402943725,7.10542736e-15 0.9,7.10542736e-15 L4.5,7.10542736e-15 C4.99705623,7.10542736e-15 5.39999989,0.402943767 5.39999989,0.9 C5.39999989,1.39705623 4.99705623,1.8 4.5,1.8 L4.506,1.8 Z" id="Path_9007"></path>
                </g>
                <g id="Group_6373" transform="translate(19.825000, 100.927000)" fill="#263238">
                    <path d="M36.946,1.8 L0.9,1.8 C0.402943725,1.8 0,1.39705627 0,0.9 C0,0.402943725 0.402943725,7.10542736e-15 0.9,7.10542736e-15 L36.946,7.10542736e-15 C37.2675391,7.10542736e-15 37.5646534,0.171538984 37.725423,0.449999969 C37.8861925,0.728460954 37.8861925,1.07153905 37.725423,1.35000003 C37.5646534,1.62846102 37.2675391,1.8 36.946,1.8 L36.946,1.8 Z" id="Path_9008"></path>
                </g>
                <g id="Group_6374" transform="translate(75.695000, 31.265000)" fill="#263238">
                    <path d="M8.11,8.38402597 C7.88480173,8.38570976 7.66714549,8.30292902 7.5,8.152 L0.291,1.57 C-0.0762693586,1.23448701 -0.102012986,0.664769359 0.2335,0.2975 C0.569012986,-0.0697693586 1.13873064,-0.0955129855 1.506,0.24 L8.715,6.822 C8.89145844,6.98293355 8.99671634,7.20740403 9.00759484,7.44598074 C9.01847334,7.68455745 8.93408032,7.91767553 8.773,8.094 C8.60319813,8.28041526 8.36215055,8.38585086 8.11,8.38402597 Z" id="Path_9009"></path>
                </g>
                <g id="Group_6375" transform="translate(0.000000, 31.265000)" fill="#263238">
                    <path d="M0.9,8.38408099 C0.527858689,8.38468453 0.193675223,8.15625953 0.0591787864,7.80927202 C-0.0753176498,7.4622845 0.0176143344,7.06830453 0.293,6.818 L7.5,0.236 C7.73758162,0.0189611541 8.07290493,-0.0548427259 8.37965689,0.0423895672 C8.68640886,0.13962186 8.91798655,0.393118428 8.98715689,0.707389567 C9.05632724,1.02166071 8.95258162,1.34896115 8.715,1.566 L1.509,8.152 C1.3429535,8.30406872 1.12513786,8.38704611 0.9,8.38408099 L0.9,8.38408099 Z" id="Path_9010"></path>
                </g>
                <g id="Group_6376" transform="translate(23.687000, 1.585000)" fill="#263238">
                    <path d="M0.901,16.438021 C0.528858689,16.4386845 0.194675223,16.2102595 0.0601787864,15.863272 C-0.0743176498,15.5162845 0.0186143344,15.1223045 0.294,14.872 L15.02,1.421 C17.0787394,-0.478645582 20.2512606,-0.478645582 22.31,1.421 L37.038,14.872 C37.2755816,15.0890388 37.3793273,15.4163393 37.3101569,15.7306104 C37.2409866,16.0448816 37.0094089,16.2983782 36.7026569,16.3956105 C36.3959049,16.4928428 36.0605816,16.4190389 35.823,16.202 L21.096,2.755 C19.7226751,1.48971588 17.6083249,1.48971588 16.235,2.755 L1.509,16.204 C1.34313749,16.3559521 1.12593872,16.4395451 0.901,16.438021 Z" id="Path_9011"></path>
                </g>
                <g id="Group_6377" transform="translate(64.882000, 3.605000)" fill="#263238">
                    <path d="M8.11,1.8 L0.9,1.8 C0.402943736,1.8 2.6822093e-08,1.39705626 2.6822093e-08,0.9 C2.6822093e-08,0.402943736 0.402943736,0 0.9,0 L8.11,0 C8.60705626,0 9.00999997,0.402943736 9.00999997,0.9 C9.00999997,1.39705626 8.60705626,1.8 8.11,1.8 Z" id="Path_9012"></path>
                </g>
                <g id="Group_6378" transform="translate(68.486000, 0.000000)" fill="#263238">
                    <path d="M0.9,9.011 C0.402943725,9.011 7.10542736e-15,8.60805627 7.10542736e-15,8.111 L7.10542736e-15,0.9 C7.10542736e-15,0.402943755 0.402943755,7.58643282e-08 0.9,7.58643282e-08 C1.39705625,7.58643282e-08 1.80000056,0.402943755 1.80000056,0.9 L1.80000056,8.11 C1.80026541,8.34886806 1.70556143,8.57804356 1.53674992,8.74704265 C1.3679384,8.91604173 1.1388682,9.011 0.9,9.011 L0.9,9.011 Z" id="Path_9013"></path>
                </g>
                <g id="Group_6379" transform="translate(73.893000, 11.715000)" fill="#263238">
                    <path d="M8.11,1.8 L0.9,1.8 C0.402943725,1.8 -7.10542736e-15,1.39705627 -7.10542736e-15,0.9 C-7.10542736e-15,0.402943725 0.402943725,0 0.9,0 L8.11,0 C8.60705627,0 9.01,0.402943725 9.01,0.9 C9.01,1.39705627 8.60705627,1.8 8.11,1.8 L8.11,1.8 Z" id="Path_9014"></path>
                </g>
                <g id="Group_6380" transform="translate(77.497000, 8.110000)" fill="#263238">
                    <path d="M0.9,9.011 C0.402943725,9.011 0,8.60805627 0,8.111 L0,0.9 C0,0.402943725 0.402943725,0 0.9,0 C1.39705627,0 1.80000056,0.402943725 1.80000056,0.9 L1.80000056,8.11 C1.80026541,8.34886806 1.70556143,8.57804356 1.53674992,8.74704265 C1.3679384,8.91604173 1.1388682,9.011 0.9,9.011 Z" id="Path_9015"></path>
                </g>
                <g id="Group_6381" transform="translate(36.045000, 37.848000)" fill="#263238">
                    <path d="M6.308,12.616 C2.8241878,12.616 0,9.7918122 0,6.308 C0,2.8241878 2.8241878,0 6.308,0 C9.7918122,0 12.616,2.8241878 12.616,6.308 C12.6121422,9.790213 9.790213,12.6121422 6.308,12.616 Z M6.308,1.802 C3.81940492,1.802 1.802,3.81940492 1.802,6.308 C1.802,8.79659508 3.81940492,10.814 6.308,10.814 C8.79659508,10.814 10.814,8.79659508 10.814,6.308 C10.8117965,3.81999429 8.79600449,1.80330754 6.308,1.8 L6.308,1.802 Z" id="Path_9016"></path>
                </g>
                <g id="Group_6382" transform="translate(29.644000, 32.443000)" fill="#263238">
                    <path d="M12.709,23.427 C9.17981407,23.4333312 5.83733064,21.8422326 3.617,19.099 C0.367271893,15.0995287 0.112722804,9.44610418 2.98987228,5.17076623 C5.86702175,0.895428281 11.2001319,-0.997701491 16.1289536,0.506698623 C21.0577754,2.01109874 24.4247076,6.55969978 24.4240352,11.713 C24.4280689,13.3676327 24.0789601,15.0040802 23.4,16.513 C22.9580499,17.4502822 22.008115,18.0418397 20.972,18.025 L19.918,18.025 C18.4284275,18.0211531 17.2218469,16.8145725 17.218,15.325 L17.218,11.725 C17.218,11.2279437 17.6209437,10.825 18.118,10.825 C18.6150563,10.825 19.018,11.2279437 19.018,11.725 L19.018,15.325 C19.018,15.8220563 19.4209437,16.225 19.918,16.225 L20.972,16.225 C21.2978839,16.2383513 21.6026068,16.0638352 21.756,15.776 C23.5897209,11.6760934 22.4413275,6.85571221 18.956,4.023 C16.6039311,2.12469687 13.5194623,1.39208498 10.565,2.03 C6.78895915,2.85053852 3.83953852,5.79995915 3.019,9.576 C2.3816329,12.5310859 3.11415796,15.6159243 5.012,17.969 C6.89229679,20.291944 9.7234334,21.6383885 12.712,21.631 C13.033539,21.631 13.3306534,21.802539 13.4914229,22.081 C13.6521925,22.359461 13.6521925,22.702539 13.4914229,22.981 C13.3306534,23.259461 13.033539,23.431 12.712,23.431 L12.709,23.427 Z" id="Path_9017"></path>
                </g>
            </g>
        </g>
    </g>
</svg>
