<?xml version="1.0" encoding="UTF-8"?>
<svg width="15px" height="16px" viewBox="0 0 15 16" version="1.1" xmlns="http://www.w3.org/2000/svg" xmlns:xlink="http://www.w3.org/1999/xlink">
    <title>plus</title>
    <g id="Add-Products" stroke="none" stroke-width="1" fill="none" fill-rule="evenodd">
        <g id="7.0" transform="translate(-79.000000, -700.000000)" fill="#000000" fill-rule="nonzero" stroke="#000000" stroke-width="0.5">
            <g id="Add-new-product-button" transform="translate(37.000000, 678.000000)">
                <g id="plus" transform="translate(42.000000, 22.000000)">
                    <g id="Plus" transform="translate(0.300000, 0.797481)">
                        <path d="M7.2373913,6.75058811 L7.2373913,0.243631584 C7.2373913,0.109162193 7.12838243,-6.66867296e-05 6.99391304,-6.66867296e-05 C6.92883496,-0.00153763341 6.86591774,0.0235704535 6.81988513,0.0696036709 C6.77385191,0.11563628 6.74874383,0.178553497 6.75043478,0.243631584 L6.75043478,6.75058811 L0.243478261,6.75058811 C0.10900887,6.75058811 0,6.85959698 0,6.99406637 C0,7.12853576 0.10900887,7.23754463 0.243478261,7.23754463 L6.75043478,7.23754463 L6.75043478,13.7445011 C6.74874383,13.8095792 6.77385191,13.8724965 6.81988513,13.9185291 C6.86591774,13.9645623 6.92883496,13.9896704 6.99391304,13.9881994 C7.12838243,13.9881994 7.2373913,13.8789705 7.2373913,13.7445011 L7.2373913,7.23754463 L13.7443478,7.23754463 C13.8788172,7.23754463 13.9878261,7.12853576 13.9878261,6.99406637 C13.9878261,6.85959698 13.8788172,6.75058811 13.7443478,6.75058811 L7.2373913,6.75058811 Z"></path>
                    </g>
                </g>
            </g>
        </g>
    </g>
</svg>