<?xml version="1.0" encoding="UTF-8"?>
<svg width="104px" height="104px" viewBox="0 0 104 104" version="1.1" xmlns="http://www.w3.org/2000/svg" xmlns:xlink="http://www.w3.org/1999/xlink">
    <!-- Generator: Sketch 64 (93537) - https://sketch.com -->
    <title>24h-support@3x</title>
    <desc>Created with Sketch.</desc>
    <g id="Support" stroke="none" stroke-width="1" fill="none" fill-rule="evenodd">
        <g id="6.0" transform="translate(-135.000000, -131.000000)" fill-rule="nonzero">
            <g id="24h-support" transform="translate(135.000000, 131.000000)">
                <g id="Group_6113" fill="#263238">
                    <path d="M0.905,52.516 C0.405410761,52.5154489 0.000551119355,52.1105892 0,51.611 C0.0319637742,23.1202821 23.1202821,0.0319637742 51.611,3.10862447e-15 C52.1110938,3.10862447e-15 52.5165,0.405406159 52.5165,0.9055 C52.5165,1.40559384 52.1110938,1.811 51.611,1.811 C24.1200129,1.84186153 1.84186153,24.1200129 1.811,51.611 C1.81044815,52.1109794 1.40497972,52.516 0.905,52.516 Z" id="Path_8711"></path>
                </g>
                <g id="Group_6114" transform="translate(54.327000, 0.000000)" fill="#263238">
                    <path d="M2.716,1.811 L0.905,1.811 C0.404906159,1.811 -0.0005,1.40559384 -0.0005,0.9055 C-0.0005,0.405406159 0.404906159,0 0.905,0 L2.716,0 C3.21609384,0 3.6215,0.405406159 3.6215,0.9055 C3.6215,1.40559384 3.21609384,1.811 2.716,1.811 Z" id="Path_8712"></path>
                </g>
                <g id="Group_6115" transform="translate(50.705000, 50.705000)" fill="#263238">
                    <path d="M0.905,52.516 C0.404906159,52.516 -0.0005,52.1105938 -0.0005,51.6105 C-0.0005,51.1104062 0.404906159,50.705 0.905,50.705 C28.3955309,50.6730387 50.6730387,28.3955309 50.705,0.905 C50.705,0.404906159 51.1104062,-0.0005 51.6105,-0.0005 C52.1105938,-0.0005 52.516,0.404906159 52.516,0.905 C52.4840362,29.3957179 29.3957179,52.4840362 0.905,52.516 Z" id="Path_8713"></path>
                </g>
                <g id="Group_6116" transform="translate(45.273000, 101.411000)" fill="#263238">
                    <path d="M2.716,1.811 L0.905,1.811 C0.404906159,1.811 -0.0005,1.40559384 -0.0005,0.9055 C-0.0005,0.405406159 0.404906159,-7.10542736e-15 0.905,-7.10542736e-15 L2.716,-7.10542736e-15 C3.21609384,-7.10542736e-15 3.6215,0.405406159 3.6215,0.9055 C3.6215,1.40559384 3.21609384,1.811 2.716,1.811 L2.716,1.811 Z" id="Path_8714"></path>
                </g>
                <g id="Group_6117" transform="translate(81.491000, 3.622000)" fill="#263238">
                    <path d="M8.149,1.811 L0.905,1.811 C0.40490617,1.811 -0.000499973014,1.40559383 -0.000499973014,0.9055 C-0.000499973014,0.40540617 0.40490617,-8.8817842e-16 0.905,-8.8817842e-16 L8.149,-8.8817842e-16 C8.64909384,-8.8817842e-16 9.0545,0.405406159 9.0545,0.9055 C9.0545,1.40559384 8.64909384,1.811 8.149,1.811 L8.149,1.811 Z" id="Path_8715"></path>
                </g>
                <g id="Group_6118" transform="translate(85.113000, 0.000000)" fill="#263238">
                    <path d="M0.905,9.055 C0.405410761,9.05444888 0.000551119355,8.64958924 -7.10542736e-15,8.15 L-7.10542736e-15,0.905 C-7.10542736e-15,0.404906159 0.405406159,-0.0005 0.9055,-0.0005 C1.40559384,-0.0005 1.811,0.404906159 1.811,0.905 L1.811,8.149 C1.811,8.64936998 1.40536998,9.055 0.905,9.055 L0.905,9.055 Z" id="Path_8716"></path>
                </g>
                <g id="Group_6119" transform="translate(94.167000, 15.393000)" fill="#263238">
                    <path d="M8.149,1.811 L0.905,1.811 C0.404906159,1.811 -0.0005,1.40559384 -0.0005,0.9055 C-0.0005,0.405406159 0.404906159,0 0.905,0 L8.149,0 C8.64909384,0 9.0545,0.405406159 9.0545,0.9055 C9.0545,1.40559384 8.64909384,1.811 8.149,1.811 L8.149,1.811 Z" id="Path_8717"></path>
                </g>
                <g id="Group_6120" transform="translate(97.789000, 11.771000)" fill="#263238">
                    <path d="M0.905,9.055 C0.405410761,9.05444888 0.000551119355,8.64958924 -7.10542736e-15,8.15 L-7.10542736e-15,0.905 C-7.10542736e-15,0.404906159 0.405406159,-0.0005 0.9055,-0.0005 C1.40559384,-0.0005 1.811,0.404906159 1.811,0.905 L1.811,8.149 C1.811,8.64936998 1.40536998,9.055 0.905,9.055 L0.905,9.055 Z" id="Path_8718"></path>
                </g>
                <g id="Group_6121" transform="translate(10.865000, 36.218000)">
                    <path d="M39.405,37.398 L35.714,43.164 C24.4424236,40.0344762 15.7045184,31.1169231 12.805,19.784 L18.47,16.684 C19.9199065,15.8897114 20.8215334,14.3682159 20.822,12.715 L20.822,5.432 C20.8220005,2.93297804 18.7970214,0.906656078 16.298,0.905 L9.96,0.905 C4.95929032,0.905552168 0.905552168,4.95929032 0.905,9.96 L0.905,11.771 C0.905,23.2977471 5.48405091,34.3523741 13.6347857,42.5029214 C21.7855206,50.6534687 32.8402529,55.232 44.367,55.232 L46.178,55.232 C51.1787097,55.2314478 55.2324478,51.1777097 55.2330001,46.177 L55.2330001,39.84 C55.2330001,38.6390184 54.7562948,37.4871497 53.9070725,36.6379275 C53.0578503,35.7887052 51.9059816,35.3117347 50.705,35.312 L43.222,35.312 C41.6772181,35.3110294 40.2384318,36.0973297 39.405,37.398 Z" id="Path_8719" fill="#40C4FF"></path>
                    <path d="M46.178,56.138 L44.369,56.138 C19.8766523,56.1109972 0.0281068333,36.2633465 7.10542736e-15,11.771 L7.10542736e-15,9.96 C0.00661217185,4.46198507 4.46198507,0.00661217185 9.96,-7.10542736e-15 L16.3,-7.10542736e-15 C19.2991923,0.00330671998 21.7296933,2.43380771 21.733,5.433 L21.733,12.711 C21.733678,14.6951342 20.6520984,16.5216656 18.912,17.475 L13.869,20.238 C16.7977059,30.723313 24.8934392,38.9775568 35.32,42.109 L38.645,36.909 C39.6414686,35.3469166 41.3681576,34.4035769 43.221,34.409 L50.705,34.409 C53.7041923,34.4123067 56.1346933,36.8428077 56.138,39.842 L56.138,46.18 C56.1297368,51.6770058 51.6750073,56.1308407 46.178,56.138 L46.178,56.138 Z M9.96,1.811 C5.46171583,1.81650991 1.81650991,5.46171583 1.811,9.96 L1.811,11.771 C1.83525254,35.2639767 20.8740233,54.3027475 44.367,54.327 L46.178,54.327 C50.6762842,54.3214901 54.3214901,50.6762842 54.327,46.178 L54.327,39.84 C54.3253458,37.8403102 52.7046898,36.2196542 50.705,36.218 L43.223,36.218 C41.9870028,36.214995 40.8355842,36.8452373 40.172,37.888 L40.172,37.888 L36.481,43.654 C36.2676989,43.987204 35.8628582,44.1434725 35.481,44.04 C23.8919558,40.8280498 14.9075033,31.6604825 11.93,20.009 C11.8256817,19.6083977 12.0080813,19.188301 12.372,18.991 L18.037,15.885 C19.1978931,15.2501183 19.9196189,14.0321581 19.919,12.709 L19.919,5.433 C19.9173488,3.43447986 18.2985181,1.81430721 16.3,1.811 L9.96,1.811 Z" id="Path_8720" fill="#263238"></path>
                </g>
                <g id="Group_6122" transform="translate(22.549000, 17.204000)" fill="#263238">
                    <path d="M47.171,63.4701348 C46.7663586,63.47697 46.4068282,63.2129976 46.2922942,62.8248414 C46.1777601,62.4366852 46.3363934,62.0198172 46.68,61.806 C57.8916458,54.6096967 63.5920975,41.3121898 61.0735709,28.2299573 C58.5550443,15.1477248 48.3250665,4.91706519 35.2430019,2.39766674 C22.1609373,-0.121731714 8.86305045,5.57783377 1.666,16.789 C1.39538046,17.2090125 0.83551256,17.3301195 0.415500021,17.0595 C-0.00451251908,16.7888804 -0.125619502,16.2290126 0.145,15.809 C7.74242779,3.97718235 21.777791,-2.0373057 35.5850506,0.622092598 C49.3923102,3.2814909 60.1895455,14.0789534 62.8486532,27.886269 C65.507761,41.6935846 59.4929775,55.7288212 47.661,63.326 C47.5148788,63.4200475 47.3447709,63.4701348 47.171,63.4701348 L47.171,63.4701348 Z" id="Path_8721"></path>
                </g>
                <g id="Group_6123" transform="translate(38.029000, 34.860000)">
                    <path d="M14.487,25.355 L3.622,25.355 C2.47953667,25.3542754 1.45966389,24.6386827 1.07031308,23.5646115 C0.68096227,22.4905403 1.00538193,21.2876416 1.882,20.555 L11.119,12.855 C11.5337572,12.5115682 11.7729724,12.000484 11.771,11.462 L11.771,8.149 C11.7698978,7.14926924 10.9597308,6.33910224 9.96,6.338 L8.149,6.338 C7.14926924,6.33910224 6.33910224,7.14926924 6.338,8.149 L6.338,11.771 C6.338,13.2712815 5.12178152,14.4875 3.6215,14.4875 C2.12121848,14.4875 0.905,13.2712815 0.905,11.771 L0.905,8.149 C0.908858857,4.14984875 4.14984875,0.908858857 8.149,0.905 L9.96,0.905 C13.9595418,0.908307648 17.2011403,4.14945873 17.205,8.149 L17.205,11.461 C17.2083834,13.6096346 16.2555351,15.6483635 14.605,17.024 L11.132,19.924 L14.493,19.924 C15.9932815,19.924 17.2095,21.1402185 17.2095,22.6405 C17.2095,24.1407815 15.9932815,25.357 14.493,25.357 L14.487,25.355 Z" id="Path_8722" fill="#FFB800"></path>
                    <path d="M14.487,26.258 L3.622,26.258 C2.0985191,26.25742 0.738347192,25.3033141 0.219145894,23.8710346 C-0.300055403,22.4387552 0.132777652,20.8346849 1.302,19.858 L10.539,12.158 C10.74733,11.9855062 10.8670377,11.728465 10.865,11.458 L10.865,8.15 C10.8639001,7.65063861 10.4593614,7.24609992 9.96,7.245 L8.149,7.245 C7.64963861,7.24609992 7.24509992,7.65063861 7.244,8.15 L7.244,11.772 C7.244,13.7723754 5.62237536,15.394 3.622,15.394 C1.62162464,15.394 0,13.7723754 0,11.772 L0,8.15 C0.00550990842,3.65171583 3.65071583,0.00650990842 8.149,0.001 L9.96,0.001 C14.4582842,0.00650990842 18.1034901,3.65171583 18.1090031,8.15 L18.1090031,11.462 C18.1110926,13.8798219 17.0373199,16.1732245 15.179,17.72 L13.627,19.015 L14.487,19.015 C16.4873754,19.015 18.1090031,20.6366246 18.1090031,22.637 C18.1090031,24.6373754 16.4873754,26.259 14.487,26.259 L14.487,26.258 Z M8.149,5.433 L9.96,5.433 C11.4594817,5.43520421 12.6743478,6.65051754 12.676,8.15 L12.676,11.462 C12.6780175,12.2686545 12.3201842,13.034183 11.7,13.55 L2.463,21.25 C1.87912501,21.7384801 1.66306665,22.5399565 1.92230719,23.2557198 C2.18154772,23.9714832 2.86073713,24.448712 3.622,24.45 L14.485,24.45 C15.4851877,24.45 16.296,23.6391877 16.296,22.639 C16.296,21.6388123 15.4851877,20.828 14.485,20.828 L11.124,20.828 C10.7431655,20.8277245 10.4032517,20.5890615 10.2736614,20.2309535 C10.144071,19.8728454 10.2525357,19.4719255 10.545,19.228 L14.018,16.328 C15.4645108,15.1263101 16.3003073,13.3425442 16.2980048,11.462 L16.2980048,8.15 C16.2941422,4.65121847 13.4587815,1.81585784 9.96,1.812 L8.149,1.812 C4.65021847,1.81585784 1.81485784,4.65121847 1.811,8.15 L1.811,11.772 C1.811,12.7721877 2.62181232,13.583 3.622,13.583 C4.62218768,13.583 5.433,12.7721877 5.433,11.772 L5.433,8.15 C5.43465222,6.65051754 6.64951825,5.43520421 8.149,5.433 Z" id="Path_8723" fill="#263238"></path>
                </g>
                <g id="Group_6124" transform="translate(54.327000, 34.860000)">
                    <path d="M14.487,0.905 C12.9869946,0.905 11.771,2.12099462 11.771,3.621 L11.771,10.865 L6.338,10.865 L6.338,3.621 C6.338,2.12071848 5.12178152,0.9045 3.6215,0.9045 C2.12121848,0.9045 0.905,2.12071848 0.905,3.621 L0.905,13.581 C0.905,14.301328 1.19114918,14.9921532 1.70049798,15.501502 C2.20984679,16.0108508 2.90067201,16.297 3.621,16.297 L11.77,16.297 L11.77,22.635 C11.77,24.1352815 12.9862185,25.3515 14.4865,25.3515 C15.9867815,25.3515 17.2030002,24.1352815 17.2030002,22.635 L17.2030002,3.621 C17.2032654,2.90059069 16.9172014,2.20961125 16.4077951,1.7002049 C15.8983887,1.19079856 15.2074093,0.9045 14.487,0.905 Z" id="Path_8724" fill="#FFB800"></path>
                    <path d="M14.487,26.258 C12.4873102,26.2563458 10.8666542,24.6356898 10.865,22.636 L10.865,17.204 L3.622,17.204 C1.62231024,17.2023458 0.001654232,15.5816898 -7.10542736e-15,13.582 L-7.10542736e-15,3.622 C-7.10542736e-15,1.62162464 1.62162464,0 3.622,0 C5.62237536,0 7.244,1.62162464 7.244,3.622 L7.244,9.96 L10.866,9.96 L10.866,3.622 C10.866,1.62162464 12.4876246,0 14.488,0 C16.4883754,0 18.11,1.62162464 18.11,3.622 L18.11,22.636 C18.1083451,24.6360799 16.4870803,26.2568972 14.487,26.258 Z M3.622,1.811 C2.62204093,1.8115517 1.8115517,2.62204093 1.811,3.622 L1.811,13.582 C1.8115517,14.5819591 2.62204093,15.3924483 3.622,15.393 L11.771,15.393 C12.2705892,15.3935511 12.6754489,15.7984108 12.676,16.298 L12.676,22.636 C12.676,23.6361877 13.4868123,24.447 14.487,24.447 C15.4871877,24.447 16.298,23.6361877 16.298,22.636 L16.298,3.622 C16.298,2.62181232 15.4871877,1.811 14.487,1.811 C13.4868123,1.811 12.676,2.62181232 12.676,3.622 L12.676,10.866 C12.6754489,11.3655892 12.2705892,11.7704489 11.771,11.771 L6.338,11.771 C5.83841076,11.7704489 5.43355112,11.3655892 5.433,10.866 L5.433,3.622 C5.4324483,2.62204093 4.62195907,1.8115517 3.622,1.811 L3.622,1.811 Z" id="Path_8725" fill="#263238"></path>
                </g>
            </g>
        </g>
    </g>
</svg>
