<?xml version="1.0" encoding="UTF-8"?>
<svg width="84px" height="45px" viewBox="0 0 84 45" version="1.1" xmlns="http://www.w3.org/2000/svg" xmlns:xlink="http://www.w3.org/1999/xlink">
    <title>Group@3x</title>
    <g id="Welcome" stroke="none" stroke-width="1" fill="none" fill-rule="evenodd">
        <g id="1.0" transform="translate(-144.000000, -269.000000)">
            <g id="Group" transform="translate(144.000000, 269.000000)">
                <rect id="Rectangle" fill="#D8D8D8" x="0" y="0" width="84" height="45"></rect>
                <path d="M17.6347656,30.0585938 L17.6347656,15.7519531 L13.5429688,16.6113281 L13.5429688,17.4511719 L16.4628906,17.0507812 L16.4628906,30.0585938 L17.6347656,30.0585938 Z M28.328125,30 L28.328125,26.4257812 L30.0957031,26.4257812 L30.0957031,25.4101562 L28.328125,25.4101562 L28.328125,15.78125 L27.0683594,15.78125 L21.7070312,25.7324219 L21.7070312,26.4257812 L27.1660156,26.4257812 L27.1660156,30 L28.328125,30 Z M27.1660156,25.4101562 L23.0351562,25.4101562 L26.7753906,18.3984375 L27.1074219,17.5390625 L27.1660156,17.5488281 L27.1660156,25.4101562 Z M37.4296875,30 L37.4296875,26.4257812 L39.1972656,26.4257812 L39.1972656,25.4101562 L37.4296875,25.4101562 L37.4296875,15.78125 L36.1699219,15.78125 L30.8085938,25.7324219 L30.8085938,26.4257812 L36.2675781,26.4257812 L36.2675781,30 L37.4296875,30 Z M36.2675781,25.4101562 L32.1367188,25.4101562 L35.8769531,18.3984375 L36.2089844,17.5390625 L36.2675781,17.5488281 L36.2675781,25.4101562 Z M41.1601562,30 L43.4746094,25.5273438 L45.7890625,30 L47.15625,30 L44.1191406,24.6289062 L47.0390625,19.4335938 L45.6621094,19.4335938 L43.4550781,23.7304688 L41.2675781,19.4335938 L39.9003906,19.4335938 L42.8300781,24.6289062 L39.7832031,30 L41.1601562,30 Z M55.9257812,30 L55.9257812,28.984375 L49.9199219,28.984375 L53.1621094,24.53125 C53.8717448,23.5677083 54.4267578,22.6806641 54.8271484,21.8701172 C55.2275391,21.0595703 55.4277344,20.2604167 55.4277344,19.4726562 C55.4277344,18.2877604 55.1201172,17.3421224 54.5048828,16.6357422 C53.8896484,15.929362 53.0677083,15.5761719 52.0390625,15.5761719 C50.8671875,15.5761719 49.9443359,15.9863281 49.2705078,16.8066406 C48.5966797,17.6269531 48.2727865,18.6360677 48.2988281,19.8339844 L48.2988281,19.8339844 L48.3183594,19.8828125 L49.421875,19.8828125 C49.421875,18.8802083 49.6416016,18.0843099 50.0810547,17.4951172 C50.5205078,16.9059245 51.1731771,16.6113281 52.0390625,16.6113281 C52.7291667,16.6113281 53.2711589,16.8766276 53.6650391,17.4072266 C54.0589193,17.9378255 54.2558594,18.6393229 54.2558594,19.5117188 C54.2558594,20.1171875 54.1142578,20.7438151 53.8310547,21.3916016 C53.5478516,22.039388 53.0546875,22.8450521 52.3515625,23.8085938 L52.3515625,23.8085938 L48.4941406,29.0820312 L48.4941406,30 L55.9257812,30 Z M61.5410156,30.2050781 C62.6152344,30.2050781 63.484375,29.7509766 64.1484375,28.8427734 C64.8125,27.9345703 65.1445312,26.7773438 65.1445312,25.3710938 C65.1445312,23.9648438 64.8352865,22.820638 64.2167969,21.9384766 C63.5983073,21.0563151 62.7617188,20.6152344 61.7070312,20.6152344 C61.1341146,20.6152344 60.6051432,20.7470703 60.1201172,21.0107422 C59.6350911,21.2744141 59.2233073,21.6341146 58.8847656,22.0898438 L58.8847656,22.0898438 L58.8847656,21.0546875 C58.8847656,19.7265625 59.1630859,18.6539714 59.7197266,17.8369141 C60.2763672,17.0198568 60.9876302,16.6113281 61.8535156,16.6113281 C62.2701823,16.6113281 62.6282552,16.6601562 62.9277344,16.7578125 C63.2272135,16.8554688 63.5169271,17.0019531 63.796875,17.1972656 L63.796875,17.1972656 L64.0800781,16.2207031 C63.7936198,16.0123698 63.4534505,15.8528646 63.0595703,15.7421875 C62.6656901,15.6315104 62.2636719,15.5761719 61.8535156,15.5761719 C60.688151,15.5761719 59.7083333,16.0953776 58.9140625,17.1337891 C58.1197917,18.1722005 57.7226562,19.5182292 57.7226562,21.171875 L57.7226562,21.171875 L57.7226562,24.7167969 C57.7226562,26.422526 58.0839844,27.7636719 58.8066406,28.7402344 C59.5292969,29.7167969 60.4407552,30.2050781 61.5410156,30.2050781 Z M61.5410156,29.1992188 C60.7727865,29.1992188 60.1380208,28.8053385 59.6367188,28.0175781 C59.1354167,27.2298177 58.8847656,26.1588542 58.8847656,24.8046875 L58.8847656,24.8046875 L58.8847656,23.5546875 C59.0800781,22.96875 59.4039714,22.4951172 59.8564453,22.1337891 C60.3089193,21.7724609 60.844401,21.5917969 61.4628906,21.5917969 C62.2571615,21.5917969 62.8723958,21.9401042 63.3085938,22.6367188 C63.7447917,23.3333333 63.9628906,24.2447917 63.9628906,25.3710938 C63.9628906,26.4388021 63.7447917,27.34375 63.3085938,28.0859375 C62.8723958,28.828125 62.2832031,29.1992188 61.5410156,29.1992188 Z M69.7734375,30.2050781 C70.9648438,30.2050781 71.9316406,29.749349 72.6738281,28.8378906 C73.4160156,27.9264323 73.7871094,26.6438802 73.7871094,24.9902344 L73.7871094,24.9902344 L73.7871094,20.8300781 C73.7871094,19.124349 73.4404297,17.8222656 72.7470703,16.9238281 C72.0537109,16.0253906 71.124349,15.5761719 69.9589844,15.5761719 C68.9433594,15.5761719 68.0872396,16.0628255 67.390625,17.0361328 C66.6940104,18.0094401 66.3457031,19.2122396 66.3457031,20.6445312 C66.3457031,22.0833333 66.6761068,23.2503255 67.3369141,24.1455078 C67.9977214,25.0406901 68.875,25.4882812 69.96875,25.4882812 C70.5221354,25.4882812 71.0266927,25.3369141 71.4824219,25.0341797 C71.938151,24.7314453 72.3059896,24.296875 72.5859375,23.7304688 L72.5859375,23.7304688 L72.5859375,25.0097656 C72.5859375,26.3509115 72.3304036,27.3828125 71.8193359,28.1054688 C71.3082682,28.828125 70.6263021,29.1894531 69.7734375,29.1894531 C69.3307292,29.1894531 68.9335938,29.1438802 68.5820312,29.0527344 C68.2304688,28.9615885 67.8789062,28.811849 67.5273438,28.6035156 L67.5273438,28.6035156 L67.3222656,29.6191406 C67.6933594,29.8079427 68.09375,29.9527995 68.5234375,30.0537109 C68.953125,30.1546224 69.3697917,30.2050781 69.7734375,30.2050781 Z M69.96875,24.4726562 C69.2265625,24.4726562 68.6373698,24.1080729 68.2011719,23.3789062 C67.764974,22.6497396 67.546875,21.7382812 67.546875,20.6445312 C67.546875,19.53125 67.78125,18.5807292 68.25,17.7929688 C68.71875,17.0052083 69.3014323,16.6113281 69.9980469,16.6113281 C70.8053385,16.6113281 71.4384766,16.9628906 71.8974609,17.6660156 C72.3564453,18.3691406 72.5859375,19.3945312 72.5859375,20.7421875 L72.5859375,20.7421875 L72.5859375,22.2851562 C72.390625,22.9101562 72.0716146,23.4309896 71.6289062,23.8476562 C71.1861979,24.2643229 70.6328125,24.4726562 69.96875,24.4726562 Z" id="144x269" fill="#000000" fill-rule="nonzero"></path>
            </g>
        </g>
    </g>
</svg>