<?xml version="1.0" encoding="UTF-8"?>
<svg width="303px" height="254px" viewBox="0 0 303 254" version="1.1" xmlns="http://www.w3.org/2000/svg" xmlns:xlink="http://www.w3.org/1999/xlink">
    <title>slide4</title>
    <defs>
        <rect id="path-1" x="0" y="0" width="50.853" height="24.429"></rect>
    </defs>
    <g id="Welcome" stroke="none" stroke-width="1" fill="none" fill-rule="evenodd">
        <g id="1.4" transform="translate(-36.000000, -75.000000)">
            <g id="slide4" transform="translate(36.000000, 75.000000)">
                <g id="Group_2467" transform="translate(-0.000000, 0.000000)" fill-rule="nonzero">
                    <g id="Group_2452" transform="translate(35.587000, 14.542000)" fill="#F7F7F7">
                        <circle id="Ellipse_531" cx="114.621" cy="114.621" r="114.621"></circle>
                    </g>
                    <g id="Group_2453" transform="translate(52.738000, 31.692000)" fill="#E5E5E5">
                        <path d="M97.47,194.941 C58.0465695,194.941 22.504799,171.193614 7.4178251,134.77123 C-7.66914884,98.3488453 0.669809358,56.4246665 28.5462414,28.5479485 C56.4226734,0.671230473 98.3467667,-7.66815785 134.769306,7.41844242 C171.191845,22.5050427 194.94,58.0465695 194.94,97.47 C194.878831,151.275999 151.275998,194.879279 97.47,194.941 L97.47,194.941 Z M97.47,3.4 C45.5165736,3.4 3.4,45.5165736 3.4,97.47 C3.4,149.423426 45.5165736,191.54 97.47,191.54 C149.423426,191.54 191.54,149.423426 191.54,97.47 C191.479381,45.5421893 149.397813,3.46196288 97.47,3.403 L97.47,3.4 Z" id="Path_4277"></path>
                    </g>
                    <g id="Group_2454" transform="translate(51.285000, 195.496000)" fill="#F7F7F7">
                        <path d="M8.262,0.003 L56.345,0.003 C58.5362186,0.003 60.6376907,0.873458215 62.1871162,2.42288377 C63.7365418,3.97230933 64.607,6.07378136 64.607,8.265 L64.607,9.305 C64.607,13.8679766 60.9079766,17.567 56.345,17.567 L8.262,17.567 C3.6990234,17.567 0,13.8679766 0,9.305 L0,8.265 C0,3.7020234 3.6990234,0.003 8.262,0.003 Z" id="Path_4278"></path>
                    </g>
                    <g id="Group_2455" transform="translate(35.609000, 229.931000)" fill="#F7F7F7">
                        <path d="M5.785,-8.65857714e-08 L99.32,-8.65857714e-08 C102.514967,-8.65857714e-08 105.105,2.59003272 105.105,5.785 L105.105,5.785 C105.105,8.97996728 102.514967,11.5700001 99.32,11.5700001 L5.785,11.5700001 C4.25064129,11.5702653 2.77904976,10.9608612 1.69409429,9.87590571 C0.609138827,8.79095024 -8.65858283e-08,7.31935871 -8.65858283e-08,5.785 L-8.65858283e-08,5.785 C-8.65858283e-08,4.25064129 0.609138827,2.77904976 1.69409429,1.69409429 C2.77904976,0.609138827 4.25064129,-0.000265299342 5.785,-8.65857714e-08 L5.785,-8.65857714e-08 Z" id="Path_4279"></path>
                    </g>
                    <g id="Group_2456" transform="translate(195.291000, 241.499000)" fill="#F7F7F7">
                        <path d="M5.691,-5.68434189e-14 L16.327,-5.68434189e-14 C19.4698238,0.000552099055 22.0174479,2.5481762 22.0180001,5.691 L22.0180001,5.691 C22.0182652,7.20061227 21.4188285,8.64850011 20.3515589,9.71614472 C19.2842894,10.7837893 17.8366123,11.3837348 16.327,11.384 L5.691,11.384 C2.54794749,11.384 -3.51941026e-07,8.83605251 -3.51941026e-07,5.693 L-3.51941026e-07,5.693 C-0.000530554781,4.18330646 0.598820996,2.73526449 1.66614804,1.66756235 C2.73347508,0.59986022 4.18130637,-5.68434189e-14 5.691,-5.68434189e-14 L5.691,-5.68434189e-14 Z" id="Path_4280"></path>
                    </g>
                    <g id="Group_2457" transform="translate(186.364000, 207.832000)" fill="#F7F7F7">
                        <path d="M9.335,-5.36510356e-08 L61.135,-5.36510356e-08 C66.2905781,-5.36510356e-08 70.47,4.17942186 70.47,9.335 L70.47,9.335 C70.47,14.4905781 66.2905781,18.67 61.135,18.67 L9.335,18.67 C4.17942186,18.67 -5.36512061e-08,14.4905781 -5.36512061e-08,9.335 L-5.36512061e-08,9.335 C-5.36512061e-08,6.85912276 0.983155652,4.48457485 2.73386525,2.73386525 C4.48457485,0.983155652 6.85912276,-0.000265267827 9.335,-5.36510356e-08 Z" id="Path_4281"></path>
                    </g>
                    <g id="Group_2458" transform="translate(68.175000, 212.930000)" fill="#F7F7F7">
                        <path d="M0,3.25260652e-19 L32.777,3.25260652e-19 C30.4402299,0.0203721643 28.2070777,0.967366793 26.568,2.633 C24.9247958,4.15494065 23.9908202,6.29326267 23.991,8.533 C24.0049902,10.8299377 24.9456155,13.0239671 26.5996681,14.6177765 C28.2537207,16.2115859 30.4811235,17.0701999 32.777,16.999 L0,16.999 C2.29460158,17.1593655 4.5511851,16.3494266 6.22007091,14.7664757 C7.88895673,13.1835247 8.81694946,10.9728688 8.778,8.673 C8.77520008,6.35538798 7.84609554,4.13505162 6.1974646,2.50614115 C4.54883367,0.877230679 2.31747791,-0.0250887121 0,3.25260652e-19 Z" id="Path_4282"></path>
                    </g>
                    <g id="Group_2459" transform="translate(180.895000, 112.659000)" fill="#F7F7F7">
                        <path d="M15.772,0 L100.272,0 C104.45526,0 108.467184,1.66179344 111.425195,4.61980474 C114.383207,7.57781604 116.045,11.5897403 116.045,15.773 L116.045,15.773 C116.045,19.9562597 114.383207,23.968184 111.425195,26.9261953 C108.467184,29.8842066 104.45526,31.546 100.272,31.546 L15.772,31.546 C7.06276533,31.5432392 0.004,24.4822351 0.004,15.773 L0.004,15.773 C0.004,7.06353628 7.06253655,0.00220882441 15.772,0 L15.772,0 Z" id="Path_4283"></path>
                    </g>
                    <g id="Group_2460" transform="translate(156.356000, 174.845000)" fill="#F7F7F7">
                        <path d="M10.223,-0.00400019594 L135.423,-0.00400019594 C141.068455,-0.00400019594 145.645,4.57254529 145.645,10.218 L145.645,10.218 C145.645,12.9292162 144.567905,15.5293735 142.650692,17.4463991 C140.733479,19.3634247 138.133216,20.4402652 135.422,20.44 L10.222,20.44 C7.51078378,20.4402652 4.91052118,19.3634247 2.99330803,17.4463991 C1.07609488,15.5293735 -0.001,12.9292162 -0.001,10.218 L-0.001,10.218 C-0.001,7.50661048 1.07623211,4.90630165 2.99366155,2.98924728 C4.911091,1.07219292 7.51161054,-0.00453050079 10.223,-0.00400019594 L10.223,-0.00400019594 Z" id="Path_4284"></path>
                    </g>
                    <g id="Group_2461" transform="translate(218.197000, 144.203000)" fill="#F7F7F7">
                        <path d="M0,-6.50521303e-19 L58.872,-6.50521303e-19 C54.6885276,-0.0225889526 50.6709725,1.63458047 47.72,4.6 C44.7613279,7.37130291 43.0853722,11.2461356 43.092,15.3 C43.092,24.1 50.161,30.644 58.871,30.644 L0,30.644 C4.349,30.644 8.29,29.402 11.151,26.544 C14.108794,23.6744909 15.7746981,19.7269912 15.767,15.606 C15.7796997,11.4351454 14.1173956,7.43380274 11.1530465,4.49972313 C8.18869727,1.56564351 4.17050457,-0.0555058962 0,-5.68438525e-14 L0,-6.50521303e-19 Z" id="Path_4285"></path>
                    </g>
                    <g id="Group_2462" transform="translate(10.282000, 65.452000)" fill="#F7F7F7">
                        <path d="M115.76,33.487 L16.746,33.487 C12.3047766,33.487 8.04536344,31.723182 4.9048505,28.5828566 C1.76433755,25.4425312 0,21.1832234 0,16.742 L0,16.742 C0,7.49343958 7.49743958,-0.004 16.746,-0.004 L115.76,-0.004 C120.201223,-0.004 124.460531,1.76033755 127.600857,4.9008505 C130.741182,8.04136344 132.505,12.3007766 132.505,16.742 L132.505,16.742 C132.505,21.1831314 130.74115,25.4424418 127.600796,28.582796 C124.460442,31.7231501 120.201131,33.487 115.76,33.487 Z" id="Path_4286"></path>
                    </g>
                    <g id="Group_2463" transform="translate(0.000000, 147.498000)" fill="#F7F7F7">
                        <path d="M167.283,48.398 L24.199,48.398 C10.8337091,48.398 -0.001,37.5632909 -0.001,24.198 L-0.001,24.198 C-0.001,10.8327091 10.8337091,-0.002 24.199,-0.002 L167.283,-0.002 C180.648291,-0.002 191.483,10.8327091 191.483,24.198 L191.483,24.198 C191.483,37.5632909 180.648291,48.398 167.283,48.398 Z" id="Path_4287"></path>
                    </g>
                    <g id="Group_2464" transform="translate(155.890000, 33.751000)" fill="#F7F7F7">
                        <path d="M92.356,26.72 L13.356,26.72 C9.8127077,26.72 6.41453942,25.3124326 3.9090534,22.8069466 C1.40356739,20.3014606 -0.004,16.9032923 -0.004,13.36 L-0.004,13.36 C-0.004,9.81662639 1.40321695,6.41830399 3.90876047,3.91276047 C6.41430399,1.40721695 9.81262639,0 13.356,0 L92.356,0 C95.8993736,0 99.297696,1.40721695 101.80324,3.91276047 C104.308783,6.41830399 105.716,9.81662639 105.716,13.36 L105.716,13.36 C105.716,16.9032923 104.308433,20.3014606 101.802947,22.8069466 C99.2974606,25.3124326 95.8992923,26.72 92.356,26.72 L92.356,26.72 Z" id="Path_4288"></path>
                    </g>
                    <g id="Group_2465" transform="translate(65.281000, 15.251000)" fill="#F7F7F7">
                        <path d="M77.63,9.48 C79.2135313,9.48132761 80.794926,9.59628953 82.362,9.824 C81.6675299,4.21415768 76.9016647,0.00108658655 71.249,-2.13162821e-14 L11.207,-2.13162821e-14 C5.01699252,-2.13162821e-14 -0.001,5.01799252 -0.001,11.208 C-0.001,17.3980075 5.01699252,22.416 11.207,22.416 L51.496,22.416 C57.792,14.616 67.585,9.48 77.63,9.48 Z" id="Path_4289"></path>
                    </g>
                    <g id="Group_2466" transform="translate(197.916000, 0.000000)" fill="#F7F7F7">
                        <path d="M26.029,14.542 L7.27,14.542 C5.34170285,14.542 3.49239834,13.7759185 2.12898012,12.4123128 C0.765561894,11.048707 -6.88753516e-08,9.19929714 -6.88753516e-08,7.271 L-6.88753516e-08,7.271 C-6.88753516e-08,3.25588987 3.25488987,0.000999931125 7.27,0.000999931125 L26.029,0.000999931125 C27.9572971,0.000734759676 29.806707,0.766561894 31.1703128,2.12998012 C32.5339185,3.49339834 33.3,5.34270285 33.3,7.271 L33.3,7.271 C33.3,9.1993891 32.5339504,11.0487964 31.1703734,12.4123734 C29.8067964,13.7759504 27.9573891,14.542 26.029,14.542 Z" id="Path_4290"></path>
                    </g>
                </g>
                <g id="Group_2282" transform="translate(161.365000, 107.303000)" fill-rule="nonzero">
                    <g id="Group_2274" transform="translate(0.848000, 0.848000)" fill="#D1D1D1">
                        <path d="M0.024,39.53 C0.797274259,16.9938578 19.6512312,-0.672504717 42.19,0.02 L42.339,0.02 C64.9241326,0.784914379 82.6129144,19.7138674 81.848,42.299 C81.0830856,64.8841326 62.1541326,82.5729144 39.569,81.808 L39.42,81.8 C16.8870487,80.9658681 -0.727934683,62.065844 0.024,39.53 L0.024,39.53 Z" id="Path_4182"></path>
                    </g>
                    <g id="Group_2277" transform="translate(3.221000, 0.850000)" fill="#8E8E8E">
                        <path d="M45.848,78.215 C45.5898905,77.8889557 45.3651009,77.5378686 45.177,77.167 C45.4561539,75.3410552 46.0553418,73.5786981 46.947,71.961 C47.219,71.403 47.495,70.853 47.752,70.314 C49.822,66.87 49.79,64.714 48.587,63.179 C48.2678131,62.781705 47.8952951,62.4303872 47.48,62.135 C46.936,61.935 46.371,61.735 45.798,61.527 C45.225,61.319 44.64,61.115 44.054,60.896 C43.3879965,60.8078019 42.7301954,60.6660085 42.087,60.472 C32.781,58.262 40.187,50.856 41.792,44.982 C41.9834612,44.5562172 42.2012148,44.1427527 42.444,43.744 C43.144,42.654 44.175,41.999 47.203,41.68 C47.612,41.637 48.06,41.627 48.528,41.616 C49.2356976,41.6162534 49.9400323,41.5186629 50.621,41.326 C51.2227759,41.1515417 51.8005372,40.90297 52.341,40.586 C52.6279871,39.8701631 53.0336797,39.2078701 53.541,38.627 C53.9245355,38.1967544 54.3717231,37.8278077 54.867,37.533 C55.3389272,37.2542941 55.8425062,37.0330551 56.367,36.874 C58.699,34.191 62.402,37.894 64.816,34.552 C64.8778265,34.0905261 64.754912,33.6233073 64.474,33.252 C63.896244,32.5934743 63.107593,32.1561989 62.243,32.015 C60.772,31.648 59.593,31.415 58.643,31.234 C56.166,30.75 54.921,28.657 52.426,26.789 C51.1051865,25.8121062 49.906589,24.6799855 48.856,23.417 C48.364,22.375 48.206,21.379 45.602,20.123 C42.073,18.423 38.939,22.473 37.278,20.145 C36.786,19.455 37.503,18.345 37.799,17.729 C38.399,16.489 38.552,15.164 39.377,14.029 C39.5948211,13.7198721 39.9044693,13.4871986 40.262,13.364 C40.872651,13.256415 41.4642591,13.0599984 42.018,12.781 C43.0901205,12.0537124 44.3788754,11.7152908 45.67,11.822 C45.77,11.832 45.862,11.855 45.957,11.874 L45.962,11.874 L45.962,11.874 C48.037,12.274 48.131,15.649 50.668,15.649 C53.696,15.649 53.32,12.735 52.243,12.349 C51.156,11.699 50.113,12.149 48.965,12.149 C47.665,12.149 44.947,10.955 44.525,11.007 C43.844,11.094 42.925,11.491 42.26,11.618 L40.29,11.823 C39.456,11.797 37.314,8.823 39.655,7.38 C40.9594811,6.89386482 42.3034619,6.52115021 43.672,6.266 C44.591,6.219 45.542,3.916 46.572,4.09 C47.325,4.217 48.561,6.056 52.516,6.261 C53.396,6.307 59.657,4.779 59.529,7.283 C59.502,7.814 60.185,8.275 60.668,8.209 C61.5092905,8.14894037 62.3542424,8.16332965 63.193,8.252 C56.4986738,3.17706963 48.3967545,0.300245489 40.001,0.017 L39.909,0.017 C30.190194,-0.294023589 20.680806,2.88239366 13.1,8.972 C13.826948,9.57727842 14.6728526,10.0232265 15.583,10.281 C15.9105214,10.3695607 16.137224,10.6677239 16.135,11.007 C16.019,12.513 13.28,12.75 14.183,15.872 C14.562,17.181 16.6,17.494 17.919,17.884 C18.535,18.065 19.253,18.315 19.446,19.017 C19.7228958,19.9787651 20.3882869,20.781511 21.282,21.232 C21.5187947,21.3156001 21.7442093,21.4284753 21.953,21.568 L22.584,22.163 C22.9730422,22.7116942 23.1198135,23.3960245 22.99,24.056 C22.697,25.822 20.874,25.924 19.49,25.432 C19.49,25.432 18.896,25.181 18.779,25.112 C18.4901875,24.9142629 18.2221521,24.687773 17.979,24.436 L17.703,24.236 L15.789,21.567 C15.789,21.567 13.777,20.346 12.974,21.681 C12.7503366,22.0594189 12.4423415,22.3811026 12.074,22.621 C11.723,22.851 8.658,23.786 9.353,22.96 C9.742,22.497 10.212,21.778 9.14,21.111 C8.124,20.479 7.163,21.753 6.671,23.161 C6.301,24.216 5.106,21.952 3.81,22.794 C3.56163816,23.3401106 3.35244341,23.9031987 3.184,24.479 C2.557,25.479 2.011,25.385 0.907,25.074 C0.579,25.862 0.281,26.664 -0.002,27.474 C0.237432477,27.4872588 0.473460003,27.5368246 0.698,27.621 C3.25,28.597 4.887,26.135 7.27,27.029 C9.962,28.038 10.176,25.293 12.462,24.97 C15.232,24.579 15.143,26.57 20.552,27.15 C23.124,27.425 24.424,29.219 26.718,29.901 C27.8525957,30.2068607 28.5548723,31.3410046 28.323,32.493 C28.859,37.079 28.81,44.793 22.372,44.465 C20.303,44.359 14.472,42.841 13.384,44.93 C11.8649821,48.0942134 10.9651513,51.5197482 10.733,55.022 C10.1967277,57.2509275 9.47796964,59.4319519 8.584,61.543 C8.032,63.035 7.764,67.084 7.503,67.443 C14.9257785,76.181434 25.6828124,81.3933581 37.141,81.803 L37.233,81.808 C41.4535188,81.9505215 45.6705403,81.4360449 49.733,80.283 C48.2165987,80.1308519 46.8210111,79.3879754 45.848,78.215 Z" id="Path_4183"></path>
                    </g>
                    <g id="Group_2278" transform="translate(70.222000, 27.034000)" fill="#8E8E8E">
                        <path d="M9.787,0 L9.7,0.055 C9.7,0.055 9.053,0.155 8.976,0.534 L8.94,0.711 C8.71081571,1.96743635 7.61716638,2.88105418 6.34,2.883 C5.004,2.899 4.551,4.331 4.112,5.716 C3.86688964,6.87951913 3.31121646,7.95492644 2.504,8.828 C2.027,9.216 1.624,9.583 1.252,9.928 C0.865605989,10.4604313 0.566834316,11.0512228 0.367,11.678 C0.171099236,12.3017221 0.0479486861,12.9459975 0,13.598 C0.259816509,14.1127804 0.490839007,14.6415949 0.692,15.182 C1.06580103,15.8959265 1.37309722,16.6427433 1.61,17.413 C1.82006262,18.1035354 1.96240062,18.8128811 2.035,19.531 C2.113,20.2296667 2.163,20.9143333 2.185,21.585 C2.207,22.2556667 2.19866667,22.9116667 2.16,23.553 C1.82828423,25.3313786 1.24721976,27.0540361 0.434,28.67 C0.164,29.212 3.884,39.017 3.746,39.97 C12.6988216,28.6590317 14.9969566,13.454668 9.787,0.003 L9.787,0 Z" id="Path_4184"></path>
                    </g>
                    <g id="Group_2279" fill="#393939">
                        <path d="M41.83,83.528 C41.35,83.528 40.871,83.52 40.388,83.503 L40.27,83.497 C17.3129629,82.601193 -0.609497925,63.3308968 0.158751379,40.3692372 C0.927000683,17.4075775 20.0974265,-0.621667913 43.063,0.019 L43.215,0.019 C66.0102358,0.759005777 83.9963992,19.6494901 83.6181786,42.4535979 C83.239958,65.2577057 64.6372383,83.5413402 41.83,83.525 L41.83,83.528 Z M41.774,1.695 C19.9314525,1.6926395 2.1115762,19.1855303 1.70946031,41.0243762 C1.30734442,62.8632221 18.4711713,81.0002634 40.299,81.802 L40.416,82.656 L40.445,81.808 C54.7988983,82.3682855 68.3545326,75.2021211 75.9749107,63.0251693 C83.5952888,50.8482176 84.1143768,35.5237378 77.335463,22.8590371 C70.5565492,10.1943363 57.5169108,2.12730698 43.158,1.715 L43.01,1.715 C42.597,1.701 42.187,1.695 41.777,1.695 L41.774,1.695 Z" id="Path_4185"></path>
                    </g>
                </g>
                <g id="Group_2283" transform="translate(44.779000, 165.094000)" fill="#000000" fill-rule="nonzero">
                    <path d="M3.556,7.113 C1.59220562,7.113 0.00018418717,5.52112761 1.56221674e-07,3.55733324 C-0.000183874726,1.59353887 1.59153918,0.00136820203 3.55533352,0.000999998632 C5.51912786,0.000631922939 7.11144775,1.5922057 7.112,3.556 C7.10979674,5.5191732 5.5191725,7.11024474 3.556,7.113 L3.556,7.113 Z M3.556,1.695 C2.80320478,1.695 2.12455348,2.14852648 1.83656473,2.84405729 C1.54857598,3.53958811 1.70797861,4.34011579 2.24042824,4.87227932 C2.77287788,5.40444285 3.57349112,5.56341518 4.26886705,5.27505263 C4.96424298,4.98669008 5.41740451,4.30779511 5.41700027,3.555 C5.41479647,2.52843615 4.58256563,1.69709969 3.556,1.696 L3.556,1.695 Z" id="Path_4186"></path>
                </g>
                <g id="Group_2284" transform="translate(244.198000, 114.633000)" fill="#000000" fill-rule="nonzero">
                    <path d="M3.556,7.113 C2.11773226,7.113 0.821085619,6.24660842 0.270684382,4.91782229 C-0.279716854,3.58903616 0.0245194122,2.05953716 1.04152829,1.04252829 C2.05853716,0.0255194122 3.58803616,-0.278716854 4.91682229,0.271684382 C6.24560842,0.822085619 7.112,2.11873226 7.112,3.557 C7.10979561,5.52001076 5.51901076,7.11079561 3.556,7.113 L3.556,7.113 Z M3.556,1.695 C2.52819808,1.695 1.695,2.52819808 1.695,3.556 C1.695,4.58380192 2.52819808,5.417 3.556,5.417 C4.58380192,5.417 5.417,4.58380192 5.417,3.556 C5.4158977,2.52865502 4.58334498,1.6961023 3.556,1.695 L3.556,1.695 Z" id="Path_4187"></path>
                </g>
                <g id="Group_2285" transform="translate(176.624000, 97.051000)" fill="#000000" fill-rule="nonzero">
                    <path d="M3.555,7.113 C1.5912057,7.11244775 -0.000368077061,5.52012786 -1.36819267e-09,3.55633352 C0.000368202028,1.59253918 1.59253887,0.000816125274 3.55633324,0.00100015622 C5.52012761,0.00118418717 7.112,1.59320562 7.112,3.557 C7.10979463,5.52040073 5.51840127,7.11134669 3.555,7.113 L3.555,7.113 Z M3.555,1.695 C2.52732844,1.69555221 1.69463203,2.52899466 1.695,3.55666631 C1.69536821,4.58433795 2.52866146,5.41718367 3.55633315,5.41699973 C4.58400485,5.41681573 5.417,4.58367171 5.417,3.556 C5.41644828,2.52787441 4.58312559,1.69455172 3.555,1.694 L3.555,1.695 Z" id="Path_4188"></path>
                </g>
                <g id="Group_2286" transform="translate(105.775000, 71.186000)" fill="#000000" fill-rule="nonzero">
                    <path d="M3.556,7.113 C1.59220562,7.113 0.00018418717,5.52112761 1.56221688e-07,3.55733324 C-0.000183874726,1.59353887 1.59153918,0.00136820203 3.55533352,0.000999998632 C5.51912786,0.000631922939 7.11144775,1.5922057 7.112,3.556 C7.10979674,5.5191732 5.5191725,7.11024474 3.556,7.113 Z M3.556,1.695 C2.80320478,1.695 2.12455348,2.14852648 1.83656473,2.84405729 C1.54857598,3.53958811 1.70797861,4.34011579 2.24042824,4.87227932 C2.77287788,5.40444285 3.57349112,5.56341518 4.26886705,5.27505263 C4.96424298,4.98669008 5.41740451,4.30779511 5.41700027,3.555 C5.41479647,2.52843615 4.58256563,1.69709969 3.556,1.696 L3.556,1.695 Z" id="Path_4189"></path>
                </g>
                <g id="Group_2287" transform="translate(28.180000, 153.808000)" fill="#000000" fill-rule="nonzero">
                    <path d="M28.969,2.695 L27.269,2.695 C26.799558,2.695 26.419,2.31444204 26.419,1.845 C26.419,1.37555796 26.799558,0.995 27.269,0.995 L28.969,0.995 C29.438442,0.995 29.819,1.37555796 29.819,1.845 C29.819,2.31444204 29.438442,2.695 28.969,2.695 L28.969,2.695 Z M23.884,2.695 L22.184,2.695 C21.714558,2.695 21.334,2.31444204 21.334,1.845 C21.334,1.37555796 21.714558,0.995 22.184,0.995 L23.884,0.995 C24.353442,0.995 24.734,1.37555796 24.734,1.845 C24.734,2.31444204 24.353442,2.695 23.884,2.695 L23.884,2.695 Z M18.799,2.695 L17.099,2.695 C16.629558,2.695 16.249,2.31444204 16.249,1.845 C16.249,1.37555796 16.629558,0.995 17.099,0.995 L18.799,0.995 C19.268442,0.995 19.649,1.37555796 19.649,1.845 C19.649,2.31444204 19.268442,2.695 18.799,2.695 L18.799,2.695 Z M13.714,2.695 L12.014,2.695 C11.544558,2.695 11.164,2.31444204 11.164,1.845 C11.164,1.37555796 11.544558,0.995 12.014,0.995 L13.714,0.995 C14.183442,0.995 14.564,1.37555796 14.564,1.845 C14.564,2.31444204 14.183442,2.695 13.714,2.695 L13.714,2.695 Z M8.629,2.695 L6.929,2.695 C6.45955796,2.695 6.079,2.31444204 6.079,1.845 C6.079,1.37555796 6.45955796,0.995 6.929,0.995 L8.629,0.995 C9.09844204,0.995 9.479,1.37555796 9.479,1.845 C9.479,2.31444204 9.09844204,2.695 8.629,2.695 L8.629,2.695 Z M3.544,2.695 L1.844,2.695 C1.37455796,2.695 0.994,2.31444204 0.994,1.845 C0.994,1.37555796 1.37455796,0.995 1.844,0.995 L3.544,0.995 C4.01344204,0.995 4.394,1.37555796 4.394,1.845 C4.394,2.31444204 4.01344204,2.695 3.544,2.695 L3.544,2.695 Z" id="Path_4190"></path>
                </g>
                <g id="Group_2288" transform="translate(117.989000, 81.870000)" fill="#000000" fill-rule="nonzero">
                    <path d="M18.798,1.695 L17.098,1.695 C16.628558,1.695 16.248,1.31444204 16.248,0.845 C16.248,0.375557963 16.628558,-0.005 17.098,-0.005 L18.798,-0.005 C19.267442,-0.005 19.648,0.375557963 19.648,0.845 C19.648,1.31444204 19.267442,1.695 18.798,1.695 Z M13.713,1.695 L12.013,1.695 C11.543558,1.695 11.163,1.31444204 11.163,0.845 C11.163,0.375557963 11.543558,-0.005 12.013,-0.005 L13.713,-0.005 C14.182442,-0.005 14.563,0.375557963 14.563,0.845 C14.563,1.31444204 14.182442,1.695 13.713,1.695 Z M8.628,1.695 L6.928,1.695 C6.45855796,1.695 6.078,1.31444204 6.078,0.845 C6.078,0.375557963 6.45855796,-0.005 6.928,-0.005 L8.628,-0.005 C9.09744204,-0.005 9.478,0.375557963 9.478,0.845 C9.478,1.31444204 9.09744204,1.695 8.628,1.695 Z M3.543,1.695 L1.843,1.695 C1.37355796,1.695 0.993,1.31444204 0.993,0.845 C0.993,0.375557963 1.37355796,-0.005 1.843,-0.005 L3.543,-0.005 C4.01244204,-0.005 4.393,0.375557963 4.393,0.845 C4.393,1.31444204 4.01244204,1.695 3.543,1.695 Z" id="Path_4191"></path>
                </g>
                <g id="Group_2291" transform="translate(242.060000, 177.564000)" fill="#FFB800" fill-rule="nonzero">
                    <g id="Group_2289" transform="translate(0.001000, 0.000000)">
                        <path d="M4.223,5.07000234 C3.99795515,5.07052936 3.781996,4.98126624 3.623,4.822 L0.247,1.447 C-0.0843708499,1.11562915 -0.0843708499,0.57837085 0.247,0.247 C0.57837085,-0.0843708499 1.11562915,-0.0843708499 1.447,0.247 L4.823,3.622 C5.06512661,3.86463284 5.13736948,4.22917249 5.00607623,4.54580804 C4.87478298,4.86244359 4.56577686,5.06889797 4.223,5.069 L4.223,5.07000234 Z" id="Path_4192"></path>
                    </g>
                    <g id="Group_2290">
                        <path d="M0.847,5.07000528 C0.504223135,5.06989797 0.195217017,4.86344359 0.0639237687,4.54680804 C-0.0673694799,4.23017249 0.00487339157,3.86563284 0.247,3.623 L3.623,0.248 C3.95437085,-0.0833708499 4.49162915,-0.0833708499 4.823,0.248 C5.15437085,0.57937085 5.15437085,1.11662915 4.823,1.448 L1.447,4.823 C1.28783976,4.98189956 1.07190091,5.07079439 0.847,5.07000528 L0.847,5.07000528 Z" id="Path_4193"></path>
                    </g>
                </g>
                <g id="Group_2294" transform="translate(196.277000, 69.060000)" fill="#FFB800" fill-rule="nonzero">
                    <g id="Group_2292">
                        <path d="M4.222,5.07100234 C3.99695515,5.07152936 3.780996,4.98226624 3.622,4.823 L0.247,1.447 C-0.0843708141,1.11562914 -0.0843707972,0.578370873 0.247000038,0.247000038 C0.578370873,-0.0843707972 1.11562914,-0.0843708141 1.447,0.247 L4.822,3.623 C5.06412661,3.86563284 5.13636948,4.23017249 5.00507623,4.54680804 C4.87378298,4.86344359 4.56477686,5.06989797 4.222,5.07 L4.222,5.07100234 Z" id="Path_4194"></path>
                    </g>
                    <g id="Group_2293">
                        <path d="M0.848,5.07100862 C0.505223135,5.07089797 0.196217017,4.86444359 0.0649237687,4.54780804 C-0.0663694799,4.23117249 0.00587339157,3.86663284 0.248,3.624 L3.623,0.248 C3.95437085,-0.0833708499 4.49162915,-0.0833708499 4.823,0.248 C5.15437085,0.57937085 5.15437085,1.11662915 4.823,1.448 L1.448,4.824 C1.28896526,4.9830879 1.07294438,5.0720165 0.848,5.07100862 L0.848,5.07100862 Z" id="Path_4195"></path>
                    </g>
                </g>
                <g id="Group_2297" transform="translate(93.623000, 99.760000)" fill="#FFB800" fill-rule="nonzero">
                    <g id="Group_2295" transform="translate(0.001000, 0.000000)">
                        <path d="M4.222,5.07000234 C3.99695515,5.07052936 3.780996,4.98126624 3.622,4.822 L0.247,1.447 C0.0326406235,1.23264065 -0.051076251,0.920205074 0.0273847152,0.627384737 C0.105845681,0.3345644 0.3345644,0.105845681 0.627384737,0.0273847152 C0.920205074,-0.051076251 1.23264065,0.0326406235 1.447,0.247 L4.822,3.622 C5.06412661,3.86463284 5.13636948,4.22917249 5.00507623,4.54580804 C4.87378298,4.86244359 4.56477686,5.06889797 4.222,5.069 L4.222,5.07000234 Z" id="Path_4196"></path>
                    </g>
                    <g id="Group_2296">
                        <path d="M0.847,5.0700106 C0.504223135,5.06989797 0.195217017,4.86344359 0.0639237687,4.54680804 C-0.0673694799,4.23017249 0.00487339157,3.86563284 0.247,3.623 L3.622,0.248 C3.83635935,0.0336406235 4.14879493,-0.050076251 4.44161526,0.0283847152 C4.7344356,0.106845681 4.96315432,0.3355644 5.04161528,0.628384737 C5.12007625,0.921205074 5.03635938,1.23364065 4.822,1.448 L1.447,4.823 C1.28802831,4.98218243 1.07196616,5.07112801 0.847,5.0700106 Z" id="Path_4197"></path>
                    </g>
                </g>
                <g id="Group_2300" transform="translate(151.319000, 70.748000)" fill="#FFB800" fill-rule="nonzero">
                    <g id="Group_2298">
                        <path d="M4.222,5.07100234 C3.99695515,5.07152936 3.780996,4.98226624 3.622,4.823 L0.247,1.447 C0.0326406235,1.23264065 -0.051076251,0.920205074 0.0273847152,0.627384737 C0.105845681,0.3345644 0.3345644,0.105845681 0.627384737,0.0273847152 C0.920205074,-0.051076251 1.23264065,0.0326406235 1.447,0.247 L4.822,3.623 C5.06412661,3.86563284 5.13636948,4.23017249 5.00507623,4.54680804 C4.87378298,4.86344359 4.56477686,5.06989797 4.222,5.07 L4.222,5.07100234 Z" id="Path_4198"></path>
                    </g>
                    <g id="Group_2299">
                        <path d="M0.848,5.07100276 C0.505223135,5.07089797 0.196217017,4.86444359 0.0649237687,4.54780804 C-0.0663694799,4.23117249 0.00587339157,3.86663284 0.248,3.624 L3.623,0.248 C3.95437085,-0.0833708499 4.49162915,-0.0833708499 4.823,0.248 C5.15437085,0.57937085 5.15437085,1.11662915 4.823,1.448 L1.448,4.824 C1.28871503,4.98271219 1.07285758,5.07157351 0.848,5.07100276 Z" id="Path_4199"></path>
                    </g>
                </g>
                <g id="Group_2313" transform="translate(205.725000, 75.264000)">
                    <g id="Group_2301" transform="translate(3.579000, 3.726000)" fill="#FFB800">
                        <path d="M16.244,0 C8.465,0 0,6.02 0,16.061 C0,31.345 16.282,47.495 16.282,47.495 C16.282,47.495 32.563,31.081 32.563,16.061 C32.564,6.019 23.577,0 16.244,0 Z M20.277,22.951 C19.0670702,23.6696284 17.6842284,24.04507 16.277,24.037 C14.3531495,24.0676544 12.4930048,23.347772 11.091,22.0299984 C6.526,17.8 8.265,8.02999836 16.31,8.02999836 C25.022,8.025 26.341,19.473 20.278,22.951 L20.277,22.951 Z" id="Path_4200"></path>
                    </g>
                    <g id="Group_2304" transform="translate(2.732000, 2.878000)" fill="#393939" fill-rule="nonzero">
                        <g id="Group_2303">
                            <path d="M17.13,49.1880059 C16.9052858,49.188839 16.6894485,49.1003457 16.53,48.942 C15.855,48.272 -0.003,32.366 -0.003,16.906 C-0.003,6.462 8.869,-0.003 17.089,-0.003 C25.38,-0.003 34.256,6.792 34.256,16.906 C34.256,32.1 18.403,48.256 17.729,48.937 C17.5706162,49.0969342 17.3550862,49.1872481 17.13,49.1880059 L17.13,49.1880059 Z M17.092,1.693 C9.692,1.693 1.692,7.51 1.692,16.906 C1.692,30.006 14.205,44.025 17.122,47.114 C20.032,43.988 32.5600013,29.781 32.5600013,16.906 C32.564,6.982 23.578,1.695 17.092,1.695 L17.092,1.693 Z M17.141,25.729 C14.9947288,25.7572962 12.9209518,24.9530176 11.355,23.485 C8.67724275,20.8006551 7.8602624,16.7771449 9.279,13.261 C10.4945432,9.99156808 13.6769495,7.87655776 17.162,8.022 C21.034472,7.89492641 24.4641414,10.5040308 25.375,14.27 C26.455,18.324 24.844,22.64 21.546,24.531 C20.2134236,25.3226272 18.690968,25.7377167 17.141,25.7320583 L17.141,25.729 Z M17.163,9.717 C14.3831689,9.59432292 11.8402011,11.2746999 10.863,13.88 C9.71739769,16.754543 10.3683421,20.0339397 12.525,22.253 C13.7725807,23.429793 15.4323295,24.0697048 17.147,24.035 C18.3928562,24.0409404 19.6169904,23.7088136 20.689,23.074 C23.705,21.343 24.504,17.559 23.744,14.707 C23.0369243,11.6771481 20.2711697,9.58129371 17.163,9.72 L17.163,9.717 Z" id="Path_4201"></path>
                        </g>
                    </g>
                    <g id="Group_2305" transform="translate(8.957000, 8.954000)" fill="#FFFFFF">
                        <path d="M10.904,0 C4.88474787,0.00276112512 0.00715997055,4.88407933 0.00899998885,10.9033318 C0.0108410486,16.9225843 4.89141321,21.8009187 10.9106659,21.7999987 C16.9299186,21.7990788 21.809,16.9192528 21.809,10.9 C21.8062395,4.87928752 16.9247131,0 10.904,0 L10.904,0 Z" id="Path_4202"></path>
                    </g>
                    <g id="Group_2308" transform="translate(11.351000, 11.353000)" fill="#393939" fill-rule="nonzero">
                        <g id="Group_2307">
                            <path d="M8.506,17.011 C5.06555317,17.0114045 1.96365002,14.9392406 0.646767745,11.7607982 C-0.670114528,8.58235592 0.0573758723,4.92360967 2.48999616,2.49070336 C4.92261644,0.0577970571 8.58127713,-0.670123501 11.7598743,0.646385071 C14.9384714,1.96289364 17.011,5.06455315 17.011,8.505 C17.0060405,13.2002879 13.2012873,17.0054885 8.506,17.011 L8.506,17.011 Z M8.506,1.695 C4.74494085,1.695 1.696,4.74394085 1.696,8.505 C1.696,12.2660591 4.74494085,15.315 8.506,15.315 C12.2670591,15.315 15.316,12.2660591 15.316,8.505 C15.3115916,4.74576837 12.2652316,1.69940837 8.506,1.695 L8.506,1.695 Z" id="Path_4203"></path>
                        </g>
                    </g>
                    <g id="Group_2310" fill="#393939" fill-rule="nonzero">
                        <g id="Group_2309">
                            <path d="M36.468,30.8650022 C36.1695314,30.8646059 35.8932467,30.7073326 35.7405306,30.4508926 C35.5878146,30.1944527 35.5811567,29.8766102 35.723,29.614 C35.979,29.139 36.218,28.649 36.432,28.156 C36.5523985,27.878226 36.811842,27.685784 37.1126006,27.6511652 C37.4133592,27.6165463 37.7097405,27.74501 37.8901006,27.9881652 C38.0704607,28.2313204 38.1073985,28.552226 37.987,28.83 C37.753,29.368 37.493,29.903 37.213,30.419 C37.0663816,30.6941212 36.7797501,30.8657154 36.468,30.8650022 Z M2.142,28.465 C1.78981896,28.4645178 1.47459213,28.2464063 1.35,27.917 C1.142,27.37 0.956,26.806 0.794,26.24 C0.704718994,25.9466324 0.780777145,25.6279188 0.992911785,25.4064813 C1.20504643,25.1850438 1.52020436,25.0953851 1.81713151,25.1720006 C2.11405866,25.2486161 2.3464901,25.4795681 2.425,25.776 C2.573,26.296 2.744,26.814 2.935,27.316 C3.03338232,27.5764577 2.99780842,27.8686007 2.83979658,28.0978376 C2.68178474,28.3270745 2.4214183,28.4642691 2.143,28.465 L2.142,28.465 Z M38.292,26.135 C38.2245672,26.1347926 38.157409,26.1263978 38.092,26.11 C37.6376721,25.9981629 37.3597765,25.5394785 37.471,25.085 C37.599,24.564 37.706,24.028 37.79,23.495 C37.8305052,23.1899142 38.0331269,22.9307222 38.3194156,22.8177761 C38.6057043,22.7048301 38.9307148,22.7558616 39.168612,22.9511127 C39.4065091,23.1463637 39.5199449,23.4551814 39.465,23.758 C39.374,24.339 39.257,24.922 39.117,25.49 C39.0234069,25.8686612 38.6830543,26.1342519 38.293,26.133 L38.292,26.135 Z M0.958,23.535 C0.525649745,23.5344928 0.162905659,23.2087986 0.116,22.779 C0.052,22.196 0.016,21.604 -0.002,21.018 C-0.00790894562,20.7931714 0.0758434467,20.5752237 0.230791869,20.412209 C0.385740292,20.2491942 0.599160976,20.1544986 0.824,20.149 C1.04973196,20.1397897 1.26956246,20.2224411 1.43331182,20.3780878 C1.59706119,20.5337345 1.69075276,20.7490914 1.693,20.975 C1.707,21.515 1.744,22.061 1.801,22.596 C1.82683264,22.835336 1.74972727,23.0743726 1.58891147,23.253502 C1.42809566,23.4326313 1.19872608,23.535 0.958,23.535 L0.958,23.535 Z M38.868,21.1 C38.4035401,21.1 38.0254771,20.7264276 38.02,20.262 C38.014,19.723 37.985,19.177 37.935,18.64 C37.8910934,18.1741478 38.2331478,17.7609067 38.699,17.7170001 C39.1648522,17.6730934 39.5780933,18.0151478 39.622,18.481 C39.676,19.064 39.708,19.657 39.714,20.243 C39.7189991,20.710962 39.3439564,21.094508 38.876,21.1 L38.868,21.1 Z M1.042,18.463017 C1.00219075,18.4632577 0.962416552,18.4605838 0.923,18.455 C0.459410934,18.3894628 0.136657128,17.9606165 0.202,17.497 C0.284,16.917 0.392,16.333 0.522,15.761 C0.626105758,15.3048129 1.08031283,15.0193945 1.53649996,15.1235002 C1.99268709,15.2276058 2.27810556,15.6818128 2.174,16.138 C2.054,16.664 1.954,17.201 1.88,17.738 C1.8176833,18.1522463 1.46190724,18.4587153 1.043,18.459 L1.042,18.463017 Z M38.182,16.076 C37.7987499,16.0755637 37.4634279,15.8181282 37.364,15.448 C37.224,14.927 37.064,14.406 36.878,13.9 C36.7752861,13.6152593 36.832282,13.2973509 37.0275177,13.0660278 C37.2227534,12.8347046 37.5265681,12.7251102 37.8245177,12.7785278 C38.1224673,12.8319453 38.3692861,13.0402593 38.472,13.325 C38.672,13.876 38.849,14.442 39.002,15.009 C39.0602975,15.22622 39.0298085,15.4577075 38.9172551,15.6524249 C38.8047017,15.8471423 38.6193264,15.9891001 38.402,16.047 C38.3303629,16.0646276 38.2567669,16.0730289 38.183,16.072 L38.182,16.076 Z M2.382,13.576 C2.09864566,13.5757216 1.83415364,13.4339356 1.67706958,13.1981087 C1.51998552,12.9622817 1.49106878,12.6635793 1.6,12.402 C1.825,11.861 2.077,11.323 2.348,10.802 C2.57490738,10.4087012 3.07158642,10.264293 3.47399635,10.4746192 C3.87640628,10.6849455 4.04137997,11.1751776 3.848,11.586 C3.599,12.063 3.368,12.557 3.162,13.054 C3.02825707,13.3665507 2.72096339,13.5691836 2.381,13.569 L2.382,13.576 Z M36.258,11.3880013 C35.9531652,11.3885324 35.6716155,11.2250274 35.521,10.96 C35.254,10.49 34.963,10.029 34.658,9.587 C34.485798,9.33798588 34.4595242,9.01601867 34.5890758,8.74238029 C34.7186273,8.46874192 34.9843222,8.28500455 35.2860758,8.26038029 C35.5878293,8.23575603 35.879798,8.37398588 36.052,8.623 C36.385,9.105 36.701,9.609 36.993,10.123 C37.2244418,10.5297881 37.0825653,11.0471672 36.676,11.279 C36.5479432,11.3501011 36.4034533,11.3863098 36.257,11.384 L36.258,11.3880013 Z M4.914,9.188 C4.5918915,9.1874425 4.29790862,9.00444011 4.15521567,8.71566179 C4.01252271,8.42688347 4.04575893,8.08219352 4.241,7.826 C4.598,7.358 4.979,6.902 5.373,6.469 C5.6883546,6.1227175 6.22471744,6.09764547 6.57099996,6.41300005 C6.91728248,6.72835462 6.94235455,7.26471746 6.627,7.611 C6.266,8.011 5.917,8.426 5.589,8.855 C5.4263258,9.06226432 5.17646207,9.18202148 4.913,9.179 L4.914,9.188 Z M33.199,7.344 C32.9732324,7.34320772 32.7571705,7.25210161 32.599,7.091 C32.223,6.709 31.823,6.337 31.413,5.991 C31.1680598,5.79885717 31.0480938,5.48795124 31.1004849,5.18108035 C31.152876,4.87420946 31.3691999,4.62071722 31.6640153,4.52072516 C31.9588308,4.4207331 32.2847327,4.49031954 32.513,4.702 C32.96,5.084 33.396,5.49 33.806,5.907 C34.0445899,6.15007619 34.1145913,6.51231581 33.9837445,6.82678414 C33.8528978,7.14125246 33.5465978,7.34691732 33.206,7.349 L33.199,7.344 Z M8.488,5.58400001 C8.12533754,5.5837777 7.80295879,5.35295575 7.68590484,5.00970296 C7.56885089,4.66645016 7.68303465,4.28675437 7.97,4.065 C8.434,3.706 8.922,3.365 9.418,3.048 C9.67356628,2.87659641 10.0019318,2.8570922 10.2759916,2.99703713 C10.5500513,3.13698207 10.7267915,3.41441181 10.7377988,3.72193767 C10.7488062,4.02946352 10.592353,4.31881932 10.329,4.478 C9.875,4.767 9.429,5.078 9.004,5.408 C8.85620589,5.52213344 8.67473388,5.58403087 8.488,5.58400001 Z M29.198,4.22000495 C29.0483273,4.22000495 28.9013271,4.18034198 28.772,4.105 C28.306,3.833 27.824,3.58 27.341,3.354 C26.9171215,3.15572975 26.7342299,2.65137855 26.9325001,2.22750003 C27.1307703,1.80362152 27.6351215,1.62072983 28.059,1.819 C28.589,2.066 29.118,2.344 29.628,2.641 C29.9592859,2.83385033 30.1197539,3.22515713 30.0192501,3.59507682 C29.9187463,3.96499651 29.5823274,4.22130364 29.199,4.22000495 L29.198,4.22000495 Z M12.881,3.05500048 C12.4758153,3.05464319 12.1274913,2.76769408 12.0495738,2.37007157 C11.9716564,1.97244906 12.1859171,1.57525677 12.561,1.422 C13.106,1.2 13.668,1.001 14.231,0.83 C14.673543,0.709574666 15.1316366,0.962825239 15.2650122,1.40163902 C15.3983878,1.84045279 15.1587057,2.30578933 14.724,2.452 C14.21,2.609 13.697,2.79 13.2,2.993 C13.0986651,3.03406265 12.9903384,3.05511676 12.881,3.05500048 L12.881,3.05500048 Z M24.515,2.285 C24.442766,2.2848084 24.3708517,2.27539906 24.301,2.257 C23.782,2.122 23.25,2.01 22.72,1.923 C22.421326,1.87405461 22.1714518,1.66948651 22.0645028,1.38635452 C21.9575537,1.10322253 22.0097778,0.784541127 22.2015028,0.55035452 C22.3932277,0.316167912 22.695326,0.202054614 22.994,0.251 C23.575,0.346 24.158,0.47 24.727,0.617 C25.138581,0.725460756 25.4059941,1.12221751 25.3520796,1.54442114 C25.2981652,1.96662477 24.9396293,2.28344919 24.514,2.285 L24.515,2.285 Z M17.791,1.805 C17.3410746,1.80504532 16.9696216,1.45332727 16.9451504,1.00406789 C16.9206792,0.55480851 17.2517306,0.164815374 17.699,0.116 C18.283,0.051 18.878,0.016 19.466,-1.76742873e-05 C19.9316277,-0.00295747394 20.3148315,0.365609991 20.33,0.831 C20.3389278,1.29915711 19.9671388,1.68615772 19.499,1.696 C18.962,1.706 18.419,1.742 17.886,1.801 C17.8544242,1.8039807 17.8227146,1.80531584 17.791,1.805 Z" id="Path_4204"></path>
                        </g>
                    </g>
                    <g id="Group_2311" transform="translate(16.539000, 14.268000)" fill="#393939">
                        <path d="M3.624,4.729 C2.273,4.321 1.981,4.11 1.981,3.542 C1.981,2.974 2.904,2.815 3.446,2.815 C3.97225832,2.81576431 4.48923774,2.95362549 4.946,3.215 C5.09236354,3.30994928 5.28798184,3.26831884 5.383,3.122 L6.067,2.063 C6.11313601,1.99286688 6.12926797,1.90718004 6.11179403,1.82507129 C6.09432009,1.74296254 6.04469541,1.67126968 5.974,1.626 C5.40783073,1.27822962 4.77412395,1.05494939 4.115,0.971 L4.115,0.318 C4.11445485,0.14409396 3.97390344,0.00309634994 3.8,0.002 L2.537,0.002 C2.36325957,0.00309964494 2.22299652,0.144256093 2.223,0.318 L2.223,1.075 C1.01444229,1.28535381 0.122460641,2.3196507 0.092,3.546 C0.092,5.639 1.892,6.184 3.079,6.546 C4.358,6.932 4.616,7.109 4.611,7.59 C4.611,8.124 3.733,8.265 3.211,8.265 C2.56183648,8.26025 1.93848132,8.01019349 1.466,7.565 C1.40861934,7.50359818 1.32901967,7.46776063 1.24500992,7.46550534 C1.16100018,7.46325004 1.07959238,7.49476524 1.019,7.553 L0.103,8.42 C0.0418734584,8.47721422 0.00603927167,8.55640961 0.00341241799,8.64009366 C0.000785564313,8.72377772 0.0315821891,8.80506466 0.089,8.866 C0.670938154,9.45546491 1.41104968,9.86389812 2.22,10.042 L2.22,10.762 C2.21973436,10.8455433 2.25266728,10.9257704 2.31155379,10.985032 C2.3704403,11.0442936 2.45045668,11.0777352 2.534,11.078 L3.797,11.078 C3.97090344,11.0769037 4.11145485,10.935906 4.112,10.762 L4.112,10.076 C5.42082029,9.97060777 6.4456439,8.90588939 6.50106174,7.594 C6.513,5.607 4.773,5.079 3.624,4.729 Z" id="Path_4205"></path>
                    </g>
                    <g id="Group_2312" transform="translate(8.035000, 8.106000)" fill="#393939" fill-rule="nonzero">
                        <path d="M11.752,23.504 C5.26154962,23.504 5.68434189e-14,18.2424504 5.68434189e-14,11.752 C5.68434189e-14,5.26154962 5.26154962,0 11.752,0 C18.2424504,0 23.504,5.26154962 23.504,11.752 C23.4968355,18.2394804 18.2394804,23.4968355 11.752,23.504 Z M11.752,1.695 C6.19767227,1.695 1.695,6.19767227 1.695,11.752 C1.695,17.3063277 6.19767227,21.809 11.752,21.809 C17.3063277,21.809 21.809,17.3063277 21.809,11.752 C21.8029376,6.20018536 17.3038146,1.70106244 11.752,1.695 Z" id="Path_4206"></path>
                    </g>
                </g>
                <g id="Group_2317" transform="translate(19.230000, 189.421000)" fill="#393939" fill-rule="nonzero">
                    <g id="Group_2314">
                        <rect id="Rectangle_611" x="0" y="0" width="12.713" height="3.39"></rect>
                    </g>
                    <g id="Group_2315" transform="translate(251.722000, 0.000000)">
                        <rect id="Rectangle_612" x="0" y="0" width="12.713" height="3.39"></rect>
                    </g>
                    <g id="Group_2316" transform="translate(20.129000, 0.000000)">
                        <rect id="Rectangle_613" x="0" y="0" width="220.574" height="3.39"></rect>
                    </g>
                </g>
                <g id="Group_2332" transform="translate(105.008000, 88.817000)" fill="#393939" fill-rule="nonzero">
                    <g id="Group_2318" transform="translate(50.174000, 48.090000)">
                        <rect id="Rectangle_614" transform="translate(3.842172, 3.199876) rotate(37.156374) translate(-3.842172, -3.199876) " x="-0.337380743" y="2.35236491" width="8.35910449" height="1.69502119"></rect>
                    </g>
                    <g id="Group_2319" transform="translate(50.161000, 9.178000)">
                        <rect id="Rectangle_615" transform="translate(3.846828, 3.199876) rotate(52.843626) translate(-3.846828, -3.199876) " x="2.99931791" y="-0.979676743" width="1.69502119" height="8.35910449"></rect>
                    </g>
                    <g id="Group_2322" transform="translate(18.098000, 2.092000)">
                        <g id="Group_2320" transform="translate(23.853000, 0.007000)">
                            <rect id="Rectangle_616" transform="translate(2.624126, 4.068327) rotate(26.878000) translate(-2.624126, -4.068327) " x="1.77662645" y="-0.0631728616" width="1.695" height="8.263"></rect>
                        </g>
                        <g id="Group_2321">
                            <rect id="Rectangle_617" transform="translate(2.623519, 4.068424) rotate(63.127000) translate(-2.623519, -4.068424) " x="-1.50798148" y="3.22092415" width="8.263" height="1.695"></rect>
                        </g>
                    </g>
                    <g id="Group_2323" transform="translate(55.895000, 39.214000)">
                        <rect id="Rectangle_618" transform="translate(4.159640, 2.332674) rotate(21.920000) translate(-4.159640, -2.332674) " x="0.017140494" y="1.48517429" width="8.285" height="1.695"></rect>
                    </g>
                    <g id="Group_2324" transform="translate(55.174000, 19.759000)">
                        <rect id="Rectangle_619" transform="translate(4.159384, 2.333600) rotate(68.068000) translate(-4.159384, -2.333600) " x="3.31188432" y="-1.80940039" width="1.695" height="8.286"></rect>
                    </g>
                    <g id="Group_2325" transform="translate(56.205000, 30.858000)">
                        <rect id="Rectangle_620" x="0" y="0" width="7.926" height="1.695"></rect>
                    </g>
                    <g id="Group_2326" transform="translate(6.504000, 48.087000)">
                        <rect id="Rectangle_621" transform="translate(3.846828, 3.199876) rotate(52.843626) translate(-3.846828, -3.199876) " x="2.99931791" y="-0.979676743" width="1.69502119" height="8.35910449"></rect>
                    </g>
                    <g id="Group_2327" transform="translate(6.518000, 9.177000)">
                        <rect id="Rectangle_622" transform="translate(3.842172, 3.199876) rotate(37.156374) translate(-3.842172, -3.199876) " x="-0.337380743" y="2.35236491" width="8.35910449" height="1.69502119"></rect>
                    </g>
                    <g id="Group_2328" transform="translate(0.170000, 39.217000)">
                        <rect id="Rectangle_623" transform="translate(4.158848, 2.333413) rotate(68.068000) translate(-4.158848, -2.333413) " x="3.31134814" y="-1.80908715" width="1.695" height="8.285"></rect>
                    </g>
                    <g id="Group_2329" transform="translate(0.891000, 19.761000)">
                        <rect id="Rectangle_624" transform="translate(4.159640, 2.332674) rotate(21.920000) translate(-4.159640, -2.332674) " x="0.017140494" y="1.48517429" width="8.285" height="1.695"></rect>
                    </g>
                    <g id="Group_2330" transform="translate(0.000000, 30.858000)">
                        <rect id="Rectangle_625" x="0" y="0" width="7.926" height="1.695"></rect>
                    </g>
                    <g id="Group_2331" transform="translate(31.578000, 0.000000)">
                        <rect id="Rectangle_626" x="0" y="0" width="1.695" height="7.927"></rect>
                    </g>
                </g>
                <g id="Group_2346" transform="translate(44.163000, 102.441000)">
                    <g id="Group_2333" transform="translate(0.849000, 0.848000)" fill="#FFFFFF">
                        <path d="M21.128,0 C32.797,0 42.256,8.16 42.256,18.227 C42.256,24.273 38.846,29.627 33.596,32.945 L36.572,40.471 L29.28,35.049 C26.6654231,35.9868514 23.9076842,36.4629421 21.13,36.456 C9.461,36.456 0.001,28.296 0.001,18.227 C0.001,8.158 9.459,0 21.128,0 Z" id="Path_4207"></path>
                    </g>
                    <g id="Group_2340" fill="#393939" fill-rule="nonzero">
                        <g id="Group_2337">
                            <path d="M37.419,42.166 C37.2368392,42.166 37.0595392,42.1072077 36.913,41.999 L29.982,36.845 C27.4030997,37.7167875 24.6982584,38.1580219 21.976,38.151 C9.859,38.151 0,29.593 0,19.074 C0,8.555 9.858,-0.001 21.976,-0.001 C34.094,-0.001 43.951,8.556 43.951,19.074 C43.8090348,25.1860575 40.6358063,30.8270195 35.486,34.122 L38.207,41.006 C38.309344,41.2669344 38.2763074,41.5615666 38.1187154,41.7933548 C37.9611234,42.0251431 37.6992863,42.1642146 37.419,42.165 L37.419,42.166 Z M30.127,35.048 C30.309229,35.0478528 30.4866581,35.1064114 30.633,35.215 L35.533,38.862 L33.651,34.103 C33.5016,33.7241078 33.6426651,33.2925158 33.987,33.075 C39.162,29.805 42.252,24.575 42.252,19.075 C42.252,9.492 33.152,1.695 21.972,1.695 C10.792,1.695 1.691,9.495 1.691,19.075 C1.691,28.655 10.791,36.457 21.972,36.457 C24.6516374,36.4652803 27.3121806,36.0060641 29.834,35.1 C29.9280001,35.0662506 30.0271249,35.0489969 30.127,35.049 L30.127,35.048 Z" id="Path_4208"></path>
                        </g>
                    </g>
                    <g id="Group_2341" transform="translate(18.433000, 24.302000)" fill="#FFB800" fill-rule="nonzero">
                        <path d="M3.557,6.166 C2.50610352,6.18957589 1.54549988,5.57468466 1.12689775,4.61046919 C0.70829561,3.64625371 0.914996347,2.52459183 1.64980221,1.77292729 C2.38460806,1.02126275 3.50129348,0.78917599 4.47475479,1.18580213 C5.44821611,1.58242827 6.08473558,2.52883914 6.085,3.58 C6.11772293,4.26521972 5.86388744,4.93316351 5.38434404,5.4237091 C4.90480063,5.91425468 4.24278562,6.18317379 3.557,6.166 L3.557,6.166 Z" id="Path_4209"></path>
                    </g>
                    <g id="Group_2342" transform="translate(18.343000, 7.915000)" fill="#FFB800" fill-rule="nonzero">
                        <polygon id="Path_4210" points="0 0 7.269 0 6.177 15.667 1.092 15.667"></polygon>
                    </g>
                    <g id="Group_2345" transform="translate(17.495000, 7.068000)" fill="#393939" fill-rule="nonzero">
                        <g id="Group_2343" transform="translate(0.091000, 17.387000)">
                            <path d="M4.405,6.866 C3.01152736,6.88913977 1.74234349,6.06754697 1.1929742,4.78672894 C0.643604908,3.50591091 0.923081048,2.02006586 1.90026697,1.02638124 C2.8774529,0.0326966204 4.35841089,-0.271615439 5.64824662,0.256234209 C6.93808235,0.784083857 7.78080789,2.03933526 7.781,3.433 C7.81594056,4.34379996 7.47341448,5.22863788 6.83432565,5.87851701 C6.19523682,6.52839615 5.31625727,6.88568762 4.405,6.866 Z M4.405,1.695 C3.69722838,1.6717752 3.04614182,2.08029239 2.75913768,2.72767843 C2.47213354,3.37506447 2.60661172,4.13184424 3.09908107,4.64071947 C3.59155042,5.1495947 4.34351866,5.30879198 4.99995917,5.04314954 C5.65639969,4.7775071 6.08602651,4.14015257 6.086,3.432 C6.11744858,2.97222276 5.95243669,2.52067719 5.6319475,2.18951137 C5.3114583,1.85834556 4.86556069,1.67863009 4.405,1.695 Z" id="Path_4211"></path>
                        </g>
                        <g id="Group_2344">
                            <path d="M7.025,17.3620142 L1.94,17.3620142 C1.49453814,17.3620142 1.12499322,17.0173824 1.094,16.573 L0.002,0.906 C-0.0143623693,0.671673518 0.067320473,0.441075172 0.227534213,0.269295707 C0.387747953,0.0975162408 0.612102944,-2.84217094e-14 0.847,-2.84217094e-14 L8.12,-2.84217094e-14 C8.35489706,-2.84217094e-14 8.57925205,0.0975162408 8.73946579,0.269295707 C8.89967953,0.441075172 8.98136237,0.671673518 8.965,0.906 L7.873,16.573 C7.84339562,17.0188386 7.471813,17.3645682 7.025,17.3620142 Z M2.725,15.662 L6.225,15.662 L7.198,1.69 L1.756,1.69 L2.725,15.662 Z" id="Path_4212"></path>
                        </g>
                    </g>
                </g>
                <g id="Group_2411" transform="translate(57.793000, 122.675000)" fill-rule="nonzero">
                    <g id="Group_2347" transform="translate(143.787000, 47.159000)" fill="#7C7BBD">
                        <ellipse id="Ellipse_523" cx="1.771" cy="3.182" rx="1.771" ry="3.182"></ellipse>
                    </g>
                    <g id="Group_2348" transform="translate(158.122000, 42.611000)" fill="#EAF5FE">
                        <circle id="Ellipse_524" cx="3.211" cy="3.211" r="3.211"></circle>
                    </g>
                    <g id="Group_2349" transform="translate(157.274000, 41.765000)" fill="#393939">
                        <path d="M4.059,8.117 C1.81808893,8.11644771 0.00181604072,6.29957788 0.00200013694,4.05866675 C0.00218423315,1.81775562 1.81875562,0.00118423315 4.05966675,0.00100013694 C6.30057788,0.000816040721 8.11744771,1.81708893 8.118,4.058 C8.11579502,6.29880983 6.29980983,8.11479502 4.059,8.117 L4.059,8.117 Z M4.059,1.695 C2.75408145,1.69555223 1.69663198,2.75374777 1.697,4.05866638 C1.69736821,5.363585 2.75541454,6.42118376 4.06033319,6.42099976 C5.36525184,6.42081577 6.423,5.36291866 6.423,4.058 C6.42134608,2.75324645 5.36375413,1.69610187 4.059,1.695 Z" id="Path_4213"></path>
                    </g>
                    <g id="Group_2352" transform="translate(43.092000, 51.990000)">
                        <g id="Group_2350" fill="#D9D9D9">
                            <circle id="Ellipse_525" cx="7.916" cy="7.916" r="7.916"></circle>
                        </g>
                        <g id="Group_2351" transform="translate(5.175000, 5.175000)" fill="#F3F8FE">
                            <path d="M2.742,5.48400019 C1.22763536,5.48455218 -0.000447384132,4.25736476 -0.000999821576,2.74300012 C-0.00155188638,1.22863549 1.22563549,0.000552682918 2.74000012,1.7829035e-07 C4.25436476,-0.000551953612 5.48244761,1.22663536 5.483,2.741 C5.48189874,4.25468004 4.25567884,5.48179467 2.742,5.48400019 L2.742,5.48400019 Z" id="Path_4214"></path>
                        </g>
                    </g>
                    <g id="Group_2353" transform="translate(34.082000, 0.848000)" fill="#D1D1D1">
                        <path d="M0,4.925 L0,52.962 L41.61,52.962 L41.61,0 L4.925,0 C2.20499761,0 0,2.20499761 0,4.925 L0,4.925 Z" id="Path_4215"></path>
                    </g>
                    <g id="Group_2354" transform="translate(33.235000, 0.000000)" fill="#393939">
                        <path d="M43.305,54.658 L0,54.658 L0,5.773 C0.0038570434,2.58625915 2.58625915,0.0038570434 5.773,0 L43.305,0 L43.305,54.658 Z M1.695,52.958 L41.61,52.958 L41.61,1.696 L5.773,1.696 C3.52192492,1.69875496 1.69775496,3.52292492 1.695,5.774 L1.695,52.958 Z" id="Path_4216"></path>
                    </g>
                    <g id="Group_2355" transform="translate(34.082000, 34.038000)" fill="#D1D1D1">
                        <polygon id="Path_4217" points="0 0 0 19.772 35.5 19.772 35.5 0"></polygon>
                    </g>
                    <g id="Group_2356" transform="translate(38.611000, 11.570000)" fill="#B1B1B1">
                        <rect id="Rectangle_627" x="0" y="0" width="27.011" height="42.24"></rect>
                    </g>
                    <g id="Group_2358" transform="translate(38.611000, 11.571000)" fill="#8E8E8E">
                        <polygon id="Path_4218" points="27.011 0 27.011 42.24 0 0"></polygon>
                    </g>
                    <g id="Group_2360" transform="translate(37.764000, 10.723000)" fill="#393939">
                        <path d="M28.706,43.935 L2.84217094e-14,43.935 L2.84217094e-14,0 L28.706,0 L28.706,43.935 Z M1.695,42.235 L27.011,42.235 L27.011,1.693 L1.695,1.693 L1.695,42.235 Z" id="Path_4219"></path>
                    </g>
                    <g id="Group_2364" transform="translate(115.580000, 51.990000)">
                        <g id="Group_2362" fill="#D9D9D9">
                            <circle id="Ellipse_526" cx="7.916" cy="7.916" r="7.916"></circle>
                        </g>
                        <g id="Group_2363" transform="translate(5.174000, 5.175000)" fill="#F3F8FE">
                            <path d="M2.742,5.484 C1.22776541,5.484 0.000184214554,4.25656779 2.02594862e-07,2.74233321 C-0.000183809365,1.22809864 1.22709903,0.000368205645 2.74133358,-1.77379889e-09 C4.25556812,-0.000368043587 5.48344776,1.22676551 5.484,2.741 C5.48234773,4.25484185 4.25584114,5.48179574 2.742,5.484 Z" id="Path_4220"></path>
                        </g>
                    </g>
                    <g id="Group_2367" transform="translate(42.244000, 51.142000)" fill="#393939">
                        <g id="Group_2365">
                            <path d="M8.765,17.529 C3.92490663,17.529 0.00118413235,13.6054267 0.00100006339,8.7653333 C0.000815994429,3.92523993 3.92424006,0.00136819478 8.76433341,0.00100002535 C13.6044268,0.000631855927 17.5284477,3.92390667 17.529,8.764 C17.5234903,13.6021015 13.6031008,17.5229383 8.765,17.529 L8.765,17.529 Z M8.765,1.696 C5.90585639,1.696 3.32824247,3.41830656 2.23409558,6.05981082 C1.13994869,8.70131508 1.74474233,11.741818 3.76646216,13.7635378 C5.788182,15.7852577 8.82868492,16.3900513 11.4701892,15.2959044 C14.1116934,14.2017575 15.834,11.6241436 15.834,8.765 C15.8295913,4.86272672 12.6672733,1.70040873 8.765,1.696 Z" id="Path_4221"></path>
                        </g>
                        <g id="Group_2366" transform="translate(5.175000, 5.176000)">
                            <path d="M3.589,7.179 C1.60698022,7.179 0.000184186321,5.57235301 1.5478534e-07,3.59033324 C-0.000183876751,1.60831347 1.60631378,0.00136820192 3.58833352,0.000999998644 C5.57035326,0.000631921902 7.17744775,1.6069803 7.178,3.589 C7.17579669,5.57039858 5.57039789,7.17624469 3.589,7.179 L3.589,7.179 Z M3.589,1.69499973 C2.82276666,1.69459555 2.13177545,2.15590553 1.83836378,2.86373552 C1.54495211,3.57156551 1.70693115,4.38645111 2.24874002,4.92825998 C2.79054889,5.47006885 3.60543449,5.63204789 4.31326448,5.33863622 C5.02109447,5.04522455 5.48240445,4.35423334 5.48200027,3.588 C5.47706598,2.54490033 4.6321043,1.70083137 3.589,1.697 L3.589,1.69499973 Z" id="Path_4222"></path>
                        </g>
                    </g>
                    <g id="Group_2370" transform="translate(114.732000, 51.142000)" fill="#393939">
                        <g id="Group_2368">
                            <path d="M8.764,17.529 C3.92390663,17.529 0.00018413235,13.6054267 6.33891659e-08,8.7653333 C-0.000184005571,3.92523993 3.92324006,0.00136819478 8.76333341,0.00100002535 C13.6034268,0.000631855927 17.5274477,3.92390667 17.528,8.764 C17.5230402,13.6023296 13.602329,17.5234881 8.764,17.529 Z M8.764,1.696 C4.8598991,1.696 1.695,4.8608991 1.695,8.765 C1.695,12.6691009 4.8598991,15.834 8.764,15.834 C12.6681009,15.834 15.833,12.6691009 15.833,8.765 C15.8291413,4.86249854 12.6665015,1.69985868 8.764,1.696 L8.764,1.696 Z" id="Path_4223"></path>
                        </g>
                        <g id="Group_2369" transform="translate(5.174000, 5.176000)">
                            <path d="M3.589,7.179 C1.60698022,7.179 0.000184186322,5.57235301 1.54785369e-07,3.59033324 C-0.000183876751,1.60831347 1.60631378,0.00136820192 3.58833352,0.000999998644 C5.57035326,0.000631921902 7.17744775,1.6069803 7.178,3.589 C7.17579669,5.57039858 5.57039789,7.17624469 3.589,7.179 L3.589,7.179 Z M3.589,1.695 C2.82285753,1.695 2.13217322,2.15656667 1.8390767,2.86442874 C1.54598017,3.57229081 1.70820614,4.38701238 2.25009371,4.92861384 C2.79198128,5.47021531 3.60678842,5.63201098 4.3144956,5.33854066 C5.02220278,5.04507034 5.48340451,4.35414236 5.48300027,3.588 C5.47806227,2.5445118 4.63249472,1.70028358 3.589,1.697 L3.589,1.695 Z" id="Path_4224"></path>
                        </g>
                    </g>
                    <g id="Group_2371" transform="translate(129.415000, 12.150000)" fill="#FFFFFF">
                        <path d="M13.173,0 C13.173,0 23.207,0.872 23.207,11.669 C23.207,22.466 31.917,20.931 31.917,27.678 L31.917,41.661 L0,41.661 L0,0.001 L13.173,0.001 L13.173,0 Z" id="Path_4225"></path>
                    </g>
                    <g id="Group_2372" transform="translate(131.791000, 14.526000)" fill="#D1D1D1">
                        <path d="M18.455,16.773 L18.455,9.293 C18.455,1.246 11.78,0.128 10.674,0 L2.752,0 C1.23211237,0 2.84217094e-14,1.23211237 2.84217094e-14,2.752 L2.84217094e-14,14.021 C2.84217094e-14,14.7508758 0.289942025,15.4508577 0.806042138,15.9669579 C1.32214225,16.483058 2.02212422,16.773 2.752,16.773 L18.455,16.773 Z" id="Path_4226"></path>
                    </g>
                    <g id="Group_2373" transform="translate(130.944000, 13.679000)" fill="#393939">
                        <path d="M20.15,18.468 L3.6,18.468 C1.6117749,18.468 0,16.8562251 0,14.868 L0,3.6 C0,1.6117749 1.6117749,0 3.6,0 L11.62,0.006 C12.493,0.106 20.15,1.259 20.15,10.141 L20.15,18.468 Z M3.599,1.695 C2.55125324,1.69883894 1.70283894,2.54725324 1.699,3.595 L1.699,14.864 C1.70283894,15.9117468 2.55125324,16.7601611 3.599,16.764 L18.454,16.764 L18.454,10.132 C18.454,2.963 12.746,1.846 11.469,1.686 L3.599,1.695 Z" id="Path_4227"></path>
                    </g>
                    <g id="Group_2374" transform="translate(122.387000, 12.150000)" fill="#8E8E8E">
                        <rect id="Rectangle_628" x="0" y="0" width="7.028" height="41.66"></rect>
                    </g>
                    <g id="Group_2375" transform="translate(121.540000, 11.303000)" fill="#393939">
                        <path d="M8.723,43.355 L0,43.355 L0,0 L8.723,0 L8.723,43.355 Z M1.695,41.655 L7.028,41.655 L7.028,1.695 L1.695,1.695 L1.695,41.655 Z" id="Path_4228"></path>
                    </g>
                    <g id="Group_2376" transform="translate(128.568000, 11.303000)" fill="#393939">
                        <path d="M33.612,43.355 L0,43.355 L0,0 L14.02,0 C14.201,0.013 24.902,1.076 24.902,12.517 C24.902,18.141 27.342,20.103 29.702,21.999 C31.625,23.544 33.613,25.142 33.613,28.527 L33.612,43.355 Z M1.694,41.655 L31.916,41.655 L31.916,28.525 C31.916,25.952 30.469,24.79 28.639,23.319 C26.218,21.374 23.206,18.953 23.206,12.519 C23.206,2.614 14.325,1.728 13.947,1.695 L1.695,1.695 L1.694,41.655 Z" id="Path_4229"></path>
                    </g>
                    <g id="Group_2377" transform="translate(69.582000, 0.848000)" fill="#FFFFFF">
                        <path d="M0.001,52.963 L52.801,52.963 L52.801,4.926 C52.801,2.2058358 50.5961641,0.000552205481 47.876,2.84217094e-14 L4.925,2.84217094e-14 C2.20483585,0.000552205481 -2.84217094e-14,2.2058358 -2.84217094e-14,4.926 L-2.84217094e-14,52.963 L0.001,52.963 Z" id="Path_4230"></path>
                    </g>
                    <g id="Group_2378" transform="translate(69.583000, 34.038000)" fill="#D1D1D1">
                        <rect id="Rectangle_629" x="0" y="0" width="52.805" height="19.772"></rect>
                    </g>
                    <g id="Group_2379" transform="translate(133.956000, 36.645000)" fill="#B1B1B1">
                        <path d="M6.505,2.284 L1.128,2.284 C0.503365948,2.284 -0.003,1.77763405 -0.003,1.153 L-0.003,1.13 C-0.003,0.505365948 0.503365948,-0.001 1.128,-0.001 L6.502,-0.001 C7.12663405,-0.001 7.633,0.505365948 7.633,1.13 L7.633,1.153 C7.633,1.77646435 7.12846216,2.28234625 6.505,2.284 L6.505,2.284 Z" id="Path_4231"></path>
                    </g>
                    <g id="Group_2380" transform="translate(133.109000, 35.798000)" fill="#393939">
                        <path d="M7.352,3.979 L1.978,3.979 C0.896606382,3.95475406 0.0326066139,3.07116539 0.0326066139,1.9895 C0.0326066139,0.907834607 0.896606382,0.024245945 1.978,-2.84217094e-14 L7.352,-2.84217094e-14 C8.43339362,0.024245945 9.29739339,0.907834607 9.29739339,1.9895 C9.29739339,3.07116539 8.43339362,3.95475406 7.352,3.979 L7.352,3.979 Z M1.978,1.694 C1.82193121,1.69454858 1.69554858,1.82093121 1.695,1.977 C1.6903591,2.05551637 1.71792058,2.1325326 1.77132446,2.19027672 C1.82472834,2.24802085 1.89936082,2.28150409 1.978,2.283 L7.352,2.283 C7.50806879,2.28245142 7.63445142,2.15606879 7.635,2 C7.6396409,1.92148363 7.61207942,1.8444674 7.55867554,1.78672328 C7.50527166,1.72897915 7.43063918,1.69549591 7.352,1.694 L1.978,1.694 Z" id="Path_4232"></path>
                    </g>
                    <g id="Group_2381" transform="translate(33.134000, 44.017000)" fill="#E36046">
                        <path d="M4.63,5.09 L1.186,5.09 C0.532094856,5.09 0.002,4.55990514 0.002,3.906 L0.002,1.184 C0.002,0.530094856 0.532094856,0 1.186,0 L4.632,0 L4.63,5.09 Z" id="Path_4233"></path>
                    </g>
                    <g id="Group_2382" transform="translate(36.148000, 44.013000)" fill="#A395B3">
                        <path d="M-3.38813179e-21,1.192 L-3.38813179e-21,3.91 C0.000551391213,4.56201976 0.528980241,5.09044861 1.181,5.091 L1.619,5.091 L1.619,-2.84217094e-14 L1.181,-2.84217094e-14 C0.866195666,0.00105713359 0.564749912,0.127333917 0.343182623,0.350964914 C0.121615334,0.574595912 -0.0018613891,0.877199394 -3.38813179e-21,1.192 L-3.38813179e-21,1.192 Z" id="Path_4234"></path>
                    </g>
                    <g id="Group_2383" transform="translate(36.148000, 44.013000)" fill="#E36046">
                        <path d="M-3.38813179e-21,1.192 L-3.38813179e-21,3.91 C0.000551391213,4.56201976 0.528980241,5.09044861 1.181,5.091 L1.619,5.091 L1.619,-2.84217094e-14 L1.181,-2.84217094e-14 C0.866195666,0.00105713359 0.564749912,0.127333917 0.343182623,0.350964914 C0.121615334,0.574595912 -0.0018613891,0.877199394 -3.38813179e-21,1.192 L-3.38813179e-21,1.192 Z" id="Path_4235"></path>
                    </g>
                    <g id="Group_2384" transform="translate(68.736000, 0.000000)" fill="#393939">
                        <path d="M54.498,54.658 L-0.002,54.658 L-0.002,5.773 C0.00130713065,2.586031 2.584031,0.00330713065 5.771,0 L48.726,0 C51.9127409,0.0038570434 54.495143,2.58625915 54.499,5.773 L54.499,54.658 L54.498,54.658 Z M1.698,52.958 L52.807,52.958 L52.807,5.768 C52.804245,3.51692492 50.9800751,1.69275496 48.729,1.69 L5.772,1.69 C3.52092492,1.69275496 1.69675496,3.51692492 1.694,5.768 L1.694,52.958 L1.698,52.958 Z" id="Path_4236"></path>
                    </g>
                    <g id="Group_2385" transform="translate(69.364000, 31.844000)" fill="#393939">
                        <path d="M52.548,2.693 L0.848,2.693 C0.378557963,2.693 -0.002,2.31244204 -0.002,1.843 C-0.002,1.37355796 0.378557963,0.993 0.848,0.993 L52.548,0.993 C53.017442,0.993 53.398,1.37355796 53.398,1.843 C53.398,2.31244204 53.017442,2.693 52.548,2.693 L52.548,2.693 Z" id="Path_4237"></path>
                    </g>
                    <g id="Group_2386" transform="translate(70.211000, 48.640000)" fill="#8E8E8E">
                        <path d="M91.973,5.393 L85.234,5.393 C83.1238462,2.03681042 79.4374366,8.2287211e-05 75.473,8.2287211e-05 C71.5085634,8.2287211e-05 67.8221538,2.03681042 65.712,5.393 L25.169,5.393 C23.0588462,2.03681042 19.3724366,8.2287211e-05 15.408,8.2287211e-05 C11.4435634,8.2287211e-05 7.75715384,2.03681042 5.647,5.393 L0,5.393 L0,11.326 L91.972,11.326 C92.7433043,11.3107993 93.4767643,10.9889041 94.0101216,10.4315251 C94.5434789,9.87414606 94.8327711,9.12722569 94.8148596,8.356 L94.8148596,8.356 C94.8308842,7.58614167 94.540888,6.84117696 94.0079482,6.28535134 C93.4750085,5.72952573 92.7428878,5.40848128 91.973,5.393 L91.973,5.393 Z" id="Path_4238"></path>
                    </g>
                    <g id="Group_2387" transform="translate(69.364000, 47.792000)" fill="#393939">
                        <path d="M92.819,13.021 L0,13.021 L0,5.393 L6.024,5.393 C8.33566347,2.01732175 12.1636687,-0.000814233122 16.255,-0.000814233122 C20.3463313,-0.000814233122 24.1743365,2.01732175 26.486,5.393 L66.086,5.393 C68.3976635,2.01732175 72.2256687,-0.000814233122 76.317,-0.000814233122 C80.4083313,-0.000814233122 84.2363365,2.01732175 86.548,5.393 L92.817,5.393 C94.875349,5.45966772 96.5094686,7.14757164 96.5094686,9.207 C96.5094686,11.2664284 94.875349,12.9543323 92.817,13.021 L92.819,13.021 Z M1.695,11.321 L92.819,11.321 C93.9388022,11.2521624 94.8117387,10.323916 94.8117387,9.202 C94.8117387,8.08008401 93.9388022,7.15183759 92.819,7.083 L85.599,7.083 L85.352,6.669 C83.3947816,3.56929812 79.9849045,1.68963042 76.319,1.68963042 C72.6530955,1.68963042 69.2432184,3.56929812 67.286,6.669 L67.039,7.083 L25.539,7.083 L25.292,6.669 C23.3347816,3.56929812 19.9249045,1.68963042 16.259,1.68963042 C12.5930955,1.68963042 9.18321841,3.56929812 7.226,6.669 L6.979,7.083 L1.699,7.083 L1.699,11.321 L1.695,11.321 Z" id="Path_4239"></path>
                    </g>
                    <g id="Group_2390" transform="translate(77.462000, 51.990000)">
                        <g id="Group_2388" fill="#F0F0F0">
                            <circle id="Ellipse_527" cx="7.916" cy="7.916" r="7.916"></circle>
                        </g>
                        <g id="Group_2389" transform="translate(5.174000, 5.175000)" fill="#F3F8FE">
                            <path d="M2.741,5.484 C1.22676541,5.484 -0.000815785446,4.25656779 -0.000999797405,2.74233321 C-0.00118380936,1.22809864 1.22609903,0.000368205645 2.74033358,-1.77379889e-09 C4.25456812,-0.000368043587 5.48244776,1.22676551 5.483,2.741 C5.48189776,4.25506991 4.2550694,5.48234568 2.741,5.484 L2.741,5.484 Z" id="Path_4240"></path>
                        </g>
                    </g>
                    <g id="Group_2393" transform="translate(137.348000, 51.990000)">
                        <g id="Group_2391" fill="#F0F0F0">
                            <circle id="Ellipse_528" cx="7.916" cy="7.916" r="7.916"></circle>
                        </g>
                        <g id="Group_2392" transform="translate(5.175000, 5.175000)" fill="#F3F8FE">
                            <path d="M2.741,5.484 C1.22676541,5.484 -0.000815785445,4.25656779 -0.000999797405,2.74233321 C-0.00118380936,1.22809864 1.22609903,0.000368205645 2.74033358,-1.77379889e-09 C4.25456812,-0.000368043587 5.48244776,1.22676551 5.483,2.741 C5.48189776,4.25506991 4.2550694,5.48234568 2.741,5.484 L2.741,5.484 Z" id="Path_4241"></path>
                        </g>
                    </g>
                    <g id="Group_2396" transform="translate(76.614000, 51.142000)" fill="#393939">
                        <g id="Group_2394">
                            <path d="M8.764,17.529 C3.92403685,17.5284477 0.00081596788,13.6046299 0.0010000634,8.7646667 C0.00118415892,3.92470352 3.92470352,0.00118415892 8.7646667,0.0010000634 C13.6046299,0.00081596788 17.5284477,3.92403685 17.529,8.764 C17.5240392,13.6027195 13.6027195,17.5240392 8.764,17.529 Z M8.764,1.696 C5.90485639,1.696 3.32724247,3.41830656 2.23309558,6.05981082 C1.13894869,8.70131508 1.74374233,11.741818 3.76546216,13.7635378 C5.787182,15.7852577 8.82768492,16.3900513 11.4691892,15.2959044 C14.1106934,14.2017575 15.833,11.6241436 15.833,8.765 C15.8291413,4.86249854 12.6665015,1.69985868 8.764,1.696 L8.764,1.696 Z" id="Path_4242"></path>
                        </g>
                        <g id="Group_2395" transform="translate(5.175000, 5.176000)">
                            <path d="M3.589,7.179 C1.60698022,7.179 0.000184186321,5.57235301 1.5478534e-07,3.59033324 C-0.000183876751,1.60831347 1.60631378,0.00136820192 3.58833352,0.000999998644 C5.57035326,0.000631921902 7.17744775,1.6069803 7.178,3.589 C7.17634665,5.57062665 5.57062612,7.17679459 3.589,7.179 Z M3.589,1.695 C2.82285753,1.695 2.13217322,2.15656667 1.8390767,2.86442874 C1.54598017,3.57229081 1.70820614,4.38701238 2.25009371,4.92861384 C2.79198128,5.47021531 3.60678842,5.63201098 4.3144956,5.33854066 C5.02220278,5.04507034 5.48340451,4.35414236 5.48300027,3.588 C5.47806227,2.5445118 4.63249472,1.70028358 3.589,1.697 L3.589,1.695 Z" id="Path_4243"></path>
                        </g>
                    </g>
                    <g id="Group_2399" transform="translate(136.501000, 51.142000)" fill="#393939">
                        <g id="Group_2397">
                            <path d="M8.764,17.529 C3.92390663,17.529 0.00018413235,13.6054267 6.33891659e-08,8.7653333 C-0.000184005571,3.92523993 3.92324006,0.00136819478 8.76333341,0.00100002535 C13.6034268,0.000631855927 17.5274477,3.92390667 17.528,8.764 C17.5230402,13.6023296 13.602329,17.5234881 8.764,17.529 Z M8.764,1.696 C4.8598991,1.696 1.695,4.8608991 1.695,8.765 C1.695,12.6691009 4.8598991,15.834 8.764,15.834 C12.6681009,15.834 15.833,12.6691009 15.833,8.765 C15.8291413,4.86249854 12.6665015,1.69985868 8.764,1.696 L8.764,1.696 Z" id="Path_4244"></path>
                        </g>
                        <g id="Group_2398" transform="translate(5.175000, 5.176000)">
                            <path d="M3.588,7.179 C1.60598022,7.179 -0.000815813679,5.57235301 -0.000999845215,3.59033324 C-0.00118387675,1.60831347 1.60531378,0.00136820192 3.58733352,0.000999998644 C5.56935326,0.000631921902 7.17644775,1.6069803 7.177,3.589 C7.17534665,5.57062665 5.56962612,7.17679459 3.588,7.179 Z M3.588,1.695 C2.82185753,1.695 2.13117322,2.15656667 1.8380767,2.86442874 C1.54498017,3.57229081 1.70720614,4.38701238 2.24909371,4.92861384 C2.79098128,5.47021531 3.60578842,5.63201098 4.3134956,5.33854066 C5.02120278,5.04507034 5.48240451,4.35414236 5.48200027,3.588 C5.47706227,2.5445118 4.63149472,1.70028358 3.588,1.697 L3.588,1.695 Z" id="Path_4245"></path>
                        </g>
                    </g>
                    <g id="Group_2400" transform="translate(34.082000, 54.033000)" fill="#FFFFFF">
                        <rect id="Rectangle_630" x="0" y="0" width="36.129" height="5.933"></rect>
                    </g>
                    <g id="Group_2401" transform="translate(33.235000, 53.185000)" fill="#393939">
                        <path d="M37.824,7.628 L0,7.628 L0,0 L37.824,0 L37.824,7.628 Z M1.695,5.928 L36.129,5.928 L36.129,1.693 L1.695,1.693 L1.695,5.931 L1.695,5.928 Z" id="Path_4246"></path>
                    </g>
                    <g id="Group_2402" transform="translate(35.356000, 53.811000)" fill="#B1B1B1">
                        <polygon id="Path_4247" points="0 10.026 0 13.379 29.419 3.355 29.419 0.001"></polygon>
                    </g>
                    <g id="Group_2403" transform="translate(34.508000, 52.963000)" fill="#393939">
                        <path d="M0.848,15.074 C0.623096417,15.074 0.407404298,14.9846574 0.24837345,14.8256266 C0.0893426006,14.6665957 0,14.4509036 0,14.226 L0,10.873 C0.00107299757,10.5111863 0.231591822,10.1899057 0.574,10.073 L29.993,0.047 C30.2514488,-0.040883824 30.5364017,0.00102472233 30.7586035,0.159598706 C30.9808053,0.31817269 31.1130817,0.574019226 31.114,0.847 L31.114,4.201 C31.112927,4.5628137 30.8824082,4.88409429 30.54,5.001 L1.121,15.026 C1.03323481,15.0568123 0.941011727,15.0730274 0.848,15.074 Z M1.696,11.48 L1.696,13.042 L29.42,3.595 L29.42,2.032 L1.696,11.48 Z" id="Path_4248"></path>
                    </g>
                    <g id="Group_2404" transform="translate(8.347000, 53.808000)" fill="#959CA0">
                        <polygon id="Path_4249" points="56.446 -1.26217745e-29 27.01 10.026 0 10.026 29.417 -2.84217094e-14"></polygon>
                    </g>
                    <g id="Group_2405" transform="translate(7.500000, 52.960000)" fill="#393939">
                        <path d="M27.997,11.722 L0.848,11.722 C0.378557963,11.722 -0.002,11.341442 -0.002,10.872 C-0.002,10.402558 0.378557963,10.022 0.848,10.022 L27.718,10.022 L57.018,0.041 C57.4565769,-0.0945616046 57.9233976,0.143481642 58.0712397,0.57807265 C58.2190819,1.01266366 57.9942613,1.48599421 57.564,1.646 L27.997,11.722 Z" id="Path_4250"></path>
                    </g>
                    <g id="Group_2406" transform="translate(8.345000, 63.836000)" fill="#FFFFFF">
                        <rect id="Rectangle_631" x="0" y="0" width="27.011" height="3.353"></rect>
                    </g>
                    <g id="Group_2407" transform="translate(7.498000, 62.989000)" fill="#393939">
                        <path d="M27.858,5.04800059 L0.848,5.04800059 C0.379662532,5.04800059 0,4.66833747 0,4.2 L0,0.847 C0,0.378662532 0.379662532,-0.001 0.848,-0.001 L27.858,-0.001 C28.3263375,-0.001 28.7060006,0.378662532 28.7060006,0.847 L28.7060006,4.2 C28.7060006,4.42498496 28.6170085,4.64083153 28.45792,4.79992003 C28.2988315,4.95900853 28.082985,5.04826578 27.858,5.04800059 L27.858,5.04800059 Z M1.695,3.348 L27.01,3.348 L27.01,1.69 L1.695,1.69 L1.695,3.348 Z" id="Path_4251"></path>
                    </g>
                    <g id="XMLID_761_" transform="translate(18.720000, 31.185000)" fill="#D1D1D1">
                        <rect id="Rectangle_632" transform="translate(19.241554, 16.191055) rotate(-17.547000) translate(-19.241554, -16.191055) " x="2.78505374" y="4.41355457" width="32.913" height="23.555"></rect>
                    </g>
                    <g id="XMLID_755_" transform="translate(2.760000, 41.098000)" fill="#8E8E8E">
                        <polygon id="Path_4252" points="7.102 22.455 23.062 22.455 15.962 -0.003 0 -0.003"></polygon>
                    </g>
                    <g id="XMLID_767_" transform="translate(17.872000, 30.326000)" fill="#393939">
                        <path d="M7.95,34.0780209 C7.58044332,34.0780209 7.25356425,33.8383146 7.142,33.486 L0.042,11.028 C-0.0986281839,10.5821187 0.147698512,10.1064534 0.593,9.964 L31.973,0.04 C32.4195176,-0.101055562 32.8958504,0.146512127 33.037,0.593 L40.137,23.051 C40.2781928,23.497482 40.0312194,23.9739796 39.585,24.116 L8.205,34.04 C8.12247987,34.0657918 8.03645469,34.0786112 7.95,34.0780209 L7.95,34.0780209 Z M1.912,11.324 L8.503,32.166 L38.268,22.753 L31.677,1.911 L1.912,11.324 Z" id="Path_4253"></path>
                    </g>
                    <g id="XMLID_765_" transform="translate(1.912000, 40.250000)" fill="#393939">
                        <path d="M23.911,24.155 L7.951,24.155 C7.58117862,24.155 7.25394828,23.9154705 7.142,23.563 L0.042,1.105 C-0.0380783509,0.847703712 0.00889757789,0.567663403 0.168551462,0.350581484 C0.328205345,0.133499566 0.581530384,0.005 0.851,0.005 L16.811,0.005 C17.1808214,0.005 17.5080517,0.244529515 17.62,0.597 L24.72,23.055 C24.8000784,23.3122963 24.7531024,23.5923366 24.5934485,23.8094185 C24.4337947,24.0265004 24.1804696,24.155 23.911,24.155 L23.911,24.155 Z M8.571,22.455 L22.753,22.455 L16.187,1.692 L2.005,1.692 L8.571,22.455 Z" id="Path_4254"></path>
                    </g>
                    <g id="XMLID_751_" transform="translate(16.806000, 28.644000)" fill="#D1D1D1">
                        <rect id="Rectangle_633" transform="translate(18.088593, 9.043327) rotate(-17.547000) translate(-18.088593, -9.043327) " x="0.34159305" y="5.17132749" width="35.494" height="7.744"></rect>
                    </g>
                    <g id="XMLID_749_" transform="translate(0.848000, 28.573000)" fill="#FFFFFF">
                        <polygon id="Path_4255" points="34.389 0 0 10.775 15.958 10.744 49.801 0.044"></polygon>
                    </g>
                    <g id="XMLID_747_" transform="translate(15.639000, 33.180000)" fill="#FCFCFC">
                        <polygon id="Path_4256" points="4.927 -0.003 0.004 1.526 15.652 1.572 20.452 0.039"></polygon>
                    </g>
                    <g id="XMLID_717_" transform="translate(31.309000, 33.342000)" fill="#FCFCFC">
                        <rect id="Rectangle_634" transform="translate(6.296501, 12.911791) rotate(-17.542000) translate(-6.296501, -12.911791) " x="3.71550102" y="0.186290863" width="5.162" height="25.451"></rect>
                    </g>
                    <g id="XMLID_713_" transform="translate(15.960000, 27.783000)" fill="#393939">
                        <path d="M3.183,19.782 C2.81328266,19.781609 2.48621994,19.5422751 2.374,19.19 L0.039,11.806 C-0.0290158872,11.5915747 -0.00893878343,11.3589002 0.094803066,11.1592957 C0.198544915,10.9596911 0.377428893,10.8095544 0.592,10.742 L34.434,0.042 C34.6484253,-0.0260158872 34.8810998,-0.00593878343 35.0807043,0.097803066 C35.2803089,0.201544915 35.4304456,0.380428893 35.498,0.595 L37.834,7.978 C37.9751928,8.42448199 37.7282194,8.90097957 37.282,9.043 L3.439,19.743 C3.35605675,19.7685529 3.26978963,19.7816952 3.183,19.782 L3.183,19.782 Z M1.912,12.103 L3.736,17.871 L35.962,7.679 L34.137,1.912 L1.912,12.103 Z" id="Path_4257"></path>
                    </g>
                    <g id="XMLID_711_" transform="translate(0.001000, 27.726000)" fill="#393939">
                        <path d="M0.848,12.47 C0.430764787,12.4678663 0.0770771118,12.1625355 0.0140631735,11.7500806 C-0.0489507648,11.3376258 0.19743504,10.9406171 0.595,10.814 L34.979,0.039 C35.062,0.014 35.139,0.02 35.235,2.84217094e-14 L50.646,0.042 C51.0632352,0.0441336911 51.4169229,0.349464505 51.4799368,0.761919374 C51.5429508,1.17437424 51.296565,1.57138295 50.899,1.698 L17.056,12.398 C16.974088,12.4235635 16.8888079,12.4367095 16.803,12.437 L0.845,12.468 L0.848,12.47 Z M35.366,1.695 L6.423,10.763 L16.674,10.744 L45.203,1.723 L35.366,1.695 Z" id="Path_4258"></path>
                    </g>
                    <g id="XMLID_709_" transform="translate(14.792000, 32.330000)" fill="#393939">
                        <path d="M16.496,3.27200002 L16.496,3.27200002 L0.848,3.226 C0.429058853,3.22501273 0.0736220275,2.91823973 0.0114026228,2.50394345 C-0.0508167818,2.08964718 0.198829885,1.69200217 0.599,1.568 L5.522,0.039 C5.60341901,0.011456778 5.68908214,-0.00140962174 5.775,0.001 L21.296,0.043 C21.713303,0.0435976933 22.0679917,0.348053113 22.1318203,0.760446187 C22.195649,1.17283926 21.9495965,1.57027518 21.552,1.697 L16.752,3.23 C16.6695201,3.25783477 16.5830501,3.27200002 16.496,3.27200002 L16.496,3.27200002 Z" id="Path_4259"></path>
                    </g>
                    <g id="XMLID_707_" transform="translate(30.463000, 32.490000)" fill="#393939">
                        <path d="M8.522,27.519 C8.15244332,27.519 7.82556425,27.2793146 7.714,26.927 L0.037,2.66 C-0.0310158872,2.44557473 -0.0109387834,2.21290024 0.092803066,2.01329567 C0.196544915,1.8136911 0.375428893,1.6635544 0.59,1.596 L5.513,0.039 C5.95948199,-0.102192814 6.43597957,0.14478058 6.578,0.591 L14.253,24.859 C14.3210449,25.0735588 14.3009946,25.3063678 14.1972668,25.5061329 C14.093539,25.705898 13.914645,25.8562276 13.7,25.924 L8.777,27.48 C8.69446861,27.505852 8.60848559,27.519 8.522,27.519 L8.522,27.519 Z M1.911,2.957 L9.074,25.608 L12.38,24.563 L5.218,1.911 L1.911,2.957 Z" id="Path_4260"></path>
                    </g>
                    <g id="XMLID_753_" transform="translate(0.848000, 39.348000)" fill="#8E8E8E">
                        <polygon id="Path_4261" points="2.33 7.369 18.29 7.369 15.96 0 0 0"></polygon>
                    </g>
                    <g id="XMLID_763_" transform="translate(0.000000, 38.501000)" fill="#393939">
                        <path d="M19.139,9.064 L3.18,9.064 C2.81017862,9.064 2.48294828,8.82447049 2.371,8.472 L0.041,1.103 C-0.0390783509,0.845703712 0.00789757789,0.565663403 0.167551462,0.348581484 C0.327205345,0.131499566 0.580530384,0.00321964689 0.85,0.003 L16.81,0.003 C17.1798214,0.003 17.5070517,0.242529515 17.619,0.595 L19.949,7.964 C20.0290784,8.22129629 19.9821024,8.5013366 19.8224485,8.71841852 C19.6627947,8.93550043 19.4094696,9.06378035 19.14,9.064 L19.139,9.064 Z M3.8,7.364 L17.98,7.364 L16.186,1.691 L2.005,1.691 L3.8,7.364 Z" id="Path_4262"></path>
                    </g>
                    <g id="Group_2408" transform="translate(136.730000, 16.105000)" fill="#393939">
                        <path d="M0.847,5.7070106 C0.504223135,5.70689797 0.195217017,5.50044359 0.0639237687,5.18380804 C-0.0673694799,4.86717249 0.00487339157,4.50263284 0.247,4.26 L4.26,0.248 C4.47435935,0.0336406235 4.78679493,-0.050076251 5.07961526,0.0283847152 C5.3724356,0.106845681 5.60115432,0.3355644 5.67961528,0.628384737 C5.75807625,0.921205074 5.67435938,1.23364065 5.46,1.448 L1.447,5.46 C1.28802831,5.61918243 1.07196616,5.70812801 0.847,5.7070106 L0.847,5.7070106 Z" id="Path_4263"></path>
                    </g>
                    <g id="Group_2409" transform="translate(141.321000, 17.422000)" fill="#393939">
                        <path d="M0.847,4.0380106 C0.504223135,4.03789797 0.195217017,3.83144359 0.0639237687,3.51480804 C-0.0673694799,3.19817249 0.00487339157,2.83363284 0.247,2.591 L2.59,0.248 C2.92137085,-0.0833708499 3.45862915,-0.0833708499 3.79,0.248 C4.12137085,0.57937085 4.12137085,1.11662915 3.79,1.448 L1.447,3.791 C1.28802831,3.95018243 1.07196616,4.03912801 0.847,4.0380106 Z" id="Path_4264"></path>
                    </g>
                    <g id="Group_2410" transform="translate(135.107000, 21.800000)" fill="#393939">
                        <path d="M0.847,5.8740106 C0.504223135,5.87389797 0.195217017,5.66744359 0.0639237687,5.35080804 C-0.0673694799,5.03417249 0.00487339157,4.66963284 0.247,4.427 L4.426,0.248 C4.75737085,-0.0833708499 5.29462915,-0.0833708499 5.626,0.248 C5.95737085,0.57937085 5.95737085,1.11662915 5.626,1.448 L1.447,5.627 C1.28802831,5.78618243 1.07196616,5.87512801 0.847,5.8740106 L0.847,5.8740106 Z" id="Path_4265"></path>
                    </g>
                </g>
                <g id="Group_2438-Clipped" transform="translate(110.335000, 99.094000)">
                    <mask id="mask-2" fill="white">
                        <use xlink:href="#path-1"></use>
                    </mask>
                    <g id="Rectangle_643"></g>
                    <g id="Group_2438" mask="url(#mask-2)">
                        <g transform="translate(5.000000, 3.000000)">
                            <g id="Group_2412" transform="translate(1.239000, 0.937000)">
                                <path d="M20.5,40.999 C9.17816263,40.999 2.84217094e-14,31.8208374 2.84217094e-14,20.499 C2.84217094e-14,9.17716263 9.17816263,-0.001 20.5,-0.001 C31.8218374,-0.001 41,9.17716263 41,20.499 C40.9873247,31.8155829 31.8165829,40.9863247 20.5,40.999 L20.5,40.999 Z M20.5,2.367 C13.1653907,2.367 6.55301296,6.78531547 3.74627291,13.5616496 C0.939532856,20.3379838 2.49118422,28.1378189 7.67767923,33.3240279 C12.8641742,38.5102369 20.6640949,40.0614582 27.4402743,37.2543444 C34.2164537,34.4472307 38.6344045,27.8346093 38.634,20.5 C38.6218768,10.4900562 30.5099444,2.37857123 20.5,2.367 L20.5,2.367 Z" id="Path_4266" fill="#D1D1D1" fill-rule="nonzero"></path>
                            </g>
                            <g id="Group_2413" transform="translate(3.604000, 3.304000)">
                                <path d="M18.135,-2.84217094e-14 C10.7999357,-0.000404213532 4.18699825,4.41808778 1.38017772,11.194881 C-1.42664282,17.9716743 0.12549504,25.7719872 5.31274084,30.9580887 C10.4999867,36.1441903 18.3006418,37.6946072 25.0768156,34.8862917 C31.8529895,32.0779761 36.2700225,25.464064 36.2680007,18.129 C36.2536748,8.12100821 28.1429947,0.0121173182 18.135,-2.84217094e-14 L18.135,-2.84217094e-14 Z" id="Path_4267" fill="#FFFFFF" fill-rule="nonzero"></path>
                            </g>
                            <g id="Group_2414" transform="translate(20.994000, 5.344000)" fill="#393939" fill-rule="nonzero">
                                <rect id="Rectangle_635" x="0" y="0" width="1.569" height="6.14"></rect>
                            </g>
                            <g id="Group_2416" transform="translate(9.496000, 9.130000)" fill="#393939" fill-rule="nonzero">
                                <rect id="Rectangle_636" transform="translate(1.533715, 1.533900) rotate(-45.000000) translate(-1.533715, -1.533900) " x="0.744714608" y="0.153900108" width="1.578" height="2.76"></rect>
                            </g>
                            <g id="Group_2418" transform="translate(5.304000, 20.186000)" fill="#393939" fill-rule="nonzero">
                                <rect id="Rectangle_637" x="0" y="0" width="8.014" height="1.57"></rect>
                            </g>
                            <g id="Group_2420" transform="translate(9.485000, 30.601000)" fill="#54AAE3" fill-rule="nonzero">
                                <rect id="Rectangle_638" transform="translate(1.534190, 1.534871) rotate(-135.000000) translate(-1.534190, -1.534871) " x="0.745809572" y="0.155078896" width="1.57676186" height="2.75958321"></rect>
                            </g>
                            <g id="Group_2422" transform="translate(20.994000, 31.227000)" fill="#54AAE3" fill-rule="nonzero">
                                <rect id="Rectangle_639" x="0" y="0" width="1.57" height="7.065"></rect>
                            </g>
                            <g id="Group_2424" transform="translate(30.969000, 30.587000)" fill="#54AAE3" fill-rule="nonzero">
                                <rect id="Rectangle_640" transform="translate(1.532871, 1.533810) rotate(135.000000) translate(-1.532871, -1.533810) " x="0.744489572" y="0.154017896" width="1.57676186" height="2.75958321"></rect>
                            </g>
                            <g id="Group_2426" transform="translate(30.967000, 20.186000)" fill="#393939" fill-rule="nonzero">
                                <rect id="Rectangle_641" x="0" y="0" width="7.287" height="1.57"></rect>
                            </g>
                            <g id="Group_2428" transform="translate(30.967000, 9.128000)" fill="#393939" fill-rule="nonzero">
                                <rect id="Rectangle_642" transform="translate(1.534100, 1.533715) rotate(45.000000) translate(-1.534100, -1.533715) " x="0.745099892" y="0.153714608" width="1.578" height="2.76"></rect>
                            </g>
                            <g id="Group_2430" transform="translate(20.855000, 8.450000)" opacity="0.402">
                                <polygon id="Path_4268" fill="#FFB800" fill-rule="nonzero" points="0 12.669 11.109 -2.84217094e-14 0.901 13.4"></polygon>
                            </g>
                            <g id="Group_2431" transform="translate(12.869000, 12.416000)" fill="#FFB800" fill-rule="nonzero">
                                <path d="M9.936,6.918 C10.4333323,7.27534648 10.7476147,7.83395838 10.7948491,8.44453583 C10.8420836,9.05511328 10.6174551,9.65541546 10.181,10.085 L10.097,10.169 C9.66792867,10.6060864 9.06760215,10.8311676 8.45693564,10.7839113 C7.84626913,10.7366551 7.2877181,10.4218945 6.931,9.924 C5.013,7.64 1.643,2.789 0.097,0.671 C-0.0349889897,0.5057904 -0.0220380489,0.26784869 0.127102491,0.117940703 C0.276243031,-0.0319672835 0.514115135,-0.0461393033 0.68,0.085 C3.144,1.911 7.652,5.001 9.936,6.918 Z" id="Path_4269"></path>
                            </g>
                            <g id="Group_2433" transform="translate(12.021000, 11.585000)" fill="#393939" fill-rule="nonzero">
                                <path d="M9.504,12.471 C8.57759307,12.4511689 7.70755364,12.0220081 7.128,11.299 C5.669,9.562 3.379,6.356 1.707,4.017 C1.144,3.23 0.645,2.53 0.259,2.002 C-0.0342042721,1.62179662 -0.0839412993,1.10732924 0.131,0.678 C0.312463049,0.354174459 0.621888421,0.121721251 0.983437463,0.0376135267 C1.3449865,-0.0464941977 1.72524012,0.0255178983 2.031,0.236 C2.823,0.823 3.831,1.542 4.902,2.31 C7.177,3.937 9.755,5.782 11.326,7.1 C12.0191225,7.65247015 12.4451242,8.47321406 12.498,9.358 C12.5275109,10.1688103 12.2112547,10.9539981 11.628,11.518 L11.544,11.602 C11.0071685,12.1522288 10.2727034,12.4650965 9.504,12.471 Z M3.178,3.159 C4.826,5.464 7.037,8.554 8.427,10.21 C8.63641403,10.5171408 8.97103681,10.7158371 9.34094402,10.7526928 C9.71085122,10.7895484 10.0781006,10.660783 10.344,10.401 L10.428,10.317 C10.6744656,10.0884072 10.8110146,9.76505914 10.803,9.429 C10.7683203,9.02108414 10.5631673,8.64672531 10.238,8.398 C8.717,7.122 6.167,5.298 3.917,3.688 L3.178,3.159 Z" id="Path_4270"></path>
                            </g>
                            <g id="Group_2435" transform="translate(20.118000, 19.734000)">
                                <circle id="Ellipse_529" fill="#FFFFFF" fill-rule="nonzero" cx="1.322" cy="1.322" r="1.322"></circle>
                            </g>
                            <g id="Group_2436" transform="translate(20.793000, 20.403000)">
                                <circle id="Ellipse_530" fill="#CCE4F2" fill-rule="nonzero" cx="0.639" cy="0.639" r="1"></circle>
                            </g>
                            <g id="Group_2437" transform="translate(0.391000, 0.089000)">
                                <path d="M21.347,42.694 C9.55737745,42.694 0,33.1366226 0,21.347 C0,9.55737745 9.55737745,-2.84217094e-14 21.347,-2.84217094e-14 C33.1366226,-2.84217094e-14 42.694,9.55737745 42.694,21.347 C42.6802238,33.1309115 33.1309115,42.6802238 21.347,42.694 Z M21.347,1.694 C10.4935001,1.694 1.695,10.4925001 1.695,21.346 C1.695,32.1994999 10.4935001,40.998 21.347,40.998 C32.2004999,40.998 40.999,32.1994999 40.999,21.346 C40.9857738,10.4983072 32.1946941,1.70812213 21.347,1.696 L21.347,1.694 Z M21.347,40.327 C13.6696292,40.3278089 6.74779075,35.7036415 3.80932101,28.6108692 C0.870851276,21.5180969 2.49447465,13.3536239 7.92305264,7.92475988 C13.3516306,2.49589587 21.516018,0.871842316 28.6089452,3.80993834 C35.7018723,6.74803437 40.3264044,13.6696291 40.326,21.347 C40.3160797,31.8251862 31.8251845,40.3174235 21.347,40.329 L21.347,40.327 Z M21.347,4.06 C11.800336,4.06055228 4.06163183,11.8000026 4.06200001,21.3466666 C4.06236819,30.8933306 11.8016693,38.632 21.3483333,38.632 C30.8949973,38.632 38.634,30.892664 38.634,21.346 C38.6218758,11.8041659 30.8888361,4.07246814 21.347,4.062 L21.347,4.06 Z" id="Path_4271" fill="#393939" fill-rule="nonzero"></path>
                            </g>
                        </g>
                    </g>
                </g>
                <g id="Group_2443" transform="translate(161.538000, 74.741000)" fill-rule="nonzero">
                    <g id="Group_2440" fill="#FFFFFF">
                        <path d="M30.1,8.728 C28.6454515,8.71796112 27.2226952,9.1534774 26.023,9.976 C25.2219408,9.05953583 24.1290391,8.44773694 22.929,8.244 C22.9809191,7.89407205 23.0066572,7.54075801 23.006,7.187 C23.0082965,4.41382548 21.4144534,1.88689925 18.9107951,0.694340137 C16.4071368,-0.498218971 13.4406819,-0.143484066 11.2888144,1.60579258 C9.136947,3.35506922 8.18387483,6.18656092 8.84,8.881 C6.69594231,8.4342946 4.46439488,8.96781012 2.75423456,10.3359771 C1.04407424,11.704144 0.0337762485,13.7641782 -0.001,15.954 L37.284,15.954 C37.2731875,11.9840316 34.0698379,8.76195422 30.1,8.728 L30.1,8.728 Z" id="Path_4272"></path>
                    </g>
                    <g id="Group_2441" transform="translate(10.058000, 15.106000)" fill="#000000">
                        <rect id="Rectangle_644" x="0" y="0" width="13.885" height="1.695"></rect>
                    </g>
                    <g id="Group_2442" transform="translate(30.305000, 15.106000)" fill="#000000">
                        <rect id="Rectangle_645" x="0" y="0" width="6.98" height="1.695"></rect>
                    </g>
                </g>
                <g id="Group_2447" transform="translate(75.807000, 74.945000)" fill-rule="nonzero">
                    <g id="Group_2444" fill="#FFFFFF">
                        <path d="M25.328,7.054 C24.1508639,7.04607945 22.9994282,7.39813964 22.028,8.063 C21.3808401,7.32225532 20.4977355,6.82771677 19.528,6.663 C19.5692845,6.38020647 19.5900055,6.09479117 19.59,5.809 C19.5908977,3.56843187 18.3027091,1.52723082 16.2798252,0.563857921 C14.2569414,-0.399514982 11.8602896,-0.11317266 10.1213045,1.29965324 C8.38231934,2.71247913 7.6112743,4.99970914 8.14,7.177 C6.40719236,6.81665343 4.60396845,7.24819085 3.22201943,8.35394348 C1.84007042,9.4596961 1.02351276,11.1243506 0.995,12.894 L31.129,12.894 C31.1203801,9.68741617 28.5344541,7.084105 25.328,7.054 Z" id="Path_4273"></path>
                    </g>
                    <g id="Group_2445" transform="translate(9.129000, 12.046000)" fill="#000000">
                        <rect id="Rectangle_646" x="0" y="0" width="11.222" height="1.695"></rect>
                    </g>
                    <g id="Group_2446" transform="translate(25.493000, 12.046000)" fill="#000000">
                        <rect id="Rectangle_647" x="0" y="0" width="5.641" height="1.695"></rect>
                    </g>
                </g>
                <g id="Group_2448" transform="translate(234.194000, 131.456000)" fill="#000000" fill-rule="nonzero">
                    <path d="M26.273,8.418 L22.935,8.418 C21.255,8.418 20.558,6.61 19.943,5.018 C19.566,4.039 19.049,2.699 18.532,2.699 C18.015,2.699 17.513,3.916 17.117,4.893 C16.499,6.419 15.8,8.147 14.131,8.147 C12.462,8.147 11.76,6.433 11.139,4.92 C10.739,3.95 10.247,2.744 9.716,2.744 C9.185,2.744 8.671,4.074 8.288,5.044 C7.665,6.625 6.958,8.419 5.283,8.419 L0.848,8.419 C0.378557963,8.419 -0.002,8.03844204 -0.002,7.569 C-0.002,7.09955796 0.378557963,6.719 0.848,6.719 L5.284,6.719 C5.806,6.719 6.33,5.389 6.713,4.419 C7.336,2.837 8.043,1.045 9.713,1.045 C11.383,1.045 12.084,2.76 12.705,4.272 C13.105,5.242 13.597,6.448 14.128,6.448 C14.659,6.448 15.147,5.231 15.543,4.248 C16.161,2.723 16.86,0.994 18.529,0.994 C20.198,0.994 20.906,2.803 21.522,4.394 C21.899,5.372 22.416,6.712 22.932,6.712 L26.27,6.712 C26.739442,6.712 27.12,7.09255796 27.12,7.562 C27.12,8.03144204 26.739442,8.412 26.27,8.412 L26.273,8.418 Z" id="Path_4274"></path>
                </g>
                <g id="Group_2449" transform="translate(34.775000, 83.307000)" fill="#000000" fill-rule="nonzero">
                    <path d="M26.273,7.416 L22.938,7.416 C21.257,7.416 20.561,5.607 19.945,4.016 C19.568,3.038 19.051,1.698 18.535,1.698 C18.019,1.698 17.515,2.915 17.12,3.898 C16.502,5.423 15.803,7.151 14.135,7.151 C12.467,7.151 11.764,5.436 11.143,3.924 C10.743,2.954 10.251,1.749 9.72,1.749 C9.189,1.749 8.674,3.08 8.291,4.049 C7.668,5.631 6.961,7.423 5.291,7.423 L0.848,7.423 C0.378557963,7.423 -0.002,7.04244204 -0.002,6.573 C-0.002,6.10355796 0.378557963,5.723 0.848,5.723 L5.284,5.723 C5.805,5.723 6.329,4.393 6.712,3.423 C7.336,1.841 8.043,0.048 9.718,0.048 C11.393,0.048 12.089,1.762 12.709,3.275 C13.109,4.245 13.601,5.451 14.133,5.451 C14.665,5.451 15.151,4.235 15.547,3.258 C16.165,1.733 16.865,0.004 18.534,0.004 C20.203,0.004 20.911,1.812 21.526,3.404 C21.903,4.383 22.42,5.723 22.937,5.723 L26.275,5.723 C26.7427852,5.723 27.122,6.10221482 27.122,6.57 C27.122,7.03778518 26.7427852,7.417 26.275,7.417 L26.273,7.416 Z" id="Path_4275"></path>
                </g>
                <g id="Group_2450" transform="translate(35.858000, 176.013000)" fill="#000000" fill-rule="nonzero">
                    <path d="M26.274,7.413 L22.936,7.413 C21.256,7.413 20.559,5.605 19.944,4.013 C19.567,3.034 19.05,1.694 18.533,1.694 C18.016,1.694 17.514,2.911 17.118,3.888 C16.5,5.413 15.801,7.141 14.132,7.141 C12.463,7.141 11.761,5.426 11.14,3.914 C10.74,2.944 10.248,1.738 9.717,1.738 C9.186,1.738 8.672,3.068 8.289,4.038 C7.665,5.62 6.958,7.413 5.283,7.413 L0.848,7.413 C0.378557963,7.413 -0.002,7.03244204 -0.002,6.563 C-0.002,6.09355796 0.378557963,5.713 0.848,5.713 L5.283,5.713 C5.805,5.713 6.329,4.382 6.712,3.413 C7.335,1.831 8.042,0.039 9.712,0.039 C11.382,0.039 12.083,1.754 12.704,3.266 C13.104,4.236 13.596,5.442 14.127,5.442 C14.658,5.442 15.146,4.225 15.542,3.248 C16.16,1.723 16.859,-0.005 18.528,-0.005 C20.197,-0.005 20.905,1.804 21.521,3.395 C21.898,4.373 22.415,5.713 22.931,5.713 L26.269,5.713 C26.738442,5.713 27.119,6.09355796 27.119,6.563 C27.119,7.03244204 26.738442,7.413 26.269,7.413 L26.274,7.413 Z" id="Path_4276"></path>
                </g>
            </g>
        </g>
    </g>
</svg>