<?xml version="1.0" encoding="UTF-8"?>
<svg width="303px" height="254px" viewBox="0 0 303 254" version="1.1" xmlns="http://www.w3.org/2000/svg" xmlns:xlink="http://www.w3.org/1999/xlink">
    <title>slide5</title>
    <defs>
        <rect id="path-1" x="0" y="0" width="51.003" height="24.502"></rect>
    </defs>
    <g id="Welcome" stroke="none" stroke-width="1" fill="none" fill-rule="evenodd">
        <g id="1.5" transform="translate(-36.000000, -75.000000)">
            <g id="slide5" transform="translate(36.000000, 75.000000)">
                <g id="Group_2467" fill-rule="nonzero">
                    <g id="Group_2452" transform="translate(35.587000, 14.542000)" fill="#F7F7F7">
                        <circle id="Ellipse_531" cx="114.621" cy="114.621" r="114.621"></circle>
                    </g>
                    <g id="Group_2453" transform="translate(52.738000, 31.692000)" fill="#E5E5E5">
                        <path d="M97.47,194.941 C58.0465695,194.941 22.504799,171.193614 7.4178251,134.77123 C-7.66914884,98.3488453 0.669809358,56.4246665 28.5462414,28.5479485 C56.4226734,0.671230473 98.3467667,-7.66815785 134.769306,7.41844242 C171.191845,22.5050427 194.94,58.0465695 194.94,97.47 C194.878831,151.275999 151.275998,194.879279 97.47,194.941 L97.47,194.941 Z M97.47,3.4 C45.5165736,3.4 3.4,45.5165736 3.4,97.47 C3.4,149.423426 45.5165736,191.54 97.47,191.54 C149.423426,191.54 191.54,149.423426 191.54,97.47 C191.479381,45.5421893 149.397813,3.46196288 97.47,3.403 L97.47,3.4 Z" id="Path_4277"></path>
                    </g>
                    <g id="Group_2454" transform="translate(51.285000, 195.496000)" fill="#F7F7F7">
                        <path d="M8.262,0.003 L56.345,0.003 C58.5362186,0.003 60.6376907,0.873458215 62.1871162,2.42288377 C63.7365418,3.97230933 64.607,6.07378136 64.607,8.265 L64.607,9.305 C64.607,13.8679766 60.9079766,17.567 56.345,17.567 L8.262,17.567 C3.6990234,17.567 0,13.8679766 0,9.305 L0,8.265 C0,3.7020234 3.6990234,0.003 8.262,0.003 Z" id="Path_4278"></path>
                    </g>
                    <g id="Group_2455" transform="translate(35.609000, 229.931000)" fill="#F7F7F7">
                        <path d="M5.785,-8.65857714e-08 L99.32,-8.65857714e-08 C102.514967,-8.65857714e-08 105.105,2.59003272 105.105,5.785 L105.105,5.785 C105.105,8.97996728 102.514967,11.5700001 99.32,11.5700001 L5.785,11.5700001 C4.25064129,11.5702653 2.77904976,10.9608612 1.69409429,9.87590571 C0.609138827,8.79095024 -8.65858283e-08,7.31935871 -8.65858283e-08,5.785 L-8.65858283e-08,5.785 C-8.65858283e-08,4.25064129 0.609138827,2.77904976 1.69409429,1.69409429 C2.77904976,0.609138827 4.25064129,-0.000265299342 5.785,-8.65857714e-08 L5.785,-8.65857714e-08 Z" id="Path_4279"></path>
                    </g>
                    <g id="Group_2456" transform="translate(195.291000, 241.499000)" fill="#F7F7F7">
                        <path d="M5.691,-5.68434189e-14 L16.327,-5.68434189e-14 C19.4698238,0.000552099055 22.0174479,2.5481762 22.0180001,5.691 L22.0180001,5.691 C22.0182652,7.20061227 21.4188285,8.64850011 20.3515589,9.71614472 C19.2842894,10.7837893 17.8366123,11.3837348 16.327,11.384 L5.691,11.384 C2.54794749,11.384 -3.51941026e-07,8.83605251 -3.51941026e-07,5.693 L-3.51941026e-07,5.693 C-0.000530554781,4.18330646 0.598820996,2.73526449 1.66614804,1.66756235 C2.73347508,0.59986022 4.18130637,-5.68434189e-14 5.691,-5.68434189e-14 L5.691,-5.68434189e-14 Z" id="Path_4280"></path>
                    </g>
                    <g id="Group_2457" transform="translate(186.364000, 207.832000)" fill="#F7F7F7">
                        <path d="M9.335,-5.36510356e-08 L61.135,-5.36510356e-08 C66.2905781,-5.36510356e-08 70.47,4.17942186 70.47,9.335 L70.47,9.335 C70.47,14.4905781 66.2905781,18.67 61.135,18.67 L9.335,18.67 C4.17942186,18.67 -5.36512061e-08,14.4905781 -5.36512061e-08,9.335 L-5.36512061e-08,9.335 C-5.36512061e-08,6.85912276 0.983155652,4.48457485 2.73386525,2.73386525 C4.48457485,0.983155652 6.85912276,-0.000265267827 9.335,-5.36510356e-08 Z" id="Path_4281"></path>
                    </g>
                    <g id="Group_2458" transform="translate(68.175000, 212.930000)" fill="#F7F7F7">
                        <path d="M0,3.25260652e-19 L32.777,3.25260652e-19 C30.4402299,0.0203721643 28.2070777,0.967366793 26.568,2.633 C24.9247958,4.15494065 23.9908202,6.29326267 23.991,8.533 C24.0049902,10.8299377 24.9456155,13.0239671 26.5996681,14.6177765 C28.2537207,16.2115859 30.4811235,17.0701999 32.777,16.999 L0,16.999 C2.29460158,17.1593655 4.5511851,16.3494266 6.22007091,14.7664757 C7.88895673,13.1835247 8.81694946,10.9728688 8.778,8.673 C8.77520008,6.35538798 7.84609554,4.13505162 6.1974646,2.50614115 C4.54883367,0.877230679 2.31747791,-0.0250887121 0,3.25260652e-19 Z" id="Path_4282"></path>
                    </g>
                    <g id="Group_2459" transform="translate(180.895000, 112.659000)" fill="#F7F7F7">
                        <path d="M15.772,0 L100.272,0 C104.45526,0 108.467184,1.66179344 111.425195,4.61980474 C114.383207,7.57781604 116.045,11.5897403 116.045,15.773 L116.045,15.773 C116.045,19.9562597 114.383207,23.968184 111.425195,26.9261953 C108.467184,29.8842066 104.45526,31.546 100.272,31.546 L15.772,31.546 C7.06276533,31.5432392 0.004,24.4822351 0.004,15.773 L0.004,15.773 C0.004,7.06353628 7.06253655,0.00220882441 15.772,0 L15.772,0 Z" id="Path_4283"></path>
                    </g>
                    <g id="Group_2460" transform="translate(156.356000, 174.845000)" fill="#F7F7F7">
                        <path d="M10.223,-0.00400019594 L135.423,-0.00400019594 C141.068455,-0.00400019594 145.645,4.57254529 145.645,10.218 L145.645,10.218 C145.645,12.9292162 144.567905,15.5293735 142.650692,17.4463991 C140.733479,19.3634247 138.133216,20.4402652 135.422,20.44 L10.222,20.44 C7.51078378,20.4402652 4.91052118,19.3634247 2.99330803,17.4463991 C1.07609488,15.5293735 -0.001,12.9292162 -0.001,10.218 L-0.001,10.218 C-0.001,7.50661048 1.07623211,4.90630165 2.99366155,2.98924728 C4.911091,1.07219292 7.51161054,-0.00453050079 10.223,-0.00400019594 L10.223,-0.00400019594 Z" id="Path_4284"></path>
                    </g>
                    <g id="Group_2461" transform="translate(218.197000, 144.203000)" fill="#F7F7F7">
                        <path d="M0,-6.50521303e-19 L58.872,-6.50521303e-19 C54.6885276,-0.0225889526 50.6709725,1.63458047 47.72,4.6 C44.7613279,7.37130291 43.0853722,11.2461356 43.092,15.3 C43.092,24.1 50.161,30.644 58.871,30.644 L0,30.644 C4.349,30.644 8.29,29.402 11.151,26.544 C14.108794,23.6744909 15.7746981,19.7269912 15.767,15.606 C15.7796997,11.4351454 14.1173956,7.43380274 11.1530465,4.49972313 C8.18869727,1.56564351 4.17050457,-0.0555058962 0,-5.68438525e-14 L0,-6.50521303e-19 Z" id="Path_4285"></path>
                    </g>
                    <g id="Group_2462" transform="translate(10.282000, 65.452000)" fill="#F7F7F7">
                        <path d="M115.76,33.487 L16.746,33.487 C12.3047766,33.487 8.04536344,31.723182 4.9048505,28.5828566 C1.76433755,25.4425312 0,21.1832234 0,16.742 L0,16.742 C0,7.49343958 7.49743958,-0.004 16.746,-0.004 L115.76,-0.004 C120.201223,-0.004 124.460531,1.76033755 127.600857,4.9008505 C130.741182,8.04136344 132.505,12.3007766 132.505,16.742 L132.505,16.742 C132.505,21.1831314 130.74115,25.4424418 127.600796,28.582796 C124.460442,31.7231501 120.201131,33.487 115.76,33.487 Z" id="Path_4286"></path>
                    </g>
                    <g id="Group_2463" transform="translate(0.000000, 147.498000)" fill="#F7F7F7">
                        <path d="M167.283,48.398 L24.199,48.398 C10.8337091,48.398 -0.001,37.5632909 -0.001,24.198 L-0.001,24.198 C-0.001,10.8327091 10.8337091,-0.002 24.199,-0.002 L167.283,-0.002 C180.648291,-0.002 191.483,10.8327091 191.483,24.198 L191.483,24.198 C191.483,37.5632909 180.648291,48.398 167.283,48.398 Z" id="Path_4287"></path>
                    </g>
                    <g id="Group_2464" transform="translate(155.890000, 33.751000)" fill="#F7F7F7">
                        <path d="M92.356,26.72 L13.356,26.72 C9.8127077,26.72 6.41453942,25.3124326 3.9090534,22.8069466 C1.40356739,20.3014606 -0.004,16.9032923 -0.004,13.36 L-0.004,13.36 C-0.004,9.81662639 1.40321695,6.41830399 3.90876047,3.91276047 C6.41430399,1.40721695 9.81262639,0 13.356,0 L92.356,0 C95.8993736,0 99.297696,1.40721695 101.80324,3.91276047 C104.308783,6.41830399 105.716,9.81662639 105.716,13.36 L105.716,13.36 C105.716,16.9032923 104.308433,20.3014606 101.802947,22.8069466 C99.2974606,25.3124326 95.8992923,26.72 92.356,26.72 L92.356,26.72 Z" id="Path_4288"></path>
                    </g>
                    <g id="Group_2465" transform="translate(65.281000, 15.251000)" fill="#F7F7F7">
                        <path d="M77.63,9.48 C79.2135313,9.48132761 80.794926,9.59628953 82.362,9.824 C81.6675299,4.21415768 76.9016647,0.00108658655 71.249,-2.13162821e-14 L11.207,-2.13162821e-14 C5.01699252,-2.13162821e-14 -0.001,5.01799252 -0.001,11.208 C-0.001,17.3980075 5.01699252,22.416 11.207,22.416 L51.496,22.416 C57.792,14.616 67.585,9.48 77.63,9.48 Z" id="Path_4289"></path>
                    </g>
                    <g id="Group_2466" transform="translate(197.916000, 0.000000)" fill="#F7F7F7">
                        <path d="M26.029,14.542 L7.27,14.542 C5.34170285,14.542 3.49239834,13.7759185 2.12898012,12.4123128 C0.765561894,11.048707 -6.88753516e-08,9.19929714 -6.88753516e-08,7.271 L-6.88753516e-08,7.271 C-6.88753516e-08,3.25588987 3.25488987,0.000999931125 7.27,0.000999931125 L26.029,0.000999931125 C27.9572971,0.000734759676 29.806707,0.766561894 31.1703128,2.12998012 C32.5339185,3.49339834 33.3,5.34270285 33.3,7.271 L33.3,7.271 C33.3,9.1993891 32.5339504,11.0487964 31.1703734,12.4123734 C29.8067964,13.7759504 27.9573891,14.542 26.029,14.542 Z" id="Path_4290"></path>
                    </g>
                </g>
                <g id="Group_721" transform="translate(17.466000, 50.646000)">
                    <g id="Group_510" transform="translate(45.211000, 95.981000)" fill-rule="nonzero">
                        <g id="Group_505" transform="translate(6.012000, 1.848000)" fill="#FFFFFF">
                            <path d="M3.846,18.043 L3.846,10.772 C3.83959134,9.54905706 4.14449177,8.34459712 4.732,7.272 C5.97588071,5.11591521 8.27583531,3.78753674 10.765,3.78753674 C13.2541647,3.78753674 15.5541193,5.11591521 16.798,7.272 C17.3857968,8.34448365 17.6907165,9.54901954 17.684,10.772 L17.684,18.043 L21.528,18.043 L21.528,11.496 C21.5392988,10.9024343 21.5109022,10.3087772 21.443,9.719 C21.3896214,9.27942409 21.3138563,8.84285692 21.216,8.411 C21.146,8.124 21.076,7.839 20.986,7.558 C20.8096763,6.99410497 20.5920885,6.44395221 20.335,5.912 C20.1386662,5.51150741 19.9196437,5.12254209 19.679,4.747 C17.6853966,1.7804106 14.3457282,0.00100599315 10.7715,0.00100599315 C7.19727183,0.00100599315 3.85760336,1.7804106 1.864,4.747 C1.62608629,5.12255444 1.41005997,5.51153537 1.217,5.912 C0.959334918,6.44394238 0.74108133,6.99408849 0.564,7.558 C0.475333333,7.83933333 0.396666667,8.12366667 0.328,8.411 C0.230476247,8.84287381 0.155044912,9.27944101 0.102,9.719 C0.0295040857,10.3084789 -0.00390223841,10.9021093 0.002,11.496 L0.002,18.043 L3.848,18.043 L3.846,18.043 Z" id="Path_3301"></path>
                        </g>
                        <g id="Group_506" transform="translate(5.164000, 0.000000)" fill="#393939">
                            <path d="M22.376,20.741 L18.532,20.741 C18.062558,20.741 17.682,20.360442 17.682,19.891 L17.682,12.62 C17.6879579,11.5422682 17.4199,10.4807038 16.903,9.535 C15.8593542,7.66894909 13.8959759,6.50504164 11.758,6.485 L11.658,6.485 C11.6246894,6.48674274 11.5913106,6.48674274 11.558,6.485 L11.464,6.485 C9.32602411,6.50504164 7.36264581,7.66894909 6.319,9.535 C5.80177077,10.4805747 5.53369102,11.5422256 5.54,12.62 L5.54,19.891 C5.54,20.360442 5.15944204,20.741 4.69,20.741 L0.846,20.741 C0.376557963,20.741 -0.004,20.360442 -0.004,19.891 L-0.004,13.344 C-0.010430822,12.7123209 0.0253153221,12.080917 0.103,11.454 C0.159228693,10.9850898 0.240006255,10.5194506 0.345,10.059 C0.418,9.754 0.502,9.45 0.597,9.149 C0.78735542,8.54581417 1.02130522,7.95726332 1.297,7.388 C1.50408001,6.9583223 1.73579903,6.54096095 1.991,6.138 C3.98928675,2.85537025 7.59238306,0.894138116 11.434,0.998 L11.783,0.998 C15.6290593,0.891154692 19.2377195,2.85250751 21.24,6.138 C21.4969748,6.5409798 21.7306898,6.95832804 21.94,7.388 C22.215534,7.95699054 22.4494798,8.54519713 22.64,9.148 C22.74,9.448 22.811,9.748 22.885,10.058 C22.9903134,10.5180992 23.0714248,10.9834049 23.128,11.452 C23.2009379,12.0795652 23.2316736,12.7113183 23.22,13.343 L23.22,19.89 C23.2216607,20.3579498 22.8439476,20.7387956 22.376,20.741 Z M19.382,19.041 L21.526,19.041 L21.526,13.341 C21.5368657,12.7852447 21.5111435,12.2293768 21.449,11.677 C21.3993443,11.2662994 21.3285841,10.8584266 21.237,10.455 C21.172,10.188 21.108,9.923 21.024,9.66 C20.8597505,9.1356623 20.6575495,8.62397679 20.419,8.129 C20.23686,7.75795213 20.0335241,7.39769024 19.81,7.05 C18.1106589,4.26420358 15.0488548,2.60259384 11.787,2.696 L11.438,2.696 C8.18053677,2.60536906 5.12419905,4.26691163 3.429,7.05 C3.20862694,7.39829839 3.00830154,7.75888411 2.829,8.13 C2.59010526,8.62426002 2.38756826,9.1352816 2.223,9.659 C2.13966667,9.921 2.06633333,10.1876667 2.003,10.459 C1.912348,10.8625136 1.84225763,11.2703728 1.793,11.681 C1.72515583,12.2329926 1.69408731,12.7888852 1.7,13.345 L1.7,19.045 L3.844,19.045 L3.844,12.624 C3.8379951,11.2572205 4.17970594,9.91136841 4.837,8.713 C6.18353314,6.31033818 8.71384676,4.81298474 11.468,4.789 L11.613,4.789 L11.758,4.789 C14.5120955,4.81319229 17.0423127,6.31048872 18.389,8.713 C19.0462118,9.9114008 19.3879172,11.2572312 19.382,12.624 L19.382,19.041 Z" id="Path_3302"></path>
                        </g>
                        <g id="Group_507" transform="translate(0.850000, 17.686000)" fill="#8E8E8E">
                            <path d="M27.552,26.339 L4.662,26.339 C2.09043963,26.3313122 0.00768782538,24.2485604 0,21.677 L0,4.663 C0.00713894898,2.09104911 2.0900507,0.00769057367 4.662,2.84217094e-14 L27.552,2.84217094e-14 C30.1243398,0.00714161471 32.2078584,2.09066017 32.215,4.663 L32.215,21.677 C32.2067635,24.2487221 30.1237238,26.331315 27.552,26.339 L27.552,26.339 Z" id="Path_3303"></path>
                        </g>
                        <g id="Group_508" transform="translate(0.000000, 16.835000)" fill="#393939">
                            <path d="M28.402,28.039 L5.513,28.039 C2.46962496,28.0356932 0.00330682116,25.569375 0,22.526 L0,5.513 C0.00330682116,2.46962496 2.46962496,0.00330682116 5.513,-5.68434189e-14 L28.402,-5.68434189e-14 C31.445375,0.00330682116 33.9116932,2.46962496 33.915,5.513 L33.915,22.527 C33.9111422,25.5699845 31.4449852,28.0356943 28.402,28.039 L28.402,28.039 Z M5.513,1.7 C3.40883255,1.70275451 1.70375451,3.40783255 1.701,5.512 L1.701,22.526 C1.70375451,24.6301675 3.40883255,26.3352455 5.513,26.338 L28.402,26.338 C30.5061675,26.3352455 32.2112455,24.6301675 32.214,22.526 L32.214,5.513 C32.2112455,3.40883255 30.5061675,1.70375451 28.402,1.701 L5.513,1.7 Z" id="Path_3304"></path>
                        </g>
                        <g id="Group_509" transform="translate(11.965000, 22.013000)" fill="#FFFFFF">
                            <path d="M7.28,9.456 L7.28,15.456 C7.29704792,16.2580227 6.87892546,17.0065268 6.18705544,17.4125404 C5.49518542,17.8185539 4.63781458,17.8185539 3.94594456,17.4125404 C3.25407454,17.0065268 2.83595208,16.2580227 2.853,15.456 L2.853,9.456 C0.752433875,8.47020789 -0.384214334,6.16006745 0.116532253,3.89436293 C0.617278841,1.6286584 2.6216362,0.0127160795 4.942,0.00399472827 C7.70816856,3.96705358e-05 9.95973598,2.22794397 9.985,4.994 C9.93839916,6.85578405 8.90913413,8.55359573 7.28,9.456 L7.28,9.456 Z" id="Path_3305"></path>
                        </g>
                    </g>
                    <g id="Group_519" transform="translate(174.688000, 110.680000)">
                        <g id="Group_511" transform="translate(0.850000, 0.851000)" fill="#FFFFFF">
                            <path d="M14.52,-5.03725033e-07 C20.0336862,-0.00144830861 25.0723926,3.12033365 27.526,8.058 C30.2457296,6.74816756 33.3830317,6.60848098 36.2084076,7.67142077 C39.0337835,8.73436055 41.3010454,10.9073079 42.483,13.685 C45.4024722,11.0557412 49.7103183,10.6780134 53.0428089,12.7590771 C56.3752995,14.8401407 57.9265143,18.8767171 56.8452966,22.6539234 C55.7640789,26.4311298 52.3119074,29.0354969 48.383,29.038 L14.52,29.038 C6.50137772,29.038 0.001,22.5376223 0.001,14.519 C0.001,6.50037772 6.50137772,-5.03725033e-07 14.52,-5.03725033e-07 L14.52,-5.03725033e-07 Z" id="Path_3306"></path>
                        </g>
                        <g id="Group_518" fill="#393939" fill-rule="nonzero">
                            <g id="Group_515">
                                <path d="M49.228,30.739 L15.37,30.739 C7.89274947,30.737976 1.50110914,25.3560745 0.226916201,17.9881909 C-1.04727674,10.6203073 3.16572267,3.4044521 10.2083607,0.89237602 C17.2509987,-1.61970005 25.0796445,1.30095655 28.756,7.812 C34.3661316,5.57283733 40.763882,7.89202185 43.636,13.206 C47.0373301,10.7903382 51.6052101,10.831417 54.9625457,13.3078593 C58.3198812,15.7843017 59.7078649,20.136395 58.4041992,24.0993389 C57.1005336,28.0622829 53.3998663,30.7403935 49.228,30.74 L49.228,30.739 Z M15.37,1.701 C10.4585009,1.65899106 5.90200608,4.25515648 3.43404963,8.50177618 C0.966093181,12.7483959 0.966093181,17.9926041 3.43404963,22.2392238 C5.90200608,26.4858435 10.4585009,29.0820089 15.37,29.04 L49.228,29.04 C52.779221,29.0405022 55.9012137,26.6885759 56.880127,23.2749414 C57.8590402,19.861307 56.4579936,16.2121672 53.4461066,14.3307561 C50.4342195,12.449345 46.5403177,12.7909323 43.902,15.168 C43.6988522,15.3531363 43.418279,15.4277569 43.15,15.368 C42.8810389,15.3079087 42.6576074,15.1217158 42.55,14.868 C41.4580865,12.3048466 39.3652419,10.2998862 36.757631,9.31886847 C34.1500201,8.33785073 31.2546098,8.46616354 28.744,9.674 C28.3245736,9.87548563 27.82107,9.70319928 27.613,9.287 C25.3157965,4.62757623 20.5649089,1.68383425 15.37,1.701 L15.37,1.701 Z" id="Path_3307"></path>
                            </g>
                        </g>
                    </g>
                    <g id="Group_524" transform="translate(0.409000, 139.332000)" fill="#393939" fill-rule="nonzero">
                        <g id="Group_520" transform="translate(17.001000, 0.000000)">
                            <rect id="Rectangle_423" x="0" y="0" width="18.701" height="3.4"></rect>
                        </g>
                        <g id="Group_521">
                            <rect id="Rectangle_424" x="0" y="0" width="12.751" height="3.4"></rect>
                        </g>
                        <g id="Group_522" transform="translate(252.463000, 0.000000)">
                            <rect id="Rectangle_425" x="0" y="0" width="12.751" height="3.4"></rect>
                        </g>
                        <g id="Group_523" transform="translate(39.952000, 0.000000)">
                            <rect id="Rectangle_426" x="0" y="0" width="201.46" height="3.4"></rect>
                        </g>
                    </g>
                    <g id="Group_569" transform="translate(75.058000, 43.855000)" fill-rule="nonzero">
                        <g id="Group_525" transform="translate(38.761000, 76.549000)" fill="#FFFFFF">
                            <path d="M29.621,11.082 L29.621,0 L11.988,0 L11.988,11.082 C11.988,15.605 0,19.266 0,19.266 L41.608,19.266 C41.608,19.266 29.621,15.605 29.621,11.082 Z" id="Path_3308"></path>
                        </g>
                        <g id="Group_529" transform="translate(50.749000, 76.549000)" fill="#F5F5F5">
                            <polygon id="Path_3309" points="17.632 10.803 17.632 0.003 0 0.003 0 10.803"></polygon>
                        </g>
                        <g id="Group_533" transform="translate(33.074000, 75.699000)" fill="#393939">
                            <path d="M52.988,20.966 L0,20.966 L5.439,19.302 C9.839,17.956 16.826,14.764 16.826,11.931 L16.826,0 L36.158,0 L36.158,11.932 C36.158,14.769 43.142,17.959 47.544,19.303 L52.988,20.966 Z M10.402,19.266 L42.58,19.266 C38.939,17.679 34.457,15.085 34.457,11.932 L34.457,1.7 L18.525,1.7 L18.525,11.932 C18.526,15.086 14.043,17.679 10.402,19.266 L10.402,19.266 Z" id="Path_3310"></path>
                        </g>
                        <g id="Group_537" transform="translate(0.850000, 0.850000)" fill="#8E8E8E">
                            <path d="M113.962,0 L3.469,0 C1.53065936,0.0230614802 -0.022221806,1.61264955 -0.000235550865,3.551 L-0.000235550865,73.666 L117.430247,73.666 L117.430247,3.551 C117.452779,1.61281325 115.900183,0.0230597322 113.962,0 Z" id="Path_3311"></path>
                        </g>
                        <g id="Group_541" fill="#393939">
                            <path d="M119.131137,75.366 L-0.000137197812,75.366 L-0.000137197812,4.401 C-0.0188779677,1.99472369 1.91278828,0.0268303166 4.319,0.001 L114.812,0.001 C117.218212,0.0268303166 119.149878,1.99472369 119.131137,4.401 L119.131137,75.366 L119.131137,75.366 Z M1.7,73.666 L117.430254,73.666 L117.430254,4.401 C117.450045,2.93312053 116.278809,1.72566071 114.811,1.701 L4.32,1.701 C2.85219082,1.72566071 1.68095479,2.93312053 1.7,4.401 L1.7,73.666 Z" id="Path_3312"></path>
                        </g>
                        <g id="Group_545" transform="translate(6.488000, 6.069000)" fill="#FFFFFF">
                            <rect id="Rectangle_427" x="0" y="0" width="106.296" height="63.185"></rect>
                        </g>
                        <g id="Group_549" transform="translate(0.850000, 73.824000)" fill="#FFFFFF">
                            <path d="M-0.000235484569,0 L-0.000235484569,4.551 C-0.0222197757,6.48918411 1.53081928,8.07848612 3.469,8.101 L113.962,8.101 C115.899946,8.07793697 117.452665,6.48896185 117.431224,4.551 L117.431224,0 L-0.000235484569,0 Z" id="Path_3313"></path>
                        </g>
                        <g id="Group_553" transform="translate(0.000000, 72.973000)" fill="#393939">
                            <path d="M114.812,9.801 L4.32,9.801 C1.91355515,9.77571702 -0.0184295405,7.80749923 0.000854727464,5.401 L0.000854727464,0.001 L119.130145,0.001 L119.130145,5.401 C119.149432,7.80711303 117.218053,9.77516988 114.812,9.801 L114.812,9.801 Z M1.6997325,1.701 L1.6997325,5.401 C1.67940202,6.86909908 2.85095448,8.07688512 4.319,8.101 L114.812,8.101 C116.280046,8.07688512 117.451598,6.86909908 117.431267,5.401 L117.431267,1.701 L1.6997325,1.701 Z" id="Path_3314"></path>
                        </g>
                        <g id="Group_557" transform="translate(6.488000, 6.069000)" fill="#E6E6E6">
                            <rect id="Rectangle_428" x="0" y="0" width="106.318" height="5.768"></rect>
                        </g>
                        <g id="Group_561" transform="translate(6.488000, 65.153000)" fill="#E6E6E6">
                            <rect id="Rectangle_429" x="0" y="0" width="106.318" height="4.101"></rect>
                        </g>
                        <g id="Group_565" transform="translate(5.638000, 5.219000)" fill="#393939">
                            <path d="M107.996,64.886 L-0.004,64.886 L-0.004,0 L107.996,0 L107.996,64.886 Z M1.696,63.186 L106.296,63.186 L106.296,1.7 L1.696,1.7 L1.696,63.186 Z" id="Path_3315"></path>
                        </g>
                    </g>
                    <g id="Group_570" transform="translate(206.148000, 41.419000)" fill="#000000" fill-rule="nonzero">
                        <path d="M3.567,7.134 C1.5970003,7.134 5.68434189e-14,5.5369997 5.68434189e-14,3.567 C5.68434189e-14,1.5970003 1.5970003,2.84217094e-14 3.567,2.84217094e-14 C5.5369997,2.84217094e-14 7.134,1.5970003 7.134,3.567 C7.13179559,5.53608588 5.53608588,7.13179559 3.567,7.134 Z M3.567,1.7 C2.53588437,1.7 1.7,2.53588437 1.7,3.567 C1.7,4.59811563 2.53588437,5.434 3.567,5.434 C4.59811563,5.434 5.434,4.59811563 5.434,3.567 C5.43344893,2.53595081 4.59804875,1.70010317 3.567,1.699 L3.567,1.7 Z" id="Path_3316"></path>
                    </g>
                    <g id="Group_571" transform="translate(70.141000, 21.868000)" fill="#000000" fill-rule="nonzero">
                        <path d="M3.567,7.134 C1.5970003,7.134 2.84217094e-14,5.5369997 2.84217094e-14,3.567 C2.84217094e-14,1.5970003 1.5970003,2.84217094e-14 3.567,2.84217094e-14 C5.5369997,2.84217094e-14 7.134,1.5970003 7.134,3.567 C7.13234581,5.53631411 5.53631411,7.13234581 3.567,7.134 L3.567,7.134 Z M3.567,1.7 C2.81186899,1.7 2.13109304,2.15487995 1.84211691,2.85253003 C1.55314079,3.55018012 1.71287338,4.3532101 2.24683164,4.88716836 C2.7807899,5.42112662 3.58381988,5.58085921 4.28146997,5.29188309 C4.97912005,5.00290696 5.434,4.32213101 5.434,3.567 C5.43344893,2.53595081 4.59804875,1.70010317 3.567,1.699 L3.567,1.7 Z" id="Path_3317"></path>
                    </g>
                    <g id="Group_572" transform="translate(246.100000, 124.723000)" fill="#000000" fill-rule="nonzero">
                        <path d="M3.567,7.134 C1.5970003,7.134 5.68434189e-14,5.5369997 5.68434189e-14,3.567 C5.68434189e-14,1.5970003 1.5970003,2.84217094e-14 3.567,2.84217094e-14 C5.5369997,2.84217094e-14 7.134,1.5970003 7.134,3.567 C7.13234581,5.53631411 5.53631411,7.13234581 3.567,7.134 L3.567,7.134 Z M3.567,1.7 C2.53588437,1.7 1.7,2.53588437 1.7,3.567 C1.7,4.59811563 2.53588437,5.434 3.567,5.434 C4.59811563,5.434 5.434,4.59811563 5.434,3.567 C5.43344893,2.53595081 4.59804875,1.70010317 3.567,1.699 L3.567,1.7 Z" id="Path_3318"></path>
                    </g>
                    <g id="Group_573" transform="translate(28.489000, 102.622000)" fill="#000000" fill-rule="nonzero">
                        <path d="M3.567,7.134 C1.5970003,7.134 0,5.5369997 0,3.567 C0,1.5970003 1.5970003,2.84217094e-14 3.567,2.84217094e-14 C5.5369997,2.84217094e-14 7.134,1.5970003 7.134,3.567 C7.13234581,5.53631411 5.53631411,7.13234581 3.567,7.134 L3.567,7.134 Z M3.567,1.7 C2.81186899,1.7 2.13109304,2.15487995 1.84211691,2.85253003 C1.55314079,3.55018012 1.71287338,4.3532101 2.24683164,4.88716836 C2.7807899,5.42112662 3.58381988,5.58085921 4.28146997,5.29188309 C4.97912005,5.00290696 5.434,4.32213101 5.434,3.567 C5.43344893,2.53595081 4.59804875,1.70010317 3.567,1.699 L3.567,1.7 Z" id="Path_3319"></path>
                    </g>
                    <g id="Group_574" transform="translate(145.795000, 0.617000)" fill="#000000" fill-rule="nonzero">
                        <path d="M3.567,7.134 C1.5970003,7.134 2.84217094e-14,5.5369997 2.84217094e-14,3.567 C2.84217094e-14,1.5970003 1.5970003,1.42108547e-14 3.567,1.42108547e-14 C5.5369997,1.42108547e-14 7.134,1.5970003 7.134,3.567 C7.13234581,5.53631411 5.53631411,7.13234581 3.567,7.134 L3.567,7.134 Z M3.567,1.7 C2.53588437,1.7 1.7,2.53588437 1.7,3.567 C1.7,4.59811563 2.53588437,5.434 3.567,5.434 C4.59811563,5.434 5.434,4.59811563 5.434,3.567 C5.43344893,2.53595081 4.59804875,1.70010317 3.567,1.699 L3.567,1.7 Z" id="Path_3320"></path>
                    </g>
                    <g id="Group_578" transform="translate(166.167000, 29.676000)" fill="#000000" fill-rule="nonzero">
                        <g id="Group_575" transform="translate(25.501000, 0.000000)">
                            <path d="M1.7,1.7 L0.85,1.7 C0.380557963,1.7 -5.68434189e-14,1.31944204 -5.68434189e-14,0.85 C-5.68434189e-14,0.380557963 0.380557963,0 0.85,0 L1.7,0 C2.16944204,0 2.55,0.380557963 2.55,0.85 C2.55,1.31944204 2.16944204,1.7 1.7,1.7 Z" id="Path_3321"></path>
                        </g>
                        <g id="Group_576" transform="translate(5.100000, 0.000000)">
                            <path d="M17.851,1.7 L16.151,1.7 C15.681558,1.7 15.301,1.31944204 15.301,0.85 C15.301,0.380557963 15.681558,0 16.151,0 L17.851,0 C18.320442,0 18.701,0.380557963 18.701,0.85 C18.701,1.31944204 18.320442,1.7 17.851,1.7 Z M12.751,1.7 L11.051,1.7 C10.581558,1.7 10.201,1.31944204 10.201,0.85 C10.201,0.380557963 10.581558,0 11.051,0 L12.751,0 C13.220442,0 13.601,0.380557963 13.601,0.85 C13.601,1.31944204 13.220442,1.7 12.751,1.7 L12.751,1.7 Z M7.651,1.7 L5.951,1.7 C5.48155796,1.7 5.101,1.31944204 5.101,0.85 C5.101,0.380557963 5.48155796,0 5.951,0 L7.651,0 C8.12044204,0 8.501,0.380557963 8.501,0.85 C8.501,1.31944204 8.12044204,1.7 7.651,1.7 L7.651,1.7 Z M2.551,1.7 L0.851,1.7 C0.381557963,1.7 0.001,1.31944204 0.001,0.85 C0.001,0.380557963 0.381557963,0 0.851,0 L2.551,0 C3.02044204,0 3.401,0.380557963 3.401,0.85 C3.401,1.31944204 3.02044204,1.7 2.551,1.7 L2.551,1.7 Z" id="Path_3322"></path>
                        </g>
                        <g id="Group_577">
                            <path d="M1.7,1.7 L0.85,1.7 C0.380557963,1.7 0,1.31944204 0,0.85 C0,0.380557963 0.380557963,0 0.85,0 L1.7,0 C2.16944204,0 2.55,0.380557963 2.55,0.85 C2.55,1.31944204 2.16944204,1.7 1.7,1.7 Z" id="Path_3323"></path>
                        </g>
                    </g>
                    <g id="Group_582" transform="translate(37.811000, 45.827000)" fill="#000000" fill-rule="nonzero">
                        <g id="Group_579" transform="translate(17.001000, 0.000000)">
                            <path d="M1.7,1.7 L0.85,1.7 C0.546324214,1.7 0.265716195,1.53799098 0.113878287,1.27500004 C-0.0379596202,1.01200911 -0.0379596202,0.687990895 0.113878287,0.424999959 C0.265716195,0.162009022 0.546324214,-2.84217094e-14 0.85,-2.84217094e-14 L1.7,-2.84217094e-14 C2.00367579,-2.84217094e-14 2.28428381,0.162009022 2.43612171,0.424999959 C2.58795962,0.687990895 2.58795962,1.01200911 2.43612171,1.27500004 C2.28428381,1.53799098 2.00367579,1.7 1.7,1.7 L1.7,1.7 Z" id="Path_3324"></path>
                        </g>
                        <g id="Group_580" transform="translate(5.100000, 0.000000)">
                            <path d="M8.5,1.7 L6.8,1.7 C6.49632421,1.7 6.21571619,1.53799098 6.06387829,1.27500004 C5.91204038,1.01200911 5.91204038,0.687990895 6.06387829,0.424999959 C6.21571619,0.162009022 6.49632421,-2.84217094e-14 6.8,-2.84217094e-14 L8.5,-2.84217094e-14 C8.80367579,-2.84217094e-14 9.08428381,0.162009022 9.23612171,0.424999959 C9.38795962,0.687990895 9.38795962,1.01200911 9.23612171,1.27500004 C9.08428381,1.53799098 8.80367579,1.7 8.5,1.7 Z M2.55,1.7 L0.85,1.7 C0.546324214,1.7 0.265716195,1.53799098 0.113878287,1.27500004 C-0.0379596202,1.01200911 -0.0379596202,0.687990895 0.113878287,0.424999959 C0.265716195,0.162009022 0.546324214,-2.84217094e-14 0.85,-2.84217094e-14 L2.55,-2.84217094e-14 C2.85367579,-2.84217094e-14 3.13428381,0.162009022 3.28612171,0.424999959 C3.43795962,0.687990895 3.43795962,1.01200911 3.28612171,1.27500004 C3.13428381,1.53799098 2.85367579,1.7 2.55,1.7 Z" id="Path_3325"></path>
                        </g>
                        <g id="Group_581">
                            <path d="M1.7,1.7 L0.85,1.7 C0.546324214,1.7 0.265716195,1.53799098 0.113878287,1.27500004 C-0.0379596202,1.01200911 -0.0379596202,0.687990895 0.113878287,0.424999959 C0.265716195,0.162009022 0.546324214,-2.84217094e-14 0.85,-2.84217094e-14 L1.7,-2.84217094e-14 C2.00367579,-2.84217094e-14 2.28428381,0.162009022 2.43612171,0.424999959 C2.58795962,0.687990895 2.58795962,1.01200911 2.43612171,1.27500004 C2.28428381,1.53799098 2.00367579,1.7 1.7,1.7 Z" id="Path_3326"></path>
                        </g>
                    </g>
                    <g id="Group_586" transform="translate(211.219000, 107.880000)" fill="#000000" fill-rule="nonzero">
                        <g id="Group_583" transform="translate(25.501000, 0.000000)">
                            <path d="M1.7,1.7 L0.85,1.7 C0.380558042,1.7 2.02655769e-07,1.31944196 2.02655769e-07,0.85 C2.02655769e-07,0.380558042 0.380558042,2.84217094e-14 0.85,2.84217094e-14 L1.7,2.84217094e-14 C2.16944204,2.84217094e-14 2.55,0.380557963 2.55,0.85 C2.55,1.31944204 2.16944204,1.7 1.7,1.7 L1.7,1.7 Z" id="Path_3327"></path>
                        </g>
                        <g id="Group_584" transform="translate(5.100000, 0.000000)">
                            <path d="M17.851,1.7 L16.151,1.7 C15.8473242,1.7 15.5667162,1.537991 15.4148782,1.27500006 C15.2630403,1.01200911 15.2630403,0.687990886 15.4148782,0.424999941 C15.5667162,0.162008997 15.8473242,2.84217094e-14 16.151,2.84217094e-14 L17.851,2.84217094e-14 C18.320442,2.84217094e-14 18.701,0.380557963 18.701,0.85 C18.701,1.31944204 18.320442,1.7 17.851,1.7 L17.851,1.7 Z M12.751,1.7 L11.051,1.7 C10.7473242,1.7 10.4667162,1.537991 10.3148782,1.27500006 C10.1630403,1.01200911 10.1630403,0.687990886 10.3148782,0.424999941 C10.4667162,0.162008997 10.7473242,2.84217094e-14 11.051,2.84217094e-14 L12.751,2.84217094e-14 C13.220442,2.84217094e-14 13.601,0.380557963 13.601,0.85 C13.601,1.31944204 13.220442,1.7 12.751,1.7 L12.751,1.7 Z M7.651,1.7 L5.951,1.7 C5.6473242,1.7 5.36671616,1.537991 5.21487824,1.27500006 C5.06304032,1.01200911 5.06304032,0.687990886 5.21487824,0.424999941 C5.36671616,0.162008997 5.6473242,2.84217094e-14 5.951,2.84217094e-14 L7.651,2.84217094e-14 C8.12044204,2.84217094e-14 8.501,0.380557963 8.501,0.85 C8.501,1.31944204 8.12044204,1.7 7.651,1.7 L7.651,1.7 Z M2.551,1.7 L0.851,1.7 C0.5473242,1.7 0.266716159,1.537991 0.114878238,1.27500006 C-0.0369596828,1.01200911 -0.0369596828,0.687990886 0.114878238,0.424999941 C0.266716159,0.162008997 0.5473242,2.84217094e-14 0.851,2.84217094e-14 L2.551,2.84217094e-14 C3.02044204,2.84217094e-14 3.401,0.380557963 3.401,0.85 C3.401,1.31944204 3.02044204,1.7 2.551,1.7 L2.551,1.7 Z" id="Path_3328"></path>
                        </g>
                        <g id="Group_585">
                            <path d="M1.7,1.7 L0.85,1.7 C0.380558042,1.7 2.02655769e-07,1.31944196 2.02655769e-07,0.85 C2.02655769e-07,0.380558042 0.380558042,2.84217094e-14 0.85,2.84217094e-14 L1.7,2.84217094e-14 C2.16944204,2.84217094e-14 2.55,0.380557963 2.55,0.85 C2.55,1.31944204 2.16944204,1.7 1.7,1.7 L1.7,1.7 Z" id="Path_3329"></path>
                        </g>
                    </g>
                    <g id="Group_587" transform="translate(94.764000, 5.875000)" fill="#000000" fill-rule="nonzero">
                        <path d="M28.051,1.7 L26.351,1.7 C25.881558,1.7 25.501,1.31944204 25.501,0.85 C25.501,0.380557963 25.881558,0 26.351,0 L28.051,0 C28.520442,0 28.901,0.380557963 28.901,0.85 C28.901,1.31944204 28.520442,1.7 28.051,1.7 L28.051,1.7 Z M22.951,1.7 L21.251,1.7 C20.781558,1.7 20.401,1.31944204 20.401,0.85 C20.401,0.380557963 20.781558,0 21.251,0 L22.951,0 C23.420442,0 23.801,0.380557963 23.801,0.85 C23.801,1.31944204 23.420442,1.7 22.951,1.7 L22.951,1.7 Z M17.851,1.7 L16.151,1.7 C15.681558,1.7 15.301,1.31944204 15.301,0.85 C15.301,0.380557963 15.681558,0 16.151,0 L17.851,0 C18.320442,0 18.701,0.380557963 18.701,0.85 C18.701,1.31944204 18.320442,1.7 17.851,1.7 L17.851,1.7 Z M12.751,1.7 L11.051,1.7 C10.581558,1.7 10.201,1.31944204 10.201,0.85 C10.201,0.380557963 10.581558,0 11.051,0 L12.751,0 C13.220442,0 13.601,0.380557963 13.601,0.85 C13.601,1.31944204 13.220442,1.7 12.751,1.7 Z M7.651,1.7 L5.951,1.7 C5.48155796,1.7 5.101,1.31944204 5.101,0.85 C5.101,0.380557963 5.48155796,0 5.951,0 L7.651,0 C8.12044204,0 8.501,0.380557963 8.501,0.85 C8.501,1.31944204 8.12044204,1.7 7.651,1.7 Z M2.551,1.7 L0.851,1.7 C0.381557963,1.7 0.001,1.31944204 0.001,0.85 C0.001,0.380557963 0.381557963,0 0.851,0 L2.551,0 C3.02044204,0 3.401,0.380557963 3.401,0.85 C3.401,1.31944204 3.02044204,1.7 2.551,1.7 Z" id="Path_3330"></path>
                    </g>
                    <g id="Group_591" transform="translate(3.809000, 117.231000)" fill="#000000" fill-rule="nonzero">
                        <g id="Group_588" transform="translate(25.501000, 0.000000)">
                            <path d="M1.7,1.7 L0.85,1.7 C0.5463242,1.7 0.265716159,1.537991 0.113878238,1.27500006 C-0.0379596828,1.01200911 -0.0379596828,0.687990886 0.113878238,0.424999941 C0.265716159,0.162008997 0.5463242,-2.84217094e-14 0.85,-2.84217094e-14 L1.7,-2.84217094e-14 C2.16944204,-2.84217094e-14 2.55,0.380557963 2.55,0.85 C2.55,1.31944204 2.16944204,1.7 1.7,1.7 L1.7,1.7 Z" id="Path_3331"></path>
                        </g>
                        <g id="Group_589" transform="translate(5.100000, 0.000000)">
                            <path d="M17.851,1.7 L16.151,1.7 C15.681558,1.7 15.3010002,1.31944196 15.3010002,0.85 C15.3010002,0.380558042 15.681558,-2.84217094e-14 16.151,-2.84217094e-14 L17.851,-2.84217094e-14 C18.320442,-2.84217094e-14 18.701,0.380557963 18.701,0.85 C18.701,1.31944204 18.320442,1.7 17.851,1.7 L17.851,1.7 Z M12.751,1.7 L11.051,1.7 C10.7473242,1.7 10.4667162,1.537991 10.3148782,1.27500006 C10.1630403,1.01200911 10.1630403,0.687990886 10.3148782,0.424999941 C10.4667162,0.162008997 10.7473242,-2.84217094e-14 11.051,-2.84217094e-14 L12.751,-2.84217094e-14 C13.220442,-2.84217094e-14 13.601,0.380557963 13.601,0.85 C13.601,1.31944204 13.220442,1.7 12.751,1.7 L12.751,1.7 Z M7.651,1.7 L5.951,1.7 C5.6473242,1.7 5.36671616,1.537991 5.21487824,1.27500006 C5.06304032,1.01200911 5.06304032,0.687990886 5.21487824,0.424999941 C5.36671616,0.162008997 5.6473242,-2.84217094e-14 5.951,-2.84217094e-14 L7.651,-2.84217094e-14 C8.12044204,-2.84217094e-14 8.501,0.380557963 8.501,0.85 C8.501,1.31944204 8.12044204,1.7 7.651,1.7 L7.651,1.7 Z M2.551,1.7 L0.851,1.7 C0.5473242,1.7 0.266716159,1.537991 0.114878238,1.27500006 C-0.0369596828,1.01200911 -0.0369596828,0.687990886 0.114878238,0.424999941 C0.266716159,0.162008997 0.5473242,-2.84217094e-14 0.851,-2.84217094e-14 L2.551,-2.84217094e-14 C3.02044204,-2.84217094e-14 3.401,0.380557963 3.401,0.85 C3.401,1.31944204 3.02044204,1.7 2.551,1.7 L2.551,1.7 Z" id="Path_3332"></path>
                        </g>
                        <g id="Group_590">
                            <path d="M1.7,1.7 L0.85,1.7 C0.5463242,1.7 0.265716159,1.537991 0.113878238,1.27500006 C-0.0379596828,1.01200911 -0.0379596828,0.687990886 0.113878238,0.424999941 C0.265716159,0.162008997 0.5463242,-2.84217094e-14 0.85,-2.84217094e-14 L1.7,-2.84217094e-14 C2.16944204,-2.84217094e-14 2.55,0.380557963 2.55,0.85 C2.55,1.31944204 2.16944204,1.7 1.7,1.7 L1.7,1.7 Z" id="Path_3333"></path>
                        </g>
                    </g>
                    <g id="Group_594" transform="translate(255.286000, 74.233000)" fill="#FFCA40" fill-rule="nonzero">
                        <g id="Group_592">
                            <path d="M5.236,6.086 C5.01087701,6.08593297 4.79501966,5.99635217 4.636,5.837 L1.25,2.451 C1.01407891,2.2413353 0.913757145,1.91821041 0.989449851,1.61179784 C1.06514256,1.30538527 1.30438527,1.06614256 1.61079784,0.990449851 C1.91721041,0.914757145 2.2403353,1.01507891 2.45,1.251 L5.836,4.637 C6.07893571,4.87996811 6.15170595,5.24529732 6.02041259,5.56280844 C5.88911922,5.88031957 5.57958561,6.08756311 5.236,6.088 L5.236,6.086 Z" id="Path_3334"></path>
                        </g>
                        <g id="Group_593" transform="translate(1.000000, 0.000000)">
                            <path d="M0.85,6.086 C0.50641439,6.08556311 0.196880779,5.87831957 0.0655874129,5.56080844 C-0.0657059534,5.24329732 0.00706428887,4.87796811 0.25,4.635 L3.636,1.249 C3.8456647,1.01307891 4.16878959,0.912757145 4.47520216,0.988449851 C4.78161473,1.06414256 5.02085744,1.30338527 5.09655015,1.60979784 C5.17224285,1.91621041 5.07192109,2.2393353 4.836,2.449 L1.45,5.835 C1.29156201,5.99546124 1.07550029,6.08584706 0.85,6.086 Z" id="Path_3335"></path>
                        </g>
                    </g>
                    <g id="Group_597" transform="translate(169.432000, 11.330000)" fill="#FFCA40" fill-rule="nonzero">
                        <g id="Group_595">
                            <path d="M5.236,6.086 C5.01087701,6.08593297 4.79501966,5.99635217 4.636,5.837 L1.25,2.451 C1.01407891,2.2413353 0.913757145,1.91821041 0.989449851,1.61179784 C1.06514256,1.30538527 1.30438527,1.06614256 1.61079784,0.990449851 C1.91721041,0.914757145 2.2403353,1.01507891 2.45,1.251 L5.836,4.637 C6.07893571,4.87996811 6.15170595,5.24529732 6.02041259,5.56280844 C5.88911922,5.88031957 5.57958561,6.08756311 5.236,6.088 L5.236,6.086 Z" id="Path_3336"></path>
                        </g>
                        <g id="Group_596" transform="translate(1.000000, 1.000000)">
                            <path d="M0.85,5.086 C0.50641439,5.08556311 0.196880779,4.87831957 0.0655874129,4.56080844 C-0.0657059534,4.24329732 0.00706428887,3.87796811 0.25,3.635 L3.636,0.249 C3.97238067,-0.0499438145 4.48347216,-0.0348986855 4.80168542,0.283314575 C5.11989869,0.601527836 5.13494381,1.11261933 4.836,1.449 L1.45,4.835 C1.29156201,4.99546124 1.07550029,5.08584706 0.85,5.086 L0.85,5.086 Z" id="Path_3337"></path>
                        </g>
                    </g>
                    <g id="Group_600" transform="translate(24.224000, 128.786000)" fill="#FFCA40" fill-rule="nonzero">
                        <g id="Group_598">
                            <path d="M4.236,5.086 C4.01087701,5.08593297 3.79501966,4.99635217 3.636,4.837 L0.25,1.451 C-0.0489438145,1.11461933 -0.0338986855,0.603527836 0.284314575,0.285314575 C0.602527836,-0.0328986855 1.11361933,-0.0479438145 1.45,0.251 L4.836,3.637 C5.07893571,3.87996811 5.15170595,4.24529732 5.02041259,4.56280844 C4.88911922,4.88031957 4.57958561,5.08756311 4.236,5.088 L4.236,5.086 Z" id="Path_3338"></path>
                        </g>
                        <g id="Group_599">
                            <path d="M0.85,5.086 C0.50641439,5.08556311 0.196880779,4.87831957 0.0655874129,4.56080844 C-0.0657059534,4.24329732 0.00706428887,3.87796811 0.25,3.635 L3.636,0.249 C3.97238067,-0.0499438145 4.48347216,-0.0348986855 4.80168542,0.283314575 C5.11989869,0.601527836 5.13494381,1.11261933 4.836,1.449 L1.45,4.835 C1.29156201,4.99546124 1.07550029,5.08584706 0.85,5.086 Z" id="Path_3339"></path>
                        </g>
                    </g>
                    <g id="Group_603" transform="translate(94.778000, 31.031000)" fill="#FFCA40" fill-rule="nonzero">
                        <g id="Group_601">
                            <path d="M4.236,5.086 C4.01087701,5.08593297 3.79501966,4.99635217 3.636,4.837 L0.25,1.451 C-0.0489438145,1.11461933 -0.0338986855,0.603527836 0.284314575,0.285314575 C0.602527836,-0.0328986855 1.11361933,-0.0479438145 1.45,0.251 L4.836,3.637 C5.07893571,3.87996811 5.15170595,4.24529732 5.02041259,4.56280844 C4.88911922,4.88031957 4.57958561,5.08756311 4.236,5.088 L4.236,5.086 Z" id="Path_3340"></path>
                        </g>
                        <g id="Group_602">
                            <path d="M0.85,5.086 C0.50641439,5.08556311 0.196880779,4.87831957 0.0655874129,4.56080844 C-0.0657059534,4.24329732 0.00706428887,3.87796811 0.25,3.635 L3.636,0.249 C3.97238067,-0.0499438145 4.48347216,-0.0348986855 4.80168542,0.283314575 C5.11989869,0.601527836 5.13494381,1.11261933 4.836,1.449 L1.45,4.835 C1.29156201,4.99546124 1.07550029,5.08584706 0.85,5.086 Z" id="Path_3341"></path>
                        </g>
                    </g>
                    <g id="Group_633" transform="translate(30.163000, 53.401000)" fill-rule="nonzero">
                        <g id="Group_606" transform="translate(136.007000, 7.800000)" fill="#D1D1D1">
                            <g id="Group_604">
                                <path d="M60.277,22.101 L51.564,22.101 C50.5956787,22.0681131 49.6809263,21.6485363 49.0243011,20.9360961 C48.367676,20.2236559 48.0239544,19.2777848 48.07,18.31 C48.0596825,17.3189077 48.4276819,16.3611793 49.099,15.632 C49.7169441,14.9076623 50.6123079,14.4783236 51.564,14.45 L56.205,14.45 C58.4665576,14.4837545 60.377877,12.7813772 60.605,10.531 C60.6955808,9.3377546 60.2801002,8.16143509 59.4601882,7.28977928 C58.6402763,6.41812347 57.4915509,5.93152136 56.295,5.949 L37.827,5.949 C37.592279,5.94899994 37.4020001,5.75872098 37.4020001,5.524 C37.4020001,5.28927902 37.592279,5.09900006 37.827,5.099 L38.252,5.104 L38.252,5.099 L45.273,5.099 C46.6931164,5.12247075 47.8768942,4.01737576 47.951,2.599 C47.9612074,1.90321833 47.6880672,1.23319286 47.1943279,0.742848253 C46.7005886,0.252503649 46.0286947,-0.0160074128 45.333,-0.001 L30.984,-0.001 C30.6504538,0.00157266844 30.3319371,0.138093444 30.1000596,0.37786944 C29.8681821,0.617645437 29.742403,0.940554666 29.751,1.274 L29.751,3.595 C29.751,5.312 28.476,5.95 27.022,5.95 L19.117,5.95 C17.663,5.95 17,5.1 17,3.383 L17,1.275 C17.0005319,0.936686183 16.8663728,0.612075784 16.6271485,0.372851494 C16.3879242,0.133627204 16.0633138,-0.000531940951 15.725,-5.68427683e-14 L9.469,-5.68427683e-14 C8.015,-5.68427683e-14 7.65,0.621 7.65,2.346 L7.65,10.2 L2.45,10.2 C0.996,10.2 0.002,11.866 0.002,13.583 L0.002,20.868 C0.002,22.585 0.997,23.801 2.45,23.801 L7.65,23.801 L7.65,31.417 C7.65,33.134 8.016,34.8510016 9.469,34.8510016 L15.725,34.8510016 C16.0633138,34.8515319 16.3879242,34.7173728 16.6271485,34.4781485 C16.8663728,34.2389242 17.0005319,33.9143138 17,33.576 L17,30.201 C17,28.484 17.587,28.901 19.04,28.901 L26.996,28.901 C28.458,28.901 29.75,28.484 29.75,30.201 L29.75,33.576 C29.7494681,33.9143138 29.8836272,34.2389242 30.1228515,34.4781485 C30.3620758,34.7173728 30.6866862,34.8515319 31.025,34.8510016 L41.778,34.8510016 C43.1152727,34.8487978 44.1987978,33.7652727 44.201,32.428 L44.201,32.283 C44.1977012,30.8854314 43.0655686,29.7532988 41.668,29.75 L39.526,29.75 C38.8218369,29.75 38.251,29.1791631 38.251,28.475 C38.251,27.7708369 38.8218369,27.2 39.526,27.2 L60.208,27.2 C61.6336392,27.3081664 62.8791198,26.2449512 62.9965807,24.82 C63.011143,24.09434 62.7295431,23.3939185 62.2163123,22.8806877 C61.7030815,22.3674569 61.00266,22.085857 60.277,22.101 Z" id="Path_3342"></path>
                            </g>
                            <g id="Group_605" transform="translate(58.900000, 17.001000)">
                                <path d="M6.665,0 L1.517,0 C0.68,0 0,0.437 0,1.275 C0,2.113 0.679,2.55 1.517,2.55 L6.665,2.55 C7.502,2.55 8.182,2.112 8.182,1.275 C8.182,0.438 7.502,0 6.665,0 Z" id="Path_3343"></path>
                            </g>
                        </g>
                        <g id="Group_611" transform="translate(135.156000, 6.950000)" fill="#393939">
                            <g id="Group_607">
                                <path d="M42.631,36.552 L31.877,36.552 C30.70408,36.5503476 29.7536524,35.59992 29.752,34.427 L29.752,31.052 C29.7682192,30.9035375 29.7447541,30.7534299 29.684,30.617 C29.3325853,30.5453311 28.9717911,30.5318182 28.616,30.577 C28.369,30.59 28.11,30.602 27.847,30.602 L19.891,30.602 C19.608,30.602 19.355,30.588 19.132,30.575 C18.999,30.567 18.844,30.558 18.732,30.557 C18.7103523,30.7227484 18.7009934,30.889871 18.704,31.057 L18.704,34.432 C18.7023476,35.60492 17.75192,36.5553476 16.579,36.557 L10.323,36.557 C9.323,36.557 7.654,36 7.654,32.273 L7.654,25.507 L3.302,25.507 C1.391,25.507 0.002,23.916 0.002,21.724 L0.002,14.439 C0.002,12.358 1.235,10.206 3.302,10.206 L7.654,10.206 L7.654,3.206 C7.654,1.546 7.977,0.006 10.323,0.006 L16.579,0.006 C17.75192,0.0076523903 18.7023476,0.958080031 18.704,2.131 L18.704,4.239 C18.704,5.825 19.304,5.956 19.971,5.956 L27.876,5.956 C29.755,5.956 29.755,4.824 29.755,4.456 L29.755,2.135 C29.7434364,1.57523354 29.9578115,1.03440041 30.3497397,0.634569748 C30.7416678,0.234739091 31.2781142,0.00961165597 31.838,0.01 L36.981,0.01 L36.981,1.71 L31.836,1.71 C31.7284166,1.71435998 31.6271341,1.76190803 31.5550535,1.84189295 C31.482973,1.92187787 31.4461822,2.02754439 31.453,2.135 L31.453,4.456 C31.453,6.432 30.082,7.656 27.874,7.656 L19.969,7.656 C18.861,7.656 17.002,7.212 17.002,4.239 L17.002,2.131 C17.002,1.89627898 16.811721,1.706 16.577,1.706 L10.321,1.706 C9.558,1.706 9.352,1.706 9.352,3.206 L9.352,11.906 L3.3,11.906 C2.449,11.906 1.7,13.09 1.7,14.439 L1.7,21.724 C1.7,22.761 2.194,23.807 3.3,23.807 L9.352,23.807 L9.352,32.268 C9.352,33.233 9.478,34.852 10.321,34.852 L16.577,34.852 C16.689717,34.852 16.7978174,34.8072233 16.8775204,34.7275204 C16.9572233,34.6478174 17.002,34.539717 17.002,34.427 L17.002,31.052 C16.9259651,30.4053699 17.1206801,29.7560789 17.54,29.258 C18.0222092,28.8919512 18.6392961,28.7526325 19.232,28.876 C19.427,28.887 19.646,28.901 19.892,28.901 L27.848,28.901 C28.083,28.901 28.313,28.889 28.533,28.878 C29.3452476,28.7158127 30.1883295,28.8999424 30.859,29.386 C31.2833741,29.8316732 31.4988761,30.4363872 31.452,31.05 L31.452,34.425 C31.452,34.659721 31.642279,34.85 31.877,34.85 L42.63,34.85 C43.4985153,34.8494484 44.2024484,34.1455153 44.203,33.277 L44.203,33.132 C44.2018979,32.2029616 43.4490384,31.4501021 42.52,31.449 L40.376,31.449 C39.2023949,31.449 38.251,30.4976051 38.251,29.324 C38.251,28.1503949 39.2023949,27.199 40.376,27.199 L45.689,27.199 L45.689,28.899 L40.376,28.899 C40.141279,28.899 39.951,29.089279 39.951,29.324 C39.951,29.558721 40.141279,29.749 40.376,29.749 L42.518,29.749 C44.3854656,29.7512042 45.8987958,31.2645344 45.9010002,33.132 L45.9010002,33.277 C45.9015533,35.0840097 44.4380085,36.5497924 42.631,36.552 L42.631,36.552 Z" id="Path_3344"></path>
                            </g>
                            <g id="Group_608" transform="translate(36.403000, 0.000000)">
                                <path d="M4.772,7.65 L2.272,7.65 C1.6500123,7.65127542 1.11787577,7.20356804 1.01273407,6.59053007 C0.907592367,5.97749211 1.26013377,5.37805425 1.847,5.172 L1.847,5.104 L2.184,5.104 L2.272,5.104 L2.415,5.104 L9.715,5.104 C10.669077,5.12155908 11.4710635,4.39152315 11.543,3.44 C11.5547669,2.98933137 11.3833904,2.55313289 11.068,2.231 C10.7254645,1.88851475 10.259352,1.69853694 9.775,1.704 L6.481,1.704 L6.481,0.004 L9.775,0.004 C10.7158615,-0.00375096008 11.6198125,0.36958872 12.281,1.039 C12.9168448,1.68573442 13.2638585,2.56228676 13.243,3.469 C13.1636061,5.35237501 11.5998604,6.83057567 9.715,6.804 L4.766,6.804 L4.766,7.654 L4.772,7.65 Z" id="Path_3345"></path>
                            </g>
                            <g id="Group_609" transform="translate(47.071000, 5.951000)">
                                <path d="M13.985,22.95 L13.985,21.25 C14.4520064,21.2988814 14.9192411,21.1596586 15.2833267,20.8631353 C15.6474123,20.566612 15.8783341,20.137233 15.925,19.67 C15.9491318,19.2219585 15.7853167,18.7841518 15.473,18.462 C15.1040207,18.0713294 14.5903725,17.8499543 14.053,17.85 L5.34,17.85 C4.14461769,17.8220855 3.01071102,17.3144969 2.19361178,16.4415324 C1.37651255,15.568568 0.944912918,14.4036163 0.996,13.209 C0.988447061,12.0081589 1.43410885,10.8486526 2.244,9.962 C3.02518113,9.05977971 4.15091644,8.52923155 5.344,8.501 L9.985,8.501 C11.8046389,8.54011013 13.3505741,7.17806995 13.541,5.368 C13.6180841,4.42704984 13.2962186,3.49701474 12.654,2.805 C11.9849921,2.09762201 11.0526133,1.69932426 10.079,1.705 L5.208,1.705 L5.208,0.0049852048 L10.079,0.0049852048 C11.5257095,0.00156072647 12.9091423,0.597874216 13.9,1.652 C14.8660486,2.68927178 15.3509622,4.0852133 15.236,5.498 C14.9747901,8.19314867 12.6925645,10.2389373 9.985,10.205 L5.345,10.205 C4.6345237,10.234606 3.96911684,10.5611415 3.511,11.105 C2.9822104,11.6786837 2.69278247,12.432842 2.702,13.213 C2.65648568,13.9551291 2.91079898,14.684465 3.40788865,15.2373927 C3.90497831,15.7903203 4.60322936,16.1205501 5.346,16.154 L14.059,16.154 C15.0652038,16.154704 16.0266623,16.5699615 16.717,17.302 C17.352153,17.9640327 17.6820227,18.8612058 17.627,19.777 C17.4804373,21.6503822 15.8607985,23.0614514 13.985,22.95 Z" id="Path_3346"></path>
                            </g>
                            <g id="Group_610" transform="translate(57.901000, 16.001000)">
                                <path d="M8.515,5.25 L3.367,5.25 C2.55168562,5.34032241 1.75657825,4.95619878 1.32058359,4.26135756 C0.88458893,3.56651633 0.88458893,2.68348367 1.32058359,1.98864244 C1.75657825,1.29380122 2.55168562,0.909677592 3.367,1 L8.515,1 C9.33031438,0.909677592 10.1254217,1.29380122 10.5614164,1.98864244 C10.9974111,2.68348367 10.9974111,3.56651633 10.5614164,4.26135756 C10.1254217,4.95619878 9.33031438,5.34032241 8.515,5.25 L8.515,5.25 Z M3.367,2.7 C3.067,2.7 2.7,2.774 2.7,3.125 C2.7,3.476 3.063,3.55 3.367,3.55 L8.515,3.55 C8.815,3.55 9.182,3.476 9.182,3.125 C9.182,2.774 8.819,2.7 8.515,2.7 L3.367,2.7 Z" id="Path_3347"></path>
                            </g>
                        </g>
                        <g id="Group_612" transform="translate(187.860000, 39.252000)" fill="#393939">
                            <path d="M5.95,1.7 L0.85,1.7 C0.380557963,1.7 -5.68434189e-14,1.31944204 -5.68434189e-14,0.85 C-5.68434189e-14,0.380557963 0.380557963,2.84217094e-14 0.85,2.84217094e-14 L5.95,2.84217094e-14 C6.41944204,2.84217094e-14 6.8,0.380557963 6.8,0.85 C6.8,1.31944204 6.41944204,1.7 5.95,1.7 Z" id="Path_3348"></path>
                        </g>
                        <g id="Group_613" transform="translate(205.710000, 29.901000)" fill="#393939">
                            <path d="M4.25,1.7 L0.85,1.7 C0.380557963,1.7 5.68434189e-14,1.31944204 5.68434189e-14,0.85 C5.68434189e-14,0.380557963 0.380557963,2.84217094e-14 0.85,2.84217094e-14 L4.25,2.84217094e-14 C4.71944204,2.84217094e-14 5.1,0.380557963 5.1,0.85 C5.1,1.31944204 4.71944204,1.7 4.25,1.7 Z" id="Path_3349"></path>
                        </g>
                        <g id="Group_614" transform="translate(193.810000, 9.500000)" fill="#393939">
                            <path d="M4.25,1.7 L0.85,1.7 C0.380558019,1.7 1.43299303e-07,1.31944198 1.43299303e-07,0.85 C1.43299303e-07,0.380558019 0.380558019,2.84217094e-14 0.85,2.84217094e-14 L4.25,2.84217094e-14 C4.71944198,2.84217094e-14 5.09999986,0.380558019 5.09999986,0.85 C5.09999986,1.31944198 4.71944198,1.7 4.25,1.7 L4.25,1.7 Z" id="Path_3350"></path>
                        </g>
                        <g id="Group_617" transform="translate(13.026000, 0.850000)">
                            <g id="Group_615" transform="translate(0.000000, 21.401000)" fill="#EAF5FE">
                                <path d="M8.182,2.125 C8.19364391,1.00859935 7.33282118,0.076735721 6.219,0 L1.964,0 C0.857110159,0.0899179324 0.00462386857,1.01446393 0.00462386857,2.125 C0.00462386857,3.23553607 0.857110159,4.16008207 1.964,4.25 L6.219,4.25 C7.33282118,4.17326428 8.19364391,3.24140065 8.182,2.125 Z" id="Path_3351"></path>
                            </g>
                            <g id="Group_616" transform="translate(3.973000, 0.000000)" fill="#D1D1D1">
                                <path d="M53.013,18.001 L56.955,18.001 L56.955,10.788 C56.955,9.278 55.669,8.65 54.013,8.65 L45.904,8.65 L45.904,3.5 C45.9563295,2.8095325 45.699636,2.13143156 45.2031948,1.64869991 C44.7067535,1.16596826 44.0217318,0.928360094 43.333,1 L34.333,1 C33.6128104,0.920474095 32.8921037,1.1450814 32.3446064,1.61968034 C31.7971091,2.09427928 31.4724905,2.77581377 31.449,3.5 L31.449,8.65 L21.33,8.65 C20.6962843,8.60481357 20.0719498,8.82273888 19.6040027,9.25246305 C19.1360556,9.68218722 18.8658468,10.285737 18.857,10.921 C18.857,11.871 19.399,12.9 20.186,12.9 L2.902,12.9 C1.30350115,12.9758334 0.0364651061,14.2760745 0.002,15.876 L0.002,15.964 C0.0432648407,17.5460677 1.31976286,18.8168435 2.902,18.851 L11.537,18.851 C12.5008448,18.8720513 13.415384,19.2812746 14.073344,19.9859224 C14.731304,20.6905703 15.0769703,21.6309748 15.032,22.594 C15.0420055,23.5908707 14.6760274,24.5549103 14.007,25.294 C13.3912508,26.0273367 12.4948111,26.4670241 11.538,26.505 L6.807,26.505 C5.26664317,26.471583 3.82877608,27.2742403 3.04878925,28.6029376 C2.26880243,29.9316349 2.26880243,31.5783651 3.04878925,32.9070624 C3.82877608,34.2357597 5.26664317,35.038417 6.807,35.005 L14.289,35.005 C13.912,35.005 13.676,36.017 13.676,36.652 C13.6759795,37.3450421 13.952651,38.0094114 14.4445798,38.497585 C14.9365086,38.9857586 15.6029784,39.2573311 16.296,39.252 L31.452,39.252 L31.452,43.352 C31.4635435,44.0966381 31.7770377,44.8046531 32.3206087,45.3137206 C32.8641797,45.8227882 33.5912043,46.0892445 34.335,46.052 L43.335,46.052 C44.075942,46.0559894 44.786133,45.7560889 45.2999543,45.2222363 C45.8137756,44.6883837 46.0863094,43.9672479 46.054,43.227 L46.054,39.251 L54.016,39.251 C55.6695017,39.1061512 56.9417694,37.7277889 56.954,36.068 L56.954,29.547 L53.031,29.547 C51.377,29.547 49.304,28.467 49.304,26.956 L49.304,20.812 C49.304,19.301 51.358,18.001 53.013,18.001 Z" id="Path_3352"></path>
                            </g>
                        </g>
                        <g id="Group_620" transform="translate(12.176000, 0.000000)" fill="#393939">
                            <g id="Group_618" transform="translate(0.000000, 21.401000)">
                                <path d="M7.069,5.95 L2.811,5.95 C1.23486734,5.85858201 0.00355433927,4.55378162 0.00355433927,2.975 C0.00355433927,1.39621838 1.23486734,0.0914179932 2.811,0 L7.066,0 C8.64213266,0.0914179932 9.87344566,1.39621838 9.87344566,2.975 C9.87344566,4.55378162 8.64213266,5.85858201 7.066,5.95 L7.069,5.95 Z M2.814,1.7 C2.1769607,1.78760648 1.70233967,2.33196503 1.70233967,2.975 C1.70233967,3.61803497 2.1769607,4.16239352 2.814,4.25 L7.069,4.25 C7.7060393,4.16239352 8.18066033,3.61803497 8.18066033,2.975 C8.18066033,2.33196503 7.7060393,1.78760648 7.069,1.7 L2.814,1.7 Z" id="Path_3353"></path>
                            </g>
                            <g id="Group_619" transform="translate(3.975000, 0.000000)">
                                <path d="M44.181,47.752 L35.181,47.752 C34.2123674,47.7859649 33.2708218,47.4286771 32.5685691,46.7606623 C31.8663163,46.0926474 31.4624523,45.1701202 31.448,44.201 L31.448,40.951 L20.401,40.951 L20.401,39.251 L32.301,39.251 C32.770442,39.251 33.151,39.631558 33.151,40.101 L33.151,44.201 C33.1645258,44.7197783 33.389112,45.2105846 33.7728424,45.5599623 C34.1565729,45.9093401 34.6662301,46.0870457 35.184,46.052 L44.184,46.052 C44.6988922,46.0537072 45.1916062,45.8425827 45.5455176,45.4685992 C45.899429,45.0946158 46.0830798,44.5910156 46.053,44.077 L46.053,40.102 C46.0527346,39.8763928 46.1421707,39.659935 46.3016054,39.5003127 C46.4610401,39.3406904 46.6773926,39.2509998 46.903,39.251 L54.865,39.251 C56.0489508,39.1049016 56.9424531,38.105854 56.956,36.913 L56.956,31.242 L53.883,31.242 C51.718,31.242 49.306,29.828 49.306,27.801 L49.306,21.657 C49.306,19.63 51.8,17.998 53.865,17.998 L56.957,17.998 L56.957,11.638 C56.957,10.784 56.257,10.35 54.865,10.35 L46.756,10.35 C46.286558,10.35 45.906,9.96944204 45.906,9.5 L45.906,4.35 C45.906,3.255 45.327,2.7 44.185,2.7 L35.185,2.7 C34.247,2.7 33.151,3.133 33.151,4.351 L33.151,9.501 C33.151,9.97044204 32.770442,10.351 32.301,10.351 L23.801,10.351 L23.801,8.651 L31.451,8.651 L31.451,4.351 C31.4723818,3.40100885 31.885656,2.50214822 32.5928611,1.86748187 C33.3000661,1.23281552 34.2382399,0.918847491 35.185,1 L44.185,1 C45.1002853,0.926633843 46.0024723,1.2533669 46.6585248,1.89580361 C47.3145774,2.53824031 47.660157,3.43337747 47.606,4.35 L47.606,8.65 L54.865,8.65 C57.204,8.65 58.657,9.795 58.657,11.638 L58.657,18.851 C58.657,19.320442 58.276442,19.701 57.807,19.701 L53.865,19.701 C52.556,19.701 51.006,20.763 51.006,21.659 L51.006,27.803 C51.006,28.724 52.615,29.544 53.883,29.544 L57.806,29.544 C58.275442,29.544 58.656,29.924558 58.656,30.394 L58.656,36.915 C58.637507,39.0431734 56.9877753,40.8003922 54.865,40.953 L47.754,40.953 L47.754,44.079 C47.7889756,45.0460484 47.4271082,45.9853629 46.752362,46.6789936 C46.0776159,47.3726243 45.1486453,47.7602755 44.181,47.752 Z M7.656,36.701 C4.83934778,36.701 2.556,34.4176522 2.556,31.601 C2.556,28.7843478 4.83934778,26.501 7.656,26.501 L12.39,26.501 C13.105991,26.4625256 13.772898,26.1250808 14.228,25.571 C14.754576,24.9881099 15.0426485,24.2284836 15.035,23.443 C15.0743732,22.7071263 14.8165372,21.9862734 14.3193874,21.4423043 C13.8222376,20.8983352 13.1274374,20.5768369 12.391,20.55 L8.5,20.55 L8.5,18.85 L12.391,18.85 C13.580248,18.8709138 14.7110281,19.36961 15.5284324,20.2336694 C16.3458366,21.0977287 16.781063,22.254422 16.736,23.443 C16.7456172,24.6486733 16.3019831,25.8139714 15.493,26.708 C14.7162519,27.6203092 13.5905641,28.1624549 12.393,28.201 L7.659,28.201 C5.78123185,28.201 4.259,29.7232319 4.259,31.601 C4.259,33.4787681 5.78123185,35.001 7.659,35.001 L7.656,36.701 Z M1.193,19.439 C0.460777433,18.7579837 0.0312315877,17.8124787 2.84217094e-14,16.813 L2.84217094e-14,16.725 C0.032276352,14.6540143 1.6820395,12.9717131 3.752,12.899 L17.001,12.899 L17.001,14.599 L3.752,14.599 C2.62306786,14.6745582 1.73553244,15.5941002 1.7,16.725 L1.7,16.813 C1.73680821,17.3582092 1.9846873,17.867599 2.391,18.233 L1.193,19.439 Z" id="Path_3354"></path>
                            </g>
                        </g>
                        <g id="Group_621" transform="translate(27.201000, 6.100000)" fill="#393939">
                            <path d="M7.65,1.7 L0.85,1.7 C0.546324214,1.7 0.265716195,1.53799098 0.113878287,1.27500004 C-0.0379596202,1.01200911 -0.0379596202,0.687990895 0.113878287,0.424999959 C0.265716195,0.162009022 0.546324214,0 0.85,0 L7.65,0 C7.95367579,0 8.23428381,0.162009022 8.38612171,0.424999959 C8.53795962,0.687990895 8.53795962,1.01200911 8.38612171,1.27500004 C8.23428381,1.53799098 7.95367579,1.7 7.65,1.7 Z" id="Path_3355"></path>
                        </g>
                        <g id="Group_622" transform="translate(16.151000, 40.102000)" fill="#393939">
                            <path d="M5.95,1.7 L0.85,1.7 C0.380558019,1.7 1.43299289e-07,1.31944198 1.43299289e-07,0.85 C1.43299289e-07,0.380558019 0.380558019,0 0.85,0 L5.95,0 C6.25367579,0 6.53428381,0.162009022 6.68612171,0.424999959 C6.83795962,0.687990895 6.83795962,1.01200911 6.68612171,1.27500004 C6.53428381,1.53799098 6.25367579,1.7 5.95,1.7 Z" id="Path_3356"></path>
                        </g>
                        <g id="Group_623" transform="translate(0.000000, 29.051000)" fill="#393939">
                            <path d="M6.8,1.7 L0.85,1.7 C0.380557963,1.7 0,1.31944204 0,0.85 C0,0.380557963 0.380557963,2.84217094e-14 0.85,2.84217094e-14 L6.8,2.84217094e-14 C7.26944204,2.84217094e-14 7.65,0.380557963 7.65,0.85 C7.65,1.31944204 7.26944204,1.7 6.8,1.7 Z" id="Path_3357"></path>
                        </g>
                        <g id="Group_624" transform="translate(5.100000, 16.301000)" fill="#393939">
                            <path d="M5.95,1.7 L0.85,1.7 C0.546324214,1.7 0.265716195,1.53799098 0.113878287,1.27500004 C-0.0379596202,1.01200911 -0.0379596202,0.687990895 0.113878287,0.424999959 C0.265716195,0.162009022 0.546324214,0 0.85,0 L5.95,0 C6.25367579,0 6.53428381,0.162009022 6.68612171,0.424999959 C6.83795962,0.687990895 6.83795962,1.01200911 6.68612171,1.27500004 C6.53428381,1.53799098 6.25367579,1.7 5.95,1.7 Z" id="Path_3358"></path>
                        </g>
                        <g id="Group_628" transform="translate(113.056000, 42.652000)" fill="#000000">
                            <g id="Group_625" transform="translate(0.850000, 2.550000)">
                                <path d="M22.951,1.7 L21.251,1.7 C20.781558,1.7 20.401,1.31944204 20.401,0.85 C20.401,0.380557963 20.781558,0 21.251,0 L22.951,0 C23.420442,0 23.801,0.380557963 23.801,0.85 C23.801,1.31944204 23.420442,1.7 22.951,1.7 Z M17.851,1.7 L16.151,1.7 C15.681558,1.7 15.301,1.31944204 15.301,0.85 C15.301,0.380557963 15.681558,0 16.151,0 L17.851,0 C18.320442,0 18.701,0.380557963 18.701,0.85 C18.701,1.31944204 18.320442,1.7 17.851,1.7 L17.851,1.7 Z M12.751,1.7 L11.051,1.7 C10.581558,1.7 10.201,1.31944204 10.201,0.85 C10.201,0.380557963 10.581558,0 11.051,0 L12.751,0 C13.220442,0 13.601,0.380557963 13.601,0.85 C13.601,1.31944204 13.220442,1.7 12.751,1.7 L12.751,1.7 Z M7.651,1.7 L5.951,1.7 C5.48155796,1.7 5.101,1.31944204 5.101,0.85 C5.101,0.380557963 5.48155796,0 5.951,0 L7.651,0 C8.12044204,0 8.501,0.380557963 8.501,0.85 C8.501,1.31944204 8.12044204,1.7 7.651,1.7 L7.651,1.7 Z M2.551,1.7 L0.851,1.7 C0.381557963,1.7 0.001,1.31944204 0.001,0.85 C0.001,0.380557963 0.381557963,0 0.851,0 L2.551,0 C3.02044204,0 3.401,0.380557963 3.401,0.85 C3.401,1.31944204 3.02044204,1.7 2.551,1.7 Z" id="Path_3359"></path>
                            </g>
                            <g id="Group_626">
                                <polygon id="Path_3360" points="5.808 6.8 2.665 3.4 5.808 0 3.141 0 -0.001 3.4 3.141 6.8"></polygon>
                            </g>
                        </g>
                        <g id="Group_632" transform="translate(77.354000, 42.652000)" fill="#000000">
                            <g id="Group_629" transform="translate(0.000000, 2.550000)">
                                <path d="M22.951,1.7 L21.251,1.7 C20.781558,1.7 20.401,1.31944204 20.401,0.85 C20.401,0.380557963 20.781558,0 21.251,0 L22.951,0 C23.420442,0 23.801,0.380557963 23.801,0.85 C23.801,1.31944204 23.420442,1.7 22.951,1.7 Z M17.851,1.7 L16.151,1.7 C15.681558,1.7 15.301,1.31944204 15.301,0.85 C15.301,0.380557963 15.681558,0 16.151,0 L17.851,0 C18.320442,0 18.701,0.380557963 18.701,0.85 C18.701,1.31944204 18.320442,1.7 17.851,1.7 Z M12.751,1.7 L11.051,1.7 C10.581558,1.7 10.201,1.31944204 10.201,0.85 C10.201,0.380557963 10.581558,0 11.051,0 L12.751,0 C13.220442,0 13.601,0.380557963 13.601,0.85 C13.601,1.31944204 13.220442,1.7 12.751,1.7 Z M7.651,1.7 L5.951,1.7 C5.48155796,1.7 5.101,1.31944204 5.101,0.85 C5.101,0.380557963 5.48155796,0 5.951,0 L7.651,0 C8.12044204,0 8.501,0.380557963 8.501,0.85 C8.501,1.31944204 8.12044204,1.7 7.651,1.7 Z M2.551,1.7 L0.851,1.7 C0.381557963,1.7 0.001,1.31944204 0.001,0.85 C0.001,0.380557963 0.381557963,0 0.851,0 L2.551,0 C3.02044204,0 3.401,0.380557963 3.401,0.85 C3.401,1.31944204 3.02044204,1.7 2.551,1.7 Z" id="Path_3361"></path>
                            </g>
                            <g id="Group_630" transform="translate(18.842000, 0.000000)">
                                <polygon id="Path_3362" points="0 0 3.143 3.4 0 6.8 2.669 6.8 5.811 3.4 2.669 0"></polygon>
                            </g>
                        </g>
                    </g>
                    <g id="Group_663" transform="translate(111.734000, 17.743000)">
                        <g id="Group_646" fill-rule="nonzero">
                            <g id="Group_634" transform="translate(0.849000, 0.851000)" fill="#FFFFFF">
                                <path d="M23.21,0 L22.845,0 C10.208,0.127 -1.08420217e-18,10.874 -1.08420217e-18,24.127 C-0.0535436292,28.4537203 1.0727932,32.7132648 3.258,36.448 C8.64,45.37 11.65,57.548 11.65,57.548 L34.403,57.548 C34.403,57.548 37.414,45.368 42.795,36.448 C44.9808656,32.7135387 46.1072517,28.4538078 46.053,24.127 C46.054,10.874 35.846,0.127 23.21,0 Z" id="Path_3363"></path>
                            </g>
                            <g id="Group_635" fill="#393939">
                                <path d="M35.253,59.251 L11.835,59.251 L11.675,58.605 C11.645,58.484 8.631,46.443 3.38,37.737 C1.1144921,33.8698983 -0.0543809909,29.4585346 -0.001,24.977 C-0.001,11.336 10.625,0.131 23.685,4.26325641e-14 L24.057,4.26325641e-14 C37.126,0.131 47.752,11.335 47.752,24.977 C47.805381,29.4585346 46.6365079,33.8698983 44.371,37.737 C39.12,46.442 36.106,58.484 36.076,58.605 L35.916,59.251 L35.253,59.251 Z M13.159,57.551 L34.594,57.551 C35.3,54.887 38.175,44.72 42.917,36.859 C45.0226992,33.2568711 46.1072016,29.1491063 46.054,24.977 C46.054,12.264 36.183,1.822 24.054,1.7 L23.698,1.7 C11.574,1.822 1.703,12.263 1.703,24.977 C1.64979838,29.1491063 2.73430083,33.2568711 4.84,36.859 C9.574,44.72 12.453,54.886 13.159,57.551 Z" id="Path_3364"></path>
                            </g>
                            <g id="Group_636" transform="translate(11.888000, 56.671000)" fill="#E6E6E6">
                                <polygon id="Path_3365" points="0 0 0 8.2 2.53 12.6 21.363 12.6 23.893 8.2 23.893 0"></polygon>
                            </g>
                            <g id="Group_638" transform="translate(11.039000, 55.821000)" fill="#393939">
                                <path d="M22.704,14.308 L2.888,14.308 L0.001,9.28 L0.001,0 L25.588,0 L25.588,9.28 L22.704,14.308 Z M3.871,12.608 L21.72,12.608 L23.888,8.824 L23.888,1.697 L1.7,1.697 L1.7,8.824 L3.871,12.608 Z" id="Path_3366"></path>
                            </g>
                            <g id="Group_640" transform="translate(10.379000, 58.477000)" fill="#393939">
                                <rect id="Rectangle_430" x="0" y="0" width="26.911" height="1.7"></rect>
                            </g>
                            <g id="Group_641" transform="translate(10.379000, 61.409000)" fill="#393939">
                                <rect id="Rectangle_431" x="0" y="0" width="26.911" height="1.7"></rect>
                            </g>
                            <g id="Group_642" transform="translate(10.379000, 64.340000)" fill="#393939">
                                <rect id="Rectangle_432" x="0" y="0" width="26.911" height="1.7"></rect>
                            </g>
                            <g id="Group_645" transform="translate(20.036000, 48.284000)" fill="#393939">
                                <g id="Group_643" transform="translate(5.982000, 0.000000)">
                                    <rect id="Rectangle_433" x="0" y="0" width="1.7" height="8.387"></rect>
                                </g>
                                <g id="Group_644">
                                    <rect id="Rectangle_434" x="0" y="0" width="1.7" height="8.387"></rect>
                                </g>
                            </g>
                        </g>
                        <g id="Group_647" transform="translate(8.127000, 7.146000)" fill="#FFCA40">
                            <path d="M15.749,0.893 C13.765,-1.043 7.769,0.183 7.769,4.473 C3.741,4.473 0.187,9.83 2.978,14.23 C-0.837,16.381 -1.257,23.355 3.308,25.753 C3.308,31.264 9.576,34.903 15.748,31.661 C21.921,34.903 28.189,31.261 28.189,25.753 C32.754,23.353 32.334,16.38 28.519,14.23 C31.311,9.83 27.757,4.473 23.729,4.473 C23.729,0.185 17.733,-1.045 15.749,0.893 Z" id="Path_3367"></path>
                        </g>
                        <g id="Group_648" transform="translate(7.277000, 6.296000)" fill="#393939" fill-rule="nonzero">
                            <path d="M21.326,34.585 L21.326,34.585 C19.6858597,34.5743612 18.0695506,34.1913982 16.599,33.465 C15.1288954,34.1916471 13.5128524,34.5746281 11.873,34.585 C7.251,34.585 3.594,31.339 3.324,27.107 C1.22463861,25.7518446 -0.0305632526,23.4125532 0.001,20.914 C-0.0871459872,18.573229 0.909037633,16.3225919 2.701,14.814 C1.67307123,12.6952592 1.75157345,10.206739 2.911,8.157 C3.90655104,6.2594487 5.71864585,4.92443439 7.826,4.536 C8.277,1.683 11.14,0.005 13.917,0.005 C14.8546178,-0.0204702829 15.7811464,0.212718774 16.595,0.679 C17.4088536,0.212718774 18.3353822,-0.0204702829 19.273,0.005 C20.727521,0.00256077369 22.1468964,0.451924826 23.335,1.291 C24.4204203,2.05541643 25.1515903,3.22536059 25.363,4.536 C27.4703541,4.92443439 29.282449,6.2594487 30.278,8.157 C31.4374265,10.206739 31.5159288,12.6952592 30.488,14.814 C32.2799624,16.3225919 33.276146,18.573229 33.188,20.914 C33.2193996,23.4122651 31.9646909,25.7513412 29.866,27.107 C29.7442665,29.1087432 28.8423658,30.9829159 27.354,32.327 C25.6967634,33.8053919 23.5466781,34.6107822 21.326,34.585 Z M16.599,31.553 L16.999,31.76 C18.3292451,32.4826519 19.8162169,32.8685573 21.33,32.884 L21.33,32.884 C23.1289464,32.9117328 24.8730921,32.2649469 26.219,31.071 C27.4821116,29.9311749 28.2000116,28.3073533 28.193,26.606 L28.193,26.085 L28.648,25.846 C30.4460463,24.8491482 31.544052,22.9384181 31.5,20.883 C31.619065,18.8606364 30.6485515,16.9287617 28.955,15.817 L28.175,15.378 L28.655,14.621 C29.7601882,12.9132233 29.8150362,10.7301202 28.797,8.969 C27.9918091,7.3508311 26.3857709,6.28394926 24.582,6.169 L23.732,6.169 L23.732,5.319 C23.732,2.68 21.002,1.697 19.28,1.697 C18.5281425,1.64645647 17.7845266,1.8786358 17.195,2.348 L16.601,2.928 L16.007,2.348 C15.4172436,1.87906937 14.6737998,1.64694376 13.922,1.697 C12.201,1.697 9.471,2.681 9.471,5.319 L9.471,6.169 L8.621,6.169 C6.81729697,6.28415078 5.21135031,7.35097182 4.406,8.969 C3.38750062,10.7300022 3.44235509,12.9133645 4.548,14.621 L5.028,15.378 L4.248,15.817 C2.55515117,16.9288223 1.58508587,18.8601827 1.704,20.882 C1.65979868,22.9377163 2.75779439,24.848814 4.556,25.846 L5.011,26.085 L5.011,26.598 C5.011,30.119 8.026,32.877 11.875,32.877 C13.3887831,32.8615573 14.8757549,32.4756519 16.206,31.753 L16.599,31.553 Z" id="Path_3368"></path>
                        </g>
                        <g id="XMLID_1880_" transform="translate(17.080000, 16.910000)" fill="#FFFFFF" fill-rule="nonzero">
                            <g id="Group_649">
                                <path d="M13.551,5.879 C13.5192513,5.68097173 13.3698036,5.5224065 13.174,5.479 L12.448,5.353 C12.2454673,5.30611933 12.079021,5.16248925 12.003,4.969 L11.711,4.25 C11.6309351,4.05923393 11.6507936,3.84116576 11.764,3.668 L12.196,3.068 C12.3048382,2.90101124 12.3016751,2.68473446 12.188,2.521 L11.798,2.058 C11.6550809,1.91796151 11.4415881,1.87842579 11.258,1.958 L10.594,2.284 C10.4050839,2.3630325 10.1891165,2.34199914 10.019,2.228 C10.019,2.228 9.906,2.14 9.694,2.009 C9.482,1.878 9.355,1.817 9.355,1.817 C9.17988162,1.71309074 9.06754861,1.52923905 9.055,1.326 L9.055,0.584 C9.0418568,0.385066423 8.91178893,0.212952439 8.724,0.146 L8.138,0.002 C7.94094764,-0.0268691918 7.74592709,0.0659037416 7.644,0.237 L7.532,0.45 L7.397,0.708 L7.297,0.891 C7.18821374,1.06552548 7.0021866,1.17714176 6.797,1.191 L6.511,1.209 L6.383,1.218 L6.023,1.246 C5.8157013,1.26368097 5.61310155,1.17754799 5.482,1.016 L5.047,0.424 C4.92314707,0.26674288 4.71526667,0.201954151 4.524,0.261 L3.963,0.488 C3.78585479,0.580114936 3.68194555,0.770154276 3.7,0.969 L3.8,1.701 C3.8177321,1.90744878 3.7314936,2.10917187 3.57,2.239 L2.97,2.739 C2.81409712,2.87335891 2.6020408,2.92235252 2.403,2.87 L1.703,2.645 C1.50938019,2.59331222 1.30349957,2.66076263 1.178,2.817 C1.178,2.817 1.124,2.889 1.013,3.072 C0.902,3.255 0.857,3.334 0.857,3.334 C0.771812263,3.5144521 0.802078129,3.72827848 0.934,3.878 L1.448,4.409 C1.58256451,4.56597089 1.63286448,4.77834856 1.583,4.979 L1.393,5.738 C1.34427606,5.93802262 1.20202696,6.10224213 1.011,6.179 L0.311,6.41 C0.125552445,6.48083064 0.00116450927,6.65655328 -0.004,6.855 L0.039,7.464 C0.0710094853,7.66189979 0.220340085,7.82034074 0.416,7.864 L1.142,7.989 C1.34437148,8.0361979 1.51068877,8.17971664 1.587,8.373 L1.879,9.092 C1.95948374,9.28212107 1.94154455,9.49963384 1.831,9.674 L1.397,10.274 C1.2865651,10.440038 1.29054835,10.657125 1.407,10.819 L1.793,11.281 C1.93591906,11.4210385 2.14941193,11.4605742 2.333,11.381 L2.997,11.055 C3.18611419,10.975048 3.40282806,10.9961174 3.573,11.111 C3.573,11.111 3.69,11.199 3.898,11.33 C4.106,11.461 4.239,11.53 4.239,11.53 C4.41770817,11.6304946 4.53272996,11.8152837 4.544,12.02 L4.544,12.76 C4.55457116,12.9589421 4.68407202,13.1318731 4.872,13.198 L5.459,13.342 C5.65596829,13.3703128 5.85069426,13.27768 5.953,13.107 L6.299,12.454 C6.40742824,12.2791108 6.59366096,12.1673712 6.799,12.154 L7.573,12.099 C7.7802987,12.081319 7.98289845,12.167452 8.114,12.329 L8.549,12.921 C8.67243171,13.0788684 8.88052555,13.1441215 9.072,13.085 L9.636,12.854 C9.81325962,12.7632341 9.91682981,12.573157 9.897,12.375 L9.792,11.646 C9.77408684,11.4395222 9.86036031,11.2377173 10.022,11.108 L10.622,10.608 C10.7785214,10.473297 10.9913335,10.4243016 11.191,10.477 L11.891,10.701 C12.0834389,10.7541292 12.2890388,10.6876925 12.414,10.532 C12.414,10.532 12.468,10.46 12.581,10.278 C12.636543,10.1927124 12.687612,10.1045933 12.734,10.014 C12.8183719,9.83242475 12.7882197,9.61822689 12.657,9.467 L12.144,8.94 C12.0077177,8.78390795 11.957206,8.57063644 12.009,8.37 L12.197,7.613 C12.2446877,7.41198441 12.387184,7.24673341 12.579,7.17 L13.279,6.938 C13.4653104,6.86657184 13.5890321,6.68852363 13.591,6.489 L13.551,5.879 Z M10.063,8.706 C9.11649909,10.2272223 7.24477698,10.8931138 5.55016425,10.3115048 C3.85555152,9.72989581 2.78722946,8.05495011 2.97437483,6.27310895 C3.16152021,4.49126779 4.55452748,3.07483358 6.333,2.858 C6.46104041,2.8421589 6.58998888,2.8348095 6.719,2.836 C6.83706306,2.83049902 6.95536899,2.8335068 7.073,2.845 C7.20277536,2.85057887 7.33204926,2.8646086 7.46,2.887 C8.71869484,3.10728821 9.78564219,3.93865154 10.3069222,5.10531633 C10.8282022,6.27198113 10.7356627,7.62141732 10.06,8.706 L10.063,8.706 Z" id="Path_3369"></path>
                            </g>
                            <g id="Group_651" transform="translate(4.054000, 3.936000)">
                                <path d="M4.188,0.417 C3.5711911,0.0322805775 2.8266705,-0.0912534319 2.11866628,0.0736473911 C1.41066207,0.238548214 0.797344285,0.678335519 0.414,1.296 C-0.172734518,2.23753625 -0.134311889,3.43985113 0.51134178,4.34200369 C1.15699545,5.24415625 2.28264434,5.66836369 3.36311608,5.41671168 C4.44358781,5.16505968 5.2659591,4.28714007 5.44655197,3.19254695 C5.62714484,2.09795382 5.13037073,1.00239329 4.188,0.417 L4.188,0.417 Z M3.582,3.26 C3.3983724,3.56463222 3.0650362,3.74689703 2.70947515,3.73708762 C2.3539141,3.7272782 2.03113413,3.52691211 1.86458179,3.21261893 C1.69802944,2.89832575 1.71347067,2.51872721 1.905,2.219 C1.98071939,2.09735576 2.08335576,1.99471939 2.205,1.919 C2.52708233,1.70785326 2.94262116,1.70355727 3.269,1.908 C3.29183105,1.91976593 3.31273734,1.93493985 3.331,1.953 C3.74157316,2.2568137 3.85070292,2.82463631 3.582,3.259 L3.582,3.26 Z" id="Path_3370"></path>
                            </g>
                        </g>
                        <g id="Group_656" transform="translate(10.172000, 11.734000)" fill="#393939" fill-rule="nonzero">
                            <g id="Group_653" transform="translate(4.874000, 0.000000)">
                                <path d="M2.283,4.698 C1.69740266,4.72040074 1.12706894,4.50823741 0.698483301,4.10856206 C0.269897662,3.70888671 0.0184843564,3.15473404 0,2.569 L0,-0.001 L1.7,-0.001 L1.7,2.569 C1.74260644,2.8360465 1.98589361,3.02366255 2.255,2.997 C2.584,2.997 2.838,2.797 2.838,2.569 L2.838,1.464 L4.538,1.464 L4.538,2.569 C4.49935984,3.77788023 3.49210398,4.72885482 2.283,4.698 Z" id="Path_3371"></path>
                            </g>
                            <g id="Group_654" transform="translate(0.001000, 7.937000)">
                                <path d="M3.556,4.46000527 C2.98002623,4.46122992 2.42436986,4.24724159 1.998,3.86 L-0.002,2.043 L1.142,0.786 L3.142,2.603 C3.38581357,2.80744448 3.74118643,2.80744448 3.985,2.603 C4.07623128,2.53215057 4.13238052,2.42532116 4.139,2.31 C4.136084,2.20351913 4.08766121,2.10339682 4.006,2.035 L3.147,1.254 L4.291,-0.003 L5.15,0.778 C5.58874415,1.1665212 5.83992493,1.72445807 5.83992493,2.3105 C5.83992493,2.89654193 5.58874415,3.4544788 5.15,3.843 C4.71385664,4.23969291 4.1455644,4.4596655 3.556,4.46000527 Z" id="Path_3372"></path>
                            </g>
                            <g id="Group_655" transform="translate(0.000000, 16.339000)">
                                <path d="M2.013,5.498 L0.869,4.241 L2.869,2.424 C2.95329245,2.3576369 3.00249365,2.2562813 3.00249365,2.149 C3.00249365,2.0417187 2.95329245,1.9403631 2.869,1.874 C2.62583827,1.65421993 2.25811438,1.64655014 2.006,1.856 L1.147,2.638 L0.002,1.381 L0.861,0.599 C1.7523338,-0.199457294 3.1016662,-0.199457294 3.993,0.599 C4.43983669,0.985180446 4.69831012,1.54538543 4.70218451,2.13596454 C4.70597251,2.72654365 4.45478884,3.29005487 4.013,3.682 L2.013,5.498 Z" id="Path_3373"></path>
                            </g>
                        </g>
                        <g id="Group_660" transform="translate(28.130000, 11.734000)" fill="#393939" fill-rule="nonzero">
                            <g id="Group_657">
                                <path d="M2.281,4.698 C1.69540266,4.72040074 1.12506894,4.50823741 0.696483301,4.10856206 C0.267897662,3.70888671 0.0164843564,3.15473404 -0.002,2.569 L-0.002,1.464 L1.698,1.464 L1.698,2.569 C1.74060644,2.8360465 1.98389361,3.02366255 2.253,2.997 C2.582,2.997 2.836,2.797 2.836,2.569 L2.836,-0.001 L4.536,-0.001 L4.536,2.569 C4.49735984,3.77788023 3.49010398,4.72885482 2.281,4.698 Z" id="Path_3374"></path>
                            </g>
                            <g id="Group_658" transform="translate(3.573000, 7.936000)">
                                <path d="M2.278,4.46401483 C1.69948231,4.46606619 1.14102896,4.25209939 0.712,3.864 C0.264864432,3.47799674 0.00617217109,2.91772829 0.0022970828,2.32703882 C-0.00149165596,1.73634935 0.249910005,1.17277183 0.692,0.781 L1.551,0 L2.695,1.257 L1.836,2.038 C1.75402398,2.10615101 1.70552784,2.20642496 1.703,2.313 C1.70629671,2.41938777 1.75464814,2.51936254 1.836,2.588 C2.08015794,2.80623476 2.44696474,2.81387656 2.7,2.606 L4.7,0.789 L5.844,2.046 L3.844,3.863 C3.41501836,4.25129539 2.85661559,4.46559939 2.278,4.46401483 L2.278,4.46401483 Z" id="Path_3375"></path>
                            </g>
                            <g id="Group_659" transform="translate(4.711000, 16.341000)">
                                <path d="M2.687,5.497 L0.687,3.68 C0.248550414,3.29130822 -0.00241700658,2.73343458 -0.00241700658,2.1475 C-0.00241700658,1.56156542 0.248550414,1.00369178 0.687,0.615 C1.57767346,-0.197216434 2.93810544,-0.204987864 3.838,0.597 L4.697,1.379 L3.552,2.636 L2.693,1.854 C2.44950849,1.64970777 2.09449151,1.64970777 1.851,1.854 C1.75919525,1.92424778 1.70318028,2.03151828 1.698,2.147 C1.70052784,2.25357504 1.74902398,2.35384899 1.831,2.422 L3.831,4.239 L2.687,5.497 Z" id="Path_3376"></path>
                            </g>
                        </g>
                        <g id="Group_661" transform="translate(23.026000, 8.039000)" fill="#393939" fill-rule="nonzero">
                            <rect id="Rectangle_435" x="0" y="0" width="1.7" height="4.929"></rect>
                        </g>
                        <g id="Group_662" transform="translate(23.026000, 33.870000)" fill="#393939" fill-rule="nonzero">
                            <rect id="Rectangle_436" x="0" y="0" width="1.7" height="4.929"></rect>
                        </g>
                    </g>
                    <g id="Group_690-Clipped" transform="translate(151.008000, 114.822000)">
                        <mask id="mask-2" fill="white">
                            <use xlink:href="#path-1"></use>
                        </mask>
                        <g id="Rectangle_445"></g>
                        <g id="Group_690" mask="url(#mask-2)">
                            <g transform="translate(5.000000, 3.000000)">
                                <g id="Group_664" transform="translate(1.258000, 0.949000)">
                                    <path d="M20.559,41.12 C9.20402554,41.12 -0.001,31.9149745 -0.001,20.56 C-0.001,9.20502554 9.20402554,2.84217094e-14 20.559,2.84217094e-14 C31.9139745,2.84217094e-14 41.119,9.20502554 41.119,20.56 C41.1063246,31.90972 31.90872,41.1073246 20.559,41.12 L20.559,41.12 Z M20.559,2.374 C13.2030452,2.374 6.57140499,6.80512029 3.75640294,13.6011364 C0.941400893,20.3971525 2.49740342,28.2197055 7.69884897,33.421151 C12.9002945,38.6225966 20.7228475,40.1785991 27.5188636,37.3635971 C34.3148797,34.548595 38.746,27.9169548 38.746,20.561 C38.7344276,10.5213946 30.5986054,2.38557241 20.559,2.374 Z" id="Path_3377" fill="#D1D1D1" fill-rule="nonzero"></path>
                                </g>
                                <g id="Group_665" transform="translate(3.630000, 3.323000)">
                                    <path d="M18.187,0 C10.8310452,0 4.19940499,4.43112029 1.38440294,11.2271364 C-1.43059911,18.0231525 0.125403417,25.8457055 5.32684897,31.047151 C10.5282945,36.2485966 18.3508475,37.8045991 25.1468636,34.9895971 C31.9428797,32.174595 36.374,25.5429548 36.374,18.187 C36.3624276,8.14739461 28.2266054,0.0115724084 18.187,0 Z" id="Path_3378" fill="#FFFFFF" fill-rule="nonzero"></path>
                                </g>
                                <g id="Group_666" transform="translate(21.071000, 5.369000)" fill="#393939" fill-rule="nonzero">
                                    <rect id="Rectangle_437" x="0" y="0" width="1.573" height="6.159"></rect>
                                </g>
                                <g id="Group_668" transform="translate(9.537000, 9.167000)" fill="#393939" fill-rule="nonzero">
                                    <rect id="Rectangle_438" transform="translate(1.537957, 1.538314) rotate(-45.000000) translate(-1.537957, -1.538314) " x="0.746957249" y="0.154314321" width="1.582" height="2.768"></rect>
                                </g>
                                <g id="Group_670" transform="translate(5.335000, 20.255000)" fill="#393939" fill-rule="nonzero">
                                    <rect id="Rectangle_439" x="0" y="0" width="8.038" height="1.573"></rect>
                                </g>
                                <g id="Group_672" transform="translate(9.526000, 30.701000)" fill="#54AAE3" fill-rule="nonzero">
                                    <rect id="Rectangle_440" transform="translate(1.537605, 1.537921) rotate(-135.000000) translate(-1.537605, -1.537921) " x="0.74672395" y="0.153630575" width="1.5817611" height="2.76858185"></rect>
                                </g>
                                <g id="Group_674" transform="translate(21.071000, 31.329000)" fill="#54AAE3" fill-rule="nonzero">
                                    <rect id="Rectangle_441" x="0" y="0" width="1.574" height="7.086"></rect>
                                </g>
                                <g id="Group_676" transform="translate(31.075000, 30.685000)" fill="#54AAE3" fill-rule="nonzero">
                                    <rect id="Rectangle_442" transform="translate(1.537921, 1.537396) rotate(135.000000) translate(-1.537921, -1.537396) " x="0.74704095" y="0.153104575" width="1.5817611" height="2.76858185"></rect>
                                </g>
                                <g id="Group_678" transform="translate(31.072000, 20.255000)" fill="#393939" fill-rule="nonzero">
                                    <rect id="Rectangle_443" x="0" y="0" width="7.309" height="1.573"></rect>
                                </g>
                                <g id="Group_680" transform="translate(31.072000, 9.164000)" fill="#393939" fill-rule="nonzero">
                                    <rect id="Rectangle_444" transform="translate(1.538332, 1.538311) rotate(45.000000) translate(-1.538332, -1.538311) " x="0.747332125" y="0.153810802" width="1.582" height="2.769"></rect>
                                </g>
                                <g id="Group_682" transform="translate(20.931000, 8.484000)">
                                    <polygon id="Path_3379" fill="#CCE4F2" fill-rule="nonzero" points="0 12.706 11.141 2.84217094e-14 0.903 13.443"></polygon>
                                </g>
                                <g id="Group_683" transform="translate(12.922000, 12.463000)" fill="#FFCA40" fill-rule="nonzero">
                                    <path d="M9.964,6.938 C10.4629405,7.29637533 10.7783489,7.85662709 10.8259654,8.46908705 C10.8735819,9.08154701 10.6485552,9.68381559 10.211,10.115 L10.127,10.199 C9.69630161,10.6369617 9.09418673,10.8623828 8.48176418,10.814947 C7.86934163,10.7675113 7.30912049,10.4520604 6.951,9.953 C5.027,7.662 1.651,2.797 0.098,0.673 C-0.034537463,0.507290752 -0.0215019091,0.26847683 0.128284711,0.118178119 C0.278071331,-0.0321205919 0.516839372,-0.0459711322 0.683,0.086 C3.152,1.917 7.673,5.016 9.964,6.938 Z" id="Path_3380"></path>
                                </g>
                                <g id="Group_685" transform="translate(12.070000, 11.629000)" fill="#393939" fill-rule="nonzero">
                                    <path d="M9.534,12.508 C8.60477997,12.4877223 7.73208288,12.0575968 7.15,11.333 C5.685,9.587 3.384,6.367 1.705,4.016 C1.145,3.231 0.647,2.534 0.262,2.007 C-0.0320526794,1.62553437 -0.0814230364,1.10928371 0.135,0.679 C0.316830482,0.353639584 0.627467934,0.120071534 0.990522703,0.0357331688 C1.35357747,-0.0486051963 1.73536539,0.024111025 2.042,0.236 C2.836,0.824 3.842,1.546 4.921,2.316 C7.202,3.948 9.788,5.798 11.363,7.116 C12.0565263,7.66987724 12.4824876,8.49199707 12.535,9.378 C12.5652409,10.1911895 12.2486125,10.9789436 11.664,11.545 L11.578,11.631 C11.0408186,12.1841229 10.3050007,12.4998335 9.534,12.508 L9.534,12.508 Z M3.189,3.167 C4.843,5.482 7.059,8.578 8.453,10.239 C8.6636053,10.5467415 8.99944113,10.7456836 9.37052382,10.7825218 C9.74160651,10.8193601 10.110001,10.6903286 10.377,10.43 L10.463,10.344 C10.7094698,10.115071 10.8456903,9.7912742 10.837,9.455 C10.8020377,9.04586769 10.5961727,8.67044542 10.27,8.421 C8.745,7.141 6.187,5.312 3.931,3.697 L3.189,3.167 Z" id="Path_3381"></path>
                                </g>
                                <g id="Group_687" transform="translate(20.192000, 19.802000)">
                                    <circle id="Ellipse_476" fill="#FFFFFF" fill-rule="nonzero" cx="1.326" cy="1.326" r="1.326"></circle>
                                </g>
                                <g id="Group_688" transform="translate(20.869000, 20.473000)">
                                    <circle id="Ellipse_477" fill="#CCE4F2" fill-rule="nonzero" cx="0.641" cy="0.641" r="1"></circle>
                                </g>
                                <g id="Group_689" transform="translate(0.408000, 0.099000)">
                                    <path d="M21.409,42.82 C9.58458351,42.82 -0.001,33.2344165 -0.001,21.41 C-0.001,9.58558351 9.58458351,0 21.409,0 C33.2334165,0 42.819,9.58558351 42.819,21.41 C42.8057735,33.2289336 33.2279336,42.8067735 21.409,42.82 L21.409,42.82 Z M21.409,1.701 C13.4370492,1.701 6.25006793,6.50318733 3.19933441,13.8683095 C0.148600902,21.2334318 1.83490484,29.7110542 7.47192534,35.3480747 C13.1089458,40.9850952 21.5865682,42.6713991 28.9516905,39.6206656 C36.3168127,36.5699321 41.119,29.3829508 41.119,21.411 C41.1074256,10.5302655 32.2897345,1.71257438 21.409,1.701 L21.409,1.701 Z M21.409,40.447 C10.8951552,40.447 2.372,31.9238448 2.372,21.41 C2.372,10.8961552 10.8951552,2.373 21.409,2.373 C31.9228448,2.373 40.446,10.8961552 40.446,21.41 C40.431672,31.9170945 31.9160979,40.430432 21.409,40.442 L21.409,40.447 Z M21.409,4.075 C11.8340393,4.075 4.072,11.8370393 4.072,21.412 C4.072,30.9869607 11.8340393,38.749 21.409,38.749 C30.9839607,38.749 38.746,30.9869607 38.746,21.412 C38.7360796,11.8409895 30.9800099,4.08447246 21.409,4.074 L21.409,4.075 Z" id="Path_3382" fill="#393939" fill-rule="nonzero"></path>
                                </g>
                            </g>
                        </g>
                    </g>
                    <g id="Group_720" transform="translate(71.474000, 110.269000)" fill-rule="nonzero">
                        <g id="Group_706" transform="translate(18.334000, 4.245000)">
                            <g id="Group_701" transform="translate(23.442000, 0.000000)" fill="#B4D8E7">
                                <g id="Group_692" transform="translate(0.564000, 0.325000)">
                                    <path d="M1.219,1.139 L1,1 L1.219,1.139 Z" id="Path_3383"></path>
                                </g>
                                <g id="Group_695" transform="translate(0.318000, 0.179000)">
                                    <path d="M1.201,1.118 C1.135,1.078 1.068,1.038 1.001,1 C1.068,1.039 1.139,1.077 1.201,1.118 Z" id="Path_3384"></path>
                                </g>
                                <g id="Group_698">
                                    <path d="M1.257,1.144 C1.173,1.095 1.087,1.044 1,1 C1.087,1.046 1.173,1.094 1.257,1.144 Z" id="Path_3385"></path>
                                </g>
                            </g>
                            <g id="Group_702" transform="translate(0.000000, 11.934000)" fill="#393939">
                                <path d="M2.733,6.484 L2.733,6.484 C1.54027933,6.47877807 0.487106877,5.7047549 0.126,4.568 C0.126,4.556 0.118,4.545 0.115,4.533 C-0.314056977,3.08953695 0.503081447,1.57052621 1.944,1.133 L5.144,0.118 C6.56929731,-0.306345292 8.0741334,0.477054672 8.544,1.888 C8.552,1.908 8.559,1.929 8.565,1.95 C8.99170976,3.39322121 8.17542313,4.91064851 6.736,5.35 L3.53,6.366 C3.27141112,6.44354974 3.00296606,6.48329443 2.733,6.484 Z M1.733,4.026 L1.741,4.05 C1.91364819,4.58950221 2.48311068,4.89480844 3.028,4.74 L6.228,3.725 C6.76410216,3.56652256 7.07931806,3.01290809 6.942,2.471 C6.937,2.458 6.933,2.445 6.928,2.431 C6.75578543,1.89113702 6.1859498,1.58563074 5.641,1.741 L2.441,2.757 C1.90050349,2.91843933 1.58787029,3.48197843 1.737,4.026 L1.733,4.026 Z" id="Path_3386"></path>
                            </g>
                        </g>
                        <g id="Group_709" transform="translate(23.530000, 0.848000)" fill="#FFCA40">
                            <g id="Group_707">
                                <path d="M27.522,10.025 C26.4602262,6.44164241 24.0081522,3.43245888 20.713,1.669 C20.373,1.482 20.024,1.32 19.676,1.169 C12.9663691,-1.74526715 5.14280649,0.966466572 1.676,7.408 C0.193593441,10.1415404 -0.324611669,13.2948062 0.205,16.359 C0.30095239,16.9423613 0.434565055,17.5189 0.605,18.085 C0.783410953,18.6724224 0.996450488,19.2487644 1.243,19.811 C1.72589862,20.8883487 2.33986946,21.9020052 3.071,22.829 C4.26043259,24.3171884 5.74138489,25.5466647 7.423,26.442 C7.755,26.62 8.103,26.791 8.452,26.942 C15.162413,29.8353569 22.9716384,27.1285926 26.452,20.703 C28.2236726,17.4304059 28.6090996,13.5840603 27.522,10.025 L27.522,10.025 Z M24.309,19.554 C21.4275648,24.8683622 14.9676559,27.1065365 9.416,24.714 C9.127,24.595 8.846,24.451 8.566,24.306 C5.93057873,22.8834586 3.94099355,20.5044745 3.007,17.659 L2.922,17.387 C1.63363208,13.0514338 2.97296099,8.36205303 6.35676137,5.3608997 C9.74056176,2.35974636 14.5563349,1.59005652 18.707,3.387 C18.996,3.514 19.285,3.659 19.566,3.804 C25.2190888,6.84881737 27.3408445,13.894943 24.309,19.555 L24.309,19.554 Z" id="Path_3387"></path>
                            </g>
                            <g id="Group_708" opacity="0.6" transform="translate(2.430000, 2.426000)">
                                <path d="M22.771,8.293 C21.8921366,5.32633175 19.8625812,2.8347608 17.135,1.374 C16.854,1.229 16.565,1.085 16.276,0.957 C13.7481285,-0.139798067 10.9127278,-0.302479187 8.276,0.498 C5.32595098,1.3826274 2.8482232,3.40306745 1.38802026,6.11473894 C-0.0721826703,8.82641043 -0.395216396,12.0071277 0.49,14.957 L0.575,15.229 C1.50899355,18.0744745 3.49857873,20.4534586 6.134,21.876 C6.415,22.021 6.695,22.165 6.984,22.284 C11.1334077,24.0946191 15.9565113,23.3318292 19.344675,20.3291183 C22.7328386,17.3264074 24.0697818,12.6299449 22.771,8.293 L22.771,8.293 Z M16.905,8.077 C16.8779596,9.8065686 16.1927996,11.4608223 14.989,12.703 C13.7578576,13.9234958 12.0965704,14.6115689 10.363,14.619 C8.64299953,14.5472145 7.00404938,13.8683929 5.737,12.703 C4.52861961,11.4638364 3.84266994,9.80767613 3.821,8.077 L3.821,8.006 C3.84804043,6.2764314 4.53320043,4.62217766 5.737,3.38 C6.96808188,2.15941314 8.629408,1.4713239 10.363,1.464 C12.0830005,1.53578553 13.7219506,2.21460708 14.989,3.38 C16.1973804,4.61916355 16.8833301,6.27532387 16.905,8.006 L16.905,8.077 Z" id="Path_3388"></path>
                            </g>
                        </g>
                        <g id="Group_711" transform="translate(22.679000, 0.000000)" fill="#393939">
                            <path d="M14.857,29.796 C12.8263388,29.7993646 10.817157,29.3805013 8.957,28.566 C8.588,28.405 8.223,28.229 7.864,28.035 C4.95818019,26.4857545 2.65370822,24.0095119 1.317,21 C1.05162434,20.4052055 0.824821828,19.793941 0.638,19.17 C0.458292978,18.5725113 0.316346063,17.9643105 0.213,17.349 C-1.02346403,9.95326607 3.43210163,2.79180111 10.613,0.633 C13.9944264,-0.38284889 17.6261423,-0.170322844 20.866,1.233 C21.2373333,1.39566667 21.604,1.57433333 21.966,1.769 C27.9941495,5.00488049 31.043922,11.9302382 29.3611826,18.5618216 C27.6784432,25.1934049 21.6956827,29.8267912 14.854,29.7971428 L14.857,29.796 Z M14.934,1.696 C13.6369812,1.696 12.3469677,1.88613647 11.105,2.26 C7.75403626,3.26338855 4.93958844,5.55807666 3.28194303,8.63832961 C1.62429762,11.7185826 1.25951825,15.3315656 2.268,18.681 C2.43253691,19.2354348 2.63295993,19.7785812 2.868,20.307 C4.05206084,22.9723883 6.09373233,25.1650731 8.668,26.536 C8.988,26.709 9.311,26.864 9.636,27.007 C11.2810894,27.7275148 13.0580458,28.0980262 14.854,28.0951448 C20.9161595,28.1232376 26.2182254,24.0186643 27.7097351,18.1427835 C29.2012447,12.2669028 26.4987129,6.13047494 21.157,3.264 C20.837,3.091 20.51,2.933 20.181,2.789 C18.5256886,2.06588828 16.7383604,1.69405319 14.932,1.697 L14.934,1.696 Z M14.869,27.3721308 L14.869,27.3721308 C13.1688999,27.3752429 11.4866743,27.0251765 9.929,26.344 C9.621,26.21 9.315,26.062 9.014,25.9 C6.18972861,24.3761889 4.05707158,21.8276656 3.055,18.779 L2.962,18.487 C1.56933615,13.8331314 3.00277382,8.7939992 6.63640891,5.5699177 C10.270044,2.34583621 15.443964,1.52233806 19.899,3.459 C20.2083333,3.59233333 20.5143333,3.74066667 20.817,3.904 C25.8668826,6.6108959 28.4233469,12.4098507 27.0152293,17.9637506 C25.6071117,23.5176505 20.5965653,27.3980901 14.867,27.3721308 L14.869,27.3721308 Z M14.932,4.123 C13.8723536,4.1232432 12.8184719,4.27889964 11.804,4.585 C9.07027689,5.40504405 6.77439889,7.27768301 5.42163163,9.79079563 C4.06886436,12.3039082 3.77006794,15.2515434 4.591,17.985 L4.675,18.25 C5.54085209,20.8820311 7.38197858,23.0824367 9.82,24.399 C10.08,24.5383333 10.3436667,24.6663333 10.611,24.783 C11.9535153,25.3705892 13.4035303,25.6726473 14.869,25.670081 L14.869,25.670081 C19.8153075,25.6890649 24.1396729,22.3388746 25.3570265,17.5446728 C26.5743801,12.750471 24.3721974,7.7430462 20.016,5.4 C19.7553333,5.26066667 19.4903333,5.132 19.221,5.014 C17.867785,4.42321761 16.40655,4.1201416 14.93,4.124 L14.932,4.123 Z" id="Path_3389"></path>
                        </g>
                        <g id="Group_714" transform="translate(0.843000, 16.760000)" fill="#D1D1D1">
                            <rect id="Rectangle_446" transform="translate(10.644669, 6.010626) rotate(73.334000) translate(-10.644669, -6.010626) " x="7.4066693" y="-4.13137382" width="6.476" height="20.284"></rect>
                        </g>
                        <g id="Group_717" transform="translate(0.000000, 15.915000)" fill="#393939">
                            <path d="M2.709,13.722 C2.33373054,13.7215722 2.00303862,13.4753814 1.895,13.116 L0.036,6.916 C-0.0286132633,6.69998094 -0.00475027506,6.4671406 0.102337598,6.26871859 C0.209425471,6.07029658 0.390962839,5.92255272 0.607,5.858 L20.039,0.04 C20.4884861,-0.0940359064 20.9616805,0.16089871 21.097,0.61 L22.954,6.81 C23.0880359,7.25948606 22.8331013,7.73268049 22.384,7.868 L2.954,13.687 C2.87439833,13.710189 2.79191053,13.722 2.709,13.722 Z M1.909,7.238 L3.279,11.815 L21.079,6.483 L19.709,1.908 L1.909,7.238 Z" id="Path_3390"></path>
                        </g>
                    </g>
                </g>
            </g>
        </g>
    </g>
</svg>