<svg xmlns="http://www.w3.org/2000/svg" width="16" height="11" viewBox="0 0 16 11">
    <g fill="none" fill-rule="evenodd">
        <g fill="#000" fill-rule="nonzero">
            <g>
                <g>
                    <path d="M15.951 3.136V1.698C15.95.761 15.184.003 14.24 0H1.712C.768.003.002.761 0 1.698v7.604c.003.937.768 1.695 1.712 1.698H14.24c.944-.003 1.709-.761 1.711-1.698V6.098c.004-.01.006-.022.005-.034V3.17c0-.012-.001-.023-.005-.034zm-.432 2.586H.443l-.054.01V3.015h15.173v.155c0 .011 0 .023.005.034v2.528l-.048-.01zM1.712.386H14.24c.73 0 1.322.587 1.322 1.312v.946l-.043-.01H.443l-.054.01v-.946C.39.973.981.386 1.712.386zM14.24 10.614H1.712c-.73 0-1.323-.587-1.323-1.312V6.103h15.173v3.199c0 .725-.592 1.312-1.322 1.312z" transform="translate(-58 -516) translate(36 494) translate(22 22)"/>
                </g>
            </g>
        </g>
    </g>
</svg>
