<svg xmlns="http://www.w3.org/2000/svg" width="13" height="14" viewBox="0 0 13 14">
    <g fill="none" fill-rule="evenodd">
        <g fill="#000">
            <g>
                <g transform="translate(-46 -632) translate(38 632) translate(8)">
                    <path d="M11.898 10.076H1.107c-.294 0-.575.119-.783.33-.207.21-.324.496-.324.794v1.676C0 13.497.496 14 1.107 14h10.79c.61-.002 1.103-.505 1.103-1.124V11.2c0-.619-.493-1.121-1.102-1.124zm.75 2.8c0 .422-.335.765-.75.767H1.107c-.2 0-.393-.08-.534-.224-.142-.144-.222-.34-.222-.543V11.2c0-.424.339-.767.756-.767h10.79c.416.003.752.345.752.767v1.676z"/>
                    <circle cx="10.716" cy="12.038" r="1"/>
                    <path d="M6.36 8.953c.033.034.079.053.127.053s.093-.019.127-.053L9.79 5.618c.065-.07.063-.182-.005-.25-.033-.033-.077-.051-.124-.05-.046 0-.09.02-.122.055l-2.863 3V.178C6.676.08 6.597 0 6.5 0c-.097 0-.176.08-.176.178v8.226l-2.859-3c-.04-.057-.11-.084-.176-.07-.068.013-.121.065-.137.133-.016.068.009.14.063.182l3.144 3.304z"/>
                </g>
            </g>
        </g>
    </g>
</svg>
