<?xml version="1.0" encoding="UTF-8"?>
<svg width="14px" height="12px" viewBox="0 0 14 12" version="1.1" xmlns="http://www.w3.org/2000/svg" xmlns:xlink="http://www.w3.org/1999/xlink">
    <title>Edit</title>
    <defs>
        <path d="M7.74122222,1.85120467 L6.80788889,2.81120467 C6.7047022,2.9154945 6.5392978,2.9154945 6.43611111,2.81120467 C6.38664234,2.76087265 6.35866094,2.69237417 6.35833333,2.62080467 C6.35828052,2.54892165 6.38630475,2.48003007 6.43611111,2.42960467 L8.49022222,0.316004673 C8.90220841,-0.105334891 9.56768048,-0.105334891 9.97966667,0.316004673 L11.4792222,1.85840467 C11.8892838,2.28198108 11.8892838,2.96682827 11.4792222,3.39040467 L5.00966667,10.0448047 L2.744,10.3776047 C2.45400115,10.4312302 2.1568601,10.3353022 1.94866764,10.1208423 C1.74047517,9.90638232 1.64765444,9.60060902 1.70022222,9.30240467 L2.02377778,6.97360467 L5.32233333,3.58160467 C5.42552002,3.47731485 5.59092442,3.47731485 5.69411111,3.58160467 C5.74357988,3.6319367 5.77156128,3.70043517 5.77188889,3.77200467 C5.77185453,3.8438697 5.7438438,3.91272805 5.69411111,3.96320467 L2.89411111,6.84320467 L3.82744444,7.80320467 L8.67922222,2.81280467 L7.74122222,1.85120467 Z M8.11455556,1.46720467 L10.3537778,3.77040467 L11.1004444,3.00240467 C11.3044902,2.79066671 11.3044902,2.44934263 11.1004444,2.23760467 L9.60088889,0.695204673 C9.39512448,0.485857184 9.06387552,0.485857184 8.85811111,0.695204673 L8.11455556,1.46720467 Z M9.98122222,4.15440467 L9.04788889,3.19440467 L4.19611111,8.18480467 L5.12944444,9.14480467 L9.982,4.15440467 L9.98122222,4.15440467 Z M2.51455556,7.22560467 L2.21588889,9.37520467 C2.18700207,9.50397837 2.22452419,9.63898221 2.31521937,9.73259371 C2.40591454,9.82620522 2.53703696,9.86526874 2.66233333,9.83600467 L4.75377778,9.52880467 L2.51455556,7.22560467 Z M0.263666667,11.6992047 C0.118047588,11.6992047 0,11.5777843 0,11.4280047 C0,11.278225 0.118047588,11.1568047 0.263666667,11.1568047 L13.4617778,11.1568047 C13.6073969,11.1568047 13.7254444,11.278225 13.7254444,11.4280047 C13.7254444,11.5777843 13.6073969,11.6992047 13.4617778,11.6992047 L0.263666667,11.6992047 Z" id="path-1"></path>
    </defs>
    <g id="Add-Products" stroke="none" stroke-width="1" fill="none" fill-rule="evenodd">
        <g id="7.0" transform="translate(-323.000000, -532.000000)">
            <g id="Monicas-trattoria" transform="translate(37.000000, 263.000000)">
                <g id="Edit" transform="translate(286.000000, 269.000000)">
                    <mask id="mask-2" fill="white">
                        <use xlink:href="#path-1"></use>
                    </mask>
                    <use id="Path_21706" fill="#000000" xlink:href="#path-1"></use>
                </g>
            </g>
        </g>
    </g>
</svg>