<?xml version="1.0" encoding="UTF-8"?>
<svg width="18px" height="18px" viewBox="0 0 18 18" version="1.1" xmlns="http://www.w3.org/2000/svg" xmlns:xlink="http://www.w3.org/1999/xlink">
    <title>preparation_time</title>
    <g id="Add-Products" stroke="none" stroke-width="1" fill="none" fill-rule="evenodd">
        <g id="7.4" transform="translate(-58.000000, -1119.000000)" fill="#000000" fill-rule="nonzero">
            <g id="type" transform="translate(37.000000, 1119.000000)">
                <g id="preparation_time" transform="translate(21.000000, 0.000000)">
                    <path d="M7.96463033,7.6877382 C7.6853344,7.9026162 7.48468396,8.20359186 7.39375655,8.54404888 C7.26122203,9.03481362 7.36508028,9.55931171 7.67463761,9.96253583 C7.98419494,10.3657599 8.46405306,10.6016009 8.97239732,10.6003644 L8.97239732,10.6003644 C9.87321129,10.6003644 10.6034653,9.87010556 10.6034653,8.9692916 C10.6034653,8.06847764 9.87321129,7.33822364 8.97239732,7.33822364 C8.76492352,7.33859014 8.5593834,7.37811708 8.36657208,7.45472849 L6.08890218,3.54016538 C6.0510189,3.46118216 5.97203821,3.41011951 5.88446555,3.4079239 C5.79689289,3.40586629 5.71552675,3.45303507 5.67385433,3.53008636 C5.63218191,3.60713766 5.63724523,3.70105095 5.68696043,3.77317509 L7.96463033,7.6877382 Z M9.98016431,8.38676733 C10.2978604,8.94386746 10.1082721,9.65287567 9.5549216,9.97705859 C9.3784763,10.0810414 9.17720033,10.1353859 8.97239732,10.134355 C8.55626909,10.1351202 8.17164854,9.91279618 7.96463033,9.55181587 C7.75662084,9.19153336 7.75650689,8.7476735 7.96433136,8.38728424 C8.17215584,8.02689498 8.55637899,7.80466951 8.97239732,7.80424101 C9.38852556,7.803463 9.77314611,8.02578702 9.98016431,8.38676733 Z" id="Shape"></path>
                    <path d="M16.7374459,4.4838547 C15.0899899,1.62430321 12.0030525,-0.0971289334 8.70443616,0.00424305357 C8.64417651,0.00576835059 8.58699331,0.0311793952 8.54547622,0.0748815971 C8.50395913,0.118583799 8.48151202,0.176994133 8.48307694,0.237252762 L8.48307694,2.96346635 C8.48145845,3.02574644 8.50548751,3.08595841 8.54954105,3.13001195 C8.59359459,3.17406549 8.65380656,3.19809455 8.71608664,3.19647606 C8.84477435,3.19647606 8.94909635,3.09215406 8.94909635,2.96346635 L8.94909635,0.464437228 L8.96657208,0.464437228 C13.2382843,0.458712927 16.8524142,3.62044202 17.4146243,7.85499956 C17.9768345,12.0895571 15.3129159,16.0848048 11.1876974,17.193917 C7.0624789,18.3030293 2.75421845,16.1823318 1.11711056,12.2367728 C-0.519997324,8.29121384 1.02132868,3.74338137 4.71997014,1.6061848 C4.79895337,1.56830152 4.85001601,1.48932083 4.85214262,1.40174817 C4.85426924,1.31417552 4.80710046,1.23280937 4.73004916,1.19113695 C4.65299787,1.14946453 4.55908457,1.15452786 4.48696043,1.20424305 C1.343859,3.01823789 -0.396734036,6.54722619 0.0770526904,10.1451687 C0.550839417,13.7431111 3.14566812,16.7011994 6.65122308,17.6396813 C10.156778,18.5781633 13.8824516,17.3121542 16.0904639,14.4321637 C18.2984762,11.5521731 18.5538403,7.62557002 16.7374459,4.4838547 L16.7374459,4.4838547 Z" id="Path"></path>
                </g>
            </g>
        </g>
    </g>
</svg>