<?xml version="1.0" encoding="UTF-8"?>
<svg width="19px" height="10px" viewBox="0 0 19 10" version="1.1" xmlns="http://www.w3.org/2000/svg" xmlns:xlink="http://www.w3.org/1999/xlink">
    <title>restaurant_icon</title>
    <g id="Profile" stroke="none" stroke-width="1" fill="none" fill-rule="evenodd">
        <g id="4.1" transform="translate(-57.000000, -370.000000)" fill="#000000" fill-rule="nonzero">
            <g id="Address" transform="translate(37.000000, 343.000000)">
                <g id="restaurant_icon" transform="translate(20.000000, 27.000000)">
                    <path d="M18.2061281,9.55944373 L11.3364903,9.55944373 C13.3806282,8.7205462 14.7106294,6.77141228 14.7130919,4.61099012 L14.7130919,3.57490765 C15.2966401,4.38873709 16.3548936,4.73967692 17.3270991,4.44176921 C18.2993047,4.1438615 18.9606175,3.26600424 18.9606175,2.27336126 C18.9606175,1.28071828 18.2993047,0.402861011 17.3270991,0.104953302 C16.3548936,-0.192954406 15.2966401,0.157985424 14.7130919,0.971814864 L14.7130919,0.208928266 C14.7130919,0.0950551219 14.618311,0.00274269922 14.5013928,0.00274269922 L3.91643454,0.00274269922 C3.79951632,0.00274269922 3.70473538,0.0950551219 3.70473538,0.208928266 L3.70473538,4.7656293 C3.70473538,6.94604167 5.04902507,8.77078394 7.01253482,9.55944373 L0.211699164,9.55944373 C0.0947809443,9.55944373 0,9.65175615 0,9.7656293 C0,9.87950244 0.0947809443,9.97181486 0.211699164,9.97181486 L18.2061281,9.97181486 C18.3230464,9.97181486 18.4178273,9.87950244 18.4178273,9.7656293 C18.4178273,9.65175615 18.3230464,9.55944373 18.2061281,9.55944373 Z M16.6183844,0.415113833 C17.6706484,0.415113833 18.5236769,1.24592564 18.5236769,2.27078394 C18.5236769,3.29564223 17.6706484,4.12645404 16.6183844,4.12645404 C15.5661204,4.12645404 14.7130919,3.29564223 14.7130919,2.27078394 C14.7130919,1.77862963 14.9138275,1.30663267 15.2711392,0.958627023 C15.6284508,0.610621372 16.1130694,0.415113833 16.6183844,0.415113833 L16.6183844,0.415113833 Z M9.01309192,9.55944373 C6.25571031,9.46150559 4.1281337,7.39449528 4.1281337,4.7656293 L4.1281337,0.415113833 L14.2896936,0.415113833 L14.2896936,4.61099012 C14.2888763,7.27201206 12.1295974,9.45699035 9.3994429,9.55944373 L9.01309192,9.55944373 Z" id="Shape"></path>
                </g>
            </g>
        </g>
    </g>
</svg>
