<svg xmlns="http://www.w3.org/2000/svg" xmlns:xlink="http://www.w3.org/1999/xlink" width="21" height="19" viewBox="0 0 21 19">
    <defs>
        <path id="fcdbepmn5a" d="M10.976 13h2.991c.267-.002.523.102.713.29.19.187.296.443.296.71 0 .266-.106.522-.295.71-.19.187-.446.292-.712.29H10c-1.166-1.017-4-3.5-4-3.5-.276-.276-.636-.452-1.023-.5-.672.075-1.24.53-1.459 1.17L2 19H0l1.566-7.264C1.841 10.089 3.31 8.911 4.977 9c.713-.01 1.414.187 2.017.569.993.865 3.982 3.431 3.982 3.431zM19 9l-3 10h2l3-10h-2zM5.976 6c1.105 0 2-.895 2-2s-.895-2-2-2-2 .895-2 2 .895 2 2 2zm0 2c-2.21 0-4-1.79-4-4s1.79-4 4-4 4 1.79 4 4-1.79 4-4 4z"/>
    </defs>
    <g fill="none" fill-rule="evenodd">
        <g>
            <g>
                <g transform="translate(-61 -384) translate(37 361) translate(24 23)">
                    <use fill="#707070" xlink:href="#fcdbepmn5a"/>
                </g>
            </g>
        </g>
    </g>
</svg>
