<svg xmlns="http://www.w3.org/2000/svg" width="16" height="15" viewBox="0 0 16 15">
<g fill="none" fill-rule="evenodd">
    <g fill="#000" fill-rule="nonzero">
        <g>
            <path d="M33.512 30.372c-.405-.107-.756-.194-.912-.267-.473-.208-.473-1.048-.459-1.339.396-.436.693-1.13.913-2.115.205-.097.36-.31.463-.485.249-.437.43-1.106.288-1.552-.087-.262-.263-.485-.498-.631 0-.223 0-.718-.01-1.097C33.22 20.141 30.558 20 30.006 20h-.01c-.551 0-3.215.14-3.288 2.886-.014.379-.01.874-.01 1.097-.236.144-.412.368-.497.63-.146.447.034 1.116.283 1.553.102.175.263.388.463.485.22.985.522 1.679.913 2.115.014.291.014 1.13-.459 1.34-.156.072-.507.16-.912.266C24.81 30.809 22 31.536 22 33.258v1.548c0 .107.087.194.195.194.108 0 .195-.087.195-.194v-1.548c0-1.426 2.732-2.13 4.2-2.513.44-.111.786-.203.971-.286.717-.32.717-1.358.683-1.79-.006-.045-.024-.087-.054-.121-.38-.388-.668-1.072-.883-2.081-.018-.073-.077-.13-.15-.146-.074-.02-.2-.116-.333-.35-.234-.407-.346-.95-.253-1.241.064-.198.207-.36.395-.451.073-.03.122-.1.122-.18 0-.01-.005-.708.01-1.198.058-2.329 2.224-2.513 2.897-2.513h.01c.673 0 2.839.184 2.902 2.513.01.49.005 1.189.005 1.198 0 .08.049.15.122.18.19.089.333.252.395.45.093.292-.014.835-.249 1.243-.136.233-.263.33-.336.35-.073.015-.13.072-.146.145-.22 1.009-.508 1.693-.888 2.08-.03.035-.048.077-.054.122-.034.432-.034 1.47.683 1.79.185.083.537.175.976.286 1.463.384 4.195 1.087 4.195 2.513v1.548c0 .107.087.194.195.194.108 0 .195-.087.195-.194v-1.548c0-1.722-2.81-2.45-4.488-2.886z" transform="translate(-58 -319) translate(36 299)"/>
        </g>
    </g>
</g>
</svg>
