<svg width="105" height="90" xmlns="http://www.w3.org/2000/svg">
    <g fill-rule="nonzero" fill="none">
        <path d="M66.567 4.871h-6.494a.812.812 0 1 1 0-1.624h6.494a.812.812 0 1 1 0 1.624z" fill="#263238"/>
        <path d="M63.32 8.118a.812.812 0 0 1-.812-.812V.812a.812.812 0 1 1 1.624 0v6.494a.811.811 0 0 1-.812.812zM53.578 13.801h-6.494a.812.812 0 1 1 0-1.624h6.494a.812.812 0 1 1 0 1.624z" fill="#263238"/>
        <path d="M50.331 17.048a.812.812 0 0 1-.812-.812V9.742a.812.812 0 1 1 1.624 0v6.494a.811.811 0 0 1-.812.812zM54.02 29.048a.811.811 0 0 1-.427-1.5l14.52-8.962a21.114 21.114 0 0 1 21.473-.416l5.442 3.077a11.376 11.376 0 0 0 5.592 1.471h2.479a.812.812 0 0 1 0 1.624h-2.479c-2.24 0-4.441-.58-6.392-1.68l-5.442-3.077a19.485 19.485 0 0 0-19.82.382l-14.52 8.963a.824.824 0 0 1-.426.118z" fill="#263238"/>
        <path d="M77.605 53.567H67.381a5.683 5.683 0 0 1 0-11.365h4.84a6.533 6.533 0 0 0 6.525-6.525 6.524 6.524 0 0 0-9.881-5.6l-5.124 3.075a.812.812 0 0 1-.836-1.393l5.124-3.075a8.149 8.149 0 0 1 12.341 6.988 8.157 8.157 0 0 1-8.149 8.149h-4.84a4.059 4.059 0 1 0 0 8.118h10.224a11.339 11.339 0 0 0 6.145-1.8l4.347-2.796c2.75-1.77 5.95-2.71 9.219-2.708h5.781a.812.812 0 0 1 0 1.624h-5.782a15.368 15.368 0 0 0-8.341 2.452l-4.346 2.794a12.974 12.974 0 0 1-7.023 2.062zM31.66 19.469h-1.623a.812.812 0 1 1 0-1.624h1.624a.812.812 0 1 1 0 1.624h-.001zM26.79 19.469H8.93a.812.812 0 1 1 0-1.624h17.86a.812.812 0 0 1 0 1.624zM18.672 24.34H.812a.812.812 0 1 1 0-1.624h17.86a.812.812 0 0 1 0 1.624zM44.323 70.134a15.417 15.417 0 1 1 10.906-4.51 15.384 15.384 0 0 1-10.906 4.51zm0-29.211a13.793 13.793 0 1 0 .02 27.584 13.793 13.793 0 0 0-.02-27.583v-.001z" fill="#263238"/>
        <circle transform="rotate(-45 76.845 1.294)" cx="16.073" cy="16.073" r="11.365" fill="#FFB800"/>
        <path d="M28.824 74.473a.811.811 0 0 1-.575-1.385l6.314-6.314-2.3-2.3-6.314 6.316a.812.812 0 1 1-1.148-1.148l6.889-6.889a.834.834 0 0 1 1.148 0l3.445 3.445a.812.812 0 0 1 0 1.148l-6.886 6.89a.809.809 0 0 1-.573.237zM16.768 89.298a2.433 2.433 0 0 1-1.723-.711l-4.591-4.593a2.44 2.44 0 0 1 0-3.445l9.187-9.185a2.5 2.5 0 0 1 3.444 0l4.593 4.592a2.44 2.44 0 0 1 0 3.444l-9.187 9.184a2.423 2.423 0 0 1-1.723.714zm-5.166-6.452 4.592 4.592a.812.812 0 0 0 1.148 0l9.185-9.185a.815.815 0 0 0 0-1.148l-4.592-4.592a.831.831 0 0 0-1.148 0L11.6 81.698a.811.811 0 0 0 0 1.148h.002z" fill="#263238"/>
        <path d="M28.824 74.473a.811.811 0 0 1-.575-1.385l6.314-6.314-2.3-2.3-6.314 6.316a.812.812 0 1 1-1.148-1.148l6.889-6.889a.834.834 0 0 1 1.148 0l3.445 3.445a.812.812 0 0 1 0 1.148l-6.886 6.89a.809.809 0 0 1-.573.237z" fill="#263238"/>
        <path d="m11.029 83.421 4.592 4.592a1.622 1.622 0 0 0 2.3 0l9.185-9.185a1.622 1.622 0 0 0 0-2.3l-4.592-4.592a1.622 1.622 0 0 0-2.3 0l-9.185 9.189a1.622 1.622 0 0 0 0 2.296z" fill="#FFB800"/>
        <path d="M16.768 89.298a2.433 2.433 0 0 1-1.723-.711l-4.591-4.593a2.44 2.44 0 0 1 0-3.445l9.187-9.185a2.5 2.5 0 0 1 3.444 0l4.593 4.592a2.44 2.44 0 0 1 0 3.444l-9.187 9.184a2.423 2.423 0 0 1-1.723.714zm-5.166-6.452 4.592 4.592a.812.812 0 0 0 1.148 0l9.185-9.185a.815.815 0 0 0 0-1.148l-4.592-4.592a.831.831 0 0 0-1.148 0L11.6 81.698a.811.811 0 0 0 0 1.148h.002zM59.747 88.473l-30.85-.007a4.889 4.889 0 0 1-4.407-2.825.811.811 0 0 1 1.471-.685 3.261 3.261 0 0 0 2.937 1.887l30.849.011a3.251 3.251 0 0 0 3.247-3.247v-28.47a.812.812 0 0 1 1.624 0v28.465a4.876 4.876 0 0 1-4.871 4.871zM24.84 66.977a.812.812 0 0 1-.812-.812v-26.4a4.877 4.877 0 0 1 4.871-4.871h30.849a4.877 4.877 0 0 1 4.871 4.871v.865a.812.812 0 0 1-1.624 0v-.865a3.251 3.251 0 0 0-3.247-3.247H28.899a3.251 3.251 0 0 0-3.247 3.247v26.4a.812.812 0 0 1-.812.812z" fill="#263238"/>
        <g transform="translate(38.641 47.411)">
            <circle fill="#FFF" cx="5.683" cy="5.683" r="4.871"/>
            <path d="M5.683 11.365a5.683 5.683 0 1 1 0-11.366 5.683 5.683 0 0 1 0 11.366zm0-9.742a4.059 4.059 0 1 0 4.059 4.059 4.064 4.064 0 0 0-4.059-4.058v-.001z" fill="#263238"/>
        </g>
        <path d="M44.351 57.964a8.1 8.1 0 0 0-7.561 5.22 11.348 11.348 0 0 0 15.122 0 8.1 8.1 0 0 0-7.561-5.22z" fill="#FFF"/>
        <path d="M44.35 66.885c-2.99 0-5.874-1.104-8.1-3.1a.812.812 0 0 1-.216-.9 8.9 8.9 0 0 1 16.639 0 .818.818 0 0 1-.216.9 12.135 12.135 0 0 1-8.107 3.1zm-6.579-3.933a10.53 10.53 0 0 0 13.159 0 7.273 7.273 0 0 0-13.159 0zM51.629 33.269a.812.812 0 0 1-.812-.812v-.812a3.251 3.251 0 0 0-3.247-3.247h-6.494a3.251 3.251 0 0 0-3.247 3.247v.812a.812.812 0 1 1-1.624 0v-.812a4.877 4.877 0 0 1 4.871-4.871h6.494a4.877 4.877 0 0 1 4.871 4.871v.812a.811.811 0 0 1-.812.812z" fill="#263238"/>
        <path d="M46.759 31.646h-4.871a.812.812 0 1 1 0-1.624h4.871a.812.812 0 1 1 0 1.624z" fill="#263238"/>
        <g fill="#263238">
            <path d="M52.441 76.637H36.205a.812.812 0 1 1 0-1.624h16.236a.812.812 0 0 1 0 1.624z"/>
        </g>
        <g fill="#263238">
            <path d="M50.817 81.508H37.829a.812.812 0 1 1 0-1.624h12.988a.812.812 0 0 1 0 1.624z"/>
        </g>
    </g>
</svg>
